<svg width="35" height="42" viewBox="0 0 35 42" fill="none" xmlns="http://www.w3.org/2000/svg">
<g id="freepik--speech-bubble--inject-88">
<path id="Vector" d="M27.8867 0H7.13508C5.24274 0 3.4279 0.751728 2.08981 2.08981C0.751728 3.4279 0 5.24273 0 7.13507V27.2876C0.00144255 29.1795 0.753636 30.9935 2.09141 32.3312C3.42918 33.669 5.24318 34.4212 7.13508 34.4227H15.403L17.5817 41.9553L20.1797 34.4227H27.8649C29.7573 34.4227 31.5721 33.6709 32.9102 32.3328C34.2483 30.9948 35 29.1799 35 27.2876V7.13507C35.0014 5.24606 34.2532 3.43369 32.9195 2.09591C31.5858 0.758141 29.7757 0.00432873 27.8867 0Z" fill="#4D4295"/>
<path id="Vector_2" opacity="0.7" d="M27.8867 0H7.13508C5.24274 0 3.4279 0.751728 2.08981 2.08981C0.751728 3.4279 0 5.24273 0 7.13507V27.2876C0.00144255 29.1795 0.753636 30.9935 2.09141 32.3312C3.42918 33.669 5.24318 34.4212 7.13508 34.4227H15.403L17.5817 41.9553L20.1797 34.4227H27.8649C29.7573 34.4227 31.5721 33.6709 32.9102 32.3328C34.2483 30.9948 35 29.1799 35 27.2876V7.13507C35.0014 5.24606 34.2532 3.43369 32.9195 2.09591C31.5858 0.758141 29.7757 0.00432873 27.8867 0Z" fill="white"/>
<path id="Vector_3" d="M10.3046 13.1754C12.102 10.1634 15.6368 11.269 17.4832 13.5675C19.2697 11.22 22.7664 10.0272 24.6455 12.9902C27.8155 17.9902 21.481 22.7396 18.4854 24.6078C18.1477 24.8202 17.8645 25 17.6303 25.1525C17.3906 25.0218 17.0856 24.8529 16.7643 24.646C13.7196 22.8431 7.26535 18.2516 10.3046 13.1754Z" fill="#4D4295"/>
</g>
</svg>
