<svg width="151" height="293" viewBox="0 0 151 293" fill="none" xmlns="http://www.w3.org/2000/svg">
<g clip-path="url(#clip0_376_683)">
<circle cx="75.4216" cy="20.1032" r="20.1032" fill="#4D4295"/>
<path d="M76.9886 24.0413H74.6939V14.6354H72.3729V13.0124L76.9886 12.6111V24.0413Z" fill="white"/>
<path d="M150.052 165.136L143.758 165.265L140.565 165.323C139.5 165.323 138.427 165.323 137.358 165.347H137.142V165.136L137.118 159.771V159.541H137.358L143.705 159.57C145.819 159.57 147.938 159.623 150.052 159.646H150.182V159.776C150.182 160.682 150.143 161.588 150.119 162.485L150.052 165.136ZM150.052 165.136L149.985 162.422C149.985 161.531 149.928 160.648 149.923 159.771L150.052 159.901C147.938 159.925 145.819 159.977 143.705 159.977L137.358 160.006L137.597 159.771L137.568 165.136L137.358 164.92C138.403 164.92 139.448 164.92 140.493 164.92L143.647 164.978L150.052 165.136Z" fill="#EBEBEB"/>
<path d="M142.972 50.8107L136.677 50.945L133.484 50.9977C132.42 50.9977 131.346 50.9977 130.277 51.0265H130.08V50.8107V45.4461V45.2064H130.325L136.672 45.2352C138.786 45.2352 140.9 45.2927 143.019 45.3167H143.149V45.4413C143.149 46.3522 143.106 47.2583 143.087 48.15L142.972 50.8107ZM142.972 50.8107L142.904 48.1021C142.88 47.2056 142.847 46.3234 142.837 45.4461L142.972 45.5756C140.853 45.5756 138.738 45.6523 136.624 45.6571L130.277 45.6858L130.516 45.4461L130.488 50.8107L130.277 50.595C131.322 50.595 132.362 50.595 133.412 50.6237L136.567 50.6765L142.972 50.8107Z" fill="#EBEBEB"/>
<path d="M150.052 57.5758L143.758 57.7101L140.565 57.7628C139.5 57.7628 138.427 57.7628 137.358 57.7916H137.142V57.5758L137.118 52.2112V51.9715H137.358L143.705 52.0003C145.819 52.0003 147.938 52.0578 150.052 52.0818H150.182V52.2112C150.182 53.1221 150.143 54.0282 150.119 54.9199L150.052 57.5758ZM150.052 57.5758L149.985 54.8672C149.985 53.9707 149.928 53.0886 149.923 52.2112L150.052 52.3407C147.938 52.3407 145.819 52.4174 143.705 52.4222L137.358 52.4509L137.597 52.2112L137.568 57.5758L137.358 57.3601C138.403 57.3601 139.448 57.3601 140.493 57.3889L143.647 57.4416L150.052 57.5758Z" fill="#EBEBEB"/>
<path d="M47.78 128.983L41.4902 129.113L38.2973 129.17C37.2282 129.17 36.1543 129.17 35.0853 129.17H34.8743V128.959L34.8503 123.595V123.35H35.09L41.4374 123.379C43.5516 123.379 45.6706 123.432 47.7848 123.456H47.919V123.585C47.919 124.491 47.8807 125.397 47.8567 126.294L47.78 128.983ZM47.78 128.983L47.7129 126.27C47.6889 125.378 47.6602 124.496 47.6506 123.619L47.78 123.748C45.6658 123.748 43.5468 123.825 41.4326 123.825L35.0853 123.859L35.325 123.619V128.983L35.1092 128.768C36.1543 128.768 37.1994 128.768 38.2494 128.796L41.3895 128.859L47.78 128.983Z" fill="#EBEBEB"/>
<path d="M146.423 48.7823H114.02V88.0891H146.423V48.7823Z" fill="#EBEBEB"/>
<path d="M142.722 52.3693H117.721V84.4993H142.722V52.3693Z" fill="white"/>
<path d="M118.694 52.3693H117.721V84.4993H118.694V52.3693Z" fill="#C7C7C7"/>
<path d="M147.396 48.7823H146.423V88.0891H147.396V48.7823Z" fill="#C7C7C7"/>
<path d="M130.775 77.3601H136.672V59.7993H130.775V77.3601Z" fill="#EBEBEB"/>
<path d="M139.486 65.6439H123.287V56.5352H139.486V65.6439ZM123.767 65.1645H139.007V57.0146H123.767V65.1645Z" fill="#EBEBEB"/>
<path d="M146.423 145.648H114.02V184.954H146.423V145.648Z" fill="#EBEBEB"/>
<path d="M142.722 149.238H117.721V181.368H142.722V149.238Z" fill="white"/>
<path d="M118.694 149.238H117.721V181.368H118.694V149.238Z" fill="#C7C7C7"/>
<path d="M147.396 145.648H146.423V184.954H147.396V145.648Z" fill="#C7C7C7"/>
<path d="M131.998 156.669H126.101V174.23H131.998V156.669Z" fill="#EBEBEB"/>
<path d="M139.486 162.513H123.287V153.428H139.486V162.513ZM123.767 162.034H139.007V153.908H123.767V162.034Z" fill="#EBEBEB"/>
<path d="M146.423 97.3954H114.02V136.702H146.423V97.3954Z" fill="#EBEBEB"/>
<path d="M142.722 100.981H117.721V133.111H142.722V100.981Z" fill="white"/>
<path d="M118.694 100.981H117.721V133.111H118.694V100.981Z" fill="#C7C7C7"/>
<path d="M147.396 97.3954H146.423V136.702H147.396V97.3954Z" fill="#C7C7C7"/>
<path d="M132.846 109.284H127.798V122.051H132.846V109.284Z" fill="#EBEBEB"/>
<path d="M138.408 126.087H124.361V116.805H138.408V126.087ZM124.84 125.607H137.928V117.285H124.84V125.607Z" fill="#DBDBDB"/>
<path d="M150.776 64.1239H74.1906V162.389H150.776V64.1239Z" fill="white"/>
<path d="M150.776 162.389L74.1905 162.442H74.1378V162.389L74.0707 64.1101V63.9951H74.1905L150.776 64.043H150.843V64.1389L150.776 162.389ZM150.776 162.389L150.695 64.1389L150.762 64.2108L74.1761 64.2587L74.296 64.1389L74.2289 162.418L74.1761 162.365L150.776 162.389Z" fill="#263238"/>
<path d="M81.9954 71.9676C81.801 72.0874 81.5891 72.1764 81.3674 72.2313C81.0873 72.3002 80.7962 72.3124 80.5114 72.2671C80.2265 72.2218 79.9535 72.12 79.7086 71.9676C79.3071 71.7189 78.9975 71.3461 78.8269 70.9057C78.6563 70.4652 78.6339 69.9812 78.7632 69.5269C78.8925 69.0726 79.1664 68.6728 79.5433 68.3882C79.9202 68.1035 80.3797 67.9495 80.852 67.9495C81.3244 67.9495 81.7838 68.1035 82.1607 68.3882C82.5377 68.6728 82.8115 69.0726 82.9408 69.5269C83.0701 69.9812 83.0477 70.4652 82.8771 70.9057C82.7065 71.3461 82.397 71.7189 81.9954 71.9676Z" fill="#37474F"/>
<path d="M81.5112 69.892C81.5112 70.0228 81.4724 70.1507 81.3997 70.2595C81.327 70.3683 81.2236 70.4531 81.1028 70.5032C80.9819 70.5533 80.8488 70.5664 80.7205 70.5408C80.5922 70.5153 80.4743 70.4523 80.3818 70.3598C80.2892 70.2672 80.2262 70.1494 80.2007 70.021C80.1752 69.8927 80.1883 69.7597 80.2383 69.6388C80.2884 69.5179 80.3732 69.4146 80.482 69.3419C80.5908 69.2692 80.7187 69.2304 80.8496 69.2304C81.025 69.2304 81.1933 69.3001 81.3174 69.4241C81.4415 69.5482 81.5112 69.7165 81.5112 69.892Z" fill="white"/>
<path d="M81.9955 71.6934V71.9667C81.8011 72.0865 81.5892 72.1754 81.3675 72.2304C81.0874 72.2993 80.7963 72.3115 80.5115 72.2662C80.2266 72.2209 79.9537 72.1191 79.7087 71.9667V71.6934C79.7276 71.403 79.8562 71.1306 80.0686 70.9315C80.2809 70.7325 80.5611 70.6217 80.8521 70.6217C81.1432 70.6217 81.4233 70.7325 81.6357 70.9315C81.8481 71.1306 81.9767 71.403 81.9955 71.6934Z" fill="white"/>
<path d="M143.734 69.8911C143.788 69.891 143.839 69.9121 143.878 69.9497C143.916 69.9874 143.939 70.0386 143.94 70.0924C143.94 70.1193 143.934 70.1458 143.924 70.1706C143.914 70.1953 143.898 70.2177 143.879 70.2365C143.86 70.2553 143.837 70.27 143.812 70.2798C143.787 70.2897 143.761 70.2944 143.734 70.2938C143.68 70.2938 143.629 70.2725 143.591 70.2348C143.554 70.197 143.532 70.1458 143.532 70.0924C143.532 70.039 143.554 69.9878 143.591 69.95C143.629 69.9123 143.68 69.8911 143.734 69.8911Z" fill="black"/>
<path d="M144.362 69.8911C144.416 69.891 144.468 69.9121 144.506 69.9497C144.545 69.9874 144.567 70.0386 144.568 70.0924C144.568 70.1193 144.563 70.1458 144.552 70.1706C144.542 70.1953 144.527 70.2177 144.507 70.2365C144.488 70.2553 144.466 70.27 144.441 70.2798C144.416 70.2897 144.389 70.2944 144.362 70.2938C144.336 70.2938 144.309 70.2885 144.285 70.2784C144.261 70.2683 144.238 70.2535 144.22 70.2348C144.201 70.2161 144.186 70.1939 144.176 70.1695C144.166 70.145 144.161 70.1188 144.161 70.0924C144.161 70.066 144.166 70.0398 144.176 70.0153C144.186 69.9909 144.201 69.9687 144.22 69.95C144.238 69.9313 144.261 69.9165 144.285 69.9064C144.309 69.8963 144.336 69.8911 144.362 69.8911Z" fill="black"/>
<path d="M144.99 69.8911C145.017 69.8905 145.043 69.8952 145.068 69.905C145.093 69.9149 145.116 69.9296 145.135 69.9484C145.154 69.9671 145.17 69.9895 145.18 70.0143C145.191 70.039 145.196 70.0656 145.196 70.0925C145.197 70.1334 145.186 70.1737 145.164 70.2083C145.141 70.2428 145.11 70.27 145.072 70.2863C145.034 70.3026 144.993 70.3074 144.953 70.3C144.912 70.2926 144.875 70.2734 144.846 70.2447C144.816 70.2161 144.796 70.1794 144.788 70.1393C144.78 70.0992 144.783 70.0575 144.799 70.0195C144.814 69.9816 144.841 69.9491 144.875 69.9262C144.909 69.9033 144.949 69.8911 144.99 69.8911Z" fill="black"/>
<path d="M85.2745 70.0791C86.3436 69.9785 87.4127 69.9353 88.4818 69.897C89.5509 69.8586 90.62 69.8442 91.689 69.8394C92.7581 69.8346 93.8272 69.8394 94.8963 69.897L96.5023 69.9641C97.0392 70.0024 97.5714 70.0264 98.1083 70.0791C97.5714 70.1319 97.0392 70.1558 96.5023 70.199L94.8963 70.2661C93.8272 70.3093 92.7581 70.314 91.689 70.3188C90.62 70.3236 89.5509 70.3188 88.4818 70.2613C87.4127 70.2038 86.3436 70.1798 85.2745 70.0791Z" fill="#263238"/>
<path d="M148.494 76.0809H76.4775V139.291H148.494V76.0809Z" fill="#EBEBEB"/>
<path d="M82.6426 146.065C82.3451 146.564 81.9659 147.01 81.5208 147.383C81.2816 147.592 81.032 147.789 80.7729 147.973H80.5715C79.8268 147.465 79.1911 146.813 78.7018 146.055C78.5154 145.76 78.4062 145.423 78.3844 145.074C78.3626 144.726 78.4289 144.377 78.5772 144.061C78.6652 143.908 78.7936 143.782 78.9484 143.698C79.1032 143.613 79.2783 143.573 79.4545 143.582C79.7177 143.593 79.9723 143.679 80.188 143.83C80.4038 143.981 80.5718 144.191 80.6722 144.435C80.7731 144.192 80.9412 143.982 81.1569 143.831C81.3726 143.68 81.6268 143.593 81.8899 143.582C82.0664 143.575 82.2413 143.616 82.3964 143.701C82.5516 143.785 82.6813 143.909 82.772 144.061C82.92 144.379 82.9857 144.729 82.963 145.079C82.9404 145.43 82.8302 145.768 82.6426 146.065Z" fill="#4D4295"/>
<path d="M96.3874 148.222L96.0757 148.164L95.4381 145.767L93.9615 144.2L94.091 143.902H99.2926L99.4364 144.185L96.3874 148.222ZM94.4697 144.228L95.7018 145.575L95.745 145.647L96.3011 147.723L98.9186 144.228H94.4697Z" fill="#EBEBEB"/>
<path d="M99.383 143.833L95.3604 145.618L95.5043 145.943L99.5269 144.158L99.383 143.833Z" fill="#EBEBEB"/>
<path d="M88.5346 148.002C88.0962 147.999 87.6685 147.867 87.3054 147.621C86.9423 147.375 86.66 147.028 86.4942 146.622C86.3284 146.216 86.2865 145.77 86.3738 145.341C86.461 144.911 86.6736 144.517 86.9846 144.208C87.2955 143.899 87.6911 143.689 88.1212 143.604C88.5514 143.52 88.997 143.565 89.4017 143.733C89.8065 143.901 90.1523 144.186 90.3956 144.551C90.6388 144.915 90.7687 145.344 90.7687 145.782C90.7681 145.997 90.7358 146.21 90.6728 146.415L91.0084 147.782L90.7974 147.997L89.6277 147.719C89.2944 147.908 88.9175 148.005 88.5346 148.002ZM88.5346 143.917C88.2475 143.918 87.9644 143.985 87.7074 144.112C87.4503 144.24 87.2262 144.426 87.0525 144.654C86.8788 144.883 86.7603 145.148 86.7061 145.43C86.6519 145.712 86.6635 146.003 86.74 146.28C86.8166 146.556 86.956 146.812 87.1474 147.026C87.3387 147.24 87.5769 147.406 87.8434 147.513C88.1099 147.62 88.3974 147.664 88.6836 147.642C88.9698 147.619 89.247 147.531 89.4935 147.384L89.6277 147.36L90.5865 147.585L90.2893 146.454V146.353C90.3502 146.169 90.381 145.976 90.3804 145.782C90.3791 145.291 90.1849 144.821 89.8396 144.472C89.4942 144.123 89.0255 143.924 88.5346 143.917Z" fill="#EBEBEB"/>
<path d="M143.456 147.968L143.173 147.824V144.056L143.35 143.879H146.414L146.591 144.056V147.824L146.313 147.968L144.875 146.669L143.456 147.968ZM143.528 144.229V147.479L144.779 146.309H144.985L146.236 147.479V144.229H143.528Z" fill="#EBEBEB"/>
<path d="M78.3757 151.478C80.9358 151.377 83.4958 151.334 86.0463 151.296C88.5967 151.257 91.1664 151.257 93.7168 151.238C96.2673 151.219 98.8369 151.238 101.387 151.291L105.223 151.358C106.507 151.401 107.788 151.42 109.058 151.478C107.778 151.531 106.498 151.555 105.223 151.593L101.387 151.66C98.8273 151.698 96.2673 151.698 93.7168 151.718C91.1664 151.737 88.5967 151.718 86.0463 151.66C83.4958 151.602 80.9358 151.574 78.3757 151.478Z" fill="#EBEBEB"/>
<path d="M78.3757 155.16C83.213 155.064 88.0454 155.016 92.8779 154.978L107.38 154.92L121.877 154.978L129.126 155.045L136.38 155.16L129.126 155.28L121.877 155.347L107.38 155.4L92.8779 155.347C88.0454 155.309 83.213 155.261 78.3757 155.16Z" fill="#EBEBEB"/>
<path d="M78.3757 157.005C82.2446 156.904 86.1134 156.856 89.9774 156.818L101.579 156.765L113.181 156.818L118.982 156.885L124.783 157.005L118.982 157.12L113.181 157.187L101.579 157.245L89.9774 157.187C86.1134 157.144 82.2446 157.101 78.3757 157.005Z" fill="#EBEBEB"/>
<path d="M116.177 138.255C116.168 138.602 116.141 138.947 116.096 139.291H108.665C112.054 137.618 115.947 136.343 116.153 137.666C116.178 137.861 116.186 138.059 116.177 138.255Z" fill="#4D4295"/>
<path opacity="0.2" d="M116.177 138.255C116.168 138.602 116.141 138.947 116.096 139.291H108.665C112.054 137.618 115.947 136.343 116.153 137.666C116.178 137.861 116.186 138.059 116.177 138.255Z" fill="black"/>
<path d="M94.4457 139.291H77.0719C77.0104 138.493 76.9912 137.693 77.0144 136.894C77.0204 136.745 77.058 136.6 77.1246 136.467C78.5293 133.432 93.6163 132.795 94.4505 137.014C94.5393 137.77 94.5377 138.535 94.4457 139.291Z" fill="#4D4295"/>
<path opacity="0.2" d="M94.4457 139.291H77.0719C77.0104 138.493 76.9912 137.693 77.0144 136.894C77.0204 136.745 77.058 136.6 77.1246 136.467C78.5293 133.432 93.6163 132.795 94.4505 137.014C94.5393 137.77 94.5377 138.535 94.4457 139.291Z" fill="black"/>
<path d="M128.536 101.14C130.669 98.9121 131.918 95.9844 132.051 92.9033C132.247 87.8024 127.827 80.3092 125.972 79.3792C125.972 79.3792 122.242 87.3374 121.211 95.6024L128.536 101.14Z" fill="#4D4295"/>
<path opacity="0.4" d="M128.536 101.14C130.669 98.9121 131.918 95.9844 132.051 92.9033C132.247 87.8024 127.827 80.3092 125.972 79.3792C125.972 79.3792 122.242 87.3374 121.211 95.6024L128.536 101.14Z" fill="white"/>
<path d="M128.594 99.955C130.317 98.1544 131.329 95.7903 131.442 93.3008C131.6 89.1683 128.019 83.1038 126.518 82.3511C126.518 82.3511 123.498 88.7944 122.683 95.4821L128.594 99.955Z" fill="#4D4295"/>
<path d="M131.955 124.233C130.243 124.933 120.871 123.71 120.871 123.71C120.871 123.71 119.337 125.628 119.26 126.386C119.26 126.472 119.198 126.731 119.107 127.133C118.953 127.819 118.685 128.907 118.359 130.211C117.759 132.575 116.949 135.633 116.177 138.256C116.077 138.611 115.971 138.956 115.871 139.291H76.4775V125.825C78.2849 125.47 80.0587 125.12 81.3483 124.751C83.8461 124.041 91.4878 121.074 95.9799 118.974C96.9563 118.541 97.9042 118.046 98.818 117.493C99.1584 117.272 99.355 117.095 99.3741 116.975C99.494 116.232 100.156 109.304 101.186 104.328C101.258 103.973 101.33 103.633 101.407 103.302C101.781 101.686 102.198 100.368 102.649 99.6873C103.435 98.4983 105.88 97.1176 108.699 96.0054C109.274 95.7801 109.868 95.5644 110.468 95.363C113.824 94.246 117.28 93.6084 119.001 94.1309C119.787 94.3942 120.553 94.7146 121.293 95.0897C122.16 95.5116 123.11 96.0198 124.073 96.5711C125.79 97.5299 127.539 98.6613 128.901 99.6202L129.481 100.032C130.588 100.847 131.332 101.499 131.399 101.792C131.706 102.832 131.269 109.693 131.562 110.162C131.562 110.162 135.162 113.998 137.42 116.423C138.71 117.747 133.666 123.533 131.955 124.233Z" fill="#4D4295"/>
<path opacity="0.4" d="M131.955 124.233C130.243 124.933 120.871 123.71 120.871 123.71C120.871 123.71 119.337 125.628 119.26 126.386C119.26 126.472 119.198 126.731 119.107 127.133C118.953 127.819 118.685 128.907 118.359 130.211C117.759 132.575 116.949 135.633 116.177 138.256C116.077 138.611 115.971 138.956 115.871 139.291H76.4775V125.825C78.2849 125.47 80.0587 125.12 81.3483 124.751C83.8461 124.041 91.4878 121.074 95.9799 118.974C96.9563 118.541 97.9042 118.046 98.818 117.493C99.1584 117.272 99.355 117.095 99.3741 116.975C99.494 116.232 100.156 109.304 101.186 104.328C101.258 103.973 101.33 103.633 101.407 103.302C101.781 101.686 102.198 100.368 102.649 99.6873C103.435 98.4983 105.88 97.1176 108.699 96.0054C109.274 95.7801 109.868 95.5644 110.468 95.363C113.824 94.246 117.28 93.6084 119.001 94.1309C119.787 94.3942 120.553 94.7146 121.293 95.0897C122.16 95.5116 123.11 96.0198 124.073 96.5711C125.79 97.5299 127.539 98.6613 128.901 99.6202L129.481 100.032C130.588 100.847 131.332 101.499 131.399 101.792C131.706 102.832 131.269 109.693 131.562 110.162C131.562 110.162 135.162 113.998 137.42 116.423C138.71 117.747 133.666 123.533 131.955 124.233Z" fill="white"/>
<path d="M118.761 109.927C118.761 109.869 118.632 110.008 118.637 110.071C118.776 111.595 118.637 113.364 117.16 113.954C117.112 113.954 117.122 114.05 117.16 114.04C119.015 113.7 119.154 111.351 118.761 109.927Z" fill="#263238"/>
<path d="M117.174 108.412C114.471 108.374 114.528 113.312 117.035 113.35C119.543 113.389 119.442 108.446 117.174 108.412Z" fill="#263238"/>
<path d="M128.009 109.251C128.009 109.194 128.134 109.309 128.143 109.371C128.273 110.896 128.68 112.621 130.114 112.971C130.157 112.971 130.162 113.058 130.114 113.058C128.407 113.039 127.889 110.718 128.009 109.251Z" fill="#263238"/>
<path d="M129.174 107.506C131.595 107.027 132.362 111.921 130.133 112.353C127.904 112.784 127.151 107.899 129.174 107.506Z" fill="#263238"/>
<path d="M134.04 120.747C133.661 121.179 133.259 121.59 132.837 121.979C132.648 122.164 132.427 122.312 132.185 122.415C132.132 122.554 132.118 122.156 132.185 121.907C132.276 121.356 132.424 120.8 132.568 120.248C132.712 119.697 132.875 119.146 133.048 118.599L132.568 118.412C132.238 119.05 131.907 119.687 131.557 120.33C131.218 120.954 130.845 121.559 130.44 122.142C130.344 122.284 130.237 122.417 130.119 122.54C130.066 122.592 130.01 122.64 129.951 122.684C129.931 122.694 129.909 122.7 129.886 122.7C129.863 122.7 129.841 122.694 129.821 122.684C129.528 122.547 129.278 122.333 129.097 122.065C128.658 121.497 128.261 120.898 127.908 120.272C128.158 120.955 128.48 121.609 128.867 122.223C128.969 122.382 129.085 122.531 129.212 122.669C129.348 122.83 129.523 122.953 129.721 123.024C129.785 123.039 129.852 123.039 129.917 123.024C129.986 123.018 130.053 122.998 130.114 122.967C130.206 122.913 130.293 122.851 130.373 122.78C130.515 122.651 130.646 122.512 130.766 122.362C131.214 121.784 131.619 121.173 131.979 120.536C132.343 119.903 132.688 119.27 133.005 118.618L132.525 118.436C132.362 118.992 132.214 119.553 132.089 120.119C131.947 120.687 131.849 121.266 131.796 121.849C131.781 122.009 131.781 122.169 131.796 122.329C131.801 122.431 131.832 122.53 131.888 122.617C131.932 122.667 131.991 122.702 132.056 122.717C132.121 122.733 132.19 122.728 132.252 122.703C132.539 122.575 132.791 122.379 132.985 122.132C133.372 121.699 133.725 121.235 134.04 120.747Z" fill="#263238"/>
<path d="M132.702 118.931C132.122 118.931 128.814 117.651 129.054 116.931C129.466 115.699 134.807 115.354 135.382 116.236C135.771 116.816 133.436 118.916 132.702 118.931Z" fill="#263238"/>
<path d="M119.389 127.191C119.735 127.306 119.039 129.832 118.761 130.124C118.483 130.417 107.006 130.671 104.619 129.669C102.231 128.667 95.86 119.458 95.9463 118.791C96.0326 118.125 98.1995 116.965 98.5927 117.243C98.9858 117.521 104.787 124.688 106.661 125.436C109.84 126.725 118.574 126.941 119.389 127.191Z" fill="#455A64"/>
<path d="M102.49 105.33C99.2622 103.081 96.9968 99.7015 96.1427 95.8613C94.8052 89.5187 99.0192 79.082 101.229 77.4855C101.229 77.4855 107.792 86.5943 110.899 96.6619L102.49 105.33Z" fill="#4D4295"/>
<path opacity="0.4" d="M102.49 105.33C99.2622 103.081 96.9968 99.7015 96.1427 95.8613C94.8052 89.5187 99.0192 79.082 101.229 77.4855C101.229 77.4855 107.792 86.5943 110.899 96.6619L102.49 105.33Z" fill="white"/>
<path d="M102.164 103.863C99.5492 102.041 97.7133 99.3038 97.0204 96.1927C95.9369 91.0582 99.3311 82.611 101.138 81.331C101.138 81.331 106.455 88.6899 108.972 96.8734L102.164 103.863Z" fill="#4D4295"/>
<path d="M83.3762 139.291H76.4775V136.415C76.6949 136.415 76.9106 136.429 77.1247 136.458C80.2745 136.726 82.9687 137.613 83.3762 139.291Z" fill="#4D4295"/>
<path d="M136.087 90.3344C136.629 93.3787 139.304 95.8668 139.304 95.8668C139.304 95.8668 142.895 95.21 144.99 92.9328C146.73 91.0392 146.735 88.4408 145.158 87.41C142.895 85.9383 140.996 90.0756 140.996 90.0756C140.996 90.0756 141.62 85.5643 138.916 85.5883C137.032 85.6075 135.636 87.7984 136.087 90.3344Z" fill="#4D4295"/>
<path d="M81.703 101.207C83.5871 102.487 86.2718 102.357 86.2718 102.357C86.2718 102.357 87.7723 100.123 87.6477 97.8557C87.547 95.9381 86.1807 94.6245 84.8287 94.9265C82.8871 95.3628 84.0905 98.4886 84.0905 98.4886C84.0905 98.4886 82.0338 95.8422 80.6579 97.2804C79.6991 98.2824 80.1401 100.143 81.703 101.207Z" fill="#4D4295"/>
<path d="M89.062 87.7971C89.6606 88.6702 90.4907 89.3591 91.4591 89.7867C92.3623 89.234 93.0917 88.4382 93.5637 87.4903C94.0431 86.3301 93.6068 85.1412 92.7151 84.935C91.4303 84.6426 91.2769 86.8527 91.2769 86.8527C91.2769 86.8527 90.7975 84.6857 89.575 85.1556C88.7025 85.4768 88.434 86.7136 89.062 87.7971Z" fill="#4D4295"/>
<path d="M64.9956 182.736C64.9956 182.736 55.0575 221.774 51.1263 237.206H11.11C15.6021 221.386 26.6381 182.736 26.6381 182.736H64.9956Z" fill="#37474F"/>
<path d="M82.7865 221.774C82.7865 221.774 83.6782 230.739 84.2967 237.206H46.1213C45.8864 231.636 45.5796 224.55 45.5652 224.545H45.522L43.8489 223.706L37.8275 220.715L37.5782 220.59L34.5196 219.07C34.5196 219.046 34.4573 218.788 34.371 218.322C34.1552 217.205 33.7238 214.914 33.182 212.013C32.5109 208.423 31.6719 203.897 30.8617 199.491C29.3372 191.241 27.9133 183.402 27.8798 182.894C27.8798 182.827 27.8798 182.784 27.8798 182.76H79.5218C79.5218 182.76 88.3237 204.889 82.7865 221.774Z" fill="#37474F"/>
<path d="M50.4984 226.602C48.7341 225.38 46.8357 224.354 44.9708 223.299C43.1059 222.245 41.1355 221.19 39.1412 220.265C35.2627 218.457 31.1686 217.153 27.0888 215.888C26.9833 215.859 26.9162 216.027 27.0169 216.07C30.948 217.757 34.7546 219.689 38.6665 221.425C40.6321 222.297 42.6121 223.131 44.5825 223.999C46.5528 224.867 48.4705 225.85 50.4552 226.679C50.4654 226.685 50.4774 226.686 50.4887 226.683C50.4999 226.68 50.5094 226.672 50.5151 226.662C50.5209 226.652 50.5223 226.64 50.5192 226.629C50.516 226.618 50.5085 226.608 50.4984 226.602Z" fill="#263238"/>
<path d="M39.7357 207.368C39.6877 205.45 39.5487 203.532 39.4528 201.591C39.2275 197.046 39.0549 192.482 38.633 187.942C38.6269 187.909 38.6094 187.879 38.5836 187.858C38.5578 187.836 38.5252 187.824 38.4916 187.824C38.458 187.824 38.4254 187.836 38.3996 187.858C38.3738 187.879 38.3563 187.909 38.3502 187.942C38.2926 191.461 38.4269 194.985 38.4988 198.489C38.5323 200.248 38.5851 202.003 38.633 203.762C38.7305 205.442 38.7417 207.125 38.6666 208.806C38.5755 210.072 38.2974 212.536 36.6435 212.689C35.0854 212.833 34.2464 211.15 33.8389 209.918C32.8513 206.788 32.5014 203.408 32.1802 200.153C31.9932 198.235 31.3891 190.377 31.4946 188.431C31.4946 188.306 31.3076 188.311 31.2981 188.431C31.1926 190.416 31.0823 198.398 31.207 200.378C31.3316 202.296 31.4898 204.18 31.7775 206.064C31.9715 207.785 32.3823 209.475 33 211.093C33.5705 212.425 34.256 213.605 35.7518 213.897C35.9351 213.932 36.1212 213.952 36.3079 213.955C36.3079 214.362 36.3846 214.775 36.4086 215.177C36.4565 215.815 36.5332 216.448 36.6195 217.095C36.7107 217.716 36.8403 218.331 37.0078 218.936C37.142 219.549 37.3598 220.141 37.655 220.695C37.6672 220.712 37.6842 220.725 37.7039 220.732C37.7235 220.738 37.7448 220.739 37.7647 220.733C37.7847 220.727 37.8023 220.716 37.8153 220.699C37.8283 220.683 37.8359 220.663 37.8372 220.643C37.8507 220.033 37.7992 219.424 37.6838 218.826C37.6023 218.207 37.5112 217.584 37.3866 216.97C37.2619 216.357 37.1516 215.767 37.027 215.163C36.9407 214.76 36.888 214.343 36.8113 213.936C37.2938 213.851 37.7479 213.649 38.1328 213.346C38.5177 213.043 38.8214 212.649 39.0166 212.2C39.7165 210.724 39.774 208.974 39.7357 207.368Z" fill="#263238"/>
<path d="M80.2216 204.846C77.465 205.038 74.742 205.393 71.9758 205.067C69.3665 204.8 66.8798 203.825 64.7846 202.248C60.2398 198.724 58.2455 192.952 57.0134 187.539C57.0096 187.514 56.9958 187.491 56.9751 187.476C56.9545 187.46 56.9286 187.454 56.9031 187.458C56.8777 187.462 56.8548 187.475 56.8395 187.496C56.8243 187.517 56.8178 187.543 56.8216 187.568C57.3346 192.262 58.3462 197.118 61.376 200.896C62.6813 202.558 64.3316 203.917 66.2133 204.88C68.212 205.81 70.4001 206.261 72.6038 206.198C75.194 206.177 77.7712 205.829 80.2743 205.162C80.3163 205.155 80.3538 205.132 80.3785 205.097C80.4032 205.063 80.4132 205.02 80.4062 204.978C80.3992 204.936 80.3758 204.898 80.3412 204.874C80.3066 204.849 80.2636 204.839 80.2216 204.846Z" fill="#263238"/>
<path d="M46.5816 237.206H45.896C45.781 235.346 45.6915 233.484 45.6276 231.621C45.5892 230.384 45.5796 229.147 45.5652 227.915C45.5652 226.784 45.5029 225.648 45.5221 224.521V224.425C45.5221 224.349 45.5221 224.277 45.5221 224.205C45.5221 224.188 45.5287 224.172 45.5404 224.161C45.552 224.149 45.5679 224.142 45.5844 224.142C45.601 224.142 45.6168 224.149 45.6285 224.161C45.6402 224.172 45.6467 224.188 45.6467 224.205C45.6467 224.305 45.6707 224.406 45.6803 224.507C45.8337 225.806 45.9104 227.124 46.0255 228.428C46.2412 230.916 46.385 233.405 46.5049 235.902C46.5432 236.334 46.5624 236.77 46.5816 237.206Z" fill="#263238"/>
<path d="M31.3889 106.85C30.9206 107.183 30.5787 107.665 30.4184 108.217C30.2582 108.769 30.289 109.359 30.506 109.891C30.723 110.423 31.1134 110.866 31.6139 111.149C32.1144 111.431 32.6956 111.537 33.2634 111.447C33.2013 111.805 33.2111 112.172 33.2921 112.526C33.4506 113.208 33.8577 113.807 34.4339 114.205C35.0102 114.603 35.7142 114.772 36.4083 114.679C36.3633 114.98 36.3763 115.288 36.4467 115.585C36.5543 116.055 36.793 116.486 37.1352 116.826C37.4773 117.166 37.9088 117.403 38.3799 117.508C38.8509 117.614 39.3421 117.584 39.7966 117.421C40.2512 117.259 40.6505 116.971 40.9483 116.591C41.1446 117.201 41.5633 117.715 42.1211 118.031C42.679 118.346 43.3351 118.44 43.959 118.293C44.3093 118.204 44.6364 118.041 44.9178 117.814C44.9178 117.886 44.9466 117.967 44.961 118.039C45.0853 118.565 45.3727 119.038 45.7822 119.391C46.1917 119.743 46.7022 119.957 47.2406 120.002C47.7791 120.046 48.3178 119.92 48.7798 119.639C49.2418 119.359 49.6033 118.94 49.8126 118.442C50.0313 118.914 50.3891 119.307 50.8378 119.57C51.2866 119.833 51.805 119.952 52.3234 119.912C52.8419 119.872 53.3357 119.674 53.7387 119.345C54.1416 119.017 54.4345 118.573 54.5779 118.073C55.1565 118.346 55.8103 118.415 56.4333 118.269C56.7982 118.187 57.1426 118.031 57.4451 117.811C57.7477 117.591 58.002 117.311 58.1927 116.989C58.6069 117.249 59.0818 117.396 59.5703 117.416C60.0589 117.435 60.544 117.327 60.9776 117.101C61.4113 116.875 61.7784 116.54 62.0425 116.128C62.3066 115.717 62.4586 115.244 62.4834 114.755C62.8161 114.81 63.1563 114.8 63.4854 114.727C64.0893 114.587 64.6222 114.234 64.9847 113.731C65.3471 113.228 65.5146 112.611 65.4557 111.994C65.8627 112.087 66.2856 112.087 66.6926 111.994C67.4167 111.827 68.0453 111.38 68.4414 110.752C68.8375 110.123 68.9688 109.363 68.8068 108.638C68.7368 108.337 68.6151 108.05 68.4473 107.79C68.5978 107.791 68.7479 107.772 68.8931 107.732C69.3387 107.634 69.7498 107.419 70.0836 107.108C70.4173 106.797 70.6614 106.402 70.7903 105.964C70.9191 105.527 70.9281 105.063 70.8161 104.621C70.7042 104.178 70.4755 103.774 70.1539 103.451C70.6087 103.301 71.0175 103.037 71.3415 102.685C71.6655 102.333 71.8939 101.903 72.0049 101.437C72.1159 100.972 72.1059 100.485 71.9757 100.025C71.8456 99.5639 71.5997 99.1441 71.2614 98.8054C71.7411 98.4874 72.1123 98.0306 72.3256 97.4961C72.5389 96.9616 72.5841 96.3747 72.4551 95.8139C72.3591 95.3951 72.1676 95.0042 71.8957 94.6715C71.6238 94.3389 71.2787 94.0736 70.8874 93.8962C71.0912 93.603 71.2308 93.2702 71.2973 92.9195C71.3637 92.5687 71.3555 92.2079 71.2732 91.8605C71.1909 91.5131 71.0363 91.187 70.8195 90.9033C70.6027 90.6197 70.3285 90.3849 70.0149 90.2143C70.3437 89.8199 70.558 89.3428 70.6346 88.8351C70.7112 88.3273 70.6472 87.8083 70.4496 87.3344C70.2519 86.8604 69.9281 86.4497 69.5134 86.1469C69.0987 85.8441 68.6089 85.6608 68.0973 85.6168C68.1958 85.2137 68.1958 84.7927 68.0973 84.3895C67.9581 83.7859 67.6041 83.2536 67.1013 82.8919C66.5984 82.5302 65.9811 82.3639 65.3647 82.4239C65.4581 82.0267 65.4581 81.6131 65.3647 81.2158C65.1967 80.4929 64.7495 79.8657 64.1208 79.4714C63.492 79.0771 62.7327 78.9476 62.0088 79.1112C61.7949 79.158 61.5884 79.2338 61.3951 79.3365C61.3889 79.1844 61.3664 79.0333 61.328 78.8859C61.1601 78.1629 60.7129 77.5358 60.0841 77.1415C59.4554 76.7472 58.6961 76.6177 57.9722 76.7813C57.742 76.8311 57.5206 76.9152 57.3154 77.0306C57.3374 76.7637 57.3163 76.495 57.253 76.2348C57.1277 75.6846 56.8398 75.1848 56.4269 74.8003C56.0139 74.4158 55.4948 74.1643 54.9371 74.0785C54.3794 73.9927 53.8088 74.0766 53.2994 74.3192C52.7899 74.5618 52.3651 74.9519 52.0802 75.4389C51.7463 75.0863 51.3258 74.8273 50.8607 74.6877C50.3956 74.5481 49.902 74.5327 49.4291 74.6431C48.7224 74.8059 48.1058 75.2353 47.708 75.8417C47.4718 75.4036 47.1129 75.0441 46.6753 74.8072C46.2376 74.5703 45.7403 74.4663 45.2444 74.508C44.7486 74.5498 44.2756 74.7354 43.8838 75.0422C43.4919 75.3489 43.1982 75.7634 43.0385 76.2348C42.6771 75.9606 42.249 75.7877 41.7985 75.7341C41.3479 75.6805 40.8913 75.748 40.4755 75.9298C40.0598 76.1115 39.7001 76.4008 39.4335 76.7679C39.1669 77.135 39.003 77.5666 38.9588 78.0182C38.6384 77.7917 38.2736 77.6357 37.8885 77.5605C37.5034 77.4853 37.1068 77.4926 36.7247 77.5819C36.092 77.7282 35.5288 78.0877 35.1299 78.6002C34.7309 79.1126 34.5204 79.7467 34.5338 80.396C34.1229 80.3342 33.703 80.3743 33.3112 80.5128C32.9194 80.6513 32.5677 80.884 32.2869 81.1903C32.0061 81.4967 31.8049 81.8673 31.701 82.2697C31.597 82.6721 31.5936 83.0938 31.6909 83.4978C31.7589 83.7986 31.8842 84.0835 32.0601 84.3368C32.0025 84.3368 31.9498 84.3368 31.8923 84.3656C31.1642 84.5355 30.5333 84.9873 30.1379 85.6218C29.7424 86.2563 29.6148 87.0217 29.7829 87.7502C29.842 88.0166 29.9423 88.2721 30.0801 88.5076C29.8514 88.4953 29.622 88.5163 29.3993 88.57C28.9061 88.684 28.4579 88.9423 28.1119 89.312C27.7659 89.6816 27.5377 90.1459 27.4565 90.6457C27.3753 91.1454 27.4446 91.658 27.6557 92.1182C27.8668 92.5784 28.2101 92.9654 28.6419 93.2298C28.3467 93.4924 28.1166 93.8198 27.9696 94.1865C27.8226 94.5531 27.7628 94.9489 27.7949 95.3426C27.827 95.7363 27.95 96.1172 28.1544 96.4552C28.3588 96.7932 28.6389 97.0791 28.9727 97.2904C28.4594 97.5845 28.0522 98.0333 27.8094 98.5728C27.5666 99.1122 27.5006 99.7146 27.6208 100.294C27.741 100.873 28.0413 101.399 28.4787 101.798C28.9161 102.196 29.4682 102.446 30.0561 102.511C29.7418 102.816 29.512 103.197 29.3893 103.617C29.2666 104.037 29.2552 104.482 29.3562 104.908C29.4698 105.394 29.7225 105.837 30.0835 106.182C30.4445 106.526 30.8981 106.759 31.3889 106.85Z" fill="#263238"/>
<path d="M39.0979 128.581C19.8065 145.965 1.9245 165.016 0.524622 174.72C-1.39302 188.177 6.86242 191.907 10.5922 191.945C20.6838 192.041 39.0308 151.133 45.4117 135.509C51.5865 120.345 43.3311 124.765 39.0979 128.581Z" fill="#AD6359"/>
<path d="M9.9834 156.402L31.4274 168.061C31.4274 168.061 44.7646 143.429 47.8376 132.014C50.9106 120.6 46.3226 120.926 36.2263 129.804C26.1299 138.683 9.9834 156.402 9.9834 156.402Z" fill="#C7C7C7"/>
<path d="M9.9834 156.402L31.4274 168.061C31.4274 168.061 44.7646 143.429 47.8376 132.014C50.9106 120.6 46.3226 120.926 36.2263 129.804C26.1299 138.683 9.9834 156.402 9.9834 156.402Z" fill="#4D4295"/>
<path opacity="0.1" d="M47.8327 132.009C44.7645 143.428 31.4273 168.065 31.4273 168.065L11.901 157.441L47.8567 123.643C49.06 124.544 49.1128 127.272 47.8327 132.009Z" fill="black"/>
<path d="M14.3986 153.112C22.6684 158.707 30.6985 162.346 32.2854 163.271C32.3621 163.314 32.4244 163.185 32.3477 163.146C30.7225 162.322 21.9206 156.842 14.4609 152.978C14.3747 152.935 14.3171 153.059 14.3986 153.112Z" fill="#263238"/>
<path d="M26.0771 184.394L28.57 168.445C28.57 168.445 22.6876 158.18 26.101 150.812C27.8221 147.082 39.63 128.845 45.9869 124.229C51.9556 119.914 61.0596 124.161 63.8401 127.925C71.8319 138.759 75.9692 149.019 80.4325 184.394H26.0771Z" fill="#4D4295"/>
<path opacity="0.1" d="M61.1173 125.417H44.5489C44.918 125.077 45.2776 124.775 45.618 124.506H59.6311C60.1417 124.784 60.6378 125.088 61.1173 125.417ZM63.8403 127.924C63.8226 127.899 63.8034 127.875 63.7828 127.852H42.147C41.8738 128.145 41.6053 128.447 41.332 128.763H64.4492C64.2478 128.485 64.0464 128.202 63.8403 127.924ZM66.1367 131.204H39.2897L38.5658 132.114H66.7264C66.5346 131.808 66.3189 131.506 66.1367 131.204ZM68.1933 134.559H36.7057C36.4756 134.861 36.2503 135.163 36.0298 135.47H68.7159C68.5385 135.154 68.3659 134.847 68.1933 134.55V134.559ZM69.9528 137.915H34.2703C34.0546 138.217 33.8437 138.524 33.6327 138.826H70.3795C70.2404 138.505 70.0966 138.198 69.9528 137.901V137.915ZM71.4342 141.271H31.9644C31.7534 141.578 31.5521 141.885 31.3507 142.182H71.7937L71.4342 141.271ZM72.6854 144.627H29.7639L29.1838 145.538H72.9922C72.8916 145.197 72.7909 144.891 72.6854 144.593V144.627ZM73.7593 147.983H27.6832C27.4915 148.304 27.3141 148.611 27.1511 148.894H74.0278C73.9367 148.544 73.8504 148.242 73.7593 147.944V147.983ZM74.7181 151.339H25.895C25.7739 151.637 25.6683 151.941 25.5786 152.25H74.9482C74.8475 151.895 74.7708 151.588 74.6941 151.291L74.7181 151.339ZM75.5379 154.695H25.0896C25.0609 154.997 25.0417 155.303 25.0321 155.605H75.7249C75.6577 155.227 75.5858 154.944 75.5139 154.642L75.5379 154.695ZM76.2762 158.05H25.1424C25.1759 158.357 25.2143 158.659 25.2574 158.961H76.4392C76.3864 158.583 76.3145 158.285 76.2522 157.988L76.2762 158.05ZM76.9474 161.406H25.7656C25.8423 161.718 25.9286 162.02 26.0149 162.317H77.096L76.9474 161.406ZM77.5562 164.762H26.8443C26.9641 165.083 27.0888 165.385 27.2086 165.673H77.6952C77.6425 165.294 77.585 164.988 77.5322 164.685L77.5562 164.762ZM78.2705 169.024L78.1267 168.113H28.3496C28.4886 168.377 28.5701 168.521 28.5701 168.521L28.4934 169.024H78.2705ZM78.6541 171.46H28.1099L27.9661 172.37H78.7835C78.726 172.006 78.678 171.685 78.6301 171.383L78.6541 171.46ZM79.1335 174.815H27.5874L27.4435 175.726H79.2629C79.2198 175.362 79.1718 175.036 79.1287 174.734L79.1335 174.815ZM79.6129 178.171H27.0648L26.921 179.082H79.7423C79.6848 178.684 79.6416 178.382 79.6033 178.08L79.6129 178.171ZM80.0587 181.527H26.5279L26.384 182.438H80.169C80.1306 182.035 80.0923 181.733 80.0491 181.431L80.0587 181.527Z" fill="black"/>
<path d="M38.9634 165.679C41.6952 165.945 44.4034 166.415 47.0655 167.083C48.3838 167.433 49.6782 167.846 50.9678 168.282C51.6103 168.498 52.2575 168.694 52.9095 168.891C53.5871 169.112 54.2889 169.25 54.9997 169.303C55.062 169.303 55.0572 169.399 54.9997 169.399C54.3281 169.427 53.6554 169.409 52.9862 169.346C52.3397 169.26 51.6992 169.134 51.0685 168.967C49.731 168.622 48.4078 168.22 47.0703 167.865C44.3712 167.146 41.6769 166.427 38.9203 165.904C38.8004 165.88 38.834 165.664 38.9634 165.679Z" fill="#263238"/>
<path d="M32.1848 168.042C34.4391 167.823 36.704 167.733 38.9685 167.773C40.0999 167.797 41.2217 167.888 42.3483 168.003C42.89 168.061 43.427 168.128 43.9591 168.2C44.4913 168.272 45.1289 168.44 45.7185 168.511C45.7809 168.511 45.7809 168.617 45.7185 168.612C45.1576 168.559 44.5919 168.612 44.031 168.583L42.3387 168.526C41.2073 168.488 40.0807 168.464 38.9541 168.416C36.6913 168.32 34.4428 168.243 32.18 168.224C32.0602 168.224 32.0698 168.051 32.1848 168.042Z" fill="#263238"/>
<path d="M65.2687 127.344C83.5581 141.386 102.629 165.218 102.917 178.982C103.2 192.568 95.5626 191.216 94.2873 190.814C80.7009 186.585 64.3147 148.884 58.2597 133.534C52.2335 118.312 60.7478 123.869 65.2687 127.344Z" fill="#AD6359"/>
<path d="M94.6566 154.748L73.4188 166.791C73.4188 166.791 59.6453 142.398 56.371 131.041C53.0966 119.684 57.6893 119.928 67.9391 128.644C78.1889 137.36 94.6566 154.748 94.6566 154.748Z" fill="#4D4295"/>
<path d="M90.1839 151.526C82.0339 157.279 74.0661 161.047 72.4745 162.001C72.4026 162.044 72.3354 161.919 72.4169 161.876C74.023 161.023 82.7243 155.39 90.1168 151.392C90.203 151.344 90.2606 151.473 90.1839 151.526Z" fill="#263238"/>
<path d="M74.7849 165.947C74.3465 166.109 73.9189 166.3 73.5049 166.517C71.4626 162.457 71.8365 163.387 69.7559 159.35L66.702 153.41C65.6473 151.349 64.6981 149.206 63.5332 147.207C63.532 147.198 63.5289 147.191 63.5242 147.184C63.5194 147.177 63.5132 147.172 63.5059 147.168C63.4986 147.164 63.4905 147.162 63.4823 147.161C63.474 147.161 63.4658 147.163 63.4584 147.167C63.4509 147.17 63.4444 147.175 63.4393 147.182C63.4343 147.188 63.4308 147.196 63.4292 147.204C63.4276 147.212 63.428 147.22 63.4302 147.228C63.4324 147.236 63.4365 147.244 63.4421 147.25C64.118 149.206 65.0337 151.085 65.9014 152.974C65.7097 152.681 65.5275 152.384 65.3166 152.101C64.8372 151.473 64.3913 150.841 63.9742 150.184C63.9071 150.078 63.7393 150.184 63.8016 150.265C64.1995 150.903 64.5543 151.555 64.8995 152.216C65.2447 152.878 65.6378 153.516 66.0309 154.158C66.424 154.8 66.8315 155.357 67.2534 155.946L67.4068 156.162C67.9629 157.337 68.5046 158.521 69.0847 159.69C70.3061 162.216 71.7164 164.645 73.3035 166.958C73.839 166.702 74.3535 166.403 74.8424 166.067C74.9 166.019 74.8424 165.942 74.7849 165.947Z" fill="#263238"/>
<path d="M11.503 191.466C17.7977 190.545 21.3645 178.848 28.3543 160.232C29.5816 156.963 13.3248 138.256 11.1195 141.262C8.33894 145.054 0.970418 166.076 0.236921 171.791C-1.2109 183.033 4.1537 192.544 11.503 191.466Z" fill="#AD6359"/>
<path d="M21.1869 179.074C21.7382 177.482 22.3375 175.91 22.9319 174.342C23.5264 172.774 24.1496 171.207 24.7585 169.639L26.6138 164.96C26.9334 164.18 27.237 163.397 27.5247 162.611C27.8315 161.829 28.1239 161.043 28.3541 160.214C28.0144 161.864 27.548 163.486 26.959 165.065C26.4172 166.662 25.8132 168.229 25.2043 169.797C24.5955 171.365 23.9483 172.918 23.2867 174.457C22.6251 175.996 21.9252 177.559 21.1869 179.074Z" fill="#263238"/>
<path d="M5.98987 154.747C6.87198 148.357 8.67456 139.445 10.9566 137.575C13.3536 135.614 22.0597 129.061 24.5718 128.193C27.0839 127.325 38.2925 123.054 40.3539 124.247C41.9983 125.206 40.0471 129.521 34.7161 131.611C30.0275 133.438 27.616 135.14 26.2737 135.72C24.9313 136.3 21.6234 140.739 22.5199 142.695C23.0473 143.85 26.4079 145.207 28.4934 144.263C30.5788 143.318 31.1013 139.181 33.484 137.23C35.8667 135.279 40.0807 135.518 40.3252 136.655C40.5697 137.791 39.1794 138.323 37.0268 142.187C35.6413 144.67 35.5455 150.629 32.4053 154.906C30.8281 157.053 28.0906 162.768 28.0906 162.768L5.98987 154.747Z" fill="#AD6359"/>
<path d="M35.7132 135.485C36.4845 135.367 37.2072 135.035 37.7986 134.526C38.0385 134.295 38.2052 133.998 38.278 133.673C38.3068 133.495 38.3068 133.313 38.278 133.136C38.2729 132.947 38.1997 132.766 38.0718 132.627C38.0335 132.599 38.0958 132.546 38.115 132.589C38.1736 132.679 38.2393 132.764 38.3116 132.843C38.3591 132.919 38.3992 132.999 38.4314 133.083C38.4937 133.25 38.523 133.427 38.5177 133.605C38.5069 133.996 38.3612 134.37 38.1054 134.665C37.7994 134.984 37.424 135.228 37.0083 135.379C36.5925 135.529 36.1477 135.582 35.7084 135.533C35.7055 135.529 35.7033 135.525 35.7019 135.521C35.7006 135.517 35.7002 135.512 35.7006 135.508C35.7011 135.503 35.7024 135.499 35.7045 135.495C35.7067 135.491 35.7096 135.488 35.7132 135.485Z" fill="#263238"/>
<path d="M10.9564 137.589C12.9891 134.401 18.1811 128.648 23.33 126.668C26.8057 125.331 38.7861 131.156 38.4362 133.442C38.0862 135.729 36.0391 135.744 33.0188 135.384C31.9114 135.255 26.077 133.16 25.0846 134.387C23.6464 136.146 21.8438 142.163 21.8438 142.163L10.9564 137.589Z" fill="#AD6359"/>
<path d="M38.1439 132.551C36.6625 130.102 33.4073 128.798 30.1713 127.757C30.1234 127.757 30.0946 127.815 30.1426 127.834C30.9671 128.098 36.2406 130.519 38.1055 132.58C38.1247 132.614 38.1583 132.575 38.1439 132.551Z" fill="#263238"/>
<path d="M10.9564 137.59C12.9891 134.402 18.1811 128.649 23.33 126.669C26.8057 125.331 36.274 132.786 35.9385 135.078C35.6029 137.369 32.6497 137.552 29.4041 136.42C28.3542 136.056 24.8305 133.582 23.8382 134.805C22.3999 136.569 18.929 140.936 18.929 140.936L10.9564 137.59Z" fill="#AD6359"/>
<path d="M20.9332 138.233C21.2592 137.729 21.3742 137.552 21.7098 137.053C22.0454 136.555 22.381 136.066 22.7501 135.615C23.0403 135.179 23.4036 134.796 23.824 134.484C24.2591 134.233 24.7648 134.134 25.2622 134.201C26.3889 134.301 27.4052 135.016 28.3592 135.567C29.4283 136.176 31.6432 137.168 33.3355 137.005C33.8023 136.981 34.2585 136.857 34.6731 136.641C34.9893 136.499 35.2646 136.28 35.4737 136.003C36.2072 134.757 35.2867 133.333 34.347 132.326C32.5972 130.452 30.2433 129.09 27.9613 127.973C27.4004 127.695 26.8347 127.436 26.2642 127.177C25.6299 126.838 24.9302 126.639 24.2123 126.593C23.033 126.593 21.1058 127.781 20.5065 128.141C20.4586 128.17 20.425 128.098 20.4681 128.069C21.1921 127.618 22.985 126.151 24.8883 126.243C25.5802 126.346 26.2486 126.57 26.8635 126.904C27.5251 127.192 28.1818 127.499 28.8242 127.82C30.0857 128.438 31.2974 129.153 32.4486 129.958C33.5979 130.704 34.6019 131.652 35.4113 132.758C35.7486 133.251 35.9462 133.827 35.9834 134.423C36.0205 135.02 35.8957 135.616 35.6223 136.147C35.0997 137.01 33.9923 137.216 33.4841 137.283C32.9879 137.353 32.4845 137.353 31.9884 137.283C30.8803 137.042 29.7909 136.721 28.7284 136.325C27.6976 135.917 26.7724 135.222 25.7081 134.886C25.4588 134.799 25.1944 134.763 24.9308 134.78C24.6671 134.797 24.4097 134.868 24.174 134.987C23.7415 135.276 23.3552 135.628 23.0282 136.032C22.3199 136.73 21.678 137.493 21.1106 138.309C20.9571 138.511 20.7989 138.448 20.9332 138.233Z" fill="#263238"/>
<path d="M9.45105 140.366C10.1989 138.851 11.4502 132.594 12.6583 130.677C13.8664 128.759 19.37 122.124 21.9445 122.412C25.1757 122.766 21.8102 128.601 20.1179 131.003C18.4256 133.405 18.718 137.489 18.718 137.489L9.45105 140.366Z" fill="#AD6359"/>
<path d="M22.4768 127.024C21.8776 127.786 21.3454 128.625 20.8229 129.445C20.2848 130.207 19.804 131.008 19.3846 131.842C19.0323 132.691 18.8202 133.591 18.7566 134.508C18.7134 134.958 18.7039 135.404 18.6991 135.859C18.6943 136.315 18.7422 136.847 18.7278 137.341C18.7278 137.394 18.8093 137.398 18.8093 137.341C18.8687 136.441 18.9856 135.546 19.1593 134.661C19.3174 133.741 19.5895 132.844 19.9695 131.991C20.7222 130.294 21.8296 128.783 22.5967 127.096C22.6206 127.014 22.52 126.971 22.4768 127.024Z" fill="#263238"/>
<path d="M18.7564 138.17C18.8097 138.927 18.9711 139.673 19.2358 140.385C19.4824 141.098 19.7754 141.795 20.1132 142.47C20.444 143.149 20.8105 143.81 21.211 144.45C21.5993 145.092 22.0692 145.672 22.5294 146.291C23.501 147.495 24.2746 148.846 24.821 150.294C25.3336 151.749 25.5851 153.282 25.5641 154.824C25.4123 153.315 25.0508 151.833 24.4902 150.423C23.8848 149.046 23.098 147.757 22.1507 146.588C21.6691 145.987 21.224 145.358 20.8179 144.704C20.4191 144.044 20.0666 143.357 19.7632 142.647C19.1831 141.224 18.6462 139.713 18.7564 138.17Z" fill="#263238"/>
<path d="M43.7242 132.46L52.5789 158.885C52.9289 159.652 52.5789 160.324 51.8023 160.386L37.8994 161.45C37.4729 161.451 37.0549 161.331 36.6941 161.104C36.3333 160.876 36.0447 160.551 35.8619 160.165L27.0072 133.74C26.662 132.973 27.0072 132.302 27.7839 132.24L41.6867 131.176C42.1131 131.175 42.5309 131.295 42.8916 131.523C43.2522 131.75 43.541 132.075 43.7242 132.46Z" fill="#37474F"/>
<path d="M42.0701 132.57L50.9248 158.995C51.2748 159.762 50.9248 160.433 50.153 160.496L36.2501 161.565C35.8239 161.564 35.4066 161.443 35.0462 161.216C34.6857 160.989 34.3968 160.664 34.2126 160.28L25.3579 133.855C25.0079 133.083 25.3579 132.417 26.1345 132.354L40.0374 131.285C40.4627 131.287 40.879 131.408 41.2386 131.635C41.5981 131.863 41.8863 132.187 42.0701 132.57Z" fill="#455A64"/>
<path d="M38.3548 134.094C38.3778 134.327 38.4695 134.548 38.6182 134.729C38.767 134.911 38.9661 135.043 39.1904 135.111C39.4146 135.179 39.654 135.179 39.8781 135.111C40.1023 135.042 40.3012 134.909 40.4496 134.728C40.598 134.547 40.6893 134.325 40.7119 134.092C40.7345 133.859 40.6874 133.624 40.5765 133.418C40.4657 133.211 40.2961 133.042 40.0892 132.932C39.8823 132.822 39.6475 132.776 39.4143 132.8C39.1023 132.831 38.8156 132.985 38.6169 133.228C38.4183 133.47 38.3241 133.782 38.3548 134.094Z" fill="#263238"/>
<path d="M97.1688 190.952C91.0994 191.858 83.4768 187.222 63.6772 173.104C60.9398 171.152 69.526 148.107 72.5559 150.044C76.3911 152.484 90.6728 162.772 91.622 163.654C99.6377 171.114 101.282 190.343 97.1688 190.952Z" fill="#AD6359"/>
<path d="M79.6464 156.905C79.6464 156.905 73.9893 149.119 69.7178 145.955C64.0272 141.712 57.3682 140.399 54.5445 140.015C48.6477 139.21 33.8388 141.353 33.7141 145.725C33.5943 149.68 48.6238 146.732 48.6238 146.732C48.6238 146.732 32.8032 147.211 33.5415 152.005C34.2798 156.799 51.5242 152.379 51.5242 152.379C51.5242 152.379 35.2866 153.237 36.8303 158.06C37.9953 161.699 53.8541 158.583 53.8541 158.583C53.8541 158.583 39.9033 159.417 40.9388 163.214C42.0846 167.409 56.8888 165.448 56.8888 165.448C61.1507 174.657 66.9564 177.299 71.295 178.689C72.3306 179.02 79.6464 156.905 79.6464 156.905Z" fill="#AD6359"/>
<path d="M54.0793 146.214C52.2192 146.214 50.3399 146.18 48.4846 146.334C46.6292 146.487 44.7787 146.707 42.9474 147.033C38.4553 147.834 35.7562 149.037 35.9432 148.985C40.0613 147.652 46.6868 146.995 48.5421 146.842C50.3974 146.688 52.2383 146.439 54.0889 146.281C54.1368 146.281 54.1272 146.214 54.0793 146.214Z" fill="#263238"/>
<path d="M54.7601 152.897C52.3871 152.988 50.0236 152.988 47.6505 153.184C45.2774 153.381 43.0673 153.765 40.7278 154.119C40.5456 154.148 40.6224 154.239 40.8045 154.215C43.1584 153.956 45.3541 153.894 47.708 153.664C50.0619 153.434 52.4158 153.103 54.7697 152.954C54.8129 152.954 54.8129 152.897 54.7601 152.897Z" fill="#263238"/>
<path d="M56.376 158.535C52.742 158.482 49.0985 159.105 45.5413 159.8C45.3639 159.834 45.4694 159.934 45.6516 159.91C49.2471 159.431 52.0661 159.014 56.376 158.659C56.4431 158.654 56.4527 158.535 56.376 158.535Z" fill="#263238"/>
<path d="M86.1566 159.589C87.731 160.618 89.2526 161.725 90.7158 162.907C91.4541 163.491 92.154 164.119 92.8444 164.776C93.541 165.433 94.153 166.174 94.6661 166.982C95.6432 168.604 96.4605 170.317 97.1063 172.097C97.7773 173.859 98.25 175.691 98.5158 177.557C98.3058 176.644 98.0466 175.743 97.7392 174.858C97.4451 173.973 97.1255 173.097 96.7803 172.231C96.0931 170.499 95.2574 168.829 94.2826 167.24C93.3238 165.649 91.8856 164.441 90.5001 163.189C89.7969 162.569 89.081 161.964 88.3523 161.372C87.6188 160.768 86.8853 160.184 86.1566 159.589Z" fill="#263238"/>
<path d="M58.0442 124.66C57.91 125.7 53.7056 132.872 48.0246 132.589C44.7214 132.426 46.898 125.82 46.898 125.82L43.9496 116.874L54.7363 108.441C54.7363 108.441 58.097 124.219 58.0442 124.66Z" fill="#AD6359"/>
<path d="M55.9682 114.324C55.2661 116.693 54.084 118.892 52.4955 120.784C50.907 122.676 48.9461 124.22 46.7347 125.322L43.9446 116.875L54.7361 108.437L55.9682 114.324Z" fill="#263238"/>
<path d="M30.9766 104.357C30.828 119.823 40.0854 121.664 43.4077 121.688C46.4376 121.716 56.7497 121.419 58.4947 106.054C60.2398 90.6889 53.1014 85.7126 46.1835 85.3003C39.2656 84.8881 31.13 88.8911 30.9766 104.357Z" fill="#AD6359"/>
<path d="M35.1572 103.149C35.5046 103.065 35.8471 102.96 36.1831 102.838C36.5506 102.774 36.8873 102.592 37.1419 102.32C37.2071 102.217 37.2367 102.096 37.2263 101.975C37.216 101.854 37.1661 101.739 37.0844 101.649C36.8936 101.498 36.6662 101.4 36.4254 101.365C36.1845 101.331 35.9388 101.361 35.7133 101.452C35.229 101.569 34.8053 101.861 34.5243 102.272C34.4632 102.371 34.4327 102.485 34.4368 102.601C34.4408 102.717 34.4791 102.829 34.5469 102.923C34.6147 103.017 34.7089 103.088 34.8176 103.129C34.9262 103.169 35.0444 103.176 35.1572 103.149Z" fill="#263238"/>
<path d="M45.7328 102.195C45.3777 102.173 45.024 102.131 44.6733 102.071C44.2929 102.078 43.9207 101.96 43.6138 101.735C43.5321 101.645 43.4823 101.531 43.4719 101.409C43.4615 101.288 43.4911 101.167 43.5563 101.064C43.7169 100.881 43.9232 100.745 44.154 100.668C44.3848 100.591 44.6319 100.577 44.8699 100.628C45.3664 100.656 45.8348 100.868 46.1835 101.222C46.2591 101.307 46.3083 101.413 46.3249 101.525C46.3415 101.638 46.3248 101.753 46.277 101.856C46.2291 101.96 46.1521 102.047 46.0555 102.107C45.9588 102.167 45.8467 102.198 45.7328 102.195Z" fill="#263238"/>
<path d="M43.8777 106.284C43.8777 106.246 43.9639 106.332 43.9639 106.375C44.0023 107.425 44.218 108.628 45.196 108.911C45.2248 108.911 45.2248 108.974 45.196 108.974C44.0167 108.887 43.7434 107.286 43.8777 106.284Z" fill="#263238"/>
<path d="M44.7455 105.124C46.4282 104.889 46.783 108.269 45.2249 108.48C43.6668 108.691 43.336 105.325 44.7455 105.124Z" fill="#263238"/>
<path d="M45.4262 105.235C45.7426 105.398 46.0686 105.714 46.4281 105.714C46.7877 105.714 47.1185 105.326 47.3534 104.957C47.3774 104.918 47.4061 104.957 47.4157 104.99C47.4924 105.637 47.3103 106.328 46.6295 106.496C45.9487 106.663 45.4885 106.126 45.2584 105.494C45.2248 105.369 45.3015 105.172 45.4262 105.235Z" fill="#263238"/>
<path d="M37.5541 106.807C37.5541 106.768 37.4774 106.869 37.4822 106.912C37.6356 107.953 37.6308 109.175 36.7247 109.626C36.6959 109.626 36.7247 109.693 36.7247 109.683C37.8753 109.391 37.8609 107.766 37.5541 106.807Z" fill="#263238"/>
<path d="M36.4899 105.819C34.7928 105.882 35.0517 109.276 36.6146 109.218C38.1775 109.161 37.9138 105.767 36.4899 105.819Z" fill="#263238"/>
<path d="M35.7996 106.097C35.5455 106.293 35.3202 106.643 34.9846 106.686C34.649 106.73 34.3135 106.389 34.0498 106.058C34.0258 106.02 34.0018 106.058 34.0018 106.097C34.0306 106.749 34.2943 107.406 34.9271 107.487C35.5599 107.569 35.8859 106.969 35.9866 106.313C36.0058 106.193 35.9003 106.015 35.7996 106.097Z" fill="#263238"/>
<path d="M44.0404 114.693C43.8295 114.976 43.6282 115.35 43.259 115.436C42.8702 115.488 42.4749 115.457 42.0988 115.345C42.0653 115.345 42.0365 115.379 42.0605 115.403C42.2413 115.584 42.4672 115.714 42.715 115.779C42.9628 115.844 43.2234 115.841 43.4699 115.772C43.673 115.683 43.8456 115.537 43.9666 115.351C44.0875 115.165 44.1515 114.948 44.1507 114.727C44.1555 114.664 44.074 114.655 44.0404 114.693Z" fill="#263238"/>
<path d="M39.304 111.313C39.304 111.313 39.2321 112.9 39.304 113.638C39.304 113.706 39.4957 113.725 39.745 113.715C39.745 113.715 39.745 113.715 39.7738 113.715C40.4189 113.772 41.0673 113.651 41.6475 113.363C42.2278 113.075 42.7175 112.633 43.0626 112.085C43.1105 112.008 43.0098 111.941 42.9427 111.994C42.0624 112.728 40.9668 113.156 39.8217 113.212C39.7498 113.015 40.0327 110.498 39.9176 110.503C39.3472 110.605 38.7937 110.786 38.2732 111.04C38.326 107.727 38.9061 104.453 38.9061 101.159C38.9056 101.136 38.8967 101.113 38.881 101.095C38.8652 101.077 38.8436 101.065 38.82 101.062C38.7964 101.058 38.7723 101.063 38.7521 101.076C38.7319 101.089 38.7168 101.108 38.7095 101.131C37.8562 104.515 37.7171 108.322 37.5733 111.74C37.5541 112.162 39.0163 111.467 39.304 111.313Z" fill="#263238"/>
<path d="M40.2006 113.275C40.6246 113.768 41.1674 114.146 41.7778 114.372C42.1158 114.483 42.4802 114.483 42.8181 114.372C43.5612 114.138 43.542 113.452 43.3743 112.867C43.2839 112.559 43.1568 112.263 42.9955 111.985C42.2245 112.701 41.2455 113.153 40.2006 113.275Z" fill="#263238"/>
<path d="M41.7777 114.371C42.1157 114.482 42.4801 114.482 42.818 114.371C43.5611 114.136 43.5419 113.451 43.3741 112.866C42.5735 113 41.8065 113.585 41.7777 114.371Z" fill="#FF9ABB"/>
<path d="M57.7325 106.006C55.2732 106.539 54.0794 100.862 54.0794 100.862C54.0794 100.862 49.0361 101.567 46.3849 94.5389C46.8228 96.6932 47.8829 98.6717 49.434 100.23C49.434 100.23 40.3252 101.049 35.5598 94.117C35.5598 94.117 37.5734 97.7078 39.1554 98.8632C39.1554 98.8632 35.2818 98.3311 33.0525 95.5505C33.0525 95.5505 32.0937 100.062 31.0438 101.409C31.0438 101.409 29.2844 85.7945 43.9303 85.4829C43.9303 85.4829 53.0391 84.8453 57.2627 91.5522C61.4863 98.2591 57.7325 106.006 57.7325 106.006Z" fill="#263238"/>
<path d="M58.4946 105.042C58.2789 107.152 61.5341 97.0312 61.2944 95.5738C61.0547 94.1164 57.2577 87.3423 50.7474 85.1466C45.2773 83.3057 39.2415 85.952 38.1677 86.4267C36.9869 86.9512 35.9312 87.7209 35.0707 88.6847C35.0707 88.6847 43.0001 85.1946 50.2919 86.2876C53.7868 86.8246 59.3 97.1558 58.4946 105.042Z" fill="#4D4295"/>
<path d="M53.2597 84.1305C53.2597 84.1305 51.0592 80.0171 47.0609 79.3364C47.0609 79.3364 46.9794 83.3347 48.3122 84.7345C48.9737 85.4345 52.1091 85.8995 52.5118 85.4009C52.8036 85.0039 53.0542 84.5783 53.2597 84.1305Z" fill="#4D4295"/>
<path opacity="0.1" d="M53.2596 84.135C53.051 84.5721 52.8006 84.9879 52.5118 85.3767C52.4949 85.4015 52.4718 85.4214 52.4446 85.4342C52.4169 85.4559 52.3862 85.4737 52.3536 85.4869C52.3248 85.4869 52.3056 85.4869 52.2721 85.4869C51.6946 85.603 51.0997 85.603 50.5222 85.4869C50.6488 84.9029 50.8286 84.3316 51.0592 83.7802C51.3646 83.3147 51.8092 82.9573 52.3296 82.7591C52.6779 83.1906 52.9891 83.6509 53.2596 84.135Z" fill="#050400"/>
<path d="M54.2089 84.7541C54.2089 84.7541 59.866 84.2363 62.4883 85.6122C62.4883 85.6122 60.8392 88.4455 57.9867 88.9969C56.7114 89.2414 53.1926 86.7341 53.4131 86.0869C53.6166 85.6085 53.8843 85.1601 54.2089 84.7541Z" fill="#4D4295"/>
<path opacity="0.1" d="M55.4936 84.6623C55.6026 85.287 55.5277 85.9299 55.2778 86.5128C55.0802 86.8573 54.8104 87.155 54.4868 87.3853C53.7965 86.8436 53.3218 86.3211 53.4129 86.067C53.6152 85.5895 53.8831 85.1425 54.2087 84.739C54.2087 84.739 54.7121 84.6911 55.4936 84.6623Z" fill="#050400"/>
<path d="M54.717 86.0486C54.5287 86.3611 54.252 86.6108 53.9219 86.7661C53.5918 86.9214 53.2231 86.9755 52.8623 86.9214C52.5015 86.8673 52.1648 86.7075 51.8948 86.4621C51.6248 86.2168 51.4335 85.8969 51.3452 85.5429C51.2569 85.1889 51.2754 84.8167 51.3985 84.4733C51.5216 84.1298 51.7437 83.8306 52.0368 83.6133C52.3299 83.3961 52.6808 83.2705 53.0452 83.2526C53.4096 83.2346 53.7711 83.3251 54.0842 83.5125C54.2925 83.6372 54.4742 83.8018 54.6188 83.9969C54.7634 84.1919 54.868 84.4136 54.9268 84.6492C54.9856 84.8848 54.9973 85.1297 54.9613 85.3698C54.9253 85.6099 54.8423 85.8406 54.717 86.0486Z" fill="#4D4295"/>
<path d="M55.8723 106.165C55.8723 106.165 58.8686 101.092 61.1458 102.123C63.423 103.154 61.4286 110.326 58.9357 111.476C58.6267 111.646 58.2865 111.752 57.9356 111.787C57.5847 111.822 57.2304 111.785 56.894 111.679C56.5576 111.574 56.2461 111.401 55.9782 111.172C55.7103 110.942 55.4917 110.661 55.3353 110.345L55.8723 106.165Z" fill="#AD6359"/>
<path d="M60.5226 104.166C60.5657 104.166 60.5753 104.214 60.5226 104.233C58.7823 105.101 57.9625 106.836 57.4352 108.62C57.9146 107.91 58.6145 107.493 59.559 108.059C59.6069 108.087 59.559 108.164 59.5158 108.159C59.1923 108.083 58.8529 108.109 58.5447 108.233C58.2364 108.358 57.9744 108.575 57.7947 108.855C57.4965 109.324 57.249 109.824 57.0564 110.345C56.9845 110.513 56.6873 110.451 56.7352 110.259V110.221C56.5435 107.929 58.0776 104.583 60.5226 104.166Z" fill="#263238"/>
<path d="M34.0621 269.819C34.1648 269.819 34.2558 269.859 34.3351 269.938L35.0771 270.743C34.6665 271.252 34.1601 271.642 33.5581 271.912C32.9608 272.183 32.2421 272.318 31.4021 272.318C30.6508 272.318 29.9741 272.19 29.3721 271.933C28.7748 271.677 28.2638 271.32 27.8391 270.862C27.4145 270.405 27.0878 269.859 26.8591 269.224C26.6351 268.59 26.5231 267.897 26.5231 267.145C26.5231 266.385 26.6445 265.689 26.8871 265.059C27.1298 264.425 27.4705 263.879 27.9091 263.421C28.3525 262.964 28.8798 262.609 29.4911 262.357C30.1025 262.101 30.7791 261.972 31.5211 261.972C32.2585 261.972 32.9118 262.094 33.4811 262.336C34.0551 262.579 34.5428 262.896 34.9441 263.288L34.3141 264.163C34.2768 264.219 34.2278 264.268 34.1671 264.31C34.1111 264.352 34.0318 264.373 33.9291 264.373C33.8591 264.373 33.7868 264.355 33.7121 264.317C33.6375 264.275 33.5558 264.226 33.4671 264.17C33.3785 264.11 33.2758 264.044 33.1591 263.974C33.0425 263.904 32.9071 263.841 32.7531 263.785C32.5991 263.725 32.4195 263.676 32.2141 263.638C32.0135 263.596 31.7801 263.575 31.5141 263.575C31.0615 263.575 30.6461 263.657 30.2681 263.82C29.8948 263.979 29.5728 264.212 29.3021 264.52C29.0315 264.824 28.8215 265.197 28.6721 265.64C28.5228 266.079 28.4481 266.581 28.4481 267.145C28.4481 267.715 28.5275 268.221 28.6861 268.664C28.8495 269.108 29.0688 269.481 29.3441 269.784C29.6195 270.088 29.9438 270.321 30.3171 270.484C30.6905 270.643 31.0918 270.722 31.5211 270.722C31.7778 270.722 32.0088 270.708 32.2141 270.68C32.4241 270.652 32.6155 270.608 32.7881 270.547C32.9655 270.487 33.1311 270.41 33.2851 270.316C33.4438 270.218 33.6001 270.099 33.7541 269.959C33.8008 269.917 33.8498 269.885 33.9011 269.861C33.9525 269.833 34.0061 269.819 34.0621 269.819ZM39.426 266.9C39.7807 266.9 40.0887 266.856 40.35 266.767C40.616 266.679 40.833 266.557 41.001 266.403C41.1737 266.245 41.302 266.058 41.386 265.843C41.47 265.629 41.512 265.393 41.512 265.136C41.512 264.623 41.3417 264.229 41.001 263.953C40.665 263.678 40.1493 263.54 39.454 263.54H38.25V266.9H39.426ZM44.27 272.206H42.569C42.247 272.206 42.0137 272.08 41.869 271.828L39.741 268.587C39.6617 268.466 39.573 268.38 39.475 268.328C39.3817 268.277 39.2417 268.251 39.055 268.251H38.25V272.206H36.367V262.084H39.454C40.14 262.084 40.728 262.157 41.218 262.301C41.7127 262.441 42.1163 262.64 42.429 262.896C42.7463 263.153 42.9797 263.461 43.129 263.82C43.2783 264.175 43.353 264.567 43.353 264.996C43.353 265.337 43.3017 265.659 43.199 265.962C43.101 266.266 42.9563 266.541 42.765 266.788C42.5783 267.036 42.345 267.253 42.065 267.439C41.7897 267.626 41.4747 267.773 41.12 267.88C41.2413 267.95 41.3533 268.034 41.456 268.132C41.5587 268.226 41.652 268.338 41.736 268.468L44.27 272.206ZM47.2531 263.582V266.389H50.7951V267.838H47.2531V270.701H51.7471V272.206H45.3631V262.084H51.7471V263.582H47.2531ZM58.7638 268.384L57.5318 265.017C57.4712 264.868 57.4082 264.691 57.3428 264.485C57.2775 264.28 57.2122 264.058 57.1468 263.82C57.0862 264.058 57.0232 264.282 56.9578 264.492C56.8925 264.698 56.8295 264.877 56.7688 265.031L55.5438 268.384H58.7638ZM62.0888 272.206H60.6328C60.4695 272.206 60.3365 272.167 60.2338 272.087C60.1312 272.003 60.0542 271.901 60.0028 271.779L59.2468 269.714H55.0538L54.2978 271.779C54.2605 271.887 54.1882 271.985 54.0808 272.073C53.9735 272.162 53.8405 272.206 53.6818 272.206H52.2118L56.1948 262.084H58.1128L62.0888 272.206ZM66.1955 266.9C66.5502 266.9 66.8582 266.856 67.1195 266.767C67.3855 266.679 67.6025 266.557 67.7705 266.403C67.9432 266.245 68.0715 266.058 68.1555 265.843C68.2395 265.629 68.2815 265.393 68.2815 265.136C68.2815 264.623 68.1112 264.229 67.7705 263.953C67.4345 263.678 66.9189 263.54 66.2235 263.54H65.0195V266.9H66.1955ZM71.0395 272.206H69.3385C69.0165 272.206 68.7832 272.08 68.6385 271.828L66.5105 268.587C66.4312 268.466 66.3425 268.38 66.2445 268.328C66.1512 268.277 66.0112 268.251 65.8245 268.251H65.0195V272.206H63.1365V262.084H66.2235C66.9095 262.084 67.4975 262.157 67.9875 262.301C68.4822 262.441 68.8859 262.64 69.1985 262.896C69.5159 263.153 69.7492 263.461 69.8985 263.82C70.0479 264.175 70.1225 264.567 70.1225 264.996C70.1225 265.337 70.0712 265.659 69.9685 265.962C69.8705 266.266 69.7259 266.541 69.5345 266.788C69.3479 267.036 69.1145 267.253 68.8345 267.439C68.5592 267.626 68.2442 267.773 67.8895 267.88C68.0109 267.95 68.1229 268.034 68.2255 268.132C68.3282 268.226 68.4215 268.338 68.5055 268.468L71.0395 272.206ZM80.4201 268.384L79.1881 265.017C79.1274 264.868 79.0644 264.691 78.9991 264.485C78.9337 264.28 78.8684 264.058 78.8031 263.82C78.7424 264.058 78.6794 264.282 78.6141 264.492C78.5487 264.698 78.4857 264.877 78.4251 265.031L77.2001 268.384H80.4201ZM83.7451 272.206H82.2891C82.1257 272.206 81.9927 272.167 81.8901 272.087C81.7874 272.003 81.7104 271.901 81.6591 271.779L80.9031 269.714H76.7101L75.9541 271.779C75.9167 271.887 75.8444 271.985 75.7371 272.073C75.6297 272.162 75.4967 272.206 75.3381 272.206H73.8681L77.8511 262.084H79.7691L83.7451 272.206ZM90.7218 270.652V272.206H84.7928V262.084H86.6758V270.652H90.7218ZM93.9562 263.582V266.389H97.4982V267.838H93.9562V270.701H98.4502V272.206H92.0662V262.084H98.4502V263.582H93.9562ZM103.178 266.9C103.533 266.9 103.841 266.856 104.102 266.767C104.368 266.679 104.585 266.557 104.753 266.403C104.926 266.245 105.054 266.058 105.138 265.843C105.222 265.629 105.264 265.393 105.264 265.136C105.264 264.623 105.094 264.229 104.753 263.953C104.417 263.678 103.901 263.54 103.206 263.54H102.002V266.9H103.178ZM108.022 272.206H106.321C105.999 272.206 105.766 272.08 105.621 271.828L103.493 268.587C103.414 268.466 103.325 268.38 103.227 268.328C103.134 268.277 102.994 268.251 102.807 268.251H102.002V272.206H100.119V262.084H103.206C103.892 262.084 104.48 262.157 104.97 262.301C105.465 262.441 105.868 262.64 106.181 262.896C106.498 263.153 106.732 263.461 106.881 263.82C107.03 264.175 107.105 264.567 107.105 264.996C107.105 265.337 107.054 265.659 106.951 265.962C106.853 266.266 106.708 266.541 106.517 266.788C106.33 267.036 106.097 267.253 105.817 267.439C105.542 267.626 105.227 267.773 104.872 267.88C104.993 267.95 105.105 268.034 105.208 268.132C105.311 268.226 105.404 268.338 105.488 268.468L108.022 272.206ZM115.925 263.631H112.873V272.206H110.99V263.631H107.938V262.084H115.925V263.631ZM121.613 268.384L120.381 265.017C120.321 264.868 120.258 264.691 120.192 264.485C120.127 264.28 120.062 264.058 119.996 263.82C119.936 264.058 119.873 264.282 119.807 264.492C119.742 264.698 119.679 264.877 119.618 265.031L118.393 268.384H121.613ZM124.938 272.206H123.482C123.319 272.206 123.186 272.167 123.083 272.087C122.981 272.003 122.904 271.901 122.852 271.779L122.096 269.714H117.903L117.147 271.779C117.11 271.887 117.038 271.985 116.93 272.073C116.823 272.162 116.69 272.206 116.531 272.206H115.061L119.044 262.084H120.962L124.938 272.206Z" fill="black"/>
<path d="M34.0621 269.819C34.1648 269.819 34.2558 269.859 34.3351 269.938L35.0771 270.743C34.6665 271.252 34.1601 271.642 33.5581 271.912C32.9608 272.183 32.2421 272.318 31.4021 272.318C30.6508 272.318 29.9741 272.19 29.3721 271.933C28.7748 271.677 28.2638 271.32 27.8391 270.862C27.4145 270.405 27.0878 269.859 26.8591 269.224C26.6351 268.59 26.5231 267.897 26.5231 267.145C26.5231 266.385 26.6445 265.689 26.8871 265.059C27.1298 264.425 27.4705 263.879 27.9091 263.421C28.3525 262.964 28.8798 262.609 29.4911 262.357C30.1025 262.101 30.7791 261.972 31.5211 261.972C32.2585 261.972 32.9118 262.094 33.4811 262.336C34.0551 262.579 34.5428 262.896 34.9441 263.288L34.3141 264.163C34.2768 264.219 34.2278 264.268 34.1671 264.31C34.1111 264.352 34.0318 264.373 33.9291 264.373C33.8591 264.373 33.7868 264.355 33.7121 264.317C33.6375 264.275 33.5558 264.226 33.4671 264.17C33.3785 264.11 33.2758 264.044 33.1591 263.974C33.0425 263.904 32.9071 263.841 32.7531 263.785C32.5991 263.725 32.4195 263.676 32.2141 263.638C32.0135 263.596 31.7801 263.575 31.5141 263.575C31.0615 263.575 30.6461 263.657 30.2681 263.82C29.8948 263.979 29.5728 264.212 29.3021 264.52C29.0315 264.824 28.8215 265.197 28.6721 265.64C28.5228 266.079 28.4481 266.581 28.4481 267.145C28.4481 267.715 28.5275 268.221 28.6861 268.664C28.8495 269.108 29.0688 269.481 29.3441 269.784C29.6195 270.088 29.9438 270.321 30.3171 270.484C30.6905 270.643 31.0918 270.722 31.5211 270.722C31.7778 270.722 32.0088 270.708 32.2141 270.68C32.4241 270.652 32.6155 270.608 32.7881 270.547C32.9655 270.487 33.1311 270.41 33.2851 270.316C33.4438 270.218 33.6001 270.099 33.7541 269.959C33.8008 269.917 33.8498 269.885 33.9011 269.861C33.9525 269.833 34.0061 269.819 34.0621 269.819ZM39.426 266.9C39.7807 266.9 40.0887 266.856 40.35 266.767C40.616 266.679 40.833 266.557 41.001 266.403C41.1737 266.245 41.302 266.058 41.386 265.843C41.47 265.629 41.512 265.393 41.512 265.136C41.512 264.623 41.3417 264.229 41.001 263.953C40.665 263.678 40.1493 263.54 39.454 263.54H38.25V266.9H39.426ZM44.27 272.206H42.569C42.247 272.206 42.0137 272.08 41.869 271.828L39.741 268.587C39.6617 268.466 39.573 268.38 39.475 268.328C39.3817 268.277 39.2417 268.251 39.055 268.251H38.25V272.206H36.367V262.084H39.454C40.14 262.084 40.728 262.157 41.218 262.301C41.7127 262.441 42.1163 262.64 42.429 262.896C42.7463 263.153 42.9797 263.461 43.129 263.82C43.2783 264.175 43.353 264.567 43.353 264.996C43.353 265.337 43.3017 265.659 43.199 265.962C43.101 266.266 42.9563 266.541 42.765 266.788C42.5783 267.036 42.345 267.253 42.065 267.439C41.7897 267.626 41.4747 267.773 41.12 267.88C41.2413 267.95 41.3533 268.034 41.456 268.132C41.5587 268.226 41.652 268.338 41.736 268.468L44.27 272.206ZM47.2531 263.582V266.389H50.7951V267.838H47.2531V270.701H51.7471V272.206H45.3631V262.084H51.7471V263.582H47.2531ZM58.7638 268.384L57.5318 265.017C57.4712 264.868 57.4082 264.691 57.3428 264.485C57.2775 264.28 57.2122 264.058 57.1468 263.82C57.0862 264.058 57.0232 264.282 56.9578 264.492C56.8925 264.698 56.8295 264.877 56.7688 265.031L55.5438 268.384H58.7638ZM62.0888 272.206H60.6328C60.4695 272.206 60.3365 272.167 60.2338 272.087C60.1312 272.003 60.0542 271.901 60.0028 271.779L59.2468 269.714H55.0538L54.2978 271.779C54.2605 271.887 54.1882 271.985 54.0808 272.073C53.9735 272.162 53.8405 272.206 53.6818 272.206H52.2118L56.1948 262.084H58.1128L62.0888 272.206ZM66.1955 266.9C66.5502 266.9 66.8582 266.856 67.1195 266.767C67.3855 266.679 67.6025 266.557 67.7705 266.403C67.9432 266.245 68.0715 266.058 68.1555 265.843C68.2395 265.629 68.2815 265.393 68.2815 265.136C68.2815 264.623 68.1112 264.229 67.7705 263.953C67.4345 263.678 66.9189 263.54 66.2235 263.54H65.0195V266.9H66.1955ZM71.0395 272.206H69.3385C69.0165 272.206 68.7832 272.08 68.6385 271.828L66.5105 268.587C66.4312 268.466 66.3425 268.38 66.2445 268.328C66.1512 268.277 66.0112 268.251 65.8245 268.251H65.0195V272.206H63.1365V262.084H66.2235C66.9095 262.084 67.4975 262.157 67.9875 262.301C68.4822 262.441 68.8859 262.64 69.1985 262.896C69.5159 263.153 69.7492 263.461 69.8985 263.82C70.0479 264.175 70.1225 264.567 70.1225 264.996C70.1225 265.337 70.0712 265.659 69.9685 265.962C69.8705 266.266 69.7259 266.541 69.5345 266.788C69.3479 267.036 69.1145 267.253 68.8345 267.439C68.5592 267.626 68.2442 267.773 67.8895 267.88C68.0109 267.95 68.1229 268.034 68.2255 268.132C68.3282 268.226 68.4215 268.338 68.5055 268.468L71.0395 272.206ZM80.4201 268.384L79.1881 265.017C79.1274 264.868 79.0644 264.691 78.9991 264.485C78.9337 264.28 78.8684 264.058 78.8031 263.82C78.7424 264.058 78.6794 264.282 78.6141 264.492C78.5487 264.698 78.4857 264.877 78.4251 265.031L77.2001 268.384H80.4201ZM83.7451 272.206H82.2891C82.1257 272.206 81.9927 272.167 81.8901 272.087C81.7874 272.003 81.7104 271.901 81.6591 271.779L80.9031 269.714H76.7101L75.9541 271.779C75.9167 271.887 75.8444 271.985 75.7371 272.073C75.6297 272.162 75.4967 272.206 75.3381 272.206H73.8681L77.8511 262.084H79.7691L83.7451 272.206ZM90.7218 270.652V272.206H84.7928V262.084H86.6758V270.652H90.7218ZM93.9562 263.582V266.389H97.4982V267.838H93.9562V270.701H98.4502V272.206H92.0662V262.084H98.4502V263.582H93.9562ZM103.178 266.9C103.533 266.9 103.841 266.856 104.102 266.767C104.368 266.679 104.585 266.557 104.753 266.403C104.926 266.245 105.054 266.058 105.138 265.843C105.222 265.629 105.264 265.393 105.264 265.136C105.264 264.623 105.094 264.229 104.753 263.953C104.417 263.678 103.901 263.54 103.206 263.54H102.002V266.9H103.178ZM108.022 272.206H106.321C105.999 272.206 105.766 272.08 105.621 271.828L103.493 268.587C103.414 268.466 103.325 268.38 103.227 268.328C103.134 268.277 102.994 268.251 102.807 268.251H102.002V272.206H100.119V262.084H103.206C103.892 262.084 104.48 262.157 104.97 262.301C105.465 262.441 105.868 262.64 106.181 262.896C106.498 263.153 106.732 263.461 106.881 263.82C107.03 264.175 107.105 264.567 107.105 264.996C107.105 265.337 107.054 265.659 106.951 265.962C106.853 266.266 106.708 266.541 106.517 266.788C106.33 267.036 106.097 267.253 105.817 267.439C105.542 267.626 105.227 267.773 104.872 267.88C104.993 267.95 105.105 268.034 105.208 268.132C105.311 268.226 105.404 268.338 105.488 268.468L108.022 272.206ZM115.925 263.631H112.873V272.206H110.99V263.631H107.938V262.084H115.925V263.631ZM121.613 268.384L120.381 265.017C120.321 264.868 120.258 264.691 120.192 264.485C120.127 264.28 120.062 264.058 119.996 263.82C119.936 264.058 119.873 264.282 119.807 264.492C119.742 264.698 119.679 264.877 119.618 265.031L118.393 268.384H121.613ZM124.938 272.206H123.482C123.319 272.206 123.186 272.167 123.083 272.087C122.981 272.003 122.904 271.901 122.852 271.779L122.096 269.714H117.903L117.147 271.779C117.11 271.887 117.038 271.985 116.93 272.073C116.823 272.162 116.69 272.206 116.531 272.206H115.061L119.044 262.084H120.962L124.938 272.206Z" fill="black"/>
<path d="M34.0621 269.819C34.1648 269.819 34.2558 269.859 34.3351 269.938L35.0771 270.743C34.6665 271.252 34.1601 271.642 33.5581 271.912C32.9608 272.183 32.2421 272.318 31.4021 272.318C30.6508 272.318 29.9741 272.19 29.3721 271.933C28.7748 271.677 28.2638 271.32 27.8391 270.862C27.4145 270.405 27.0878 269.859 26.8591 269.224C26.6351 268.59 26.5231 267.897 26.5231 267.145C26.5231 266.385 26.6445 265.689 26.8871 265.059C27.1298 264.425 27.4705 263.879 27.9091 263.421C28.3525 262.964 28.8798 262.609 29.4911 262.357C30.1025 262.101 30.7791 261.972 31.5211 261.972C32.2585 261.972 32.9118 262.094 33.4811 262.336C34.0551 262.579 34.5428 262.896 34.9441 263.288L34.3141 264.163C34.2768 264.219 34.2278 264.268 34.1671 264.31C34.1111 264.352 34.0318 264.373 33.9291 264.373C33.8591 264.373 33.7868 264.355 33.7121 264.317C33.6375 264.275 33.5558 264.226 33.4671 264.17C33.3785 264.11 33.2758 264.044 33.1591 263.974C33.0425 263.904 32.9071 263.841 32.7531 263.785C32.5991 263.725 32.4195 263.676 32.2141 263.638C32.0135 263.596 31.7801 263.575 31.5141 263.575C31.0615 263.575 30.6461 263.657 30.2681 263.82C29.8948 263.979 29.5728 264.212 29.3021 264.52C29.0315 264.824 28.8215 265.197 28.6721 265.64C28.5228 266.079 28.4481 266.581 28.4481 267.145C28.4481 267.715 28.5275 268.221 28.6861 268.664C28.8495 269.108 29.0688 269.481 29.3441 269.784C29.6195 270.088 29.9438 270.321 30.3171 270.484C30.6905 270.643 31.0918 270.722 31.5211 270.722C31.7778 270.722 32.0088 270.708 32.2141 270.68C32.4241 270.652 32.6155 270.608 32.7881 270.547C32.9655 270.487 33.1311 270.41 33.2851 270.316C33.4438 270.218 33.6001 270.099 33.7541 269.959C33.8008 269.917 33.8498 269.885 33.9011 269.861C33.9525 269.833 34.0061 269.819 34.0621 269.819ZM39.426 266.9C39.7807 266.9 40.0887 266.856 40.35 266.767C40.616 266.679 40.833 266.557 41.001 266.403C41.1737 266.245 41.302 266.058 41.386 265.843C41.47 265.629 41.512 265.393 41.512 265.136C41.512 264.623 41.3417 264.229 41.001 263.953C40.665 263.678 40.1493 263.54 39.454 263.54H38.25V266.9H39.426ZM44.27 272.206H42.569C42.247 272.206 42.0137 272.08 41.869 271.828L39.741 268.587C39.6617 268.466 39.573 268.38 39.475 268.328C39.3817 268.277 39.2417 268.251 39.055 268.251H38.25V272.206H36.367V262.084H39.454C40.14 262.084 40.728 262.157 41.218 262.301C41.7127 262.441 42.1163 262.64 42.429 262.896C42.7463 263.153 42.9797 263.461 43.129 263.82C43.2783 264.175 43.353 264.567 43.353 264.996C43.353 265.337 43.3017 265.659 43.199 265.962C43.101 266.266 42.9563 266.541 42.765 266.788C42.5783 267.036 42.345 267.253 42.065 267.439C41.7897 267.626 41.4747 267.773 41.12 267.88C41.2413 267.95 41.3533 268.034 41.456 268.132C41.5587 268.226 41.652 268.338 41.736 268.468L44.27 272.206ZM47.2531 263.582V266.389H50.7951V267.838H47.2531V270.701H51.7471V272.206H45.3631V262.084H51.7471V263.582H47.2531ZM58.7638 268.384L57.5318 265.017C57.4712 264.868 57.4082 264.691 57.3428 264.485C57.2775 264.28 57.2122 264.058 57.1468 263.82C57.0862 264.058 57.0232 264.282 56.9578 264.492C56.8925 264.698 56.8295 264.877 56.7688 265.031L55.5438 268.384H58.7638ZM62.0888 272.206H60.6328C60.4695 272.206 60.3365 272.167 60.2338 272.087C60.1312 272.003 60.0542 271.901 60.0028 271.779L59.2468 269.714H55.0538L54.2978 271.779C54.2605 271.887 54.1882 271.985 54.0808 272.073C53.9735 272.162 53.8405 272.206 53.6818 272.206H52.2118L56.1948 262.084H58.1128L62.0888 272.206ZM66.1955 266.9C66.5502 266.9 66.8582 266.856 67.1195 266.767C67.3855 266.679 67.6025 266.557 67.7705 266.403C67.9432 266.245 68.0715 266.058 68.1555 265.843C68.2395 265.629 68.2815 265.393 68.2815 265.136C68.2815 264.623 68.1112 264.229 67.7705 263.953C67.4345 263.678 66.9189 263.54 66.2235 263.54H65.0195V266.9H66.1955ZM71.0395 272.206H69.3385C69.0165 272.206 68.7832 272.08 68.6385 271.828L66.5105 268.587C66.4312 268.466 66.3425 268.38 66.2445 268.328C66.1512 268.277 66.0112 268.251 65.8245 268.251H65.0195V272.206H63.1365V262.084H66.2235C66.9095 262.084 67.4975 262.157 67.9875 262.301C68.4822 262.441 68.8859 262.64 69.1985 262.896C69.5159 263.153 69.7492 263.461 69.8985 263.82C70.0479 264.175 70.1225 264.567 70.1225 264.996C70.1225 265.337 70.0712 265.659 69.9685 265.962C69.8705 266.266 69.7259 266.541 69.5345 266.788C69.3479 267.036 69.1145 267.253 68.8345 267.439C68.5592 267.626 68.2442 267.773 67.8895 267.88C68.0109 267.95 68.1229 268.034 68.2255 268.132C68.3282 268.226 68.4215 268.338 68.5055 268.468L71.0395 272.206ZM80.4201 268.384L79.1881 265.017C79.1274 264.868 79.0644 264.691 78.9991 264.485C78.9337 264.28 78.8684 264.058 78.8031 263.82C78.7424 264.058 78.6794 264.282 78.6141 264.492C78.5487 264.698 78.4857 264.877 78.4251 265.031L77.2001 268.384H80.4201ZM83.7451 272.206H82.2891C82.1257 272.206 81.9927 272.167 81.8901 272.087C81.7874 272.003 81.7104 271.901 81.6591 271.779L80.9031 269.714H76.7101L75.9541 271.779C75.9167 271.887 75.8444 271.985 75.7371 272.073C75.6297 272.162 75.4967 272.206 75.3381 272.206H73.8681L77.8511 262.084H79.7691L83.7451 272.206ZM90.7218 270.652V272.206H84.7928V262.084H86.6758V270.652H90.7218ZM93.9562 263.582V266.389H97.4982V267.838H93.9562V270.701H98.4502V272.206H92.0662V262.084H98.4502V263.582H93.9562ZM103.178 266.9C103.533 266.9 103.841 266.856 104.102 266.767C104.368 266.679 104.585 266.557 104.753 266.403C104.926 266.245 105.054 266.058 105.138 265.843C105.222 265.629 105.264 265.393 105.264 265.136C105.264 264.623 105.094 264.229 104.753 263.953C104.417 263.678 103.901 263.54 103.206 263.54H102.002V266.9H103.178ZM108.022 272.206H106.321C105.999 272.206 105.766 272.08 105.621 271.828L103.493 268.587C103.414 268.466 103.325 268.38 103.227 268.328C103.134 268.277 102.994 268.251 102.807 268.251H102.002V272.206H100.119V262.084H103.206C103.892 262.084 104.48 262.157 104.97 262.301C105.465 262.441 105.868 262.64 106.181 262.896C106.498 263.153 106.732 263.461 106.881 263.82C107.03 264.175 107.105 264.567 107.105 264.996C107.105 265.337 107.054 265.659 106.951 265.962C106.853 266.266 106.708 266.541 106.517 266.788C106.33 267.036 106.097 267.253 105.817 267.439C105.542 267.626 105.227 267.773 104.872 267.88C104.993 267.95 105.105 268.034 105.208 268.132C105.311 268.226 105.404 268.338 105.488 268.468L108.022 272.206ZM115.925 263.631H112.873V272.206H110.99V263.631H107.938V262.084H115.925V263.631ZM121.613 268.384L120.381 265.017C120.321 264.868 120.258 264.691 120.192 264.485C120.127 264.28 120.062 264.058 119.996 263.82C119.936 264.058 119.873 264.282 119.807 264.492C119.742 264.698 119.679 264.877 119.618 265.031L118.393 268.384H121.613ZM124.938 272.206H123.482C123.319 272.206 123.186 272.167 123.083 272.087C122.981 272.003 122.904 271.901 122.852 271.779L122.096 269.714H117.903L117.147 271.779C117.11 271.887 117.038 271.985 116.93 272.073C116.823 272.162 116.69 272.206 116.531 272.206H115.061L119.044 262.084H120.962L124.938 272.206Z" fill="#37474F"/>
</g>
<defs>
<clipPath id="clip0_376_683">
<rect width="150.843" height="292.206" fill="white"/>
</clipPath>
</defs>
</svg>
