<svg width="129" height="293" viewBox="0 0 129 293" fill="none" xmlns="http://www.w3.org/2000/svg">
<circle cx="104.843" cy="20.1032" r="20.1032" fill="#4D4295"/>
<path d="M101.219 24.05V22.5493L104.918 18.5879C105.448 17.9714 105.826 17.4536 106.053 17.0348C106.279 16.616 106.393 16.2234 106.393 15.8569C106.393 15.3625 106.262 14.9669 106 14.6703C105.738 14.3678 105.357 14.2165 104.857 14.2165C104.363 14.2165 103.976 14.3911 103.697 14.7401C103.423 15.0891 103.287 15.5719 103.287 16.1885H101.053L101.035 16.1448C101.012 15.0862 101.355 14.2078 102.065 13.5098C102.781 12.8059 103.729 12.454 104.91 12.454C106.09 12.454 107.015 12.7565 107.684 13.3615C108.359 13.9664 108.696 14.7866 108.696 15.822C108.696 16.4793 108.525 17.0872 108.182 17.6456C107.838 18.204 107.193 18.9951 106.244 20.0189L104.211 22.2439L104.229 22.2788H109.037L109.028 24.05H101.219Z" fill="white"/>
<path d="M54.5936 139.809H14.682C12.0725 139.809 9.95703 141.924 9.95703 144.533V175.161C9.95703 177.77 12.0725 179.886 14.682 179.886H54.5936C57.2031 179.886 59.3185 177.77 59.3185 175.161V144.533C59.3185 141.924 57.2031 139.809 54.5936 139.809Z" fill="white"/>
<path d="M36.613 178.66C37.1182 179.902 46.9119 189.087 46.9119 189.087V178.66H36.613Z" fill="#4D4295"/>
<path d="M43.4996 148.699C43.2576 147.916 42.8619 147.189 42.3358 146.561C41.8096 145.932 41.1635 145.415 40.4352 145.039C38.791 144.273 36.9317 144.103 35.176 144.558C33.4366 145.019 31.7834 145.758 30.2813 146.749C29.3969 147.238 28.6118 147.888 27.9664 148.666C26.8608 150.136 25.8007 152.534 25.7427 154.373C25.693 155.859 26.368 159.557 27.0347 160.887C27.3888 161.436 27.8974 161.868 28.4965 162.129C29.2111 163.446 30.1548 164.626 31.2834 165.612C31.5982 164.607 31.9143 163.6 32.2317 162.593L43.4996 148.699Z" fill="#263238"/>
<path d="M42.5927 146.902L39.6526 146.463C41.3587 150.223 42.042 158.92 43.0731 162.92C44.1042 161.325 46.4729 156.489 46.2866 154.596C46.1002 152.704 46.0588 146.48 42.5927 146.902Z" fill="#263238"/>
<path d="M28.9065 153.636C28.9276 152.566 29.2914 151.531 29.9444 150.684C30.5974 149.836 31.5051 149.22 32.5341 148.927L39.2219 147.018C42.1207 146.604 44.1664 150.145 44.4438 153.06C44.7461 156.298 44.9739 159.723 44.6633 162.17C44.0421 167.065 40.3276 167.802 40.3276 167.802C40.3276 167.802 40.3938 170.117 40.4311 171.529L39.342 177.902L30.5257 170.374L28.8693 153.694C28.8858 153.611 28.9024 153.747 28.9065 153.636Z" fill="#FFBF9D"/>
<path d="M42.9697 157.114C42.9776 157.276 42.9211 157.435 42.8126 157.556C42.704 157.677 42.5521 157.75 42.3899 157.76C42.3106 157.769 42.2302 157.762 42.1536 157.74C42.0769 157.717 42.0056 157.68 41.9438 157.629C41.882 157.578 41.831 157.516 41.7938 157.445C41.7566 157.375 41.734 157.297 41.7273 157.218C41.7215 157.055 41.7786 156.897 41.8866 156.776C41.9946 156.655 42.1453 156.58 42.3071 156.567C42.3867 156.559 42.4671 156.566 42.5438 156.589C42.6204 156.612 42.6917 156.65 42.7534 156.701C42.8152 156.752 42.8661 156.815 42.9032 156.886C42.9404 156.957 42.9629 157.034 42.9697 157.114Z" fill="#263238"/>
<path d="M43.7646 154.99C43.6901 155.072 43.2056 154.737 42.5223 154.762C41.839 154.787 41.367 155.135 41.28 155.052C41.193 154.969 41.3173 154.87 41.5285 154.704C41.8136 154.494 42.1562 154.377 42.5099 154.369C42.859 154.358 43.2025 154.458 43.4913 154.654C43.7274 154.807 43.8019 154.952 43.7646 154.99Z" fill="#263238"/>
<path d="M36.9153 157.114C36.9232 157.276 36.8668 157.435 36.7582 157.556C36.6497 157.677 36.4978 157.75 36.3356 157.76C36.2562 157.769 36.1759 157.762 36.0992 157.74C36.0226 157.717 35.9513 157.68 35.8895 157.629C35.8277 157.578 35.7767 157.516 35.7395 157.445C35.7023 157.375 35.6797 157.297 35.673 157.218C35.6672 157.055 35.7248 156.896 35.8337 156.775C35.9426 156.653 36.0943 156.579 36.2569 156.567C36.3362 156.559 36.4165 156.566 36.4929 156.589C36.5693 156.612 36.6403 156.65 36.7017 156.701C36.7631 156.752 36.8136 156.815 36.8503 156.886C36.887 156.957 36.9091 157.034 36.9153 157.114Z" fill="#263238"/>
<path d="M37.3833 155.172C37.3046 155.255 36.8242 154.919 36.1409 154.944C35.4577 154.969 34.9897 155.317 34.8986 155.234C34.8075 155.151 34.9359 155.052 35.1471 154.886C35.4323 154.677 35.7748 154.56 36.1285 154.551C36.4776 154.54 36.8211 154.64 37.1099 154.836C37.3418 154.99 37.4412 155.135 37.3833 155.172Z" fill="#263238"/>
<path d="M39.6319 160.39C39.9845 160.271 40.3501 160.194 40.721 160.162C40.8907 160.137 41.0522 160.1 41.0771 159.98C41.0859 159.802 41.0412 159.626 40.9487 159.474C40.7748 159.06 40.5926 158.646 40.398 158.182C39.636 156.344 39.0811 154.828 39.1556 154.799C39.2302 154.77 39.9052 156.236 40.6671 158.075L41.1972 159.375C41.3101 159.579 41.3482 159.817 41.3049 160.046C41.2819 160.107 41.2453 160.162 41.198 160.208C41.1507 160.253 41.0938 160.287 41.0315 160.307C40.9373 160.335 40.8399 160.352 40.7417 160.357C40.3747 160.415 40.0017 160.426 39.6319 160.39Z" fill="#263238"/>
<path d="M33.8179 166.237C33.8179 166.237 35.4991 169.55 40.3566 168.928L40.3401 167.786C38.0644 167.884 35.8061 167.348 33.8179 166.237Z" fill="#FF9A6C"/>
<path d="M37.1018 152.749C37.0396 152.932 36.3688 152.869 35.582 152.985C34.7952 153.101 34.1657 153.342 34.0539 153.18C34.0042 153.101 34.1119 152.927 34.3645 152.741C34.7009 152.514 35.0845 152.367 35.4863 152.31C35.8881 152.254 36.2975 152.289 36.6835 152.414C36.9775 152.522 37.1266 152.662 37.1018 152.749Z" fill="#263238"/>
<path d="M43.4872 152.94C43.3754 153.097 42.9075 152.94 42.3484 152.961C41.7894 152.981 41.3256 153.097 41.2096 152.94C41.16 152.861 41.2304 152.708 41.4333 152.559C41.704 152.376 42.0235 152.278 42.3505 152.278C42.6775 152.278 42.997 152.376 43.2678 152.559C43.4665 152.708 43.5369 152.865 43.4872 152.94Z" fill="#263238"/>
<path d="M42.9902 148.65C42.8083 148.297 42.5319 148.002 42.1919 147.797C41.8518 147.592 41.4615 147.486 41.0646 147.49C40.2682 147.511 39.4946 147.761 38.8368 148.211C35.9836 149.971 34.6087 154.062 31.7969 155.88C31.1054 156.323 30.1736 155.959 29.5898 156.543C29.0059 157.126 28.6456 158.038 28.9976 158.783C28.5729 158.283 28.2215 157.725 27.954 157.126C27.8233 156.826 27.7582 156.501 27.7632 156.173C27.7682 155.845 27.8431 155.522 27.983 155.226C28.2191 154.787 28.6456 154.447 28.7533 153.983C28.8609 153.52 28.6663 153.118 28.6746 152.683C28.7135 152.242 28.8554 151.817 29.0887 151.441C30.1087 149.385 31.6691 147.646 33.6024 146.409C34.8785 145.618 36.3457 145.189 37.847 145.167C39.3528 145.16 40.8115 145.691 41.9591 146.666C42.6175 147.246 43.3091 147.846 42.9985 148.666" fill="#263238"/>
<path d="M29.6768 157.143C29.6188 157.006 27.0514 156.162 27.0969 158.862C27.1383 161.487 29.772 160.895 29.772 160.82C29.772 160.746 29.6768 157.143 29.6768 157.143Z" fill="#FFBF9D"/>
<path d="M28.9438 159.843C28.9438 159.843 28.8983 159.876 28.8237 159.909C28.7133 159.953 28.5905 159.953 28.48 159.909C28.3095 159.804 28.1697 159.655 28.0745 159.479C27.9793 159.302 27.9321 159.103 27.9376 158.903C27.9292 158.678 27.9688 158.453 28.0535 158.245C28.0777 158.162 28.1212 158.087 28.1802 158.025C28.2393 157.963 28.3122 157.917 28.3931 157.888C28.4449 157.873 28.5004 157.877 28.5497 157.899C28.599 157.921 28.6389 157.96 28.6622 158.009C28.6995 158.083 28.683 158.133 28.6995 158.137C28.7161 158.141 28.7534 158.095 28.7326 157.984C28.7152 157.92 28.6774 157.863 28.625 157.822C28.552 157.77 28.4614 157.747 28.3724 157.76C28.2651 157.784 28.1656 157.834 28.083 157.906C28.0005 157.979 27.9376 158.071 27.9003 158.174C27.7929 158.403 27.7431 158.655 27.7554 158.907C27.747 159.142 27.8082 159.373 27.9313 159.573C28.0544 159.773 28.2338 159.931 28.4469 160.029C28.5175 160.047 28.5911 160.049 28.6626 160.036C28.7342 160.022 28.8019 159.993 28.861 159.951C28.9397 159.905 28.9563 159.847 28.9438 159.843Z" fill="#FF9A6C"/>
<path d="M28.5918 155.826C28.6459 155.803 28.6973 155.774 28.745 155.739C28.8444 155.673 28.9935 155.586 29.1591 155.449C29.6643 155.056 30.1266 154.61 30.5381 154.12C31.1335 153.386 31.6865 152.619 32.1945 151.822C32.807 150.847 33.4995 149.924 34.2651 149.064C34.6775 148.633 35.1357 148.248 35.6316 147.917C36.097 147.615 36.5977 147.372 37.1224 147.192C38.0111 146.879 38.9514 146.738 39.8928 146.778C40.5276 146.799 41.1569 146.903 41.7645 147.089C41.9799 147.151 42.1414 147.217 42.2532 147.254L42.4271 147.312L42.2615 147.233C42.1036 147.162 41.9419 147.1 41.777 147.047C41.1692 146.839 40.5345 146.721 39.8928 146.695C38.9389 146.651 37.9855 146.791 37.0851 147.109C36.5514 147.291 36.0423 147.539 35.5695 147.846C35.0637 148.179 34.597 148.568 34.1781 149.006C33.4091 149.871 32.7163 150.8 32.1076 151.784C31.5949 152.581 31.042 153.351 30.4511 154.091C30.0623 154.568 29.6297 155.007 29.1591 155.404C28.9852 155.545 28.8361 155.64 28.745 155.714L28.5918 155.826Z" fill="white"/>
<path d="M29.2751 156.567C29.1912 157.272 29.294 157.986 29.5732 158.638C29.9252 159.267 30.77 159.677 31.3829 159.301C31.8839 158.998 32.0165 158.34 32.0869 157.76C32.2898 156.083 32.3519 154.389 32.5672 152.712L29.2751 156.567Z" fill="#263238"/>
<path d="M42.3111 147.42C42.3111 147.42 42.0792 147.383 41.6568 147.383C41.0629 147.39 40.4761 147.513 39.93 147.747C39.553 147.907 39.1935 148.105 38.8575 148.339C38.4734 148.613 38.1069 148.91 37.7601 149.229C36.9553 149.951 36.2406 150.767 35.6316 151.66C35.3127 152.137 35.0311 152.625 34.7205 153.081C34.4344 153.524 34.0966 153.931 33.7143 154.294C33.0496 154.89 32.3188 155.409 31.5361 155.839C30.8776 156.215 30.3227 156.48 29.9418 156.667L29.4987 156.87C29.4475 156.897 29.3933 156.918 29.3372 156.932C29.3832 156.897 29.4332 156.868 29.4862 156.845L29.9003 156.613C30.273 156.414 30.8197 156.137 31.4698 155.756C32.2352 155.316 32.9503 154.794 33.6025 154.199C33.9783 153.842 34.3105 153.441 34.5922 153.006C34.8945 152.555 35.1761 152.066 35.4991 151.582C36.1186 150.673 36.8473 149.844 37.669 149.114C38.0238 148.796 38.3971 148.5 38.7871 148.227C39.1313 147.991 39.5007 147.794 39.8886 147.639C40.4489 147.409 41.0511 147.297 41.6568 147.312C41.8208 147.318 41.9841 147.336 42.1455 147.366C42.2026 147.377 42.2582 147.396 42.3111 147.42Z" fill="#455A64"/>
<path d="M29.1592 154.932C29.0898 154.994 29.0134 155.048 28.9314 155.093L28.2771 155.507L28.0576 155.64C27.9712 155.695 27.8736 155.73 27.7719 155.743C27.7105 155.754 27.6472 155.743 27.5938 155.71C27.565 155.691 27.5407 155.665 27.5229 155.635C27.505 155.605 27.4939 155.571 27.4903 155.536C27.4938 155.415 27.5342 155.298 27.6063 155.201L28.3434 153.959L28.451 154.054C28.2009 154.246 27.9211 154.395 27.6228 154.497C27.3212 154.597 27.0045 154.643 26.6869 154.634C26.6057 154.634 26.5248 154.623 26.4468 154.6C26.4012 154.589 26.3589 154.568 26.323 154.538C26.2871 154.507 26.2586 154.469 26.2397 154.427C26.2239 154.383 26.2187 154.336 26.2244 154.29C26.2302 154.244 26.2468 154.2 26.2728 154.161C26.317 154.101 26.3654 154.045 26.4178 153.992C26.7533 153.649 27.0403 153.261 27.2708 152.84C27.4797 152.44 27.6582 152.025 27.805 151.598C27.7978 151.718 27.7742 151.837 27.7346 151.95C27.6422 152.268 27.5188 152.576 27.3661 152.869C27.1394 153.313 26.8508 153.721 26.5089 154.083C26.4136 154.178 26.3184 154.29 26.3598 154.369C26.4012 154.447 26.5461 154.489 26.6828 154.484C26.9837 154.493 27.2837 154.448 27.569 154.352C27.8531 154.26 28.1192 154.12 28.3558 153.938L28.6622 153.702L28.4635 154.033L27.7098 155.275C27.6511 155.351 27.6152 155.441 27.6063 155.536C27.6063 155.611 27.6767 155.652 27.7595 155.644C27.9271 155.603 28.0857 155.531 28.2274 155.433L28.9024 155.064C28.9811 155.008 29.0676 154.963 29.1592 154.932Z" fill="white"/>
<path d="M37.1141 161.702C37.1569 161.501 37.2692 161.322 37.4313 161.195C37.5934 161.069 37.7949 161.003 38.0003 161.011C38.1507 161.025 38.295 161.077 38.4207 161.161C38.5464 161.245 38.6495 161.358 38.7209 161.491C38.7892 161.626 38.8299 161.773 38.8405 161.924C38.8512 162.075 38.8316 162.226 38.783 162.369V162.431C38.6483 162.586 38.4689 162.696 38.2694 162.745C38.07 162.794 37.8602 162.78 37.6691 162.704C37.4782 162.623 37.3199 162.48 37.2194 162.299C37.1189 162.117 37.0818 161.907 37.1141 161.702Z" fill="#FF9A6C"/>
<path d="M39.2592 162.431C39.2592 162.332 38.5801 162.381 38.05 161.839C37.5199 161.296 37.5407 160.568 37.4454 160.568C37.3502 160.568 37.3295 160.742 37.3419 161.048C37.3697 161.445 37.5352 161.82 37.8098 162.108C38.0743 162.386 38.4369 162.549 38.8202 162.564C39.0977 162.568 39.2675 162.477 39.2592 162.431Z" fill="#263238"/>
<path d="M50.1047 175.049L50.0302 174.95C46.6345 171.359 40.3897 170.158 40.3897 170.158C40.3897 170.158 40.0088 172.506 36.5096 172.771C33.0104 173.036 30.4346 169.459 30.4346 169.459L25.7676 170.113C25.7676 170.113 23.4155 170.39 21.9496 171.252C18.6367 173.19 16.9058 179.877 16.9058 179.877L52.933 180.022L50.1047 175.049Z" fill="#4D4295"/>
<path d="M53.4009 139.809C53.4009 139.809 53.4838 139.809 53.6494 139.809C53.8993 139.81 54.1485 139.832 54.3948 139.875C55.3567 140.03 56.2647 140.423 57.0368 141.018C58.2879 141.984 59.1066 143.405 59.3144 144.972C59.3618 145.447 59.3798 145.924 59.3682 146.401C59.3682 146.89 59.3682 147.399 59.3682 147.921C59.3682 148.969 59.3682 150.083 59.3682 151.254C59.3682 155.946 59.3682 161.628 59.3931 168.1C59.3931 169.718 59.3931 171.387 59.3931 173.107C59.3931 173.521 59.3931 173.964 59.3931 174.407C59.3604 174.851 59.2799 175.289 59.1529 175.716C58.887 176.585 58.4268 177.382 57.807 178.047C57.1774 178.736 56.3923 179.264 55.517 179.588L55.1857 179.708L54.842 179.795C54.6131 179.853 54.3807 179.897 54.1463 179.927C53.6742 179.97 53.2 179.987 52.7259 179.977H46.9285L47.0237 179.877C47.0237 182.776 47.0237 185.894 47.0237 189.079V189.315L46.8498 189.153C45.3259 187.723 43.7771 186.248 42.2035 184.727C40.6382 183.194 39.0397 181.637 37.5075 179.969L37.5862 180.006H16.5372C16.1521 180.006 15.7669 180.006 15.3735 179.981C14.208 179.884 13.0961 179.449 12.1738 178.73C11.2516 178.01 10.5589 177.038 10.1806 175.931C9.94198 175.208 9.82991 174.448 9.84935 173.687V171.459C9.84935 165.541 9.84935 159.839 9.84935 154.402C9.84935 151.685 9.84935 149.039 9.84935 146.463C9.82648 145.817 9.86809 145.171 9.97358 144.533C10.1078 143.907 10.3368 143.306 10.6527 142.749C11.2823 141.659 12.2342 140.791 13.3775 140.264C13.9315 140.012 14.5209 139.847 15.1251 139.775C15.7144 139.724 16.3062 139.707 16.8974 139.726H26.7946L46.2576 139.759L51.5499 139.78L46.2576 139.8L26.7946 139.833H20.3428H16.9099C16.3254 139.82 15.7407 139.838 15.1582 139.887C14.2609 140.002 13.4025 140.323 12.6508 140.826C11.899 141.329 11.2745 142 10.8266 142.786C10.5176 143.34 10.2955 143.937 10.1682 144.558C10.0646 145.183 10.0257 145.818 10.0523 146.451C10.0523 149.021 10.0523 151.667 10.0523 154.389C10.0523 159.826 10.0523 165.529 10.0523 171.446V173.674C10.029 174.412 10.137 175.148 10.3711 175.848C10.858 177.273 11.8797 178.452 13.2202 179.136C13.8954 179.485 14.6329 179.696 15.3901 179.757C15.7628 179.782 16.1479 179.786 16.5372 179.782H37.6318L37.6649 179.82C39.1888 181.476 40.7873 183.037 42.3484 184.569C43.9096 186.102 45.4667 187.58 46.9906 189.017L46.8166 189.091C46.8166 185.907 46.8166 182.797 46.8166 179.89V179.791H52.7135C53.1792 179.805 53.6453 179.789 54.1091 179.745C54.3369 179.719 54.5625 179.676 54.7841 179.617L55.1195 179.534L55.4383 179.418C56.2882 179.106 57.0508 178.595 57.6621 177.927C58.263 177.283 58.7104 176.512 58.9707 175.67C59.0939 175.256 59.173 174.83 59.2067 174.399C59.2357 173.985 59.2274 173.538 59.2274 173.111C59.2274 171.394 59.2274 169.725 59.2274 168.104C59.2274 161.632 59.2274 155.95 59.2523 151.259C59.2523 150.087 59.2523 148.973 59.2523 147.925V146.405C59.2667 145.933 59.2515 145.46 59.2067 144.989C59.0488 143.737 58.4939 142.569 57.6235 141.655C56.753 140.741 55.6128 140.13 54.3699 139.912C54.127 139.864 53.8804 139.836 53.6328 139.829L53.4009 139.809Z" fill="#263238"/>
<path d="M21.9426 99.8789L78.9113 99.8789C82.1154 99.8789 84.7129 97.2814 84.7129 94.0773V50.0081C84.7129 46.8039 82.1154 44.2064 78.9113 44.2064L21.9426 44.2064C18.7385 44.2064 16.141 46.8039 16.141 50.0081V94.0773C16.141 97.2814 18.7385 99.8789 21.9426 99.8789Z" fill="white"/>
<path d="M47.671 98.1769C46.9671 99.8789 33.3678 112.671 33.3678 112.671V98.1769H47.671Z" fill="#455A64"/>
<path d="M64.3057 68.6387C64.3389 65.74 64.7985 62.8412 64.6867 59.9425C64.5749 57.0437 63.8088 54.0166 61.788 51.9378C59.7671 49.859 56.2472 49.039 53.8785 50.741L53.394 53.2257C54.3272 64.4259 55.2603 75.6247 56.1934 86.8221C56.3135 88.2922 56.446 89.8078 57.1169 91.1205C57.7877 92.4333 59.1294 93.5224 60.6036 93.4313C62.5292 93.3153 63.7964 91.3607 64.3927 89.5262C66.5668 82.8467 64.2188 75.6412 64.3057 68.6387Z" fill="#263238"/>
<path d="M57.3197 53.5818C56.9328 52.8441 56.4357 52.1696 55.8455 51.5817C55.5465 51.2905 55.1857 51.0704 54.79 50.9378C54.3943 50.8052 53.9737 50.7634 53.5596 50.8156C53.3646 50.8398 53.179 50.9133 53.0203 51.0292C52.8616 51.1452 52.7351 51.2997 52.6528 51.4781C52.5244 51.8508 52.7977 52.3436 53.1911 52.3064L53.2739 52.3768C54.1435 53.147 55.0256 53.9007 55.9283 54.6336C56.1419 54.8332 56.3922 54.9894 56.6654 55.0933C56.8057 55.1462 56.9582 55.158 57.1049 55.1272C57.2517 55.0964 57.3865 55.0243 57.4937 54.9194C57.8001 54.5632 57.5641 54.0001 57.3197 53.5818Z" fill="#4D4295"/>
<path d="M58.9597 56.435C56.0609 52.8944 52.1807 50.8611 47.609 50.7824C45.0332 50.741 43.9649 51.2752 42.1097 51.7763C40.2481 52.2277 38.6047 53.3199 37.4675 54.8614C36.1548 56.729 35.0491 58.8202 34.8007 61.0937C34.5522 63.3671 34.2872 65.7565 34.4652 68.1128C34.6433 70.4691 35.2935 72.8088 36.6517 74.7095L42.6066 75.7406C45.8946 75.8524 49.2323 75.9601 52.4292 75.2106C55.6261 74.461 58.7485 72.7259 60.4629 69.9307C62.8398 66.0133 61.8543 59.9715 58.9597 56.435Z" fill="#263238"/>
<path d="M42.5817 86.2921C42.6231 84.2216 42.6935 81.5837 42.6935 81.5961C42.6935 81.6086 37.8402 81.0619 36.4819 74.8379C35.8152 71.7445 35.691 66.6179 35.7241 62.4147C35.7531 58.6381 38.9707 53.4907 43.6377 53.4742L45.7082 53.234L53.6425 56.3895C54.1957 56.4181 54.7181 56.653 55.1068 57.0477C55.4954 57.4425 55.722 57.9685 55.742 58.5221L56.0402 85.8821L50.9549 94.3755L41.8446 87.3357L42.5817 86.2921Z" fill="#B56760"/>
<path d="M45.8283 73.3844C45.7846 73.0614 45.6222 72.7661 45.3728 72.5562C45.1455 72.3601 44.8598 72.2449 44.5601 72.2284C44.2604 72.2119 43.9637 72.2951 43.7164 72.4651C43.4604 72.6617 43.2617 72.9232 43.1408 73.2225C43.02 73.5217 42.9813 73.8479 43.0289 74.1671C43.1659 74.3582 43.342 74.518 43.5455 74.6358C43.749 74.7536 43.9752 74.8267 44.2091 74.8503H44.4286C44.8014 74.842 45.1574 74.6942 45.4266 74.4362C45.5672 74.3015 45.6761 74.1373 45.7455 73.9554C45.815 73.7735 45.8433 73.5785 45.8283 73.3844Z" fill="#8A4A43"/>
<path d="M38.246 67.2846C38.2546 67.4959 38.3466 67.6951 38.5018 67.8387C38.6571 67.9823 38.8629 68.0585 39.0742 68.0507C39.176 68.0523 39.2772 68.0338 39.3718 67.996C39.4664 67.9583 39.5526 67.9022 39.6254 67.831C39.6982 67.7597 39.7561 67.6748 39.7959 67.581C39.8356 67.4872 39.8563 67.3864 39.8568 67.2846C39.8421 67.0751 39.7484 66.8791 39.5947 66.7361C39.4409 66.5931 39.2386 66.5138 39.0286 66.5144C38.9264 66.5127 38.8249 66.5314 38.7301 66.5694C38.6352 66.6073 38.5488 66.6638 38.4759 66.7355C38.4031 66.8072 38.3452 66.8927 38.3058 66.9869C38.2663 67.0812 38.246 67.1824 38.246 67.2846Z" fill="#263238"/>
<path d="M37.1653 64.5183C37.2729 64.6177 37.8568 64.1332 38.7223 64.1042C39.5878 64.0752 40.2504 64.4562 40.3373 64.3486C40.4243 64.2409 40.2669 64.1125 39.9812 63.9345C39.5918 63.6944 39.1374 63.5815 38.6809 63.6114C38.2271 63.6328 37.792 63.7981 37.4386 64.0835C37.1901 64.2782 37.1114 64.4728 37.1653 64.5183Z" fill="#263238"/>
<path d="M42.7307 71.3138C42.2655 71.1936 41.7867 71.1338 41.3062 71.1357C41.0826 71.1357 40.8714 71.0902 40.8259 70.9453C40.7929 70.7168 40.832 70.4837 40.9377 70.2785L41.4967 68.56C42.2752 66.1126 42.826 64.1042 42.739 64.0752C42.6521 64.0462 41.9108 66.0008 41.153 68.4523L40.6105 70.1833C40.4856 70.4575 40.4621 70.7672 40.5443 71.0571C40.5799 71.1336 40.6328 71.2008 40.699 71.2533C40.7651 71.3058 40.8426 71.3421 40.9252 71.3594C41.0488 71.3873 41.1755 71.3984 41.3021 71.3925C41.7797 71.4266 42.2598 71.4002 42.7307 71.3138Z" fill="#263238"/>
<path d="M42.6935 81.5961C45.651 81.4768 48.5176 80.5409 50.9757 78.892C50.9757 78.892 48.9755 83.3643 42.6604 83.1242L42.6935 81.5961Z" fill="#8A4A43"/>
<path d="M45.3107 71.7693C45.1699 71.7693 45.2196 72.7093 44.4535 73.4257C43.6874 74.1422 42.677 74.0883 42.677 74.2208C42.677 74.2829 42.9089 74.3906 43.3354 74.3823C43.8858 74.3567 44.4101 74.14 44.8179 73.7695C45.2067 73.4112 45.4438 72.9179 45.4805 72.3905C45.4929 71.9888 45.377 71.761 45.3107 71.7693Z" fill="#263238"/>
<path d="M37.4593 61.4871C37.6166 61.69 38.2875 61.512 39.0495 61.5327C39.8114 61.5534 40.4823 61.7232 40.6396 61.5327C40.71 61.4333 40.6148 61.2345 40.3373 61.0357C39.953 60.7969 39.5107 60.6677 39.0582 60.6618C38.6057 60.656 38.1603 60.7738 37.7699 61.0026C37.4883 61.189 37.3889 61.3877 37.4593 61.4871Z" fill="#263238"/>
<path d="M48.1018 67.061C48.1086 67.2713 48.0326 67.4759 47.8901 67.6308C47.7476 67.7857 47.55 67.8785 47.3399 67.8892C47.2387 67.8971 47.1369 67.8849 47.0404 67.8534C46.9439 67.8218 46.8546 67.7715 46.7776 67.7053C46.7007 67.6391 46.6376 67.5583 46.5919 67.4677C46.5463 67.377 46.519 67.2782 46.5116 67.1769C46.5049 66.9666 46.5809 66.762 46.7234 66.6071C46.8659 66.4522 47.0634 66.3595 47.2736 66.3487C47.3748 66.3408 47.4766 66.353 47.5731 66.3846C47.6696 66.4161 47.7589 66.4664 47.8358 66.5326C47.9128 66.5988 47.9759 66.6796 48.0216 66.7703C48.0672 66.8609 48.0945 66.9597 48.1018 67.061Z" fill="#263238"/>
<path d="M48.8845 64.1829C48.7851 64.2906 48.1681 63.8475 47.3026 63.8682C46.4371 63.8889 45.8077 64.3278 45.7083 64.2243C45.6089 64.1208 45.7621 63.9883 46.0354 63.7812C46.4064 63.5156 46.8504 63.3709 47.3067 63.3671C47.7577 63.3598 48.1996 63.4945 48.5698 63.7522C48.8389 63.9469 48.9342 64.1374 48.8845 64.1829Z" fill="#263238"/>
<path d="M48.3461 61.4084C48.1804 61.6072 47.5178 61.4084 46.6896 61.4084C45.8614 61.4084 45.2071 61.5658 45.0332 61.3629C44.9628 61.2635 45.0663 61.0647 45.3603 60.8742C45.7643 60.6421 46.2229 60.522 46.6889 60.5264C47.1548 60.5307 47.6111 60.6594 48.0106 60.8991C48.3461 61.1103 48.4372 61.309 48.3461 61.4084Z" fill="#263238"/>
<path d="M54.6861 69.0735C54.6613 68.6056 55.1375 67.4709 55.5971 67.3757C56.8395 67.1148 59.0467 67.0941 59.2371 70.2206C59.5022 74.4983 55.1541 73.8813 55.1375 73.7612C55.1209 73.6411 54.7689 70.6844 54.6861 69.0735Z" fill="#B56760"/>
<path d="M56.2141 72.1255C56.2141 72.1255 56.2928 72.171 56.4212 72.2207C56.6006 72.2924 56.8008 72.2924 56.9802 72.2207C57.4192 72.0261 57.7546 71.2848 57.7297 70.5146C57.7225 70.1395 57.629 69.771 57.4564 69.4379C57.4083 69.3065 57.3288 69.1888 57.2249 69.095C57.121 69.0011 56.9958 68.9341 56.8601 68.8996C56.775 68.8857 56.6878 68.901 56.6125 68.9431C56.5373 68.9853 56.4786 69.0517 56.446 69.1315C56.3963 69.2557 56.446 69.3385 56.4046 69.3468C56.3632 69.3551 56.3094 69.2805 56.3342 69.1025C56.35 68.9954 56.4027 68.8973 56.4833 68.825C56.5983 68.7273 56.7468 68.6783 56.8974 68.6884C57.0766 68.7121 57.2468 68.7812 57.3917 68.8892C57.5367 68.9972 57.6516 69.1405 57.7256 69.3054C57.9322 69.6637 58.0461 70.068 58.0569 70.4814C58.0817 71.3469 57.6925 72.1793 57.0837 72.3946C56.9714 72.4363 56.851 72.4516 56.7318 72.4394C56.6127 72.4272 56.4979 72.3878 56.3963 72.3242C56.2348 72.229 56.2141 72.1337 56.2141 72.1255Z" fill="#8A4A43"/>
<path d="M55.771 67.3881L54.686 68.5269C50.0025 64.0214 40.8176 52.7908 41.3311 53.4451C43.4695 52.6443 45.7749 52.3937 48.0355 52.7163C51.5264 53.3126 58.1438 55.056 58.0444 59.1722C57.945 63.2884 55.771 67.3881 55.771 67.3881Z" fill="#263238"/>
<path d="M61.9867 66.4564C61.9745 66.3712 61.9523 66.2878 61.9205 66.2079C61.844 65.9748 61.747 65.7489 61.6306 65.5329C61.1886 64.7393 60.578 64.0523 59.8417 63.5204C58.7502 62.7414 57.5329 62.1559 56.2431 61.7894C54.8103 61.3256 53.1994 60.9612 51.6175 60.282C50.1223 59.6582 48.7037 58.8649 47.3895 57.9175C46.3184 57.1403 45.3204 56.267 44.4079 55.3086C43.7933 54.6592 43.2167 53.9748 42.6811 53.2588L42.267 52.6708C42.2199 52.6005 42.1672 52.534 42.1096 52.472C42.1383 52.5521 42.1788 52.6275 42.2297 52.6956C42.3208 52.8364 42.4492 53.0476 42.6438 53.3085C43.1545 54.048 43.7163 54.751 44.3251 55.4122C45.2296 56.3947 46.2267 57.2877 47.3025 58.079C48.6223 59.0474 50.0528 59.855 51.5637 60.485C53.0871 61.0641 54.6392 61.5645 56.2141 61.984C57.4878 62.3338 58.6942 62.8937 59.7837 63.6405C60.5118 64.1527 61.1265 64.8096 61.5892 65.5702C61.8708 66.1085 61.966 66.4564 61.9867 66.4564Z" fill="#455A64"/>
<path d="M60.7403 67.1148C60.7536 66.7959 60.6971 66.4779 60.5747 66.1831C60.2546 65.3642 59.6946 64.6613 58.9679 64.1664C58.0776 63.4997 56.8021 63.0897 55.3983 62.7667C53.8721 62.464 52.3846 61.9917 50.9632 61.3587C49.5484 60.7139 48.2198 59.8945 47.0085 58.9197C46.0189 58.122 45.1104 57.2287 44.2961 56.2528C43.7503 55.5943 43.2455 54.9028 42.7846 54.1823L42.4244 53.5777C42.386 53.5045 42.3387 53.4363 42.2836 53.3748C42.3068 53.4533 42.3402 53.5285 42.383 53.5984L42.7142 54.2195C43.1479 54.9657 43.6365 55.6786 44.176 56.3522C44.9827 57.3498 45.8888 58.2627 46.8802 59.077C48.1006 60.0705 49.4419 60.9053 50.8721 61.5616C52.3072 62.199 53.8106 62.67 55.3528 62.9655C56.7525 63.2719 58.0031 63.6612 58.881 64.2948C59.5925 64.7652 60.1532 65.431 60.496 66.2121C60.6046 66.5049 60.6864 66.8071 60.7403 67.1148Z" fill="#455A64"/>
<path d="M55.6302 74.6308C55.6302 74.6018 55.9947 74.5521 56.6282 74.3865C57.517 74.1274 58.3354 73.67 59.0218 73.0489C60.0239 72.1095 60.7864 70.9437 61.2455 69.6491C61.8281 68.067 62.1416 66.3986 62.1731 64.7129C62.1913 63.8427 62.1219 62.9729 61.9661 62.1165C61.8036 61.3238 61.5651 60.5486 61.2538 59.8016C60.714 58.5345 59.9651 57.367 59.0384 56.348C58.1624 55.431 57.2015 54.5991 56.1686 53.8634C56.2526 53.892 56.332 53.9324 56.4046 53.9834C56.5537 54.0787 56.7815 54.2029 57.0506 54.3976C57.8277 54.9308 58.5442 55.5474 59.1874 56.2362C60.1512 57.2555 60.9315 58.4337 61.494 59.7188C61.8198 60.4816 62.0682 61.2751 62.2352 62.0875C62.4014 62.9608 62.475 63.8491 62.4547 64.7378C62.4247 66.4556 62.0969 68.1552 61.4857 69.7609C61.0021 71.0885 60.2001 72.2772 59.1502 73.2228C58.4377 73.8468 57.5855 74.2899 56.6655 74.5149C56.4164 74.5744 56.163 74.6145 55.9077 74.6349C55.8155 74.6467 55.7221 74.6453 55.6302 74.6308Z" fill="#455A64"/>
<path d="M28.941 93.158L29.0487 93.0213C33.7612 88.052 42.4367 86.3666 42.4367 86.3666C42.4367 86.3666 42.9668 89.6298 47.8201 89.9942C52.6734 90.3586 56.2555 85.4059 56.2555 85.4059L62.7445 86.3169C62.7445 86.3169 66.0077 86.702 68.0409 87.8947C72.621 90.5905 75.0518 99.8789 75.0518 99.8789L25.0194 100.082L28.941 93.158Z" fill="#455A64"/>
<path d="M24.3652 44.2064L24.0173 44.2313L23.6032 44.2561C23.4334 44.2561 23.2347 44.3141 23.011 44.3472C21.6787 44.57 20.4232 45.1223 19.3586 45.954C17.6449 47.289 16.5297 49.2484 16.257 51.4036C16.1946 52.0573 16.1725 52.7142 16.1907 53.3706C16.1907 54.0539 16.1907 54.7579 16.1907 55.4867C16.1907 56.9402 16.1907 58.4848 16.1907 60.1123C16.1907 66.6344 16.1907 74.5232 16.2156 83.5176C16.2156 85.7675 16.2156 88.0852 16.2156 90.4704C16.2156 91.0626 16.2156 91.6672 16.2487 92.2593C16.2945 92.8597 16.4027 93.4538 16.5717 94.0317C16.9357 95.2083 17.5614 96.2871 18.402 97.1872C18.8264 97.6438 19.3 98.0522 19.8141 98.4047C20.3414 98.7538 20.9069 99.0414 21.4996 99.2619L21.9468 99.4275L22.4106 99.5435C22.7211 99.6235 23.0365 99.683 23.3548 99.7215C23.6736 99.7712 23.9966 99.763 24.3196 99.7837H33.4631V99.883C33.4631 103.921 33.4631 108.236 33.4631 112.662L33.2933 112.588C35.408 110.592 37.5572 108.532 39.741 106.409C41.9109 104.281 44.1305 102.119 46.2466 99.8085L46.2797 99.7754H75.5695C76.1078 99.7754 76.642 99.7754 77.1638 99.7381C78.7336 99.6076 80.2314 99.0222 81.4737 98.0536C82.716 97.0849 83.6488 95.775 84.158 94.2843C84.4808 93.3059 84.6307 92.2788 84.6011 91.2489V88.1555C84.6011 79.9397 84.6011 72.0054 84.6011 64.4645C84.6011 60.6934 84.6011 57.0161 84.6011 53.4327C84.6359 52.5515 84.5804 51.669 84.4355 50.799C84.2621 49.9553 83.962 49.1427 83.5451 48.3889C82.6964 46.9144 81.4097 45.7407 79.8637 45.0305C79.1147 44.6875 78.3171 44.4626 77.4992 44.3638C76.6881 44.2948 75.8738 44.2713 75.0601 44.2934H70.2937H61.3325L34.2665 44.2478L61.3076 44.2147H70.2689H75.0353C75.8559 44.193 76.677 44.2165 77.495 44.2851C78.3317 44.3835 79.1478 44.6127 79.9134 44.9642C81.4928 45.6901 82.808 46.8881 83.6777 48.393C84.117 49.1684 84.4354 50.0062 84.6218 50.8777C84.7659 51.7603 84.8213 52.655 84.7875 53.5487C84.7875 57.1376 84.7875 60.8149 84.7875 64.5805C84.7875 72.1296 84.7875 80.0556 84.7875 88.2715V91.3649C84.8182 92.4188 84.664 93.4699 84.3319 94.4707C83.8099 96.0007 82.8529 97.3453 81.5783 98.3398C80.3036 99.3342 78.7666 99.9353 77.1555 100.069C76.613 100.107 76.0788 100.107 75.5446 100.103H46.3294L46.4081 100.069C44.2837 102.384 42.0641 104.546 39.89 106.695C37.716 108.844 35.5543 110.741 33.4383 112.737L33.2643 112.903V112.662C33.2643 108.236 33.2643 103.921 33.2643 99.883L33.3637 99.9783H24.3279C23.9966 99.9534 23.6653 99.9783 23.3423 99.912C23.0171 99.8725 22.6948 99.8116 22.3775 99.7298L21.9012 99.6097L21.4292 99.4358C20.8249 99.2093 20.2483 98.9148 19.7106 98.5579C19.1843 98.197 18.6984 97.7805 18.2612 97.3156C17.4069 96.393 16.7701 95.2907 16.3978 94.0897C16.2266 93.4992 16.1156 92.8929 16.0665 92.28C16.0458 91.663 16.0458 91.0667 16.0458 90.4745C16.0458 88.0893 16.0458 85.7717 16.0458 83.5217C16.0458 74.5273 16.0458 66.6386 16.0706 60.1164C16.0706 58.489 16.0706 56.9443 16.0706 55.4908C16.0706 54.762 16.0706 54.058 16.0706 53.3747C16.0554 52.714 16.0803 52.053 16.1452 51.3953C16.4291 49.2207 17.5639 47.2475 19.3007 45.9084C20.3698 45.0798 21.63 44.533 22.9655 44.3182C23.1891 44.2892 23.3796 44.252 23.5618 44.2395L23.9759 44.2188L24.3652 44.2064Z" fill="#263238"/>
<path d="M129.925 221.783L78.2612 221.746C72.0496 221.746 67.014 216.943 67.014 211.021L67.0389 87.5757C67.0389 81.6498 72.0827 76.8462 78.3026 76.8503L129.971 76.8793C136.182 76.8793 141.218 81.6829 141.218 87.6047L141.193 211.046C141.189 216.988 136.137 221.788 129.925 221.783Z" fill="#263238"/>
<path d="M129.925 81.2606H119.896C119.577 81.26 119.261 81.3222 118.967 81.4437C118.672 81.5651 118.404 81.7434 118.178 81.9684C117.953 82.1933 117.773 82.4605 117.651 82.7548C117.529 83.049 117.465 83.3644 117.465 83.6831V85.4141C117.464 85.7331 117.401 86.0489 117.278 86.3433C117.155 86.6378 116.976 86.9052 116.75 87.1302C116.523 87.3552 116.255 87.5334 115.96 87.6546C115.665 87.7758 115.349 87.8377 115.03 87.8366H95.5046C95.186 87.8371 94.8703 87.7749 94.5757 87.6534C94.281 87.532 94.0132 87.3537 93.7875 87.1288C93.5618 86.9038 93.3826 86.6366 93.2601 86.3424C93.1377 86.0482 93.0744 85.7327 93.0738 85.4141V83.6789C93.0733 83.3599 93.0098 83.0441 92.8871 82.7497C92.7644 82.4552 92.5848 82.1878 92.3587 81.9628C92.1325 81.7378 91.8642 81.5596 91.5691 81.4384C91.274 81.3172 90.9579 81.2553 90.6389 81.2564H78.3482C73.9959 81.2564 70.4802 84.619 70.4802 88.7683L70.4553 209.273C70.4553 213.414 73.9794 216.785 78.3233 216.785L129.888 216.814C134.244 216.814 137.756 213.456 137.777 209.306L137.801 88.8014C137.793 84.6273 134.265 81.2647 129.925 81.2606Z" fill="white"/>
<path d="M102.399 111.296C103.128 111.244 103.812 110.922 104.316 110.393C104.821 109.864 105.111 109.167 105.129 108.436C105.147 107.705 104.892 106.994 104.414 106.441C103.937 105.888 103.27 105.533 102.544 105.444C102.897 104.908 103.073 104.275 103.045 103.634C103.018 102.992 102.789 102.376 102.392 101.872C101.995 101.368 101.449 101.002 100.832 100.825C100.215 100.649 99.5577 100.671 98.954 100.889C98.8093 100.273 98.5075 99.7055 98.0779 99.2411C97.6483 98.7766 97.1058 98.4314 96.5031 98.2391C95.9003 98.0469 95.2581 98.0141 94.6389 98.1439C94.0198 98.2738 93.4448 98.5619 92.9702 98.9802C92.1603 98.5484 91.23 98.3978 90.3252 98.5522C89.4205 98.7067 88.5927 99.1572 87.9719 99.8332C87.3398 99.8314 86.724 100.034 86.2167 100.411C85.7094 100.789 85.3378 101.32 85.1575 101.926C84.9771 102.531 84.9977 103.179 85.2161 103.773C85.4346 104.366 85.8391 104.872 86.3693 105.217" fill="#263238"/>
<path d="M102.896 111.619C102.063 108.592 100.12 105.991 97.4548 104.334C94.7894 102.676 91.5972 102.083 88.5145 102.674L87.8809 102.794C81.1144 104.5 78.7705 111.196 80.6672 117.917L85.4045 142.308L99.3475 153.075L102.954 144.093L101.534 135.976C101.534 135.976 107.92 133.699 106.748 127.106C106.197 123.914 104.499 117.449 102.896 111.619Z" fill="#C17560"/>
<path d="M101.604 135.947C98.5458 136.532 95.3837 136.226 92.494 135.065C92.494 135.065 95.3472 139.558 101.799 137.716L101.604 135.947Z" fill="#7C4236"/>
<path d="M102.308 117.93C102.358 118.174 102.31 118.429 102.174 118.638C102.039 118.848 101.827 118.996 101.584 119.052C101.466 119.084 101.343 119.093 101.222 119.077C101.101 119.061 100.984 119.021 100.879 118.959C100.773 118.897 100.682 118.815 100.608 118.717C100.535 118.619 100.483 118.508 100.453 118.389C100.404 118.145 100.452 117.89 100.587 117.681C100.723 117.471 100.935 117.323 101.178 117.267C101.296 117.235 101.419 117.226 101.54 117.242C101.661 117.258 101.777 117.298 101.883 117.36C101.988 117.422 102.08 117.504 102.153 117.602C102.226 117.7 102.279 117.811 102.308 117.93Z" fill="#263238"/>
<path d="M102.093 115.11C102.002 115.25 101.19 114.861 100.18 115.056C99.1694 115.25 98.5234 115.884 98.3909 115.797C98.3246 115.751 98.3909 115.507 98.6808 115.209C99.061 114.823 99.5514 114.564 100.085 114.468C100.61 114.364 101.154 114.432 101.637 114.662C101.994 114.84 102.143 115.043 102.093 115.11Z" fill="#263238"/>
<path d="M93.1401 119.876C93.1882 120.121 93.139 120.374 93.0029 120.583C92.8668 120.792 92.6545 120.939 92.4113 120.994C92.2938 121.026 92.171 121.035 92.0502 121.019C91.9294 121.003 91.8131 120.963 91.7081 120.901C91.603 120.839 91.5115 120.757 91.4388 120.659C91.3661 120.561 91.3138 120.45 91.2849 120.332C91.2355 120.087 91.2837 119.834 91.4192 119.625C91.5547 119.416 91.7666 119.268 92.0096 119.213C92.1273 119.181 92.2504 119.173 92.3714 119.189C92.4925 119.205 92.6091 119.245 92.7145 119.306C92.8199 119.368 92.9118 119.45 92.9849 119.548C93.058 119.646 93.1107 119.757 93.1401 119.876Z" fill="#263238"/>
<path d="M92.1918 117.188C92.1007 117.333 91.289 116.94 90.2786 117.135C89.2682 117.329 88.6222 117.963 88.4897 117.876C88.4275 117.83 88.4897 117.586 88.7795 117.292C89.1582 116.913 89.6437 116.659 90.1709 116.563C90.6961 116.462 91.2399 116.53 91.7238 116.758C92.0924 116.919 92.2415 117.122 92.1918 117.188Z" fill="#263238"/>
<path d="M97.2894 123.988C97.2894 123.93 97.8816 123.702 98.8754 123.375C99.128 123.301 99.3641 123.205 99.3723 123.019C99.3427 122.748 99.2315 122.492 99.0535 122.286L97.9188 120.468C96.3245 117.872 95.1195 115.714 95.223 115.652C95.3265 115.59 96.7055 117.644 98.2998 120.24L99.4055 122.075C99.6268 122.356 99.7426 122.707 99.7326 123.065C99.7123 123.163 99.6701 123.255 99.6091 123.335C99.5482 123.414 99.4701 123.479 99.3806 123.524C99.2488 123.588 99.1097 123.635 98.9665 123.665C97.9395 123.918 97.306 124.042 97.2894 123.988Z" fill="#263238"/>
<path d="M91.8273 113.689C91.7444 113.971 90.8251 113.859 89.7567 114.025C88.6883 114.19 87.8187 114.542 87.6862 114.294C87.6199 114.174 87.7649 113.909 88.1003 113.631C88.5481 113.288 89.0775 113.067 89.6366 112.989C90.1867 112.904 90.7495 112.965 91.2682 113.167C91.6782 113.341 91.8811 113.557 91.8273 113.689Z" fill="#263238"/>
<path d="M101.534 111.507C101.364 111.776 100.486 111.697 99.4634 111.875C98.4406 112.054 97.6414 112.385 97.3929 112.182C97.2852 112.078 97.3722 111.826 97.7035 111.536C98.1639 111.168 98.7143 110.929 99.2978 110.844C99.8749 110.736 100.471 110.788 101.02 110.993C101.447 111.18 101.609 111.374 101.534 111.507Z" fill="#263238"/>
<path d="M82.9613 124.116C82.9073 123.876 82.8052 123.65 82.6611 123.45C82.517 123.251 82.3339 123.083 82.1228 122.956C81.9118 122.829 81.6773 122.747 81.4335 122.714C81.1897 122.68 80.9416 122.697 80.7044 122.762C79.4993 123.114 78.2653 124.071 78.8326 126.589C79.8306 131.057 84.1125 129.131 84.0918 129.003C84.0711 128.875 83.3961 125.984 82.9613 124.116Z" fill="#C17560"/>
<path d="M82.7419 127.537C82.7212 127.537 82.6756 127.612 82.5597 127.698C82.3928 127.821 82.1847 127.873 81.9799 127.843C81.4664 127.773 80.9032 127.115 80.7003 126.315C80.6023 125.935 80.5924 125.537 80.6713 125.152C80.6814 125.003 80.7277 124.858 80.8064 124.731C80.8851 124.604 80.9937 124.498 81.1227 124.423C81.2067 124.381 81.3024 124.369 81.3942 124.388C81.486 124.408 81.5684 124.458 81.6279 124.531C81.7149 124.642 81.7066 124.738 81.7356 124.742C81.7646 124.746 81.8143 124.647 81.7356 124.468C81.6851 124.363 81.6004 124.279 81.4954 124.228C81.4232 124.198 81.3458 124.183 81.2677 124.183C81.1895 124.183 81.1121 124.198 81.0399 124.228C80.8645 124.305 80.7118 124.426 80.5965 124.579C80.4812 124.732 80.4072 124.912 80.3815 125.102C80.278 125.531 80.278 125.978 80.3815 126.406C80.6134 127.301 81.2635 128.063 81.9509 128.084C82.079 128.092 82.2072 128.071 82.3262 128.023C82.4452 127.975 82.5518 127.901 82.6383 127.806C82.7584 127.649 82.7584 127.545 82.7419 127.537Z" fill="#7C4236"/>
<path d="M97.3763 102.976C97.314 102.872 97.2404 102.775 97.1568 102.686C96.837 102.362 96.4459 102.116 96.0147 101.969C95.5834 101.821 95.1238 101.776 94.6722 101.837C94.1151 101.672 93.5461 101.55 92.9702 101.473C92.5328 100.955 91.9704 100.557 91.3361 100.316C90.7018 100.076 90.0167 100.002 89.3457 100.101C88.6747 100.199 88.04 100.468 87.5018 100.88C86.9635 101.293 86.5395 101.836 86.27 102.459C86.0878 102.521 85.9097 102.587 85.7316 102.657C85.1706 102.388 84.5554 102.252 83.9332 102.258C83.311 102.264 82.6986 102.413 82.143 102.693C81.5873 102.973 81.1034 103.376 80.7283 103.873C80.3533 104.369 80.0972 104.945 79.9797 105.556C79.3998 105.512 78.8197 105.64 78.3121 105.924C77.8046 106.208 77.3923 106.635 77.1269 107.153C76.8615 107.67 76.7549 108.255 76.8203 108.833C76.8858 109.411 77.1206 109.956 77.495 110.401C76.7745 111.018 76.2527 111.954 76.3935 112.886C76.5343 113.818 77.5116 114.472 78.3357 114.207C78.5883 116.393 79.3005 118.886 79.8389 121.102C80.2199 122.663 82.4022 123.218 82.7376 124.261C84.4769 129.583 85.6861 126.228 84.2201 114.803C84.3154 114.691 84.4148 114.575 84.51 114.451C84.649 114.184 84.7693 113.907 84.8703 113.623C85.0608 113.288 85.5328 113.292 85.918 113.259C86.5845 113.184 87.205 112.882 87.6755 112.404C88.146 111.926 88.4378 111.301 88.502 110.633C88.9161 111.047 89.707 110.898 90.1584 110.476C90.5543 110.011 90.882 109.492 91.1316 108.935C91.4422 108.405 91.9184 107.896 92.5271 107.867C92.8658 107.916 93.209 107.925 93.55 107.896C94.1297 107.734 94.2871 106.985 94.2622 106.384C94.1884 105.877 94.2542 105.358 94.4527 104.885C94.7766 104.64 95.143 104.456 95.5335 104.343C95.7613 104.343 95.9973 104.343 96.2209 104.318C96.3281 104.312 96.4347 104.298 96.5398 104.277C96.6877 104.297 96.8343 104.326 96.9788 104.364C99.1487 104.947 101.666 108.737 101.666 108.737C101.352 106.086 99.4965 104.181 97.3763 102.976Z" fill="#263238"/>
<path d="M76.9774 110.728C76.9774 110.728 76.9774 110.704 77.0064 110.654C77.0354 110.604 77.0602 110.538 77.1141 110.451C77.2772 110.204 77.4817 109.987 77.7187 109.809C78.0958 109.529 78.5346 109.343 78.9983 109.267C79.6121 109.16 80.244 109.268 80.7872 109.573L80.6712 109.635C80.7115 109.124 80.8601 108.628 81.1072 108.179C81.3542 107.729 81.694 107.338 82.1041 107.03C82.5564 106.672 83.0719 106.401 83.6238 106.231C84.2072 106.062 84.8144 105.991 85.4211 106.02C86.5577 106.089 87.6715 106.37 88.7049 106.848L88.5807 106.914C88.7838 105.901 89.364 105.003 90.204 104.401C90.7481 104.019 91.3801 103.78 92.0411 103.708C92.7022 103.635 93.3708 103.731 93.9848 103.987C94.1129 104.039 94.2374 104.1 94.3575 104.169C94.4362 104.219 94.4776 104.248 94.4734 104.252C94.4693 104.256 94.2995 104.165 93.9641 104.041C93.4826 103.866 92.9728 103.783 92.4609 103.796C91.6801 103.812 90.9229 104.066 90.2909 104.525C89.4934 105.112 88.9451 105.976 88.7546 106.948L88.7339 107.059L88.6304 107.014C87.6173 106.544 86.5268 106.263 85.4128 106.186C84.8273 106.16 84.2414 106.228 83.6777 106.389C83.1463 106.547 82.6501 106.806 82.2159 107.151C81.821 107.443 81.4925 107.815 81.252 108.243C81.0114 108.672 80.8643 109.146 80.8203 109.635V109.759L80.7127 109.697C80.2016 109.399 79.6034 109.287 79.019 109.378C78.5717 109.442 78.1459 109.611 77.7766 109.871C77.4562 110.101 77.1846 110.393 76.9774 110.728Z" fill="#455A64"/>
<path d="M94.461 104.575C94.4511 104.639 94.4359 104.703 94.4155 104.765C94.378 104.947 94.3545 105.131 94.3451 105.316C94.3451 105.56 94.3451 105.858 94.3161 106.21C94.3264 106.618 94.2487 107.024 94.0883 107.399C94.029 107.509 93.9483 107.607 93.8509 107.686C93.7535 107.765 93.6414 107.823 93.521 107.859C93.2673 107.92 93.0075 107.952 92.7466 107.954C92.4825 107.954 92.223 108.023 91.993 108.153C91.765 108.323 91.5747 108.539 91.4339 108.786C91.2766 109.039 91.1358 109.316 90.9825 109.614C90.8455 109.916 90.664 110.195 90.4442 110.443C90.1844 110.689 89.8669 110.867 89.5207 110.96C89.3423 111.014 89.156 111.036 88.97 111.027C88.7657 111.023 88.5709 110.94 88.4275 110.795L88.5849 110.737C88.5724 111.305 88.3681 111.852 88.0051 112.29C87.6204 112.739 87.1187 113.073 86.5557 113.254C86.322 113.329 86.0823 113.383 85.8393 113.416C85.6147 113.409 85.3913 113.451 85.185 113.54C84.997 113.645 84.8508 113.812 84.7709 114.012C84.6672 114.22 84.5467 114.42 84.4107 114.609C83.9266 115.369 83.1741 115.919 82.3029 116.149C81.5062 116.263 80.6951 116.084 80.0211 115.644C79.4418 115.279 78.9858 114.748 78.7126 114.12L78.7995 114.153C78.5553 114.254 78.2918 114.301 78.0276 114.289C77.7635 114.276 77.5053 114.206 77.2715 114.083C76.9206 113.895 76.6466 113.59 76.4971 113.221C76.4025 112.995 76.3587 112.75 76.3687 112.505C76.3691 112.442 76.376 112.38 76.3894 112.319C76.3894 112.277 76.3894 112.256 76.3894 112.256C76.3642 112.578 76.4182 112.901 76.5468 113.196C76.6983 113.541 76.9647 113.822 77.3005 113.992C77.5211 114.102 77.7631 114.163 78.0098 114.171C78.2564 114.179 78.5019 114.133 78.7291 114.037L78.7912 114.012L78.8161 114.07C79.0875 114.667 79.5299 115.17 80.0874 115.515C80.7298 115.926 81.4989 116.091 82.2532 115.979C83.0759 115.757 83.7861 115.236 84.245 114.517C84.3769 114.337 84.4932 114.146 84.5929 113.946C84.6903 113.712 84.8621 113.517 85.0815 113.391C85.1945 113.33 85.3182 113.29 85.4459 113.275L85.7979 113.246C86.0287 113.215 86.256 113.162 86.4771 113.089C87.0078 112.921 87.4811 112.608 87.8436 112.186C88.183 111.781 88.3743 111.273 88.3861 110.745V110.53L88.5352 110.687C88.6639 110.784 88.8153 110.845 88.9749 110.867C89.1345 110.888 89.2968 110.867 89.4462 110.807C89.7641 110.723 90.056 110.561 90.2951 110.335C90.5167 110.095 90.6985 109.821 90.8335 109.523C90.9908 109.242 91.1358 108.964 91.3014 108.695C91.4554 108.43 91.6627 108.201 91.9101 108.02C92.163 107.878 92.4486 107.806 92.7383 107.809C92.9891 107.808 93.239 107.78 93.4837 107.726C93.5887 107.697 93.6871 107.648 93.773 107.581C93.859 107.515 93.931 107.431 93.9848 107.337C94.146 106.979 94.2279 106.59 94.225 106.198C94.2457 105.85 94.2581 105.548 94.283 105.304C94.3002 105.116 94.3348 104.93 94.3865 104.749C94.4042 104.688 94.4292 104.629 94.461 104.575Z" fill="#455A64"/>
<path d="M94.4735 126.353C94.2871 127.595 94.8213 128.783 95.9891 129.21C96.2164 129.28 96.4554 129.305 96.6923 129.283C96.9292 129.261 97.1595 129.193 97.3699 129.081C97.5803 128.97 97.7667 128.819 97.9185 128.635C98.0702 128.452 98.1843 128.241 98.2543 128.013C98.3878 127.505 98.3977 126.973 98.2832 126.46C97.2107 126.398 95.5543 126.415 94.4735 126.353Z" fill="#7C4236"/>
<path d="M98.0389 128.514C98.0389 128.514 98.0389 128.547 97.9933 128.601C97.9418 128.68 97.8806 128.753 97.8111 128.817C97.5566 129.059 97.2347 129.219 96.8877 129.276C96.3648 129.356 95.8305 129.248 95.3803 128.97C95.1115 128.791 94.8826 128.559 94.708 128.287C94.5334 128.015 94.4169 127.711 94.3658 127.392C94.3411 127.225 94.3328 127.056 94.3409 126.887C94.3417 126.71 94.3873 126.536 94.4734 126.382C94.5273 126.298 94.6075 126.236 94.7012 126.204C94.7841 126.177 94.8711 126.166 94.9579 126.17H95.3969C95.9642 126.199 96.4736 126.253 96.9001 126.299C97.749 126.39 98.2791 126.415 98.2791 126.448C97.8169 126.502 97.3499 126.502 96.8877 126.448C96.4736 126.423 95.9518 126.382 95.3886 126.365H94.9745C94.8296 126.365 94.726 126.386 94.6639 126.485C94.603 126.615 94.5718 126.756 94.5728 126.899C94.5538 127.27 94.6293 127.639 94.7923 127.972C94.9553 128.305 95.2004 128.592 95.5046 128.804C95.9132 129.064 96.3982 129.176 96.8794 129.123C97.2069 129.086 97.5173 128.957 97.7739 128.75C97.9478 128.609 98.0389 128.498 98.0389 128.514Z" fill="#263238"/>
<path d="M123.051 114.223C123.051 114.223 128.298 113.569 136.182 107.295C144.067 101.022 148.34 92.106 149.218 92.2385C150.096 92.3711 154.134 90.9341 159.985 107.618C165.836 124.303 162.582 127.744 161.124 127.574C159.666 127.404 149.993 123.702 143.731 123.827C137.47 123.951 129.184 126.427 129.184 126.427L123.051 114.223Z" fill="#4D4295"/>
<path d="M113.613 126.68L116.417 126.083L114.897 122.394L112.528 123.578L113.613 126.68Z" fill="#455A64"/>
<path d="M113.941 122.294L114.976 125.408L115.622 126.974C116.043 128.014 116.848 128.852 117.87 129.315C118.893 129.777 120.054 129.829 121.113 129.458L132.488 126.257L127.602 111.855L116.297 116.621C115.236 117.066 114.394 117.912 113.953 118.974C113.512 120.036 113.508 121.229 113.941 122.294Z" fill="#263238"/>
<path d="M118.02 127.081L121.829 133.836L123.569 133.276L135.466 142.155L138.418 135.728C138.418 135.728 131.495 133.082 130.136 130.709C128.778 128.336 130.211 127.727 130.211 127.727L126.861 124.224L118.02 127.081Z" fill="#263238"/>
<path d="M132.488 126.237C132.325 126.312 132.152 126.366 131.975 126.398L130.567 126.771C129.374 127.077 127.73 127.512 125.917 128.013C124.103 128.514 122.467 128.97 121.27 129.256C120.67 129.405 120.185 129.516 119.846 129.587C119.672 129.631 119.495 129.66 119.316 129.674C119.48 129.599 119.653 129.543 119.829 129.504L121.229 129.09L125.863 127.777C127.672 127.276 129.329 126.862 130.53 126.593C131.13 126.456 131.619 126.353 131.958 126.291C132.133 126.256 132.31 126.238 132.488 126.237Z" fill="#455A64"/>
<path d="M125.784 123.885C125.432 124.082 125.06 124.242 124.674 124.361C123.974 124.622 123.018 124.953 121.912 125.28C120.806 125.607 119.821 125.86 119.096 126.025C118.708 126.136 118.31 126.207 117.908 126.237C118.281 126.086 118.666 125.966 119.059 125.876C119.775 125.673 120.761 125.396 121.85 125.073C122.939 124.75 123.921 124.439 124.625 124.216C125.002 124.075 125.389 123.964 125.784 123.885Z" fill="#455A64"/>
<path d="M123.995 120.597C122.85 121.057 121.679 121.448 120.488 121.768C119.316 122.161 118.123 122.484 116.914 122.737C118.06 122.277 119.233 121.884 120.425 121.561C121.596 121.171 122.788 120.849 123.995 120.597Z" fill="#455A64"/>
<path d="M122.231 117.429C121.266 117.968 120.268 118.444 119.241 118.853C118.245 119.333 117.218 119.748 116.168 120.095C117.13 119.552 118.128 119.075 119.154 118.667C120.151 118.185 121.179 117.772 122.231 117.429Z" fill="#455A64"/>
<path d="M109.431 153.067L102.524 141.41L84.6633 140.672V142.296C84.6633 142.296 79.7602 147.232 78.1783 153.953C76.9816 159.042 82.0171 178.464 83.4334 185.197C85.1726 193.479 87.5744 203.948 87.5744 203.948C87.2142 205.803 84.833 207.306 84.9987 209.783L124.695 209.348L122.653 201.302L109.431 153.067Z" fill="#4D4295"/>
<path d="M123.204 204.387C123.204 204.449 115.303 204.495 105.559 204.495C95.8151 204.495 87.9181 204.449 87.9181 204.387C87.9181 204.325 95.8151 204.279 105.559 204.279C115.303 204.279 123.204 204.329 123.204 204.387Z" fill="white"/>
<path d="M120.459 194.415C120.459 194.477 112.632 194.527 102.979 194.527C93.3264 194.527 85.4956 194.477 85.4956 194.415C85.4956 194.353 93.3222 194.307 102.979 194.307C112.636 194.307 120.459 194.37 120.459 194.415Z" fill="white"/>
<path d="M117.767 183.603C117.767 183.661 110.106 183.711 100.656 183.711C91.2061 183.711 83.5452 183.648 83.5452 183.603C83.5452 183.557 91.202 183.495 100.652 183.495C110.102 183.495 117.767 183.541 117.767 183.603Z" fill="white"/>
<path d="M115.883 172.708C115.883 172.766 107.99 172.815 98.2584 172.815C88.5269 172.815 80.6382 172.766 80.6382 172.708C80.6382 172.65 88.5269 172.6 98.2584 172.6C107.99 172.6 115.883 172.646 115.883 172.708Z" fill="white"/>
<path d="M111.704 159.191C111.704 159.249 104.251 159.299 95.0284 159.299C85.8062 159.299 78.3523 159.249 78.3523 159.191C78.3523 159.133 85.8062 159.079 95.0284 159.079C104.251 159.079 111.704 159.129 111.704 159.191Z" fill="white"/>
<path d="M106.027 146.793C106.027 146.851 100.515 146.901 93.7115 146.901C86.9078 146.901 81.396 146.851 81.396 146.793C81.396 146.735 86.9078 146.685 93.7115 146.685C100.515 146.685 106.027 146.752 106.027 146.793Z" fill="white"/>
<path opacity="0.3" d="M83.2594 160.256C84.9974 163.173 87.1909 165.795 89.7567 168.02C93.7446 171.333 105.878 177.271 105.878 177.271L106.892 175.176L115.945 177.292L114.288 171.718L83.2594 160.256Z" fill="black"/>
<path d="M125.846 145.551L122.687 162.711L95.6206 149.845L91.26 165.109C101.898 170.31 123.432 178.969 126.202 178.721C130.145 178.364 132.869 176.008 134.095 170.236C134.857 166.662 134.509 142.697 134.509 142.697L125.846 145.551Z" fill="#C17560"/>
<path d="M97.3888 147.538C97.3888 147.538 87.268 141.285 82.8536 149.166C79.6981 156.852 83.1891 162.989 90.9825 166.798C94.7385 168.637 99.8568 170.906 105.025 173.064L112.557 156.346L97.3888 147.538Z" fill="#4D4295"/>
<path d="M97.3888 147.538C97.3888 147.538 97.4881 147.584 97.6704 147.687L98.4737 148.139L101.53 149.886L112.603 156.272L112.669 156.313L112.636 156.384L105.124 173.105L105.083 173.2L104.988 173.159C102.337 172.058 99.6042 170.882 96.8214 169.639C95.5929 169.087 94.3796 168.535 93.1814 167.983C91.9888 167.424 90.8128 166.865 89.6822 166.248C89.1301 165.93 88.5849 165.597 88.0465 165.25C87.533 164.877 87.003 164.537 86.535 164.123C85.5788 163.355 84.7182 162.475 83.9717 161.502L83.4582 160.765C83.292 160.521 83.1413 160.266 83.0068 160.003C82.7244 159.494 82.478 158.965 82.2697 158.421C82.1745 158.152 82.1041 157.87 82.0213 157.593L81.9012 157.179C81.868 157.038 81.8515 156.901 81.8225 156.765C81.7769 156.491 81.7273 156.214 81.6817 155.936C81.6361 155.659 81.6486 155.39 81.632 155.108C81.6022 154.571 81.6119 154.033 81.661 153.497C81.7024 152.971 81.8142 152.458 81.8888 151.953C81.9633 151.447 82.1414 150.967 82.278 150.491C82.4147 150.015 82.6134 149.567 82.7749 149.12C83.3632 148.051 84.1805 147.125 85.1685 146.408C86.0724 145.796 87.1004 145.391 88.179 145.223C89.9122 145.013 91.6704 145.184 93.3305 145.725C94.3827 146.051 95.4051 146.467 96.3866 146.967C96.722 147.141 96.9705 147.282 97.1403 147.381C97.3101 147.48 97.3846 147.538 97.3846 147.538L97.1279 147.402C96.9581 147.311 96.7138 147.178 96.3618 147.012C95.3762 146.531 94.3526 146.133 93.3015 145.82C91.6547 145.297 89.9135 145.14 88.1997 145.36C87.143 145.528 86.1371 145.93 85.2554 146.536C84.2897 147.244 83.4921 148.156 82.9199 149.207C82.7625 149.654 82.5969 150.106 82.4312 150.57C82.2656 151.033 82.1786 151.522 82.0544 152.011C81.9302 152.499 81.8763 153.017 81.8349 153.539C81.7892 154.066 81.7809 154.596 81.8101 155.125C81.8101 155.39 81.8391 155.663 81.8639 155.953C81.8888 156.243 81.955 156.491 82.0047 156.76C82.0295 156.897 82.0461 157.034 82.0792 157.175L82.1993 157.589C82.2822 157.858 82.3484 158.131 82.4478 158.396C82.652 158.93 82.8942 159.449 83.1725 159.949C83.3066 160.207 83.4545 160.457 83.6156 160.699L84.1249 161.419C84.863 162.379 85.7139 163.247 86.6593 164.003C87.1385 164.399 87.6374 164.771 88.1542 165.117C88.6787 165.462 89.2198 165.791 89.7775 166.103C90.8956 166.711 92.0716 167.275 93.2643 167.83C94.4569 168.384 95.6744 168.943 96.9043 169.486C99.6788 170.728 102.412 171.904 105.058 173.01L104.921 173.064C107.733 166.852 110.305 161.129 112.471 156.359L112.508 156.466L101.472 150.015L98.453 148.18L97.6662 147.708C97.4799 147.621 97.3888 147.538 97.3888 147.538Z" fill="#263238"/>
<path d="M125.44 148.491L126.049 142.097C126.049 142.097 123.606 137.177 123.656 136.685C123.705 136.192 123.846 133.479 123.846 133.479L129.954 127.98C129.954 127.98 131.934 127.98 131.983 129.939C131.983 129.939 133.884 129.525 133.913 131.819C133.913 131.819 135.983 131.893 136.025 133.562C136.025 133.562 137.267 133.397 137.226 135.14C137.193 136.382 136.646 141.19 136.646 141.19L134.091 145.633L133.88 150.077L125.44 148.491Z" fill="#C17560"/>
<path d="M126.074 168.981C126.004 169.006 125.552 167.453 124.629 165.713C123.705 163.974 122.633 162.757 122.687 162.711C122.96 162.936 123.204 163.195 123.411 163.481C123.945 164.146 124.417 164.858 124.819 165.61C125.218 166.362 125.55 167.148 125.813 167.958C125.939 168.288 126.027 168.631 126.074 168.981Z" fill="#7C4236"/>
<path d="M91.26 145.414C91.1879 145.616 91.0978 145.812 90.9908 145.998C90.8044 146.366 90.527 146.892 90.1626 147.538C89.4627 148.834 88.4647 150.607 87.3508 152.553L84.481 157.522L83.6114 159.03C83.5107 159.219 83.3958 159.4 83.2677 159.572C83.3398 159.37 83.4298 159.175 83.5369 158.988C83.7232 158.624 84.0007 158.094 84.3651 157.448C85.0649 156.152 86.0588 154.379 87.1769 152.433C88.295 150.487 89.293 148.76 90.0425 147.464C90.3986 146.855 90.6926 146.346 90.9162 145.956C91.015 145.766 91.13 145.585 91.26 145.414Z" fill="white"/>
<path d="M99.5132 149.029C99.4992 149.094 99.4769 149.156 99.4469 149.215L99.2192 149.733C99.0162 150.184 98.7181 150.826 98.333 151.617C97.571 153.199 96.4819 155.365 95.2065 157.721C93.931 160.077 92.7218 162.177 91.8108 163.68C91.3553 164.43 90.9826 165.034 90.7176 165.448L90.4111 165.925C90.376 165.981 90.3358 166.033 90.291 166.082C90.291 166.082 90.3117 166.016 90.3738 165.9L90.6471 165.407L91.6783 163.601C92.552 162.082 93.7488 159.97 95.016 157.618C96.2831 155.266 97.4012 153.112 98.1963 151.547L99.1446 149.7L99.4055 149.199C99.4335 149.138 99.4697 149.081 99.5132 149.029Z" fill="white"/>
<path d="M108.748 154.197C108.68 154.432 108.595 154.662 108.495 154.885C108.325 155.299 108.06 155.945 107.721 156.711C107.037 158.239 106.027 160.326 104.781 162.562C103.534 164.798 102.296 166.753 101.348 168.14C100.876 168.832 100.482 169.382 100.201 169.759C100.066 169.962 99.915 170.153 99.7491 170.331C99.8606 170.115 99.9894 169.909 100.134 169.714L101.219 168.057C102.13 166.653 103.348 164.691 104.594 162.463C105.841 160.235 106.863 158.16 107.58 156.665L108.408 154.868C108.501 154.635 108.615 154.41 108.748 154.197Z" fill="white"/>
<path d="M84.684 217.448L85.5453 209.783L123.415 209.364L124.38 217.448H84.684Z" fill="#263238"/>
<path d="M131.582 216.777C131.582 216.835 119.916 216.885 105.526 216.885C91.1357 216.885 79.4703 216.835 79.4703 216.777C79.4703 216.719 91.1357 216.669 105.526 216.669C119.916 216.669 131.582 216.711 131.582 216.777Z" fill="#455A64"/>
<path d="M110.475 83.0246H96.3908C95.9242 83.0246 95.546 83.4029 95.546 83.8694V84.4781C95.546 84.9447 95.9242 85.3229 96.3908 85.3229H110.475C110.941 85.3229 111.319 84.9447 111.319 84.4781V83.8694C111.319 83.4029 110.941 83.0246 110.475 83.0246Z" fill="#455A64"/>
<path d="M115.146 84.1758C115.146 84.4035 115.078 84.6261 114.952 84.8154C114.825 85.0047 114.645 85.1523 114.435 85.2394C114.225 85.3266 113.993 85.3494 113.77 85.3049C113.547 85.2605 113.341 85.1509 113.18 84.9899C113.019 84.8289 112.91 84.6238 112.865 84.4004C112.821 84.1771 112.844 83.9457 112.931 83.7353C113.018 83.5249 113.166 83.3451 113.355 83.2186C113.544 83.0921 113.767 83.0246 113.994 83.0246C114.146 83.0246 114.295 83.0544 114.435 83.1123C114.575 83.1701 114.702 83.2549 114.809 83.3618C114.915 83.4687 115 83.5956 115.058 83.7353C115.116 83.875 115.146 84.0247 115.146 84.1758Z" fill="#455A64"/>
<path d="M67.4282 100.864H68.3599V120.079H67.4282C66.7472 120.079 66.0942 119.808 65.6127 119.327C65.1312 118.845 64.8607 118.192 64.8607 117.511V103.432C64.8607 103.095 64.9271 102.761 65.0562 102.449C65.1852 102.138 65.3743 101.855 65.6127 101.616C65.8511 101.378 66.1342 101.189 66.4457 101.06C66.7572 100.931 67.091 100.864 67.4282 100.864Z" fill="#263238"/>
<path d="M67.1962 128.783H68.128V147.998H67.1962C66.5153 147.998 65.8623 147.727 65.3808 147.246C64.8993 146.764 64.6288 146.111 64.6288 145.43V131.351C64.6288 130.67 64.8993 130.017 65.3808 129.535C65.8623 129.054 66.5153 128.783 67.1962 128.783Z" fill="#263238"/>
<path d="M67.2625 157.262C67.2003 157.262 67.1548 143.314 67.1548 126.112C67.1548 108.91 67.2003 94.9592 67.2625 94.9592C67.3246 94.9592 67.3701 108.906 67.3701 126.112C67.3701 143.319 67.3204 157.262 67.2625 157.262Z" fill="#455A64"/>
<path d="M81.0999 267.939C81.0999 268.681 80.9762 269.362 80.7289 269.983C80.4815 270.604 80.1339 271.138 79.6859 271.586C79.2379 272.034 78.6989 272.382 78.0689 272.629C77.4389 272.876 76.7389 273 75.9689 273H72.1119V262.878H75.9689C76.7389 262.878 77.4389 263.004 78.0689 263.256C78.6989 263.503 79.2379 263.851 79.6859 264.299C80.1339 264.742 80.4815 265.274 80.7289 265.895C80.9762 266.516 81.0999 267.197 81.0999 267.939ZM79.1679 267.939C79.1679 267.384 79.0932 266.887 78.9439 266.448C78.7992 266.005 78.5869 265.631 78.3069 265.328C78.0315 265.02 77.6955 264.784 77.2989 264.621C76.9069 264.458 76.4635 264.376 75.9689 264.376H74.0019V271.502H75.9689C76.4635 271.502 76.9069 271.42 77.2989 271.257C77.6955 271.094 78.0315 270.86 78.3069 270.557C78.5869 270.249 78.7992 269.876 78.9439 269.437C79.0932 268.994 79.1679 268.494 79.1679 267.939ZM84.6523 273H82.7623V262.878H84.6523V273ZM88.8085 264.376V267.372H92.6025V268.877H88.8085V273H86.9185V262.878H93.3025V264.376H88.8085ZM98.9222 271.481C99.2862 271.481 99.6105 271.42 99.8952 271.299C100.185 271.178 100.427 271.007 100.623 270.788C100.819 270.569 100.969 270.303 101.071 269.99C101.179 269.677 101.232 269.327 101.232 268.94V262.878H103.115V268.94C103.115 269.542 103.017 270.1 102.821 270.613C102.63 271.122 102.352 271.563 101.988 271.936C101.629 272.305 101.19 272.594 100.672 272.804C100.154 273.009 99.5709 273.112 98.9222 273.112C98.2689 273.112 97.6832 273.009 97.1652 272.804C96.6472 272.594 96.2062 272.305 95.8422 271.936C95.4829 271.563 95.2052 271.122 95.0092 270.613C94.8179 270.1 94.7222 269.542 94.7222 268.94V262.878H96.6052V268.933C96.6052 269.32 96.6565 269.67 96.7592 269.983C96.8665 270.296 97.0182 270.564 97.2142 270.788C97.4149 271.007 97.6575 271.178 97.9422 271.299C98.2315 271.42 98.5582 271.481 98.9222 271.481ZM113.772 262.878V273H112.806C112.656 273 112.53 272.977 112.428 272.93C112.33 272.879 112.234 272.795 112.141 272.678L106.856 265.93C106.884 266.238 106.898 266.523 106.898 266.784V273H105.239V262.878H106.226C106.305 262.878 106.373 262.883 106.429 262.892C106.489 262.897 106.541 262.911 106.583 262.934C106.629 262.953 106.674 262.983 106.716 263.025C106.758 263.062 106.804 263.114 106.856 263.179L112.162 269.955C112.148 269.792 112.136 269.631 112.127 269.472C112.117 269.313 112.113 269.166 112.113 269.031V262.878H113.772ZM125.014 267.939C125.014 268.681 124.89 269.362 124.643 269.983C124.396 270.604 124.048 271.138 123.6 271.586C123.152 272.034 122.613 272.382 121.983 272.629C121.353 272.876 120.653 273 119.883 273H116.026V262.878H119.883C120.653 262.878 121.353 263.004 121.983 263.256C122.613 263.503 123.152 263.851 123.6 264.299C124.048 264.742 124.396 265.274 124.643 265.895C124.89 266.516 125.014 267.197 125.014 267.939ZM123.082 267.939C123.082 267.384 123.007 266.887 122.858 266.448C122.713 266.005 122.501 265.631 122.221 265.328C121.946 265.02 121.61 264.784 121.213 264.621C120.821 264.458 120.378 264.376 119.883 264.376H117.916V271.502H119.883C120.378 271.502 120.821 271.42 121.213 271.257C121.61 271.094 121.946 270.86 122.221 270.557C122.501 270.249 122.713 269.876 122.858 269.437C123.007 268.994 123.082 268.494 123.082 267.939ZM128.566 273H126.676V262.878H128.566V273ZM133.892 267.694C134.246 267.694 134.554 267.65 134.816 267.561C135.082 267.472 135.299 267.351 135.467 267.197C135.639 267.038 135.768 266.852 135.852 266.637C135.936 266.422 135.978 266.187 135.978 265.93C135.978 265.417 135.807 265.022 135.467 264.747C135.131 264.472 134.615 264.334 133.92 264.334H132.716V267.694H133.892ZM138.736 273H137.035C136.713 273 136.479 272.874 136.335 272.622L134.207 269.381C134.127 269.26 134.039 269.173 133.941 269.122C133.847 269.071 133.707 269.045 133.521 269.045H132.716V273H130.833V262.878H133.92C134.606 262.878 135.194 262.95 135.684 263.095C136.178 263.235 136.582 263.433 136.895 263.69C137.212 263.947 137.445 264.255 137.595 264.614C137.744 264.969 137.819 265.361 137.819 265.79C137.819 266.131 137.767 266.453 137.665 266.756C137.567 267.059 137.422 267.335 137.231 267.582C137.044 267.829 136.811 268.046 136.531 268.233C136.255 268.42 135.94 268.567 135.586 268.674C135.707 268.744 135.819 268.828 135.922 268.926C136.024 269.019 136.118 269.131 136.202 269.262L138.736 273Z" fill="black"/>
<path d="M81.0999 267.939C81.0999 268.681 80.9762 269.362 80.7289 269.983C80.4815 270.604 80.1339 271.138 79.6859 271.586C79.2379 272.034 78.6989 272.382 78.0689 272.629C77.4389 272.876 76.7389 273 75.9689 273H72.1119V262.878H75.9689C76.7389 262.878 77.4389 263.004 78.0689 263.256C78.6989 263.503 79.2379 263.851 79.6859 264.299C80.1339 264.742 80.4815 265.274 80.7289 265.895C80.9762 266.516 81.0999 267.197 81.0999 267.939ZM79.1679 267.939C79.1679 267.384 79.0932 266.887 78.9439 266.448C78.7992 266.005 78.5869 265.631 78.3069 265.328C78.0315 265.02 77.6955 264.784 77.2989 264.621C76.9069 264.458 76.4635 264.376 75.9689 264.376H74.0019V271.502H75.9689C76.4635 271.502 76.9069 271.42 77.2989 271.257C77.6955 271.094 78.0315 270.86 78.3069 270.557C78.5869 270.249 78.7992 269.876 78.9439 269.437C79.0932 268.994 79.1679 268.494 79.1679 267.939ZM84.6523 273H82.7623V262.878H84.6523V273ZM88.8085 264.376V267.372H92.6025V268.877H88.8085V273H86.9185V262.878H93.3025V264.376H88.8085ZM98.9222 271.481C99.2862 271.481 99.6105 271.42 99.8952 271.299C100.185 271.178 100.427 271.007 100.623 270.788C100.819 270.569 100.969 270.303 101.071 269.99C101.179 269.677 101.232 269.327 101.232 268.94V262.878H103.115V268.94C103.115 269.542 103.017 270.1 102.821 270.613C102.63 271.122 102.352 271.563 101.988 271.936C101.629 272.305 101.19 272.594 100.672 272.804C100.154 273.009 99.5709 273.112 98.9222 273.112C98.2689 273.112 97.6832 273.009 97.1652 272.804C96.6472 272.594 96.2062 272.305 95.8422 271.936C95.4829 271.563 95.2052 271.122 95.0092 270.613C94.8179 270.1 94.7222 269.542 94.7222 268.94V262.878H96.6052V268.933C96.6052 269.32 96.6565 269.67 96.7592 269.983C96.8665 270.296 97.0182 270.564 97.2142 270.788C97.4149 271.007 97.6575 271.178 97.9422 271.299C98.2315 271.42 98.5582 271.481 98.9222 271.481ZM113.772 262.878V273H112.806C112.656 273 112.53 272.977 112.428 272.93C112.33 272.879 112.234 272.795 112.141 272.678L106.856 265.93C106.884 266.238 106.898 266.523 106.898 266.784V273H105.239V262.878H106.226C106.305 262.878 106.373 262.883 106.429 262.892C106.489 262.897 106.541 262.911 106.583 262.934C106.629 262.953 106.674 262.983 106.716 263.025C106.758 263.062 106.804 263.114 106.856 263.179L112.162 269.955C112.148 269.792 112.136 269.631 112.127 269.472C112.117 269.313 112.113 269.166 112.113 269.031V262.878H113.772ZM125.014 267.939C125.014 268.681 124.89 269.362 124.643 269.983C124.396 270.604 124.048 271.138 123.6 271.586C123.152 272.034 122.613 272.382 121.983 272.629C121.353 272.876 120.653 273 119.883 273H116.026V262.878H119.883C120.653 262.878 121.353 263.004 121.983 263.256C122.613 263.503 123.152 263.851 123.6 264.299C124.048 264.742 124.396 265.274 124.643 265.895C124.89 266.516 125.014 267.197 125.014 267.939ZM123.082 267.939C123.082 267.384 123.007 266.887 122.858 266.448C122.713 266.005 122.501 265.631 122.221 265.328C121.946 265.02 121.61 264.784 121.213 264.621C120.821 264.458 120.378 264.376 119.883 264.376H117.916V271.502H119.883C120.378 271.502 120.821 271.42 121.213 271.257C121.61 271.094 121.946 270.86 122.221 270.557C122.501 270.249 122.713 269.876 122.858 269.437C123.007 268.994 123.082 268.494 123.082 267.939ZM128.566 273H126.676V262.878H128.566V273ZM133.892 267.694C134.246 267.694 134.554 267.65 134.816 267.561C135.082 267.472 135.299 267.351 135.467 267.197C135.639 267.038 135.768 266.852 135.852 266.637C135.936 266.422 135.978 266.187 135.978 265.93C135.978 265.417 135.807 265.022 135.467 264.747C135.131 264.472 134.615 264.334 133.92 264.334H132.716V267.694H133.892ZM138.736 273H137.035C136.713 273 136.479 272.874 136.335 272.622L134.207 269.381C134.127 269.26 134.039 269.173 133.941 269.122C133.847 269.071 133.707 269.045 133.521 269.045H132.716V273H130.833V262.878H133.92C134.606 262.878 135.194 262.95 135.684 263.095C136.178 263.235 136.582 263.433 136.895 263.69C137.212 263.947 137.445 264.255 137.595 264.614C137.744 264.969 137.819 265.361 137.819 265.79C137.819 266.131 137.767 266.453 137.665 266.756C137.567 267.059 137.422 267.335 137.231 267.582C137.044 267.829 136.811 268.046 136.531 268.233C136.255 268.42 135.94 268.567 135.586 268.674C135.707 268.744 135.819 268.828 135.922 268.926C136.024 269.019 136.118 269.131 136.202 269.262L138.736 273Z" fill="black"/>
<path d="M81.0999 267.939C81.0999 268.681 80.9762 269.362 80.7289 269.983C80.4815 270.604 80.1339 271.138 79.6859 271.586C79.2379 272.034 78.6989 272.382 78.0689 272.629C77.4389 272.876 76.7389 273 75.9689 273H72.1119V262.878H75.9689C76.7389 262.878 77.4389 263.004 78.0689 263.256C78.6989 263.503 79.2379 263.851 79.6859 264.299C80.1339 264.742 80.4815 265.274 80.7289 265.895C80.9762 266.516 81.0999 267.197 81.0999 267.939ZM79.1679 267.939C79.1679 267.384 79.0932 266.887 78.9439 266.448C78.7992 266.005 78.5869 265.631 78.3069 265.328C78.0315 265.02 77.6955 264.784 77.2989 264.621C76.9069 264.458 76.4635 264.376 75.9689 264.376H74.0019V271.502H75.9689C76.4635 271.502 76.9069 271.42 77.2989 271.257C77.6955 271.094 78.0315 270.86 78.3069 270.557C78.5869 270.249 78.7992 269.876 78.9439 269.437C79.0932 268.994 79.1679 268.494 79.1679 267.939ZM84.6523 273H82.7623V262.878H84.6523V273ZM88.8085 264.376V267.372H92.6025V268.877H88.8085V273H86.9185V262.878H93.3025V264.376H88.8085ZM98.9222 271.481C99.2862 271.481 99.6105 271.42 99.8952 271.299C100.185 271.178 100.427 271.007 100.623 270.788C100.819 270.569 100.969 270.303 101.071 269.99C101.179 269.677 101.232 269.327 101.232 268.94V262.878H103.115V268.94C103.115 269.542 103.017 270.1 102.821 270.613C102.63 271.122 102.352 271.563 101.988 271.936C101.629 272.305 101.19 272.594 100.672 272.804C100.154 273.009 99.5709 273.112 98.9222 273.112C98.2689 273.112 97.6832 273.009 97.1652 272.804C96.6472 272.594 96.2062 272.305 95.8422 271.936C95.4829 271.563 95.2052 271.122 95.0092 270.613C94.8179 270.1 94.7222 269.542 94.7222 268.94V262.878H96.6052V268.933C96.6052 269.32 96.6565 269.67 96.7592 269.983C96.8665 270.296 97.0182 270.564 97.2142 270.788C97.4149 271.007 97.6575 271.178 97.9422 271.299C98.2315 271.42 98.5582 271.481 98.9222 271.481ZM113.772 262.878V273H112.806C112.656 273 112.53 272.977 112.428 272.93C112.33 272.879 112.234 272.795 112.141 272.678L106.856 265.93C106.884 266.238 106.898 266.523 106.898 266.784V273H105.239V262.878H106.226C106.305 262.878 106.373 262.883 106.429 262.892C106.489 262.897 106.541 262.911 106.583 262.934C106.629 262.953 106.674 262.983 106.716 263.025C106.758 263.062 106.804 263.114 106.856 263.179L112.162 269.955C112.148 269.792 112.136 269.631 112.127 269.472C112.117 269.313 112.113 269.166 112.113 269.031V262.878H113.772ZM125.014 267.939C125.014 268.681 124.89 269.362 124.643 269.983C124.396 270.604 124.048 271.138 123.6 271.586C123.152 272.034 122.613 272.382 121.983 272.629C121.353 272.876 120.653 273 119.883 273H116.026V262.878H119.883C120.653 262.878 121.353 263.004 121.983 263.256C122.613 263.503 123.152 263.851 123.6 264.299C124.048 264.742 124.396 265.274 124.643 265.895C124.89 266.516 125.014 267.197 125.014 267.939ZM123.082 267.939C123.082 267.384 123.007 266.887 122.858 266.448C122.713 266.005 122.501 265.631 122.221 265.328C121.946 265.02 121.61 264.784 121.213 264.621C120.821 264.458 120.378 264.376 119.883 264.376H117.916V271.502H119.883C120.378 271.502 120.821 271.42 121.213 271.257C121.61 271.094 121.946 270.86 122.221 270.557C122.501 270.249 122.713 269.876 122.858 269.437C123.007 268.994 123.082 268.494 123.082 267.939ZM128.566 273H126.676V262.878H128.566V273ZM133.892 267.694C134.246 267.694 134.554 267.65 134.816 267.561C135.082 267.472 135.299 267.351 135.467 267.197C135.639 267.038 135.768 266.852 135.852 266.637C135.936 266.422 135.978 266.187 135.978 265.93C135.978 265.417 135.807 265.022 135.467 264.747C135.131 264.472 134.615 264.334 133.92 264.334H132.716V267.694H133.892ZM138.736 273H137.035C136.713 273 136.479 272.874 136.335 272.622L134.207 269.381C134.127 269.26 134.039 269.173 133.941 269.122C133.847 269.071 133.707 269.045 133.521 269.045H132.716V273H130.833V262.878H133.92C134.606 262.878 135.194 262.95 135.684 263.095C136.178 263.235 136.582 263.433 136.895 263.69C137.212 263.947 137.445 264.255 137.595 264.614C137.744 264.969 137.819 265.361 137.819 265.79C137.819 266.131 137.767 266.453 137.665 266.756C137.567 267.059 137.422 267.335 137.231 267.582C137.044 267.829 136.811 268.046 136.531 268.233C136.255 268.42 135.94 268.567 135.586 268.674C135.707 268.744 135.819 268.828 135.922 268.926C136.024 269.019 136.118 269.131 136.202 269.262L138.736 273Z" fill="#37474F"/>
</svg>
