<svg width="70" height="69" viewBox="0 0 70 69" fill="none" xmlns="http://www.w3.org/2000/svg">
<path d="M14.3731 65.3019L17.1473 56.0491C17.1473 56.0491 9.74876 53.4605 7.89861 49.7143C6.04846 45.9681 7.5753 26.6865 9.42546 21.0902C11.2756 15.4938 18.8598 8.32683 29.0784 5.83006C39.297 3.33329 49.841 8.22879 53.7707 13.1764C57.7004 18.1241 64.4294 34.5085 64.8466 39.1787C65.2638 43.8489 57.7714 49.3889 57.7714 49.3889L62.6043 65.304L14.3731 65.3019Z" fill="#9087CA"/>
<g opacity="0.1">
<path d="M17.147 56.0496C18.2817 56.181 19.3726 56.4918 20.4843 56.7338C21.1456 56.8673 21.8193 56.9424 22.4909 57.0905C20.6533 57.4075 18.7906 56.8589 17.1491 56.0475L17.147 56.0496Z" fill="black"/>
<path d="M53.1552 52.2235C54.0792 51.5582 55.0908 51.0534 56.0753 50.486C56.6594 50.1398 57.1954 49.7518 57.7774 49.3868C56.6782 50.8886 54.9052 51.7104 53.1614 52.2235H53.1552Z" fill="black"/>
</g>
<path opacity="0.45" d="M52.569 65.3027C52.569 65.3027 48.8938 57.5996 46.1884 56.0498C43.4831 54.5 30.7239 55.301 28.0832 58.9408C25.9473 61.884 24.7458 65.3027 24.7458 65.3027H52.569Z" fill="white"/>
<path opacity="0.45" d="M37.0608 54.7041C26.7088 55.9974 21.2459 47.3265 21.903 42.2641C22.6977 36.1442 31.429 33.5995 30.5718 26.7245C30.0545 22.5903 26.8631 21.7539 26.5815 19.5012C26.1477 16.0324 29.412 9.94381 31.4395 9.69768C33.4669 9.45155 38.1267 14.5452 38.5606 18.014C38.8422 20.2667 35.9533 21.8624 36.4747 25.9965C37.3341 32.8694 46.4242 33.1906 48.6999 38.9288C50.5814 43.6637 47.415 53.4109 37.0608 54.7041Z" fill="white"/>
<path d="M22.3806 30.1705C18.0838 30.7066 18.9118 37.3834 23.215 36.8452C27.5181 36.3071 26.6816 29.6323 22.3806 30.1705Z" fill="#263238"/>
<path d="M18.745 27.2796C18.866 25.5713 21.1437 24.4825 22.487 25.6109C21.8613 25.7278 21.2814 25.7862 20.712 26.0281C19.9798 26.3222 19.4062 26.7769 18.745 27.2671V27.2796Z" fill="#263238"/>
<path d="M48.0784 23.6058C47.317 23.295 46.6475 22.9947 45.8674 22.8883C45.2541 22.7903 44.6701 22.8758 44.0422 22.9154C45.0747 21.4824 47.5319 21.9789 48.0784 23.6058Z" fill="#263238"/>
<path d="M45.1936 27.3208C40.8988 27.8568 41.7248 34.5336 46.0279 33.9955C50.3311 33.4573 49.4946 26.7826 45.1936 27.3208Z" fill="#263238"/>
<path d="M38.3687 41.4361C38.181 42.7314 37.866 44.6003 35.7989 44.859C33.7318 45.1176 32.9663 43.3822 32.4615 42.1745C32.4615 42.1745 33.5337 42.5541 34.1761 42.0076C34.8186 41.4611 34.8978 37.6711 34.8978 37.6711C34.8978 37.6711 35.9053 41.3256 36.6625 41.6989C37.4196 42.0723 38.3687 41.4361 38.3687 41.4361Z" fill="#FF9BBC"/>
<path d="M35.6385 43.5614C35.1153 41.6885 34.8728 39.7484 34.9188 37.8044C35.4412 39.6775 35.6837 41.6174 35.6385 43.5614Z" fill="#263238"/>
<path d="M39.3031 34.4862C39.3657 34.991 38.9089 35.5792 38.7149 35.8399C38.3082 36.3739 37.4342 36.6513 37.1422 36.376C36.8022 36.0589 37.7116 35.7669 37.5927 35.4352C37.5051 35.187 37.1755 34.8095 36.725 34.9513C36.2745 35.0932 36.6061 36.3426 36.4497 36.7618C36.3304 37.0669 36.1325 37.3349 35.876 37.5386C35.6195 37.7423 35.3137 37.8744 34.9896 37.9216H34.9437C34.6175 37.9562 34.288 37.9038 33.9886 37.7697C33.6893 37.6356 33.4308 37.4246 33.2395 37.1582C32.9851 36.791 33.0038 35.4895 32.5283 35.4707C32.0527 35.4519 31.8295 35.8879 31.8045 36.1528C31.7711 36.5032 32.7243 36.5699 32.474 36.9537C32.2654 37.2917 31.3414 37.2374 30.8179 36.8202C30.5655 36.6117 29.9835 36.1569 29.9147 35.6543C29.8292 34.9805 31.0953 33.4015 34.3283 32.999H34.3742C37.6052 32.5943 39.2197 33.8124 39.3031 34.4862Z" fill="#263238"/>
<path d="M29.4139 39.1998C29.6655 39.5628 29.9504 39.9015 30.265 40.2114C30.8615 40.8163 31.4935 41.4129 32.2778 41.7424C32.8035 41.951 33.4 42.1596 33.8944 41.8801C34.2594 41.5443 34.3386 40.7934 34.4659 40.2824C34.6286 39.4292 34.7496 38.5553 34.8997 37.6771C35.0457 38.8327 35.1897 41.4692 34.324 42.3348C33.6461 42.8542 32.6929 42.5956 32.0296 42.2577C31.1953 41.8405 30.5695 41.1313 30.046 40.3804C29.7808 40.0203 29.57 39.6232 29.4202 39.2019L29.4139 39.1998Z" fill="#263238"/>
<path d="M40.5943 37.8047C40.5504 38.2515 40.4408 38.6894 40.2689 39.1042C39.9476 39.9511 39.5075 40.8 38.8088 41.3986C38.2539 41.8888 37.3925 42.3748 36.6103 42.0369C35.5674 41.4112 35.048 38.8205 34.9041 37.6566C35.267 38.4722 35.5986 39.2878 35.9658 40.0741C36.214 40.5393 36.4768 41.2485 36.9148 41.4821C37.4592 41.6239 37.989 41.2839 38.4458 40.9523C39.1279 40.4391 39.591 39.7008 40.0207 38.9728C40.2505 38.5986 40.4439 38.2033 40.5984 37.7922L40.5943 37.8047Z" fill="#263238"/>
<path d="M40.3605 47.2786C39.3176 47.8021 38.1996 48.2276 37.1087 48.3215C37.0211 48.3215 36.9898 48.48 37.0649 48.5301C37.2735 48.6782 37.8471 49.0933 37.9368 49.1558C37.87 49.1684 37.8033 49.1809 37.7282 49.1892C37.5034 49.2197 37.2771 49.2378 37.0503 49.2435C36.5963 49.2544 36.1424 49.2223 35.6945 49.1475C35.2459 49.0726 34.8063 48.9517 34.3825 48.7866C33.9507 48.6219 33.5481 48.3966 33.131 48.188C33.1122 48.188 33.0955 48.2193 33.1122 48.2339C33.4801 48.5616 33.894 48.8335 34.3408 49.0411C34.7552 49.2445 35.1901 49.4033 35.6382 49.5146C36.0873 49.6259 36.5479 49.6847 37.0107 49.6898C37.2517 49.6911 37.4925 49.68 37.7324 49.6565C37.9731 49.6507 38.2101 49.5961 38.429 49.4958C38.5751 49.4166 38.5146 49.1642 38.3978 49.1162C38.3268 49.087 37.5113 48.5781 37.3924 48.5009C37.8692 48.4473 38.3386 48.341 38.792 48.1838C39.3568 47.98 39.893 47.7045 40.3877 47.3641C40.4294 47.3432 40.4002 47.2556 40.3605 47.2786Z" fill="#263238"/>
<path opacity="0.1" d="M14.3731 65.3029L17.1473 56.05C17.1473 56.05 9.74878 53.4615 7.89863 49.7153C6.42602 46.7325 7.09349 33.9087 8.3596 25.9783C8.3158 29.1071 8.17813 44.7655 10.8126 48.4888C13.447 52.212 18.6512 54.5378 25.449 56.05C25.449 56.05 22.4871 59.0787 22.4871 61.5066C22.4871 63.144 24.8295 65.3029 34.608 65.3029H14.3731Z" fill="black"/>
<path opacity="0.1" d="M57.9924 50.1134C57.9924 50.1134 58.9498 59.3788 58.5806 61.5981C58.2114 63.8175 50.3499 65.3026 50.3499 65.3026H62.6042L57.9924 50.1134Z" fill="black"/>
<path d="M23.4006 7.78968C22.535 8.05041 21.1938 7.42674 20.5701 6.75718C19.9465 6.08763 18.8118 3.72644 18.8118 3.72644C18.8118 3.72644 18.4655 5.8999 18.6512 6.9178C18.7456 7.49817 18.9663 8.05073 19.2978 8.53642C18.4272 8.07589 17.6693 7.42839 17.0784 6.64038C16.2441 5.43893 15.7372 4.65256 14.5754 4.44397C13.4136 4.23539 10.0428 9.06831 7.38547 10.6869C4.72809 12.3056 1.96225 13.1378 0.956865 14.7105C-0.0485162 16.2833 0.0328324 23.6797 1.65145 28.1205C3.27008 32.5613 7.61491 37.0897 9.55684 36.3972C11.4988 35.7047 10.3307 30.6235 13.2905 24.2429C15.5641 19.3411 18.7137 17.1614 18.7137 17.1614L23.4006 7.78968Z" fill="#9087CA"/>
<path opacity="0.1" d="M18.1151 17.6427C17.091 18.5271 14.9571 20.6547 13.2947 24.2423C10.337 30.623 11.505 35.7041 9.56311 36.3966C7.62118 37.0891 3.27426 32.5586 1.65564 28.1137C2.6047 30.1995 7.06008 34.3087 8.40755 33.2929C9.45047 32.5086 10.2139 27.0958 11.8534 24.0442C13.4532 21.0948 17.8335 17.8429 18.1151 17.6427Z" fill="black"/>
<path d="M23.4006 7.78971C22.3577 8.05461 21.0957 7.44137 20.399 6.65292C20.0655 6.20601 19.7637 5.73623 19.4959 5.24706C19.2226 4.76314 18.9619 4.27296 18.7095 3.77653L18.9181 3.74524C18.7366 5.30337 18.4571 7.08261 19.4312 8.43007L19.8713 9.03914L19.2122 8.69497C18.5865 8.36761 18.0117 7.95094 17.506 7.45806C16.5256 6.52151 16.0104 4.88203 14.5148 4.67345C14.0017 4.76105 13.6012 5.22203 13.207 5.55993C11.7469 6.97623 10.4057 8.58442 8.85384 9.94022C6.80345 11.7925 3.96043 12.4745 1.8412 14.1724C1.34888 14.562 1.01823 15.12 0.912996 15.7389C0.668999 17.062 0.567603 18.4074 0.610548 19.7521C0.671038 22.4491 0.977658 25.1941 1.81826 27.7618C2.26139 29.036 2.86115 30.2502 3.60375 31.3765C4.58618 32.9326 7.47926 36.6558 9.48377 36.2262C9.72573 36.1469 9.91763 35.8757 10.0595 35.59C10.4766 34.6764 10.656 33.6585 10.8667 32.6698C11.6864 28.7066 12.3539 24.3931 15.0238 21.1788C13.3197 23.346 12.5208 26.0409 11.9305 28.6879C11.6426 30.0249 11.4257 31.3745 11.1796 32.724C10.971 33.7398 10.8166 34.7827 10.3849 35.7422C9.84253 37.073 8.48047 36.7163 7.49595 36.1239C5.7042 35.0205 4.32963 33.3769 3.15946 31.6602C0.781588 28.1873 0.122458 23.88 0.00565019 19.7562C-0.00895078 19.0658 0.00565096 18.3733 0.0390246 17.6704C0.128716 16.6045 0.166262 15.5136 0.702326 14.527C1.30514 13.6092 2.298 13.0461 3.20535 12.5434C4.72594 11.732 6.28824 11.0833 7.69202 10.1259C8.49978 9.5151 9.25792 8.84135 9.95934 8.11093C10.9251 7.14936 11.8366 6.12312 12.8545 5.18031C13.2592 4.82571 13.6596 4.44192 14.1915 4.24376C14.353 4.18525 14.5285 4.17797 14.6942 4.2229L14.8298 4.25419C16.2899 4.61921 16.8218 6.1836 17.773 7.17438C18.2413 7.64819 18.776 8.0515 19.3603 8.37167L19.1413 8.63657C18.8988 8.2749 18.715 7.87715 18.5969 7.45806C18.2214 6.10851 18.5551 4.68805 18.7429 3.3385C19.2643 4.43775 19.7858 5.57245 20.4825 6.5674C21.1416 7.34751 22.3368 8.00247 23.3839 7.78137L23.4006 7.78971Z" fill="#263238"/>
<path d="M38.3331 5.42136C39.2342 5.49227 40.419 4.58701 40.8779 3.8069C41.3368 3.02679 41.9458 0.469538 41.9458 0.469538C41.9458 0.469538 42.7489 2.51993 42.7802 3.55243C42.8117 4.13935 42.7142 4.72604 42.4944 5.27117C43.2456 4.63476 43.8473 3.8407 44.257 2.94545C44.8139 1.59381 45.1414 0.71567 46.226 0.265126C47.3106 -0.185419 51.6492 3.81108 54.5861 4.82689C57.523 5.8427 60.4265 6.05963 61.726 7.38206C63.0255 8.70449 64.5565 15.9507 63.9307 20.6335C63.305 25.3162 60.0114 30.6706 57.9673 30.4078C55.9231 30.145 55.9774 24.9324 51.7222 19.3319C48.4537 15.0288 44.9098 13.5729 44.9098 13.5729L38.3331 5.42136Z" fill="#9087CA"/>
<path opacity="0.1" d="M63.9308 20.632C63.305 25.3147 60.0219 30.6712 57.9757 30.4105C56.1214 30.1727 55.9962 25.857 52.8069 20.8739C52.8064 20.8691 52.8064 20.8642 52.8069 20.8593C54.5632 22.4321 56.7826 28.0263 58.3553 28.212C59.928 28.3976 62.356 24.059 63.0485 21.1201C63.4656 19.3492 63.6638 13.5213 63.6742 13.3899C64.0476 15.8074 64.2103 18.4835 63.9308 20.632Z" fill="black"/>
<path d="M38.3331 5.42171C39.399 5.42171 40.4336 4.51854 40.9092 3.61536C41.3806 2.49317 41.6413 1.27503 41.9166 0.0902682C42.388 1.36681 43.018 2.68507 42.9387 4.08259C42.9151 4.51703 42.8207 4.94471 42.6592 5.34871L42.3901 5.14012C42.8914 4.70161 43.3276 4.1938 43.6854 3.63205C44.403 2.46397 44.5782 0.820319 45.934 0.15076C46.1209 0.03466 46.3408 -0.0166531 46.5597 0.00475065C47.1208 0.0840131 47.6027 0.373947 48.0678 0.630507C49.2693 1.33344 50.3727 2.14275 51.522 2.87488C52.363 3.43955 53.2482 3.93551 54.1689 4.35793C55.7438 4.98368 57.4083 5.29239 59.0665 5.7617C60.0719 6.05581 61.1524 6.38746 61.9471 7.1634C62.6813 8.01025 62.9504 9.06778 63.2674 10.0836C63.4552 10.7531 63.6095 11.429 63.743 12.1069C64.5106 16.1597 64.7859 20.5087 63.2069 24.4134C62.4331 26.3407 61.4402 28.2409 59.928 29.701C59.0936 30.4791 57.8421 31.1403 57.0224 29.9472C56.3966 29.1003 56.017 28.1179 55.6019 27.1688C55.0721 25.9027 54.5736 24.6303 54.0041 23.3872C52.8694 20.9196 51.5011 18.4583 49.3756 16.7124C52.6734 19.2822 54.244 23.3434 55.8939 27.0499C56.3111 27.9114 57.0745 30.0348 58.0069 30.2267C60.051 30.2267 62.0973 25.9361 62.7126 24.2319C63.1974 22.9729 63.5239 21.6584 63.6846 20.3189C63.9558 17.6302 63.67 14.8831 63.1506 12.2362C62.9055 10.913 62.5188 9.61997 61.9971 8.37945C61.7619 7.79784 61.3199 7.32381 60.7561 7.04867C58.3219 5.84305 55.3996 5.78465 53.0009 4.41424C51.1945 3.42555 49.5425 2.14066 47.8112 1.07688C47.3544 0.828663 46.8664 0.465725 46.3512 0.490755C44.9349 1.0143 44.7826 2.7247 44.0233 3.84898C43.6353 4.43876 43.1631 4.96861 42.6216 5.42171L42.0522 5.90146L42.3505 5.20895C43.0138 3.68211 42.3609 2.00925 41.852 0.524126L42.0605 0.509527C41.9229 1.04768 41.7706 1.58166 41.6079 2.11355C41.4509 2.64871 41.2565 3.17216 41.026 3.68002C40.5149 4.59571 39.4178 5.46968 38.3373 5.43214L38.3331 5.42171Z" fill="#263238"/>
<path d="M4.2754 64.3096C4.05221 65.7842 5.62703 67.5343 6.66787 67.7095C7.70872 67.8847 8.50551 67.1192 8.50551 67.1192C8.50551 67.1192 9.44206 68.5793 11.2171 68.7482C11.714 68.8086 12.218 68.7449 12.6843 68.5629C13.1505 68.3809 13.5645 68.0863 13.8891 67.7053C13.8891 67.7053 14.932 68.5021 16.7676 68.5021C18.6031 68.5021 19.5021 66.702 19.5021 66.702C19.5021 66.702 20.7536 67.0504 21.6526 66.3224C22.5516 65.5944 22.7623 63.7902 22.1386 62.4031C21.515 61.016 17.8334 56.6899 13.3781 56.6336C8.92268 56.5773 4.61539 62.0214 4.2754 64.3096Z" fill="#9087CA"/>
<path d="M8.86434 63.1752C8.53061 64.4976 8.33245 65.8096 8.56398 67.1654C7.7505 65.9848 7.97994 64.2452 8.86434 63.1752Z" fill="#263238"/>
<path d="M18.6846 62.507C19.7609 63.5123 20.2802 65.3375 19.4647 66.6453C19.6733 65.1852 19.2436 63.8315 18.6846 62.507Z" fill="#263238"/>
<path d="M13.7974 63.364C14.0643 64.8033 14.0185 66.2404 13.9079 67.6984C13.4428 66.3113 13.4907 64.7782 13.7974 63.364Z" fill="#263238"/>
<path opacity="0.1" d="M19.3185 66.9941C18.9764 67.5031 18.1254 68.5064 16.7529 68.5064C14.9153 68.5064 13.8744 67.7096 13.8744 67.7096C13.5501 68.0903 13.1366 68.3849 12.6707 68.5669C12.2048 68.7489 11.7011 68.8126 11.2045 68.7525C9.43573 68.5794 8.49293 67.1214 8.49293 67.1214C8.49293 67.1214 7.69613 67.8848 6.65529 67.7116C5.61445 67.5385 4.03754 65.7885 4.26282 64.3138C4.4714 62.8975 6.20475 60.2756 8.54507 58.4943C6.27567 60.6761 5.60819 62.6389 5.86267 63.8612C6.11714 65.0835 7.15798 66.1973 8.36569 65.7113C8.36569 65.7113 9.84665 67.4196 11.3255 67.7096C11.7722 67.786 12.2306 67.7582 12.6647 67.6283C13.0989 67.4985 13.4972 67.27 13.8285 66.9607C13.8285 66.9607 15.5515 68.0892 16.9427 68.0475C18.334 68.0058 19.3185 66.9941 19.3185 66.9941Z" fill="black"/>
<path d="M49.7073 65.3025H68.2255C68.2255 65.3025 67.3765 51.805 67.412 51.4108C67.4475 51.0165 70.278 49.9089 69.9776 47.1097C69.769 45.1678 68.4424 45.3388 68.1921 44.8737C67.9418 44.4086 67.873 41.0211 66.1459 40.5727C64.4188 40.1242 64.4251 41.1588 63.7534 41.042C63.0818 40.9252 63.2153 39.7237 61.5737 39.9281C59.6339 40.168 59.0853 42.1204 58.6535 42.5146C58.2217 42.9088 57.2664 42.2393 55.8084 43.8683C54.4171 45.4244 56.2589 48.5156 56.017 49.1914C55.871 49.5982 49.7073 65.3025 49.7073 65.3025Z" fill="#9087CA"/>
<path opacity="0.2" d="M61.3902 62.1127C60.9396 60.9842 60.5955 59.8057 60.5829 58.671C60.5829 58.5813 60.4307 58.5375 60.3744 58.6105C60.2054 58.8087 59.7256 59.3677 59.6568 59.4553C59.6568 59.3844 59.6422 59.3156 59.6401 59.2467C59.6276 59.0119 59.6276 58.7766 59.6401 58.5417C59.6655 58.0738 59.7353 57.6093 59.8487 57.1546C59.9644 56.6987 60.1258 56.2557 60.3305 55.8322C60.5391 55.4025 60.8061 54.9979 61.0543 54.5807C61.0668 54.5619 61.0272 54.541 61.0105 54.5577C60.6417 54.9083 60.3262 55.311 60.074 55.7529C59.829 56.163 59.6284 56.5979 59.4753 57.0503C59.322 57.5037 59.2219 57.9734 59.1771 58.4499C59.1541 58.6974 59.1457 58.9461 59.152 59.1946C59.1373 59.4432 59.1728 59.6921 59.2563 59.9267C59.3252 60.0832 59.5901 60.0435 59.6506 59.9267C59.686 59.8579 60.2763 59.059 60.3723 58.9443C60.3864 59.4373 60.4563 59.9271 60.5808 60.4044C60.7422 61.0038 60.9798 61.58 61.2879 62.119C61.3172 62.1815 61.4089 62.1586 61.3902 62.1127Z" fill="black"/>
<path d="M63.5846 44.6756C63.6054 44.4545 63.6555 44.2354 63.691 44.0143C63.8135 43.4866 64.002 42.9764 64.252 42.4958C64.3267 42.3659 64.414 42.2436 64.5128 42.1308C64.6365 41.9696 64.8184 41.8633 65.0195 41.8344C65.2206 41.8056 65.425 41.8566 65.5891 41.9765C65.8765 42.1598 66.1195 42.4049 66.3003 42.694C66.7175 43.3198 66.9949 43.9893 66.9428 44.7465C66.9289 45.1137 66.8283 45.4723 66.6492 45.7932C66.4701 46.114 66.2176 46.3879 65.9124 46.5925C65.7533 46.7101 65.5706 46.792 65.3768 46.8323C65.1831 46.8726 64.9829 46.8705 64.79 46.8261C64.5972 46.7817 64.4162 46.6961 64.2596 46.5751C64.103 46.4541 63.9745 46.3006 63.8828 46.1252C63.6278 45.6875 63.523 45.1784 63.5846 44.6756Z" fill="#FF9BBC"/>
<path d="M59.7318 45.2345C59.5204 44.8744 59.4089 44.4643 59.4089 44.0466C59.4089 43.629 59.5204 43.2189 59.7318 42.8588C60.1379 42.1304 60.7935 41.5734 61.5778 41.2902C61.7189 41.2397 61.8663 41.2088 62.0158 41.1984C62.1953 41.1698 62.3791 41.2076 62.5326 41.3047C62.6862 41.4019 62.7991 41.5517 62.8502 41.7261C62.9766 42.1111 63.0137 42.5199 62.9586 42.9213C62.9336 43.2238 62.8877 43.5262 62.8502 43.8287C62.7775 44.381 62.5529 44.9024 62.2015 45.3347C61.9716 45.6166 61.6619 45.8224 61.3129 45.925C61.0102 46.0121 60.6866 45.9909 60.3979 45.8648C60.1092 45.7388 59.8736 45.5158 59.7318 45.2345Z" fill="#FF9BBC"/>
<path d="M57.4167 48.1108C57.0943 47.8826 56.8405 47.5705 56.6828 47.2083C56.5251 46.8462 56.4694 46.4478 56.5219 46.0563C56.5354 45.9628 56.5542 45.8702 56.5782 45.7789C56.6866 45.2111 56.9601 44.6879 57.3645 44.275C57.4045 44.2353 57.447 44.1984 57.4918 44.1644C57.9319 43.8286 58.3512 43.8703 58.7141 44.2916C58.9682 44.6067 59.1575 44.969 59.271 45.3575C59.4656 45.8497 59.5476 46.3793 59.5109 46.9073C59.4783 47.2332 59.3619 47.5451 59.173 47.8126C59.0819 47.9531 58.9627 48.0732 58.8228 48.1652C58.6829 48.2573 58.5254 48.3193 58.3603 48.3473C58.1952 48.3753 58.0261 48.3688 57.8637 48.3281C57.7013 48.2874 57.549 48.2134 57.4167 48.1108Z" fill="#FF9BBC"/>
<path d="M66.0166 51.6234C66.0166 51.7047 65.9937 51.7861 65.9791 51.8925C65.783 52.6663 65.2511 53.1189 64.4689 53.2879C63.6729 53.4497 62.8451 53.3004 62.1557 52.8707C61.6998 52.5984 61.1668 52.484 60.6393 52.5453C59.8485 52.6569 59.0445 52.4695 58.3845 52.0197C58.1045 51.8472 57.8756 51.6032 57.7212 51.3129C57.5669 51.0225 57.4927 50.6962 57.5064 50.3677C57.5194 50.1006 57.587 49.8389 57.7051 49.5989C57.8231 49.359 57.989 49.1457 58.1926 48.9723C58.4193 48.769 58.6693 48.5932 58.9372 48.4487C59.5209 48.1365 60.0494 47.7306 60.5016 47.2473C60.7155 47.0125 60.9753 46.824 61.2648 46.6934C61.5543 46.5628 61.8675 46.493 62.1851 46.4881C62.5027 46.4832 62.8179 46.5434 63.1113 46.665C63.4047 46.7866 63.6701 46.967 63.8911 47.1951C64.18 47.4869 64.3841 47.8517 64.4814 48.2506C64.6112 48.7777 64.8732 49.263 65.2428 49.6606C65.7132 50.1364 65.991 50.7694 66.0229 51.4377C66.0247 51.4997 66.0227 51.5617 66.0166 51.6234Z" fill="#FF9BBC"/>
<path d="M68.6511 48.2732C68.4425 49.1993 67.9482 49.7875 67.1305 50.0733C66.9509 50.1476 66.7564 50.1791 66.5625 50.1652C66.3686 50.1513 66.1806 50.0925 66.0134 49.9933C65.8462 49.8941 65.7044 49.7573 65.5992 49.5938C65.4941 49.4303 65.4285 49.2445 65.4076 49.0512C65.3624 48.7535 65.3904 48.4493 65.489 48.1647C65.7163 47.4847 66.1815 46.9758 66.6967 46.5106C66.8851 46.3435 67.0957 46.2032 67.3224 46.0935C67.4175 46.0374 67.5233 46.0021 67.633 45.99C67.7427 45.978 67.8537 45.9894 67.9587 46.0235C68.0636 46.0576 68.1601 46.1137 68.2418 46.188C68.3234 46.2622 68.3883 46.353 68.4321 46.4543C68.6361 46.8446 68.7306 47.2829 68.7054 47.7225C68.6928 47.929 68.6615 48.1376 68.6511 48.2732Z" fill="#FF9BBC"/>
<path opacity="0.1" d="M64.7504 40.5871C64.5544 40.6914 64.1372 41.144 63.7784 41.1273C63.4197 41.1106 62.8586 40.3305 62.6333 40.2095C62.408 40.0886 61.5737 39.9279 60.6664 40.487C59.759 41.046 59.3418 42.2203 58.8162 42.7146C58.2906 43.209 58.0069 42.9921 57.5105 43.1318C57.014 43.2716 56.1797 43.8723 55.9961 45.0988C55.8126 46.3253 56.989 49.1203 56.9431 49.3977C56.8972 49.6751 53.3492 60.507 54.0083 62.4844C54.7404 64.6849 62.967 65.2711 62.967 65.2711L62.9086 65.3128H49.7073C49.7073 65.3128 55.871 49.6126 56.0191 49.2016C56.261 48.5258 54.4192 45.4346 55.8105 43.8785C57.2706 42.2495 58.2238 42.9191 58.6535 42.5248C59.0832 42.1306 59.6318 40.1782 61.5737 39.9384C63.2153 39.7298 63.0818 40.9354 63.7534 41.0522C64.1518 41.1106 64.3208 40.7769 64.7504 40.5871Z" fill="black"/>
</svg>
