<svg width="191" height="294" viewBox="0 0 191 294" fill="none" xmlns="http://www.w3.org/2000/svg">
<path d="M56.3212 265.376V268.183H59.8632V269.632H56.3212V272.495H60.8152V274H54.4312V263.878H60.8152V265.376H56.3212ZM71.0169 263.878V274H70.0509C69.9016 274 69.7756 273.977 69.6729 273.93C69.5749 273.879 69.4793 273.795 69.3859 273.678L64.1009 266.93C64.1289 267.238 64.1429 267.523 64.1429 267.784V274H62.4839V263.878H63.4709C63.5503 263.878 63.6179 263.883 63.6739 263.892C63.7346 263.897 63.7859 263.911 63.8279 263.934C63.8746 263.953 63.9189 263.983 63.9609 264.025C64.0029 264.062 64.0496 264.114 64.1009 264.179L69.4069 270.955C69.3929 270.792 69.3813 270.631 69.3719 270.472C69.3626 270.313 69.3579 270.166 69.3579 270.031V263.878H71.0169ZM80.222 271.613C80.3247 271.613 80.4157 271.653 80.495 271.732L81.237 272.537C80.8264 273.046 80.32 273.435 79.718 273.706C79.1207 273.977 78.402 274.112 77.562 274.112C76.8107 274.112 76.134 273.984 75.532 273.727C74.9347 273.47 74.4237 273.113 73.999 272.656C73.5744 272.199 73.2477 271.653 73.019 271.018C72.795 270.383 72.683 269.69 72.683 268.939C72.683 268.178 72.8044 267.483 73.047 266.853C73.2897 266.218 73.6304 265.672 74.069 265.215C74.5124 264.758 75.0397 264.403 75.651 264.151C76.2624 263.894 76.939 263.766 77.681 263.766C78.4184 263.766 79.0717 263.887 79.641 264.13C80.215 264.373 80.7027 264.69 81.104 265.082L80.474 265.957C80.4367 266.013 80.3877 266.062 80.327 266.104C80.271 266.146 80.1917 266.167 80.089 266.167C80.019 266.167 79.9467 266.148 79.872 266.111C79.7974 266.069 79.7157 266.02 79.627 265.964C79.5384 265.903 79.4357 265.838 79.319 265.768C79.2024 265.698 79.067 265.635 78.913 265.579C78.759 265.518 78.5794 265.469 78.374 265.432C78.1734 265.39 77.94 265.369 77.674 265.369C77.2214 265.369 76.806 265.451 76.428 265.614C76.0547 265.773 75.7327 266.006 75.462 266.314C75.1914 266.617 74.9814 266.991 74.832 267.434C74.6827 267.873 74.608 268.374 74.608 268.939C74.608 269.508 74.6874 270.015 74.846 270.458C75.0094 270.901 75.2287 271.275 75.504 271.578C75.7794 271.881 76.1037 272.115 76.477 272.278C76.8504 272.437 77.2517 272.516 77.681 272.516C77.9377 272.516 78.1687 272.502 78.374 272.474C78.584 272.446 78.7754 272.402 78.948 272.341C79.1254 272.28 79.291 272.203 79.445 272.11C79.6037 272.012 79.76 271.893 79.914 271.753C79.9607 271.711 80.0097 271.678 80.061 271.655C80.1124 271.627 80.166 271.613 80.222 271.613ZM91.9612 268.939C91.9612 269.681 91.8375 270.369 91.5902 271.004C91.3475 271.634 91.0022 272.18 90.5542 272.642C90.1062 273.104 89.5672 273.466 88.9372 273.727C88.3072 273.984 87.6072 274.112 86.8372 274.112C86.0718 274.112 85.3742 273.984 84.7442 273.727C84.1142 273.466 83.5728 273.104 83.1202 272.642C82.6722 272.18 82.3245 271.634 82.0772 271.004C81.8298 270.369 81.7062 269.681 81.7062 268.939C81.7062 268.197 81.8298 267.511 82.0772 266.881C82.3245 266.246 82.6722 265.698 83.1202 265.236C83.5728 264.774 84.1142 264.415 84.7442 264.158C85.3742 263.897 86.0718 263.766 86.8372 263.766C87.3505 263.766 87.8335 263.827 88.2862 263.948C88.7388 264.065 89.1542 264.233 89.5322 264.452C89.9102 264.667 90.2485 264.93 90.5472 265.243C90.8505 265.551 91.1072 265.896 91.3172 266.279C91.5272 266.662 91.6858 267.077 91.7932 267.525C91.9052 267.973 91.9612 268.444 91.9612 268.939ZM90.0362 268.939C90.0362 268.384 89.9615 267.887 89.8122 267.448C89.6628 267.005 89.4505 266.629 89.1752 266.321C88.8998 266.013 88.5638 265.777 88.1672 265.614C87.7752 265.451 87.3318 265.369 86.8372 265.369C86.3425 265.369 85.8968 265.451 85.5002 265.614C85.1082 265.777 84.7722 266.013 84.4922 266.321C84.2168 266.629 84.0045 267.005 83.8552 267.448C83.7058 267.887 83.6312 268.384 83.6312 268.939C83.6312 269.494 83.7058 269.994 83.8552 270.437C84.0045 270.876 84.2168 271.249 84.4922 271.557C84.7722 271.86 85.1082 272.094 85.5002 272.257C85.8968 272.42 86.3425 272.502 86.8372 272.502C87.3318 272.502 87.7752 272.42 88.1672 272.257C88.5638 272.094 88.8998 271.86 89.1752 271.557C89.4505 271.249 89.6628 270.876 89.8122 270.437C89.9615 269.994 90.0362 269.494 90.0362 268.939ZM102.148 263.878V274H101.182C101.032 274 100.906 273.977 100.804 273.93C100.706 273.879 100.61 273.795 100.517 273.678L95.2318 266.93C95.2598 267.238 95.2738 267.523 95.2738 267.784V274H93.6148V263.878H94.6018C94.6811 263.878 94.7488 263.883 94.8048 263.892C94.8655 263.897 94.9168 263.911 94.9588 263.934C95.0055 263.953 95.0498 263.983 95.0918 264.025C95.1338 264.062 95.1805 264.114 95.2318 264.179L100.538 270.955C100.524 270.792 100.512 270.631 100.503 270.472C100.493 270.313 100.489 270.166 100.489 270.031V263.878H102.148ZM111.472 265.425H108.42V274H106.537V265.425H103.485V263.878H111.472V265.425ZM115.855 268.694C116.21 268.694 116.518 268.65 116.779 268.561C117.045 268.472 117.262 268.351 117.43 268.197C117.603 268.038 117.731 267.852 117.815 267.637C117.899 267.422 117.941 267.187 117.941 266.93C117.941 266.417 117.771 266.022 117.43 265.747C117.094 265.472 116.579 265.334 115.883 265.334H114.679V268.694H115.855ZM120.699 274H118.998C118.676 274 118.443 273.874 118.298 273.622L116.17 270.381C116.091 270.26 116.002 270.173 115.904 270.122C115.811 270.071 115.671 270.045 115.484 270.045H114.679V274H112.796V263.878H115.883C116.569 263.878 117.157 263.95 117.647 264.095C118.142 264.235 118.546 264.433 118.858 264.69C119.176 264.947 119.409 265.255 119.558 265.614C119.708 265.969 119.782 266.361 119.782 266.79C119.782 267.131 119.731 267.453 119.628 267.756C119.53 268.059 119.386 268.335 119.194 268.582C119.008 268.829 118.774 269.046 118.494 269.233C118.219 269.42 117.904 269.567 117.549 269.674C117.671 269.744 117.783 269.828 117.885 269.926C117.988 270.019 118.081 270.131 118.165 270.262L120.699 274ZM127.141 270.178L125.909 266.811C125.848 266.662 125.785 266.484 125.72 266.279C125.654 266.074 125.589 265.852 125.524 265.614C125.463 265.852 125.4 266.076 125.335 266.286C125.269 266.491 125.206 266.671 125.146 266.825L123.921 270.178H127.141ZM130.466 274H129.01C128.846 274 128.713 273.96 128.611 273.881C128.508 273.797 128.431 273.694 128.38 273.573L127.624 271.508H123.431L122.675 273.573C122.637 273.68 122.565 273.778 122.458 273.867C122.35 273.956 122.217 274 122.059 274H120.589L124.572 263.878H126.49L130.466 274ZM134.572 268.694C134.927 268.694 135.235 268.65 135.496 268.561C135.762 268.472 135.979 268.351 136.147 268.197C136.32 268.038 136.448 267.852 136.532 267.637C136.616 267.422 136.658 267.187 136.658 266.93C136.658 266.417 136.488 266.022 136.147 265.747C135.811 265.472 135.296 265.334 134.6 265.334H133.396V268.694H134.572ZM139.416 274H137.715C137.393 274 137.16 273.874 137.015 273.622L134.887 270.381C134.808 270.26 134.719 270.173 134.621 270.122C134.528 270.071 134.388 270.045 134.201 270.045H133.396V274H131.513V263.878H134.6C135.286 263.878 135.874 263.95 136.364 264.095C136.859 264.235 137.263 264.433 137.575 264.69C137.893 264.947 138.126 265.255 138.275 265.614C138.425 265.969 138.499 266.361 138.499 266.79C138.499 267.131 138.448 267.453 138.345 267.756C138.247 268.059 138.103 268.335 137.911 268.582C137.725 268.829 137.491 269.046 137.211 269.233C136.936 269.42 136.621 269.567 136.266 269.674C136.388 269.744 136.5 269.828 136.602 269.926C136.705 270.019 136.798 270.131 136.882 270.262L139.416 274Z" fill="black"/>
<path d="M56.3212 265.376V268.183H59.8632V269.632H56.3212V272.495H60.8152V274H54.4312V263.878H60.8152V265.376H56.3212ZM71.0169 263.878V274H70.0509C69.9016 274 69.7756 273.977 69.6729 273.93C69.5749 273.879 69.4793 273.795 69.3859 273.678L64.1009 266.93C64.1289 267.238 64.1429 267.523 64.1429 267.784V274H62.4839V263.878H63.4709C63.5503 263.878 63.6179 263.883 63.6739 263.892C63.7346 263.897 63.7859 263.911 63.8279 263.934C63.8746 263.953 63.9189 263.983 63.9609 264.025C64.0029 264.062 64.0496 264.114 64.1009 264.179L69.4069 270.955C69.3929 270.792 69.3813 270.631 69.3719 270.472C69.3626 270.313 69.3579 270.166 69.3579 270.031V263.878H71.0169ZM80.222 271.613C80.3247 271.613 80.4157 271.653 80.495 271.732L81.237 272.537C80.8264 273.046 80.32 273.435 79.718 273.706C79.1207 273.977 78.402 274.112 77.562 274.112C76.8107 274.112 76.134 273.984 75.532 273.727C74.9347 273.47 74.4237 273.113 73.999 272.656C73.5744 272.199 73.2477 271.653 73.019 271.018C72.795 270.383 72.683 269.69 72.683 268.939C72.683 268.178 72.8044 267.483 73.047 266.853C73.2897 266.218 73.6304 265.672 74.069 265.215C74.5124 264.758 75.0397 264.403 75.651 264.151C76.2624 263.894 76.939 263.766 77.681 263.766C78.4184 263.766 79.0717 263.887 79.641 264.13C80.215 264.373 80.7027 264.69 81.104 265.082L80.474 265.957C80.4367 266.013 80.3877 266.062 80.327 266.104C80.271 266.146 80.1917 266.167 80.089 266.167C80.019 266.167 79.9467 266.148 79.872 266.111C79.7974 266.069 79.7157 266.02 79.627 265.964C79.5384 265.903 79.4357 265.838 79.319 265.768C79.2024 265.698 79.067 265.635 78.913 265.579C78.759 265.518 78.5794 265.469 78.374 265.432C78.1734 265.39 77.94 265.369 77.674 265.369C77.2214 265.369 76.806 265.451 76.428 265.614C76.0547 265.773 75.7327 266.006 75.462 266.314C75.1914 266.617 74.9814 266.991 74.832 267.434C74.6827 267.873 74.608 268.374 74.608 268.939C74.608 269.508 74.6874 270.015 74.846 270.458C75.0094 270.901 75.2287 271.275 75.504 271.578C75.7794 271.881 76.1037 272.115 76.477 272.278C76.8504 272.437 77.2517 272.516 77.681 272.516C77.9377 272.516 78.1687 272.502 78.374 272.474C78.584 272.446 78.7754 272.402 78.948 272.341C79.1254 272.28 79.291 272.203 79.445 272.11C79.6037 272.012 79.76 271.893 79.914 271.753C79.9607 271.711 80.0097 271.678 80.061 271.655C80.1124 271.627 80.166 271.613 80.222 271.613ZM91.9612 268.939C91.9612 269.681 91.8375 270.369 91.5902 271.004C91.3475 271.634 91.0022 272.18 90.5542 272.642C90.1062 273.104 89.5672 273.466 88.9372 273.727C88.3072 273.984 87.6072 274.112 86.8372 274.112C86.0718 274.112 85.3742 273.984 84.7442 273.727C84.1142 273.466 83.5728 273.104 83.1202 272.642C82.6722 272.18 82.3245 271.634 82.0772 271.004C81.8298 270.369 81.7062 269.681 81.7062 268.939C81.7062 268.197 81.8298 267.511 82.0772 266.881C82.3245 266.246 82.6722 265.698 83.1202 265.236C83.5728 264.774 84.1142 264.415 84.7442 264.158C85.3742 263.897 86.0718 263.766 86.8372 263.766C87.3505 263.766 87.8335 263.827 88.2862 263.948C88.7388 264.065 89.1542 264.233 89.5322 264.452C89.9102 264.667 90.2485 264.93 90.5472 265.243C90.8505 265.551 91.1072 265.896 91.3172 266.279C91.5272 266.662 91.6858 267.077 91.7932 267.525C91.9052 267.973 91.9612 268.444 91.9612 268.939ZM90.0362 268.939C90.0362 268.384 89.9615 267.887 89.8122 267.448C89.6628 267.005 89.4505 266.629 89.1752 266.321C88.8998 266.013 88.5638 265.777 88.1672 265.614C87.7752 265.451 87.3318 265.369 86.8372 265.369C86.3425 265.369 85.8968 265.451 85.5002 265.614C85.1082 265.777 84.7722 266.013 84.4922 266.321C84.2168 266.629 84.0045 267.005 83.8552 267.448C83.7058 267.887 83.6312 268.384 83.6312 268.939C83.6312 269.494 83.7058 269.994 83.8552 270.437C84.0045 270.876 84.2168 271.249 84.4922 271.557C84.7722 271.86 85.1082 272.094 85.5002 272.257C85.8968 272.42 86.3425 272.502 86.8372 272.502C87.3318 272.502 87.7752 272.42 88.1672 272.257C88.5638 272.094 88.8998 271.86 89.1752 271.557C89.4505 271.249 89.6628 270.876 89.8122 270.437C89.9615 269.994 90.0362 269.494 90.0362 268.939ZM102.148 263.878V274H101.182C101.032 274 100.906 273.977 100.804 273.93C100.706 273.879 100.61 273.795 100.517 273.678L95.2318 266.93C95.2598 267.238 95.2738 267.523 95.2738 267.784V274H93.6148V263.878H94.6018C94.6811 263.878 94.7488 263.883 94.8048 263.892C94.8655 263.897 94.9168 263.911 94.9588 263.934C95.0055 263.953 95.0498 263.983 95.0918 264.025C95.1338 264.062 95.1805 264.114 95.2318 264.179L100.538 270.955C100.524 270.792 100.512 270.631 100.503 270.472C100.493 270.313 100.489 270.166 100.489 270.031V263.878H102.148ZM111.472 265.425H108.42V274H106.537V265.425H103.485V263.878H111.472V265.425ZM115.855 268.694C116.21 268.694 116.518 268.65 116.779 268.561C117.045 268.472 117.262 268.351 117.43 268.197C117.603 268.038 117.731 267.852 117.815 267.637C117.899 267.422 117.941 267.187 117.941 266.93C117.941 266.417 117.771 266.022 117.43 265.747C117.094 265.472 116.579 265.334 115.883 265.334H114.679V268.694H115.855ZM120.699 274H118.998C118.676 274 118.443 273.874 118.298 273.622L116.17 270.381C116.091 270.26 116.002 270.173 115.904 270.122C115.811 270.071 115.671 270.045 115.484 270.045H114.679V274H112.796V263.878H115.883C116.569 263.878 117.157 263.95 117.647 264.095C118.142 264.235 118.546 264.433 118.858 264.69C119.176 264.947 119.409 265.255 119.558 265.614C119.708 265.969 119.782 266.361 119.782 266.79C119.782 267.131 119.731 267.453 119.628 267.756C119.53 268.059 119.386 268.335 119.194 268.582C119.008 268.829 118.774 269.046 118.494 269.233C118.219 269.42 117.904 269.567 117.549 269.674C117.671 269.744 117.783 269.828 117.885 269.926C117.988 270.019 118.081 270.131 118.165 270.262L120.699 274ZM127.141 270.178L125.909 266.811C125.848 266.662 125.785 266.484 125.72 266.279C125.654 266.074 125.589 265.852 125.524 265.614C125.463 265.852 125.4 266.076 125.335 266.286C125.269 266.491 125.206 266.671 125.146 266.825L123.921 270.178H127.141ZM130.466 274H129.01C128.846 274 128.713 273.96 128.611 273.881C128.508 273.797 128.431 273.694 128.38 273.573L127.624 271.508H123.431L122.675 273.573C122.637 273.68 122.565 273.778 122.458 273.867C122.35 273.956 122.217 274 122.059 274H120.589L124.572 263.878H126.49L130.466 274ZM134.572 268.694C134.927 268.694 135.235 268.65 135.496 268.561C135.762 268.472 135.979 268.351 136.147 268.197C136.32 268.038 136.448 267.852 136.532 267.637C136.616 267.422 136.658 267.187 136.658 266.93C136.658 266.417 136.488 266.022 136.147 265.747C135.811 265.472 135.296 265.334 134.6 265.334H133.396V268.694H134.572ZM139.416 274H137.715C137.393 274 137.16 273.874 137.015 273.622L134.887 270.381C134.808 270.26 134.719 270.173 134.621 270.122C134.528 270.071 134.388 270.045 134.201 270.045H133.396V274H131.513V263.878H134.6C135.286 263.878 135.874 263.95 136.364 264.095C136.859 264.235 137.263 264.433 137.575 264.69C137.893 264.947 138.126 265.255 138.275 265.614C138.425 265.969 138.499 266.361 138.499 266.79C138.499 267.131 138.448 267.453 138.345 267.756C138.247 268.059 138.103 268.335 137.911 268.582C137.725 268.829 137.491 269.046 137.211 269.233C136.936 269.42 136.621 269.567 136.266 269.674C136.388 269.744 136.5 269.828 136.602 269.926C136.705 270.019 136.798 270.131 136.882 270.262L139.416 274Z" fill="black"/>
<path d="M56.3212 265.376V268.183H59.8632V269.632H56.3212V272.495H60.8152V274H54.4312V263.878H60.8152V265.376H56.3212ZM71.0169 263.878V274H70.0509C69.9016 274 69.7756 273.977 69.6729 273.93C69.5749 273.879 69.4793 273.795 69.3859 273.678L64.1009 266.93C64.1289 267.238 64.1429 267.523 64.1429 267.784V274H62.4839V263.878H63.4709C63.5503 263.878 63.6179 263.883 63.6739 263.892C63.7346 263.897 63.7859 263.911 63.8279 263.934C63.8746 263.953 63.9189 263.983 63.9609 264.025C64.0029 264.062 64.0496 264.114 64.1009 264.179L69.4069 270.955C69.3929 270.792 69.3813 270.631 69.3719 270.472C69.3626 270.313 69.3579 270.166 69.3579 270.031V263.878H71.0169ZM80.222 271.613C80.3247 271.613 80.4157 271.653 80.495 271.732L81.237 272.537C80.8264 273.046 80.32 273.435 79.718 273.706C79.1207 273.977 78.402 274.112 77.562 274.112C76.8107 274.112 76.134 273.984 75.532 273.727C74.9347 273.47 74.4237 273.113 73.999 272.656C73.5744 272.199 73.2477 271.653 73.019 271.018C72.795 270.383 72.683 269.69 72.683 268.939C72.683 268.178 72.8044 267.483 73.047 266.853C73.2897 266.218 73.6304 265.672 74.069 265.215C74.5124 264.758 75.0397 264.403 75.651 264.151C76.2624 263.894 76.939 263.766 77.681 263.766C78.4184 263.766 79.0717 263.887 79.641 264.13C80.215 264.373 80.7027 264.69 81.104 265.082L80.474 265.957C80.4367 266.013 80.3877 266.062 80.327 266.104C80.271 266.146 80.1917 266.167 80.089 266.167C80.019 266.167 79.9467 266.148 79.872 266.111C79.7974 266.069 79.7157 266.02 79.627 265.964C79.5384 265.903 79.4357 265.838 79.319 265.768C79.2024 265.698 79.067 265.635 78.913 265.579C78.759 265.518 78.5794 265.469 78.374 265.432C78.1734 265.39 77.94 265.369 77.674 265.369C77.2214 265.369 76.806 265.451 76.428 265.614C76.0547 265.773 75.7327 266.006 75.462 266.314C75.1914 266.617 74.9814 266.991 74.832 267.434C74.6827 267.873 74.608 268.374 74.608 268.939C74.608 269.508 74.6874 270.015 74.846 270.458C75.0094 270.901 75.2287 271.275 75.504 271.578C75.7794 271.881 76.1037 272.115 76.477 272.278C76.8504 272.437 77.2517 272.516 77.681 272.516C77.9377 272.516 78.1687 272.502 78.374 272.474C78.584 272.446 78.7754 272.402 78.948 272.341C79.1254 272.28 79.291 272.203 79.445 272.11C79.6037 272.012 79.76 271.893 79.914 271.753C79.9607 271.711 80.0097 271.678 80.061 271.655C80.1124 271.627 80.166 271.613 80.222 271.613ZM91.9612 268.939C91.9612 269.681 91.8375 270.369 91.5902 271.004C91.3475 271.634 91.0022 272.18 90.5542 272.642C90.1062 273.104 89.5672 273.466 88.9372 273.727C88.3072 273.984 87.6072 274.112 86.8372 274.112C86.0718 274.112 85.3742 273.984 84.7442 273.727C84.1142 273.466 83.5728 273.104 83.1202 272.642C82.6722 272.18 82.3245 271.634 82.0772 271.004C81.8298 270.369 81.7062 269.681 81.7062 268.939C81.7062 268.197 81.8298 267.511 82.0772 266.881C82.3245 266.246 82.6722 265.698 83.1202 265.236C83.5728 264.774 84.1142 264.415 84.7442 264.158C85.3742 263.897 86.0718 263.766 86.8372 263.766C87.3505 263.766 87.8335 263.827 88.2862 263.948C88.7388 264.065 89.1542 264.233 89.5322 264.452C89.9102 264.667 90.2485 264.93 90.5472 265.243C90.8505 265.551 91.1072 265.896 91.3172 266.279C91.5272 266.662 91.6858 267.077 91.7932 267.525C91.9052 267.973 91.9612 268.444 91.9612 268.939ZM90.0362 268.939C90.0362 268.384 89.9615 267.887 89.8122 267.448C89.6628 267.005 89.4505 266.629 89.1752 266.321C88.8998 266.013 88.5638 265.777 88.1672 265.614C87.7752 265.451 87.3318 265.369 86.8372 265.369C86.3425 265.369 85.8968 265.451 85.5002 265.614C85.1082 265.777 84.7722 266.013 84.4922 266.321C84.2168 266.629 84.0045 267.005 83.8552 267.448C83.7058 267.887 83.6312 268.384 83.6312 268.939C83.6312 269.494 83.7058 269.994 83.8552 270.437C84.0045 270.876 84.2168 271.249 84.4922 271.557C84.7722 271.86 85.1082 272.094 85.5002 272.257C85.8968 272.42 86.3425 272.502 86.8372 272.502C87.3318 272.502 87.7752 272.42 88.1672 272.257C88.5638 272.094 88.8998 271.86 89.1752 271.557C89.4505 271.249 89.6628 270.876 89.8122 270.437C89.9615 269.994 90.0362 269.494 90.0362 268.939ZM102.148 263.878V274H101.182C101.032 274 100.906 273.977 100.804 273.93C100.706 273.879 100.61 273.795 100.517 273.678L95.2318 266.93C95.2598 267.238 95.2738 267.523 95.2738 267.784V274H93.6148V263.878H94.6018C94.6811 263.878 94.7488 263.883 94.8048 263.892C94.8655 263.897 94.9168 263.911 94.9588 263.934C95.0055 263.953 95.0498 263.983 95.0918 264.025C95.1338 264.062 95.1805 264.114 95.2318 264.179L100.538 270.955C100.524 270.792 100.512 270.631 100.503 270.472C100.493 270.313 100.489 270.166 100.489 270.031V263.878H102.148ZM111.472 265.425H108.42V274H106.537V265.425H103.485V263.878H111.472V265.425ZM115.855 268.694C116.21 268.694 116.518 268.65 116.779 268.561C117.045 268.472 117.262 268.351 117.43 268.197C117.603 268.038 117.731 267.852 117.815 267.637C117.899 267.422 117.941 267.187 117.941 266.93C117.941 266.417 117.771 266.022 117.43 265.747C117.094 265.472 116.579 265.334 115.883 265.334H114.679V268.694H115.855ZM120.699 274H118.998C118.676 274 118.443 273.874 118.298 273.622L116.17 270.381C116.091 270.26 116.002 270.173 115.904 270.122C115.811 270.071 115.671 270.045 115.484 270.045H114.679V274H112.796V263.878H115.883C116.569 263.878 117.157 263.95 117.647 264.095C118.142 264.235 118.546 264.433 118.858 264.69C119.176 264.947 119.409 265.255 119.558 265.614C119.708 265.969 119.782 266.361 119.782 266.79C119.782 267.131 119.731 267.453 119.628 267.756C119.53 268.059 119.386 268.335 119.194 268.582C119.008 268.829 118.774 269.046 118.494 269.233C118.219 269.42 117.904 269.567 117.549 269.674C117.671 269.744 117.783 269.828 117.885 269.926C117.988 270.019 118.081 270.131 118.165 270.262L120.699 274ZM127.141 270.178L125.909 266.811C125.848 266.662 125.785 266.484 125.72 266.279C125.654 266.074 125.589 265.852 125.524 265.614C125.463 265.852 125.4 266.076 125.335 266.286C125.269 266.491 125.206 266.671 125.146 266.825L123.921 270.178H127.141ZM130.466 274H129.01C128.846 274 128.713 273.96 128.611 273.881C128.508 273.797 128.431 273.694 128.38 273.573L127.624 271.508H123.431L122.675 273.573C122.637 273.68 122.565 273.778 122.458 273.867C122.35 273.956 122.217 274 122.059 274H120.589L124.572 263.878H126.49L130.466 274ZM134.572 268.694C134.927 268.694 135.235 268.65 135.496 268.561C135.762 268.472 135.979 268.351 136.147 268.197C136.32 268.038 136.448 267.852 136.532 267.637C136.616 267.422 136.658 267.187 136.658 266.93C136.658 266.417 136.488 266.022 136.147 265.747C135.811 265.472 135.296 265.334 134.6 265.334H133.396V268.694H134.572ZM139.416 274H137.715C137.393 274 137.16 273.874 137.015 273.622L134.887 270.381C134.808 270.26 134.719 270.173 134.621 270.122C134.528 270.071 134.388 270.045 134.201 270.045H133.396V274H131.513V263.878H134.6C135.286 263.878 135.874 263.95 136.364 264.095C136.859 264.235 137.263 264.433 137.575 264.69C137.893 264.947 138.126 265.255 138.275 265.614C138.425 265.969 138.499 266.361 138.499 266.79C138.499 267.131 138.448 267.453 138.345 267.756C138.247 268.059 138.103 268.335 137.911 268.582C137.725 268.829 137.491 269.046 137.211 269.233C136.936 269.42 136.621 269.567 136.266 269.674C136.388 269.744 136.5 269.828 136.602 269.926C136.705 270.019 136.798 270.131 136.882 270.262L139.416 274Z" fill="#37474F"/>
<circle cx="94.9465" cy="20.1032" r="20.1032" fill="#4D4295"/>
<path d="M94.943 17.3577C96.0133 17.3577 96.5484 16.8196 96.5484 15.7435C96.5484 15.2723 96.4147 14.9 96.1471 14.6266C95.8853 14.3532 95.5218 14.2165 95.0564 14.2165C94.5911 14.2165 94.213 14.3445 93.9221 14.6005C93.6371 14.8506 93.4946 15.1792 93.4946 15.5864H91.2696L91.2522 15.5341C91.2231 14.6441 91.5604 13.9082 92.2643 13.3266C92.974 12.7449 93.8988 12.454 95.039 12.454C96.1791 12.454 97.0952 12.7391 97.7874 13.3091C98.4855 13.8733 98.8345 14.6761 98.8345 15.7173C98.8345 16.2234 98.6745 16.7004 98.3546 17.1483C98.0405 17.5903 97.61 17.9365 97.0632 18.1866C97.6915 18.4076 98.1714 18.7508 98.5029 19.2162C98.8403 19.6757 99.009 20.2196 99.009 20.8478C99.009 21.8832 98.6338 22.7034 97.8834 23.3084C97.133 23.9133 96.1529 24.2158 94.943 24.2158C94.2217 24.2158 93.5702 24.0936 92.9885 23.8493C92.4126 23.5992 91.9502 23.2269 91.6012 22.7325C91.258 22.2322 91.0922 21.6505 91.1038 20.9874L91.1213 20.9438H93.3462C93.3462 21.3859 93.5004 21.7494 93.8087 22.0345C94.1228 22.3195 94.5329 22.462 95.039 22.462C95.5508 22.462 95.958 22.3195 96.2605 22.0345C96.5688 21.7436 96.7229 21.3422 96.7229 20.8304C96.7229 19.667 96.1267 19.0853 94.9343 19.0853H93.6516L93.6603 17.3577H94.943Z" fill="white"/>
<path d="M95.8432 232.205C143.635 232.205 182.378 226.485 182.378 219.428C182.378 212.372 143.635 206.651 95.8432 206.651C48.0513 206.651 9.30835 212.372 9.30835 219.428C9.30835 226.485 48.0513 232.205 95.8432 232.205Z" fill="#EBEBEB"/>
<path d="M0.843262 183.796L24.5968 183.684L48.3456 183.642L95.8433 183.568L143.341 183.642L167.094 183.684L190.843 183.796L167.094 183.912L143.341 183.954L95.8433 184.028L48.3456 183.954L24.5968 183.912L0.843262 183.796Z" fill="#263238"/>
<path d="M86.4013 71.7211C88.6944 73.2793 91.9827 73.1165 91.9827 73.1165C91.9827 73.1165 93.8153 70.3956 93.6618 67.6281C93.5409 65.3025 91.8711 63.6839 90.22 64.056C87.8525 64.5863 89.3223 68.4002 89.3223 68.4002C89.3223 68.4002 86.8153 65.1444 85.1362 66.9211C83.9548 68.149 84.4897 70.4188 86.4013 71.7211Z" fill="#4D4295"/>
<path d="M93.1827 57.112C93.8199 58.8329 95.6432 60.0096 95.6432 60.0096C95.6432 60.0096 97.6758 59.2422 98.6572 57.6841C99.4758 56.391 99.206 54.8934 98.192 54.4282C96.713 53.805 96.0386 56.4236 96.0386 56.4236C96.0386 56.4236 95.9316 53.7213 94.3502 54.0236C93.2339 54.2515 92.6479 55.6794 93.1827 57.112Z" fill="#4D4295"/>
<path d="M58.3781 120.061C69.5874 142.661 96.2432 156.07 96.2432 156.07C96.2432 156.07 122.904 142.661 134.085 120.061C143.42 101.21 137.508 80.8374 122.778 76.3863C101.662 70.0002 96.2432 94.2188 96.2432 94.2188C96.2432 94.2188 90.8246 70.0002 69.6897 76.3863C54.9595 80.8374 49.0478 101.21 58.3781 120.061Z" fill="#4D4295"/>
<path opacity="0.5" d="M58.3781 120.061C69.5874 142.661 96.2432 156.07 96.2432 156.07C96.2432 156.07 122.904 142.661 134.085 120.061C143.42 101.21 137.508 80.8374 122.778 76.3863C101.662 70.0002 96.2432 94.2188 96.2432 94.2188C96.2432 94.2188 90.8246 70.0002 69.6897 76.3863C54.9595 80.8374 49.0478 101.21 58.3781 120.061Z" fill="white"/>
<path d="M135.062 98.7585C135.434 100.558 137.062 101.991 137.062 101.991C137.062 101.991 139.187 101.526 140.387 100.154C141.392 99.0003 141.35 97.4561 140.387 96.8701C139.02 96.0329 137.96 98.5213 137.96 98.5213C137.96 98.5213 138.257 95.8329 136.653 95.8934C135.541 95.9352 134.75 97.2608 135.062 98.7585Z" fill="#4D4295"/>
<path d="M52.3875 91.0233C55.0805 93.6606 59.5037 94.2373 59.5037 94.2373C59.5037 94.2373 62.6014 91.0326 63.0665 87.2931C63.4526 84.1768 61.6154 81.5908 59.3177 81.7117C56.0247 81.8513 57.0758 87.2931 57.0758 87.2931C57.0758 87.2931 54.4991 82.3722 51.8293 84.3164C49.9735 85.6606 50.141 88.8187 52.3875 91.0233Z" fill="#4D4295"/>
<path d="M177.704 212.758C176.178 213.317 130.913 214.205 129.211 213.168C129.011 213.061 128.28 198.089 128.28 198.089C128.332 197.875 127.578 196.433 126.42 194.428C123.192 188.796 116.88 178.707 116.88 178.707L143.75 170.586L154.787 192.689L157.578 198.331C157.578 198.331 163.75 200.744 169.132 203.149C172.494 204.633 175.378 205.991 176.053 206.493C177.783 207.824 179.253 212.219 177.704 212.758Z" fill="#AD6359"/>
<path d="M177.704 212.758C176.178 213.317 130.913 214.205 129.211 213.168C129.011 213.061 128.281 198.089 128.281 198.089C128.332 197.875 127.578 196.433 126.42 194.428L154.792 192.689L157.583 198.331C157.583 198.331 163.755 200.744 169.136 203.149C172.494 204.633 175.378 205.991 176.053 206.493C177.783 207.824 179.253 212.219 177.704 212.758Z" fill="white"/>
<path d="M177.913 212.931C176.341 213.484 131.02 214.266 129.271 213.201C128.606 212.801 127.806 205.824 128.295 198.089L157.513 197.624C157.513 197.624 174.448 205.098 176.225 206.494C178.002 207.889 179.485 212.373 177.913 212.931Z" fill="#4D4295"/>
<path opacity="0.1" d="M141.127 213.716C134.676 213.684 129.825 213.53 129.271 213.205C128.606 212.805 127.806 205.828 128.295 198.089H129.006L141.127 213.716Z" fill="black"/>
<path d="M177.239 211.145C169.639 211.089 138.983 211.582 131.462 212.103C131.401 212.103 131.401 212.149 131.462 212.149C138.992 212.373 169.648 211.633 177.239 211.27C177.392 211.247 177.392 211.145 177.239 211.145Z" fill="#263238"/>
<path d="M173.285 204.894C172.44 204.886 171.602 205.054 170.825 205.386C170.048 205.718 169.348 206.208 168.769 206.824C167.722 207.927 167.139 209.391 167.141 210.912C167.141 210.954 167.229 210.954 167.234 210.912C167.465 209.404 168.18 208.011 169.27 206.944C170.361 205.876 171.768 205.191 173.281 204.991C173.287 204.992 173.293 204.991 173.299 204.988C173.305 204.986 173.311 204.983 173.316 204.979C173.32 204.974 173.324 204.969 173.327 204.963C173.33 204.957 173.331 204.951 173.332 204.945C173.332 204.938 173.331 204.932 173.329 204.926C173.327 204.92 173.323 204.914 173.319 204.91C173.315 204.905 173.309 204.901 173.304 204.898C173.298 204.895 173.292 204.894 173.285 204.894Z" fill="#263238"/>
<path d="M159.908 198.345C156.867 198.345 153.36 199.484 151.513 202.005C151.443 202.103 151.583 202.205 151.671 202.154C154.307 200.717 157.089 199.565 159.969 198.717C160.012 198.703 160.049 198.674 160.073 198.635C160.097 198.596 160.106 198.55 160.098 198.505C160.091 198.46 160.068 198.419 160.033 198.39C159.998 198.36 159.954 198.344 159.908 198.345Z" fill="#263238"/>
<path d="M162.271 199.219C159.229 199.219 155.722 200.363 153.876 202.88C153.806 202.977 153.946 203.08 154.034 203.029C156.677 201.59 159.467 200.438 162.355 199.591C162.379 199.586 162.402 199.576 162.423 199.561C162.443 199.547 162.461 199.528 162.474 199.507C162.488 199.486 162.497 199.462 162.501 199.438C162.505 199.413 162.505 199.388 162.499 199.363C162.494 199.339 162.483 199.316 162.469 199.295C162.454 199.275 162.436 199.258 162.415 199.244C162.394 199.231 162.37 199.222 162.346 199.217C162.321 199.213 162.296 199.214 162.271 199.219Z" fill="#263238"/>
<path d="M164.634 200.093C161.597 200.093 158.09 201.238 156.262 203.754C156.192 203.852 156.332 203.954 156.42 203.903C159.044 202.462 161.813 201.303 164.681 200.447C164.715 200.429 164.742 200.4 164.76 200.366C164.778 200.331 164.784 200.292 164.779 200.254C164.774 200.216 164.758 200.18 164.732 200.151C164.706 200.122 164.672 200.102 164.634 200.093Z" fill="#263238"/>
<path d="M167.006 200.968C163.969 200.968 160.462 202.112 158.634 204.628C158.56 204.726 158.699 204.828 158.787 204.782C161.422 203.341 164.204 202.187 167.085 201.34C167.131 201.326 167.171 201.296 167.196 201.255C167.221 201.213 167.229 201.164 167.219 201.117C167.209 201.07 167.181 201.028 167.142 201.001C167.102 200.973 167.054 200.961 167.006 200.968Z" fill="#263238"/>
<path d="M133.267 204.833C129.853 204.903 129.955 210.205 133.374 210.135C136.792 210.066 136.68 204.768 133.267 204.833Z" fill="#263238"/>
<path d="M163.057 190.172C161.495 188.921 159.578 190.205 158.653 191.544C157.104 193.876 156.196 196.574 156.02 199.368C156.019 199.38 156.021 199.393 156.026 199.404C156.03 199.416 156.038 199.426 156.047 199.435C156.057 199.443 156.068 199.449 156.081 199.452C156.093 199.454 156.106 199.454 156.118 199.451C156.131 199.509 156.157 199.562 156.195 199.607C156.232 199.652 156.28 199.688 156.334 199.711C156.388 199.734 156.447 199.744 156.505 199.74C156.564 199.736 156.621 199.719 156.671 199.689C158.811 198.154 161.285 196.777 162.89 194.633C163.829 193.382 164.532 191.354 163.057 190.172ZM159.439 196.684C158.401 197.465 157.336 198.191 156.332 199.01C156.8 197.471 157.347 195.958 157.969 194.475C158.28 193.761 158.639 193.07 159.043 192.405C159.69 191.386 162.629 188.796 162.988 192.098C163.188 193.935 160.671 195.768 159.439 196.698V196.684Z" fill="#263238"/>
<path d="M148.485 200.624C151.141 200.987 153.857 200.187 156.453 199.735C156.509 199.72 156.561 199.692 156.604 199.653C156.648 199.615 156.682 199.566 156.703 199.512C156.724 199.457 156.732 199.399 156.727 199.341C156.721 199.283 156.702 199.227 156.671 199.177C156.681 199.17 156.689 199.16 156.694 199.15C156.699 199.139 156.702 199.127 156.702 199.115C156.702 199.102 156.699 199.09 156.694 199.08C156.689 199.069 156.681 199.059 156.671 199.052C154.551 197.214 151.984 195.968 149.229 195.438C147.625 195.154 145.369 195.624 145.164 197.615C144.997 199.517 146.936 200.415 148.485 200.624ZM146.625 198.926C144.522 196.354 148.434 196.075 149.611 196.331C150.368 196.508 151.112 196.736 151.839 197.015C153.36 197.568 154.769 198.331 156.22 199.029C154.932 199.173 153.667 199.424 152.387 199.61C150.853 199.838 147.778 200.345 146.62 198.926H146.625Z" fill="#263238"/>
<path d="M124.397 194.135L156.262 189.284C156.262 189.284 140.96 158.772 131.462 142.205C126.187 132.996 111.764 132.545 104.75 143.6C95.3781 158.345 88.1084 172.158 83.9409 179.819L76.7084 180.438L78.2712 192.247L102.294 197.628C111.494 198.731 117.955 182.345 118.108 182.624C119.271 184.758 124.397 194.135 124.397 194.135Z" fill="#455A64"/>
<path d="M118.276 182.679C117.346 180.819 116.662 178.851 115.857 176.949C115.053 175.047 114.294 173.27 113.532 171.428C111.969 167.707 110.35 163.986 108.834 160.265C107.983 158.163 107.201 156.037 106.406 153.912C106.404 153.907 106.401 153.902 106.398 153.898C106.394 153.894 106.39 153.89 106.385 153.888C106.38 153.886 106.374 153.884 106.369 153.884C106.363 153.884 106.358 153.884 106.353 153.886C106.347 153.888 106.343 153.891 106.339 153.895C106.334 153.898 106.331 153.903 106.329 153.908C106.326 153.913 106.325 153.918 106.325 153.924C106.324 153.929 106.325 153.935 106.327 153.94C106.947 155.946 107.589 157.943 108.253 159.93C108.076 159.586 107.899 159.242 107.708 158.912C107.201 157.982 106.671 157.093 106.141 156.186C106.118 156.154 106.067 156.186 106.085 156.219C106.574 157.149 107.067 158.033 107.574 158.93C107.825 159.396 108.099 159.819 108.369 160.265C110.226 165.842 112.434 171.297 114.978 176.596C115.992 178.675 117.178 180.665 118.192 182.74C118.211 182.805 118.308 182.744 118.276 182.679Z" fill="#263238"/>
<path d="M125.108 188.47C123.569 186.098 119.913 178.921 118.597 176.442C115.946 171.424 113.518 166.303 111.225 161.093C109.932 158.163 108.718 155.2 107.504 152.228C107.504 152.228 107.462 152.228 107.471 152.228C109.301 157.577 111.4 162.83 113.76 167.968C116.085 173.121 123.634 186.996 124.992 188.498C125.057 188.582 125.146 188.53 125.108 188.47Z" fill="#263238"/>
<path d="M105.322 156.214C102.578 161.116 99.7689 165.982 97.0108 170.884C95.6154 173.358 94.2201 175.833 92.848 178.326C92.1968 179.493 91.5689 180.675 90.8945 181.828C90.3176 182.918 89.4456 183.824 88.3782 184.442C87.141 185.121 85.7224 185.447 84.3829 185.837C82.8294 186.303 81.2898 186.768 79.7317 187.205C79.6573 187.205 79.6898 187.335 79.7643 187.316C81.1596 186.944 82.555 186.623 83.9503 186.279C85.2327 186.006 86.4997 185.664 87.7457 185.256C88.8495 184.886 89.8265 184.212 90.5643 183.312C91.3118 182.271 91.9715 181.169 92.5364 180.019C95.2898 174.983 98.0185 169.932 100.722 164.865C102.262 161.991 103.788 159.103 105.341 156.237C105.355 156.21 105.332 156.196 105.322 156.214Z" fill="#263238"/>
<path d="M123.671 189.661C125.578 189.317 127.536 189.149 129.462 188.903L135.253 188.149C139.104 187.647 152.211 185.559 153.201 185.233C153.215 185.227 153.227 185.217 153.234 185.204C153.242 185.191 153.244 185.176 153.241 185.161C153.239 185.146 153.231 185.133 153.219 185.123C153.208 185.113 153.193 185.108 153.178 185.107C152.248 185.08 143.657 186.224 141.732 186.503C137.88 187.07 134.057 187.754 130.22 188.4C129.122 188.587 128.029 188.796 126.936 188.991C125.843 189.187 124.75 189.419 123.653 189.559C123.639 189.561 123.627 189.569 123.619 189.58C123.611 189.592 123.608 189.606 123.611 189.619C123.613 189.633 123.621 189.645 123.632 189.653C123.644 189.66 123.658 189.663 123.671 189.661Z" fill="#263238"/>
<path d="M142.778 222.772C142.271 221.233 114.95 185.135 113.085 184.437C112.871 184.349 100.657 193.037 100.657 193.037C100.155 193.712 76.9363 188.805 76.9363 188.805L76.7037 216.809L118.992 215.907C118.992 215.907 124.704 219.265 129.927 222.005C133.141 223.698 135.973 225.126 136.801 225.34C138.936 225.861 143.285 224.289 142.778 222.772Z" fill="#AD6359"/>
<path d="M136.825 225.322C136.006 225.112 133.164 223.684 129.95 221.987C124.732 219.252 119.015 215.889 119.015 215.889L109.606 216.094L94.8712 192.317C98.1038 192.889 100.518 193.247 100.681 193.019C100.681 193.019 112.885 184.326 113.104 184.424C114.964 185.117 142.285 221.21 142.797 222.754C143.308 224.298 138.941 225.866 136.825 225.322Z" fill="white"/>
<path d="M143.029 222.805C142.49 221.224 115.048 185.131 113.132 184.433C112.406 184.159 106.434 187.847 100.657 193.019L118.378 216.275C118.378 216.275 134.727 224.935 136.913 225.494C139.099 226.052 143.564 224.382 143.029 222.805Z" fill="#4D4295"/>
<path d="M141.192 223.382C136.443 217.447 117.853 193.065 113.606 186.837C113.574 186.786 113.606 186.763 113.643 186.809C118.481 192.586 136.899 217.121 141.29 223.307C141.383 223.437 141.295 223.507 141.192 223.382Z" fill="#263238"/>
<path d="M133.853 224.168C133.323 223.509 132.935 222.747 132.715 221.93C132.495 221.113 132.447 220.26 132.573 219.424C132.792 217.92 133.58 216.558 134.773 215.619C134.811 215.591 134.862 215.656 134.829 215.689C132.727 217.838 132.285 221.568 133.927 224.107C133.983 224.135 133.89 224.191 133.853 224.168Z" fill="#263238"/>
<path d="M120.429 217.693C118.569 215.298 117.271 211.842 118.104 208.833C118.136 208.717 118.304 208.763 118.318 208.861C118.819 211.822 119.636 214.72 120.755 217.507C120.77 217.549 120.769 217.595 120.753 217.637C120.738 217.679 120.708 217.714 120.669 217.736C120.631 217.758 120.586 217.766 120.542 217.758C120.498 217.75 120.458 217.727 120.429 217.693Z" fill="#263238"/>
<path d="M122.578 219.01C120.718 216.614 119.425 213.159 120.253 210.145C120.285 210.028 120.453 210.079 120.471 210.177C120.969 213.138 121.785 216.037 122.904 218.824C122.918 218.866 122.918 218.912 122.902 218.953C122.887 218.995 122.857 219.03 122.818 219.052C122.78 219.074 122.734 219.082 122.691 219.074C122.647 219.067 122.607 219.044 122.578 219.01Z" fill="#263238"/>
<path d="M124.727 220.322C122.866 217.926 121.573 214.47 122.401 211.461C122.434 211.345 122.601 211.391 122.62 211.494C123.12 214.453 123.936 217.35 125.053 220.136C125.067 220.178 125.067 220.223 125.051 220.265C125.035 220.307 125.006 220.342 124.967 220.364C124.928 220.386 124.883 220.394 124.839 220.386C124.796 220.378 124.756 220.356 124.727 220.322Z" fill="#263238"/>
<path d="M126.876 221.637C125.015 219.242 123.722 215.786 124.55 212.777C124.583 212.656 124.746 212.707 124.764 212.805C125.264 215.766 126.08 218.664 127.197 221.451C127.209 221.492 127.207 221.536 127.191 221.576C127.176 221.616 127.147 221.65 127.11 221.671C127.073 221.693 127.029 221.701 126.987 221.695C126.945 221.689 126.905 221.668 126.876 221.637Z" fill="#263238"/>
<path d="M109.034 192.749C106.978 190.028 111.201 186.823 113.266 189.549C115.332 192.275 111.094 195.475 109.034 192.749Z" fill="#263238"/>
<path d="M119.36 222.331C120.053 219.74 119.597 216.945 119.48 214.317C119.473 214.259 119.452 214.204 119.419 214.155C119.386 214.107 119.342 214.068 119.291 214.04C119.239 214.011 119.182 213.996 119.124 213.994C119.066 213.992 119.008 214.004 118.955 214.028C118.949 214.017 118.94 214.007 118.93 214C118.92 213.992 118.908 213.987 118.895 213.985C118.883 213.982 118.87 213.983 118.858 213.987C118.845 213.99 118.834 213.996 118.825 214.005C116.741 215.873 115.184 218.255 114.308 220.912C113.843 222.47 114.011 224.768 115.96 225.224C117.801 225.652 118.955 223.842 119.36 222.331ZM117.439 223.968C114.625 225.731 114.839 221.814 115.239 220.679C115.512 219.95 115.833 219.24 116.201 218.554C116.981 217.147 117.832 215.781 118.75 214.461C118.727 215.758 118.82 217.042 118.843 218.34C118.876 219.884 118.992 222.996 117.439 223.968Z" fill="#263238"/>
<path d="M110.727 206.582C109.29 207.977 110.318 210.038 111.536 211.126C113.657 212.958 116.224 214.197 118.978 214.717C118.99 214.72 119.003 214.72 119.015 214.717C119.028 214.714 119.039 214.708 119.049 214.7C119.058 214.692 119.066 214.681 119.07 214.67C119.075 214.658 119.077 214.645 119.076 214.633C119.134 214.627 119.189 214.607 119.238 214.575C119.287 214.544 119.328 214.501 119.357 214.451C119.387 214.401 119.404 214.344 119.407 214.286C119.411 214.228 119.401 214.17 119.378 214.117C118.127 211.791 117.053 209.168 115.146 207.307C114.025 206.224 112.122 205.265 110.727 206.582ZM116.774 210.996C117.42 212.117 118.006 213.265 118.69 214.368C117.243 213.661 115.774 213.024 114.397 212.172C113.727 211.775 113.085 211.332 112.476 210.847C111.546 210.079 109.346 206.838 112.671 206.893C114.49 206.926 115.997 209.656 116.774 210.996Z" fill="#263238"/>
<path d="M89.0759 182.307C89.0759 182.307 42.7456 174.173 29.5642 176.847C11.1922 180.582 7.80146 202.307 21.4247 210.419C38.6991 220.684 108.271 218.694 108.271 218.694L91.6573 190.531C91.6573 190.531 66.0991 185.154 42.9224 185.935L89.2805 193.005L89.0759 182.307Z" fill="#455A64"/>
<path d="M92.769 192.349C92.7527 192.302 92.7418 192.254 92.7364 192.205L92.7085 192.089C92.7085 191.996 92.6573 191.907 92.6341 191.814C92.5829 191.628 92.5131 191.447 92.4434 191.265C92.3736 191.084 92.2899 190.907 92.2062 190.726C92.1156 190.554 92.0114 190.389 91.8945 190.233C91.8945 190.233 91.8666 190.21 91.8527 190.2L91.8248 190.177H91.7829H91.741C88.9271 189.656 69.8294 186.921 66.9876 186.596C64.1457 186.27 61.2527 186.005 58.3829 185.763C52.6521 185.251 46.899 185.029 41.1457 185.098C40.6062 185.098 40.0713 185.126 39.5317 185.145C39.4155 185.107 39.2945 185.089 39.1783 185.061C38.8992 184.991 38.6248 184.926 38.3504 184.87C37.8294 184.772 37.3085 184.693 36.7829 184.614C35.6992 184.447 34.6062 184.335 33.5271 184.149C33.5135 184.146 33.4993 184.149 33.4875 184.156C33.4757 184.163 33.4674 184.175 33.4643 184.189C33.4612 184.202 33.4637 184.217 33.4711 184.228C33.4785 184.24 33.4903 184.248 33.5038 184.251C34.5922 184.493 35.662 184.81 36.7597 185.047L37.6899 185.247C35.5783 185.354 33.4759 185.517 31.3736 185.712C31.3038 185.712 31.3038 185.824 31.3736 185.819C34.2387 185.651 37.1225 185.628 39.9876 185.675C42.8527 185.721 45.6806 185.786 48.5271 185.949C54.2759 186.279 60.0248 186.796 65.7364 187.396C68.9504 187.731 88.4248 190.572 91.6527 190.707C91.6527 190.707 91.6806 190.707 91.6945 190.707C91.7171 190.783 91.7467 190.856 91.7829 190.926C91.8713 191.103 91.9597 191.275 92.0573 191.447C92.155 191.619 92.2387 191.777 92.3457 191.935L92.5038 192.168L92.5829 192.284C92.615 192.321 92.643 192.362 92.6666 192.405C92.6992 192.465 92.8108 192.414 92.769 192.349Z" fill="#263238"/>
<path d="M102.285 216.982C101.257 215.335 100.383 213.582 99.4387 211.866C98.4945 210.149 97.5503 208.461 96.6014 206.749C94.7131 203.354 87.927 191.945 87.2572 191.149C87.2476 191.137 87.2337 191.128 87.2181 191.125C87.2026 191.122 87.1864 191.125 87.1727 191.133C87.159 191.141 87.1487 191.153 87.1437 191.168C87.1387 191.183 87.1394 191.2 87.1456 191.214C87.4666 192.098 91.7038 199.652 92.6759 201.335C94.6247 204.703 96.6759 208.005 98.6945 211.331C99.2712 212.261 99.8666 213.219 100.453 214.163C101.039 215.107 101.662 216.024 102.197 217.005C102.229 217.098 102.322 217.042 102.285 216.982Z" fill="#263238"/>
<path d="M87.0619 194.019C85.3689 193.614 83.6293 193.349 81.9177 193.024L76.7735 192.075C73.3378 191.436 69.8944 190.825 66.4433 190.242C59.5689 189.084 52.6619 188.126 45.7177 187.452C41.8014 187.075 37.8712 186.828 33.9456 186.521C33.8619 186.521 33.8619 186.647 33.9456 186.652C40.9223 186.963 47.9223 187.912 54.8479 188.907C61.7735 189.903 68.5456 190.973 75.3782 192.126C77.3068 192.436 79.2355 192.766 81.1642 193.117C83.1223 193.456 85.0805 193.875 87.0479 194.126C87.0585 194.122 87.0678 194.116 87.0748 194.107C87.0818 194.098 87.0863 194.088 87.0878 194.077C87.0892 194.066 87.0876 194.054 87.083 194.044C87.0784 194.034 87.0711 194.025 87.0619 194.019Z" fill="#263238"/>
<path d="M76.0618 140.675C86.6432 151.452 100.62 160.889 104.118 160.884C108.913 160.884 119.327 148.266 123.48 144.089C125.159 142.405 108.969 131.219 107.504 133.298C105.326 136.36 102.922 139.255 100.313 141.959C99.9455 142.484 84.1688 136.308 79.592 134.238C69.4153 129.638 70.8106 135.331 76.0618 140.675Z" fill="#AD6359"/>
<path d="M121.215 116.996C121.755 117.168 122.226 117.507 122.56 117.965C122.895 118.422 123.075 118.973 123.076 119.54C124.072 119.353 125.101 119.481 126.02 119.907C127.574 120.726 126.978 123.521 126.978 123.521C128.033 123.466 129.079 123.729 129.983 124.275C131.378 125.205 131.192 128.117 131.192 128.117C132.189 128.598 132.979 129.424 133.415 130.442C134.476 133.21 131.75 136.819 130.039 139.131C128.327 141.442 121.318 146.4 120.081 147.479L105.146 136.638C105.146 136.638 109.862 124.079 112.253 121.661C114.281 119.61 119.071 116.335 121.215 116.996Z" fill="#AD6359"/>
<path d="M122.82 119.582C120.155 121.247 118.122 123.61 115.96 125.851C115.913 125.903 115.992 125.977 116.039 125.926C118.164 123.67 120.69 121.865 122.913 119.698C122.921 119.692 122.927 119.684 122.932 119.676C122.937 119.667 122.939 119.658 122.941 119.648C122.942 119.638 122.941 119.628 122.938 119.619C122.935 119.61 122.931 119.601 122.925 119.593C122.919 119.586 122.911 119.579 122.902 119.575C122.894 119.57 122.885 119.567 122.875 119.566C122.865 119.565 122.855 119.566 122.846 119.568C122.836 119.571 122.828 119.576 122.82 119.582Z" fill="#263238"/>
<path d="M126.76 123.428C126.188 123.861 125.678 124.37 125.243 124.94C124.741 125.517 124.251 126.098 123.774 126.684C122.812 127.866 121.882 129.069 120.983 130.293C120.941 130.349 121.015 130.424 121.057 130.368C122.02 129.191 122.997 128.042 124.006 126.903C124.508 126.335 125.02 125.773 125.532 125.214C126.057 124.719 126.525 124.167 126.927 123.568C126.946 123.546 126.954 123.517 126.952 123.488C126.949 123.459 126.935 123.433 126.913 123.414C126.891 123.396 126.862 123.387 126.833 123.39C126.805 123.392 126.778 123.406 126.76 123.428Z" fill="#263238"/>
<path d="M131.16 128.163C130.651 128.566 130.214 129.052 129.867 129.6C129.443 130.144 129.011 130.689 128.578 131.233C127.713 132.317 126.848 133.396 125.946 134.451C125.899 134.503 125.978 134.577 126.025 134.521C126.955 133.461 127.885 132.41 128.815 131.335C129.262 130.811 129.707 130.282 130.15 129.749C130.6 129.302 130.967 128.78 131.234 128.205C131.229 128.172 131.192 128.149 131.16 128.163Z" fill="#263238"/>
<path d="M88.1038 154.917L91.6945 137.135C87.4777 135.173 83.1475 133.465 78.7271 132.019C71.2387 129.545 68.6061 132.554 74.834 141.173C78.5855 146.358 83.0533 150.986 88.1038 154.917Z" fill="#4D4295"/>
<path d="M78.634 142.414C78.9897 142.297 79.3706 142.278 79.7364 142.359C79.9344 142.434 80.1053 142.567 80.2272 142.74C80.3491 142.913 80.4162 143.119 80.4201 143.331C80.4171 143.472 80.4502 143.611 80.5161 143.735C80.582 143.86 80.6787 143.966 80.7968 144.042C80.9274 144.127 81.0784 144.175 81.234 144.182C81.4108 144.219 81.5829 144.238 81.7596 144.284C81.4049 144.409 81.0205 144.424 80.6573 144.326C80.4624 144.245 80.2964 144.107 80.1803 143.93C80.0643 143.754 80.0037 143.547 80.0061 143.335C80.0031 143.196 79.9643 143.059 79.8934 142.938C79.8226 142.818 79.7221 142.718 79.6015 142.647C79.4615 142.561 79.3005 142.516 79.1364 142.517C78.9875 142.484 78.8108 142.461 78.634 142.414Z" fill="white"/>
<path d="M82.5736 133.344C82.4157 133.447 82.2316 133.502 82.0433 133.503C81.9023 133.501 81.7632 133.536 81.6388 133.602C81.5145 133.669 81.4089 133.766 81.3317 133.884C81.2455 134.014 81.1957 134.165 81.1875 134.321C81.155 134.493 81.1364 134.67 81.0899 134.842C80.9648 134.487 80.9502 134.103 81.048 133.74C81.12 133.569 81.2358 133.42 81.3836 133.308C81.5313 133.196 81.706 133.125 81.8899 133.103L82.5736 133.344Z" fill="white"/>
<path d="M91.3316 138.931L91.2386 139.396C91.1881 139.362 91.1413 139.323 91.0991 139.279C90.9988 139.182 90.8751 139.112 90.7399 139.076C90.6046 139.04 90.4624 139.04 90.327 139.075C90.1733 139.112 90.0321 139.189 89.9177 139.298C89.7689 139.396 89.634 139.507 89.4758 139.596C89.6434 139.261 89.899 138.978 90.2154 138.777C90.3964 138.692 90.5981 138.662 90.7962 138.689C90.9942 138.716 91.1802 138.8 91.3316 138.931Z" fill="white"/>
<path d="M74.2201 137.14C74.0201 137.423 73.8712 137.772 73.4712 137.949C73.2578 138.04 73.019 138.054 72.7968 137.986C72.6573 137.74 72.5317 137.521 72.4154 137.27C72.4809 137.311 72.5417 137.36 72.5968 137.414C72.695 137.516 72.8175 137.59 72.9526 137.631C73.0878 137.671 73.231 137.677 73.3689 137.647C73.5221 137.616 73.6638 137.544 73.7782 137.437C73.927 137.34 74.0666 137.228 74.2201 137.14Z" fill="white"/>
<path d="M89.0944 136.61C88.6805 137.898 88.4572 139.256 88.1642 140.573C87.8712 141.889 87.5782 143.084 87.327 144.349C86.803 146.979 86.3378 149.615 85.9316 152.256C85.9316 152.298 86.0014 152.322 86.0107 152.256C86.6309 149.677 87.2061 147.092 87.7363 144.503C88.0061 143.215 88.2386 141.917 88.4758 140.624C88.713 139.331 89.0526 137.959 89.1968 136.61C89.1968 136.596 89.1914 136.583 89.1818 136.574C89.1722 136.564 89.1592 136.559 89.1456 136.559C89.132 136.559 89.119 136.564 89.1094 136.574C89.0998 136.583 89.0944 136.596 89.0944 136.61Z" fill="#263238"/>
<path opacity="0.1" d="M90.6525 142.308L88.1037 154.917C83.0522 150.981 78.5844 146.349 74.8339 141.159C69.9735 134.428 70.5084 131.122 74.5409 131.173L90.6525 142.308Z" fill="black"/>
<path d="M96.2386 170.68C96.0572 170.931 92.5874 181.415 87.1084 183.07C74.727 186.791 54.3177 183.238 54.1409 183.07C53.4525 182.396 59.4619 146.67 66.3084 134.754C68.6339 130.735 76.7363 129.401 79.8386 132.94C88.7409 143.098 96.7735 169.968 96.2386 170.68Z" fill="#4D4295"/>
<path d="M78.634 142.414C78.9897 142.297 79.3706 142.278 79.7364 142.359C79.9344 142.434 80.1053 142.567 80.2272 142.74C80.3491 142.913 80.4162 143.119 80.4201 143.331C80.4171 143.472 80.4502 143.611 80.5161 143.735C80.582 143.86 80.6787 143.966 80.7968 144.042C80.9274 144.127 81.0784 144.175 81.234 144.182C81.4108 144.219 81.5829 144.238 81.7596 144.284C81.4049 144.409 81.0205 144.424 80.6573 144.326C80.4624 144.245 80.2964 144.107 80.1803 143.93C80.0643 143.754 80.0037 143.547 80.0061 143.335C80.0031 143.196 79.9643 143.059 79.8934 142.938C79.8226 142.818 79.7221 142.718 79.6015 142.647C79.4615 142.561 79.3005 142.516 79.1364 142.517C78.9875 142.484 78.8108 142.461 78.634 142.414Z" fill="white"/>
<path d="M82.0665 164.308C82.4222 164.19 82.8031 164.171 83.1689 164.252C83.368 164.325 83.54 164.458 83.6621 164.631C83.7842 164.805 83.8506 165.012 83.8526 165.224C83.8514 165.365 83.8858 165.504 83.9524 165.628C84.019 165.753 84.1159 165.858 84.234 165.935C84.3646 166.02 84.5156 166.068 84.6712 166.075C84.8433 166.112 85.02 166.131 85.1921 166.177C84.8373 166.302 84.453 166.317 84.0898 166.219C83.8954 166.137 83.73 165.999 83.6147 165.823C83.4995 165.646 83.4398 165.439 83.4433 165.229C83.4393 165.089 83.4002 164.953 83.3294 164.832C83.2587 164.712 83.1586 164.611 83.0386 164.54C82.8987 164.454 82.7376 164.409 82.5735 164.41C82.42 164.377 82.2433 164.354 82.0665 164.308Z" fill="white"/>
<path d="M69.1364 149.707C69.4921 149.59 69.8729 149.57 70.2387 149.651C70.4367 149.727 70.6076 149.859 70.7295 150.033C70.8514 150.206 70.9186 150.412 70.9224 150.623C70.9204 150.765 70.9543 150.904 71.0211 151.029C71.0878 151.153 71.1851 151.259 71.3038 151.335C71.4327 151.42 71.5822 151.468 71.7364 151.475C71.9131 151.512 72.0898 151.53 72.2619 151.577C71.9072 151.702 71.5228 151.717 71.1596 151.619C70.9655 151.536 70.8001 151.398 70.6842 151.222C70.5684 151.046 70.5072 150.839 70.5084 150.628C70.5054 150.488 70.4666 150.352 70.3957 150.231C70.3249 150.111 70.2244 150.01 70.1038 149.94C69.9698 149.86 69.8178 149.815 69.6619 149.81C69.4852 149.777 69.3317 149.749 69.1364 149.707Z" fill="white"/>
<path d="M62.127 172.131C62.481 172.013 62.8604 171.994 63.2246 172.075C63.4237 172.147 63.596 172.278 63.7182 172.451C63.8404 172.624 63.9068 172.831 63.9083 173.042C63.9068 173.184 63.941 173.324 64.0076 173.449C64.0743 173.574 64.1713 173.681 64.2897 173.759C64.4204 173.843 64.5714 173.892 64.727 173.898C64.9037 173.931 65.0758 173.954 65.2525 174C64.8956 174.122 64.5107 174.137 64.1456 174.042C63.9519 173.96 63.7872 173.821 63.6721 173.645C63.5571 173.469 63.4968 173.262 63.4991 173.052C63.495 172.911 63.4559 172.775 63.3852 172.653C63.3145 172.532 63.2145 172.431 63.0944 172.359C62.9531 172.277 62.7927 172.233 62.6293 172.233C62.4758 172.196 62.299 172.177 62.127 172.131Z" fill="white"/>
<path d="M91.7409 158.224C91.5755 158.561 91.3215 158.847 91.006 159.052C90.8126 159.139 90.5975 159.166 90.3886 159.129C90.1797 159.093 89.9865 158.994 89.834 158.847C89.7357 158.746 89.6133 158.671 89.4781 158.63C89.343 158.59 89.1997 158.584 89.0619 158.614C88.9086 158.645 88.7669 158.717 88.6526 158.824C88.5037 158.921 88.3688 159.028 88.2107 159.121C88.4107 158.838 88.5595 158.489 88.9642 158.312C89.1593 158.234 89.373 158.215 89.5788 158.257C89.7847 158.299 89.9736 158.401 90.1223 158.549C90.2223 158.647 90.346 158.718 90.4814 158.754C90.6167 158.789 90.759 158.79 90.8944 158.754C91.0467 158.717 91.1864 158.64 91.2991 158.531C91.4479 158.424 91.5874 158.312 91.7409 158.224Z" fill="white"/>
<path d="M57.8294 166.293C57.6635 166.63 57.4074 166.913 57.0898 167.112C56.9211 167.194 56.7318 167.225 56.5457 167.2C56.5736 167.08 56.5968 166.954 56.6247 166.828C56.743 166.852 56.8646 166.852 56.9829 166.828C57.1352 166.791 57.2748 166.714 57.3875 166.605C57.5364 166.493 57.6712 166.382 57.8294 166.293Z" fill="white"/>
<path d="M72.4572 181.508C72.2886 181.842 72.0331 182.125 71.7177 182.326C71.5243 182.413 71.3092 182.44 71.1003 182.404C70.8913 182.367 70.6981 182.269 70.5456 182.122C70.4474 182.02 70.3249 181.946 70.1898 181.905C70.0547 181.864 69.9114 181.859 69.7735 181.889C69.6207 181.921 69.4793 181.993 69.3642 182.098C69.22 182.196 69.0805 182.303 68.9224 182.396C69.127 182.112 69.2712 181.763 69.6759 181.587C69.8709 181.509 70.0846 181.49 70.2905 181.532C70.4963 181.574 70.6853 181.675 70.834 181.824C70.9342 181.921 71.058 181.992 71.1932 182.027C71.3285 182.063 71.4707 182.064 71.6061 182.029C71.7598 181.991 71.901 181.914 72.0154 181.805C72.1596 181.708 72.2991 181.596 72.4572 181.508Z" fill="white"/>
<path d="M73.5549 163.042C73.3877 163.379 73.132 163.663 72.8154 163.865C72.6228 163.953 72.4083 163.98 72.2 163.943C71.9918 163.907 71.7993 163.808 71.6479 163.661C71.5494 163.56 71.4271 163.485 71.2922 163.444C71.1573 163.402 71.0141 163.395 70.8758 163.424C70.7233 163.456 70.5821 163.528 70.4665 163.633C70.3177 163.735 70.1781 163.842 70.0247 163.935C70.2247 163.647 70.3735 163.298 70.7735 163.121C70.9688 163.043 71.1831 163.024 71.3892 163.067C71.5954 163.11 71.7841 163.213 71.9316 163.363C72.0336 163.46 72.1581 163.529 72.2939 163.565C72.4296 163.6 72.5721 163.601 72.7084 163.568C72.8599 163.529 72.9991 163.452 73.113 163.344C73.2619 163.238 73.3967 163.135 73.5549 163.042Z" fill="white"/>
<path d="M85.955 178.382C85.7848 178.715 85.5297 178.998 85.2155 179.201C85.022 179.288 84.8069 179.315 84.598 179.278C84.3891 179.242 84.1959 179.143 84.0434 178.996C83.9452 178.895 83.8227 178.82 83.6875 178.779C83.5524 178.739 83.4091 178.733 83.2713 178.763C83.1191 178.794 82.9778 178.865 82.862 178.968C82.7178 179.07 82.5782 179.177 82.3969 179.27C82.6015 178.987 82.7457 178.638 83.1503 178.461C83.345 178.381 83.5593 178.36 83.7657 178.402C83.9721 178.445 84.1611 178.548 84.3085 178.698C84.4092 178.795 84.533 178.865 84.668 178.9C84.8031 178.936 84.9451 178.937 85.0806 178.903C85.2332 178.863 85.3737 178.786 85.4899 178.68C85.6573 178.587 85.7969 178.47 85.955 178.382Z" fill="white"/>
<path d="M81.1503 134.558C81.1503 134.651 81.1131 134.749 81.0899 134.842C81.062 134.684 81.0154 134.521 80.9922 134.377L81.1503 134.558Z" fill="white"/>
<path d="M93.2247 170.754C93.3462 171.109 93.3671 171.49 93.2852 171.856C93.21 172.054 93.0772 172.225 92.9039 172.347C92.7307 172.469 92.5249 172.536 92.3131 172.54C92.1718 172.537 92.0322 172.571 91.9077 172.638C91.7831 172.705 91.6777 172.802 91.6015 172.921C91.5152 173.05 91.4654 173.199 91.4573 173.354C91.4248 173.53 91.4061 173.707 91.3596 173.879C91.2346 173.525 91.22 173.14 91.3178 172.777C91.399 172.583 91.5361 172.417 91.7117 172.301C91.8873 172.185 92.0934 172.124 92.3038 172.126C92.4443 172.123 92.5817 172.085 92.703 172.014C92.8243 171.943 92.9254 171.842 92.9968 171.721C93.0766 171.587 93.1214 171.435 93.1271 171.279C93.1596 171.103 93.1782 170.93 93.2247 170.754Z" fill="white"/>
<path d="M89.462 150.066C89.462 150.066 89.462 150.098 89.462 150.117C89.4294 150.293 89.4061 150.466 89.3596 150.642C89.257 150.319 89.2315 149.977 89.2852 149.642L89.462 150.066Z" fill="white"/>
<path d="M80.62 153.47C80.7391 153.826 80.76 154.207 80.6804 154.573C80.6052 154.771 80.4724 154.942 80.2992 155.064C80.1259 155.185 79.9201 155.253 79.7083 155.256C79.567 155.254 79.4274 155.288 79.3029 155.354C79.1783 155.421 79.0729 155.519 78.9967 155.638C78.9084 155.765 78.8584 155.915 78.8525 156.07C78.82 156.247 78.7967 156.424 78.7502 156.596C78.6267 156.241 78.6137 155.856 78.713 155.494C78.7942 155.3 78.9313 155.134 79.1069 155.018C79.2825 154.902 79.4886 154.841 79.699 154.842C79.8395 154.84 79.9769 154.801 80.0982 154.73C80.2195 154.659 80.3207 154.559 80.3921 154.438C80.4704 154.303 80.5151 154.152 80.5223 153.996C80.5549 153.833 80.5735 153.661 80.62 153.47Z" fill="white"/>
<path d="M56.9968 178.838C57.1143 179.193 57.1336 179.574 57.0526 179.94C56.9787 180.138 56.8469 180.309 56.6743 180.431C56.5018 180.553 56.2964 180.62 56.0851 180.624C55.943 180.62 55.8023 180.653 55.6767 180.72C55.5512 180.787 55.4451 180.885 55.3688 181.005C55.2833 181.134 55.235 181.283 55.2293 181.438C55.1967 181.615 55.1735 181.787 55.127 181.963C55.005 181.608 54.9905 181.225 55.0851 180.861C55.1677 180.667 55.3057 180.502 55.482 180.386C55.6583 180.27 55.8649 180.209 56.0758 180.21C56.2163 180.207 56.3537 180.169 56.475 180.098C56.5963 180.027 56.6975 179.926 56.7688 179.805C56.847 179.671 56.8902 179.519 56.8944 179.363C56.9316 179.187 56.9502 179.01 56.9968 178.838Z" fill="white"/>
<path d="M64.62 142.279C64.7391 142.635 64.76 143.015 64.6804 143.382C64.6052 143.58 64.4724 143.751 64.2992 143.872C64.1259 143.994 63.9201 144.061 63.7083 144.065C63.4881 144.064 63.2759 144.148 63.1163 144.3C62.9567 144.451 62.8622 144.659 62.8525 144.879C62.82 145.056 62.7967 145.228 62.7502 145.405C62.6267 145.05 62.6137 144.665 62.713 144.302C62.7937 144.108 62.9307 143.942 63.1064 143.826C63.2821 143.71 63.4885 143.649 63.699 143.651C63.8395 143.649 63.9769 143.61 64.0982 143.539C64.2195 143.468 64.3207 143.368 64.3921 143.247C64.4732 143.105 64.5179 142.945 64.5223 142.782C64.5549 142.628 64.5735 142.451 64.62 142.279Z" fill="white"/>
<path d="M64.62 157.577C64.7392 157.931 64.7601 158.31 64.6805 158.675C64.6064 158.874 64.4739 159.045 64.3004 159.167C64.1269 159.289 63.9205 159.356 63.7084 159.359C63.4881 159.36 63.2765 159.445 63.1173 159.597C62.958 159.75 62.8633 159.957 62.8526 160.177C62.82 160.354 62.7968 160.526 62.7503 160.703C62.6278 160.346 62.6148 159.96 62.7131 159.596C62.7945 159.402 62.9318 159.237 63.1074 159.122C63.2831 159.007 63.4891 158.947 63.6991 158.949C63.8393 158.945 63.9762 158.906 64.0973 158.836C64.2183 158.765 64.3197 158.665 64.3921 158.545C64.4733 158.403 64.518 158.243 64.5224 158.08C64.5549 157.926 64.5735 157.749 64.62 157.577Z" fill="white"/>
<path d="M76.9178 170.754C77.0353 171.109 77.0546 171.49 76.9736 171.856C76.8994 172.055 76.7669 172.226 76.5934 172.349C76.4199 172.471 76.2136 172.537 76.0015 172.54C75.8602 172.538 75.7208 172.572 75.5963 172.638C75.4718 172.705 75.3664 172.802 75.2898 172.921C75.205 173.05 75.1568 173.2 75.1503 173.354C75.1131 173.53 75.0945 173.707 75.048 173.879C74.9229 173.525 74.9083 173.14 75.0061 172.777C75.0887 172.583 75.2268 172.417 75.403 172.302C75.5793 172.186 75.7859 172.125 75.9968 172.126C76.1366 172.123 76.2732 172.084 76.3937 172.013C76.5142 171.942 76.6145 171.842 76.6852 171.721C76.7675 171.588 76.8125 171.436 76.8154 171.279C76.8526 171.103 76.8712 170.93 76.9178 170.754Z" fill="white"/>
<path d="M70.6898 138.028C70.8557 137.692 71.1118 137.409 71.4294 137.21C71.6217 137.121 71.8364 137.093 72.045 137.13C72.2536 137.167 72.4461 137.266 72.5968 137.415C72.695 137.516 72.8175 137.59 72.9526 137.631C73.0878 137.672 73.231 137.677 73.3689 137.647C73.5221 137.617 73.6638 137.544 73.7782 137.438C73.927 137.34 74.0666 137.228 74.2201 137.14C74.0201 137.424 73.8712 137.773 73.4712 137.949C73.2761 138.027 73.0624 138.047 72.8566 138.004C72.6507 137.962 72.4618 137.861 72.3131 137.712C72.2119 137.615 72.0873 137.545 71.9514 137.509C71.8154 137.473 71.6725 137.472 71.5363 137.508C71.384 137.545 71.2444 137.622 71.1317 137.731C70.9828 137.828 70.848 137.94 70.6898 138.028Z" fill="white"/>
<path d="M77.5363 138.824C75.2107 139.898 70.2805 137.024 68.0107 134.34C67.8572 134.159 67.7316 131.912 67.4479 129.191C67.2712 127.54 67.0339 125.707 66.6991 124.047C66.6293 123.707 77.606 124.461 77.606 124.461C77.4366 126.654 77.535 128.859 77.8991 131.028C77.9464 131.257 78.0165 131.479 78.1084 131.693C78.1084 131.726 78.1084 131.763 78.1456 131.805C78.6339 133.052 79.7781 137.787 77.5363 138.824Z" fill="#AD6359"/>
<path d="M67.3457 123.963C68.3969 126.665 71.5317 133.084 77.1131 132.079C77.4711 132.019 77.8229 131.928 78.1643 131.805C78.1583 131.766 78.1457 131.728 78.1271 131.693C78.0401 131.479 77.9701 131.258 77.9178 131.033C77.5541 128.86 77.4573 126.652 77.6294 124.456C77.6294 124.456 69.6852 123.916 67.3457 123.963Z" fill="#263238"/>
<path d="M62.5363 113.628C62.6061 117.558 67.8526 127.279 71.1456 128.758C75.9224 130.903 82.0619 129.256 83.4619 123.903C84.8154 118.712 77.7549 106.163 74.234 104.991C69.0433 103.265 62.434 107.819 62.5363 113.628Z" fill="#AD6359"/>
<path d="M62.5363 113.628C62.6061 117.558 67.8526 127.279 71.1456 128.758C75.9224 130.903 82.0619 129.256 83.4619 123.903C84.8154 118.712 77.7549 106.163 74.234 104.991C69.0433 103.265 62.434 107.819 62.5363 113.628Z" fill="#AD6359"/>
<path d="M72.2666 115.037C72.5426 114.867 72.8096 114.682 73.0666 114.484C73.3736 114.27 73.6387 114.13 73.7782 113.768C73.8067 113.661 73.7995 113.547 73.7575 113.445C73.7155 113.342 73.6411 113.256 73.5457 113.2C73.3385 113.12 73.1137 113.097 72.8946 113.133C72.6754 113.169 72.4698 113.263 72.2991 113.405C71.9121 113.641 71.6243 114.009 71.4898 114.442C71.4654 114.543 71.4707 114.649 71.5052 114.746C71.5397 114.844 71.6019 114.93 71.6842 114.993C71.7665 115.056 71.8654 115.094 71.9688 115.102C72.0722 115.11 72.1756 115.087 72.2666 115.037Z" fill="#263238"/>
<path d="M79.2294 111.917C78.9149 111.994 78.5967 112.054 78.2759 112.098C77.9487 112.21 77.5938 112.21 77.2666 112.098C77.1692 112.044 77.0929 111.958 77.0499 111.856C77.0068 111.753 76.9996 111.638 77.0294 111.531C77.1185 111.328 77.2605 111.153 77.4405 111.023C77.6205 110.894 77.8319 110.816 78.0527 110.796C78.4922 110.683 78.9583 110.737 79.3596 110.949C79.4456 111.005 79.5139 111.084 79.5567 111.177C79.5995 111.27 79.615 111.373 79.6013 111.474C79.5877 111.576 79.5455 111.671 79.4796 111.75C79.4138 111.828 79.327 111.886 79.2294 111.917Z" fill="#263238"/>
<path d="M76.7736 123.344C76.9999 123.47 77.2626 123.515 77.5177 123.47C77.7629 123.349 77.98 123.178 78.155 122.968C78.1569 122.964 78.1598 122.96 78.1635 122.958C78.1672 122.956 78.1715 122.954 78.1759 122.954C78.1803 122.954 78.1845 122.956 78.1882 122.958C78.1919 122.96 78.1949 122.964 78.1968 122.968C78.1646 123.144 78.0847 123.307 77.9658 123.441C77.8468 123.575 77.6935 123.673 77.5224 123.726C77.3711 123.754 77.215 123.736 77.0735 123.676C76.932 123.616 76.8115 123.515 76.727 123.386C76.726 123.38 76.7266 123.374 76.7287 123.368C76.7307 123.362 76.7343 123.357 76.7389 123.353C76.7435 123.348 76.7491 123.345 76.7552 123.344C76.7612 123.343 76.7675 123.343 76.7736 123.344Z" fill="#263238"/>
<path d="M76.541 121.023C76.8334 121.208 77.1609 121.329 77.5027 121.381C77.8446 121.432 78.1934 121.412 78.527 121.321C78.8199 121.248 79.1004 121.132 79.3596 120.977C79.4109 120.951 79.4593 120.92 79.5037 120.884C79.5508 120.858 79.5959 120.828 79.6386 120.796C79.6718 120.772 79.6963 120.739 79.7081 120.7C79.7199 120.661 79.7184 120.619 79.7038 120.582C79.695 120.558 79.6824 120.536 79.6665 120.517L79.6386 120.461C79.4107 119.944 78.9968 119.186 78.9968 119.186C79.2247 119.186 80.3921 119.186 80.2386 118.912C79.0665 116.763 77.7642 114.372 76.141 112.479C76.1311 112.464 76.1157 112.454 76.0983 112.451C76.0809 112.447 76.0627 112.451 76.0479 112.461C76.0331 112.471 76.0229 112.486 76.0194 112.503C76.0159 112.521 76.0195 112.539 76.0293 112.554C77.0758 114.665 78.4851 116.577 79.5689 118.684C79.1547 118.683 78.7427 118.743 78.3456 118.861C78.2851 118.917 79.1735 120.303 79.2758 120.544V120.572C78.4665 121.084 77.6991 121.13 76.5921 120.944C76.5084 120.912 76.4805 120.991 76.541 121.023Z" fill="#263238"/>
<path d="M78.9363 120.861C78.8262 121.357 78.5908 121.817 78.2525 122.196C78.0618 122.397 77.813 122.534 77.5409 122.586C76.9409 122.698 76.6991 122.219 76.6107 121.754C76.5596 121.508 76.5393 121.256 76.5502 121.005C77.3406 121.212 78.1766 121.162 78.9363 120.861Z" fill="#263238"/>
<path d="M78.2526 122.196C78.0619 122.397 77.8131 122.533 77.541 122.586C76.941 122.698 76.6991 122.219 76.6107 121.754C76.8948 121.636 77.2098 121.616 77.5067 121.696C77.8036 121.776 78.0658 121.951 78.2526 122.196Z" fill="#FF98B9"/>
<path d="M80.0293 114.196C79.907 114.048 79.7459 113.936 79.5642 113.875C79.4648 113.844 79.3602 113.835 79.2569 113.847C79.1536 113.859 79.054 113.892 78.9642 113.944C78.8742 114.001 78.7983 114.077 78.7427 114.167C78.687 114.258 78.653 114.36 78.6433 114.465C78.6289 114.651 78.6592 114.838 78.7316 115.009C78.7737 115.111 78.8235 115.209 78.8805 115.302C78.9941 115.503 79.1535 115.673 79.3456 115.8C79.2491 115.664 79.1709 115.515 79.113 115.358C79.054 115.22 79.0073 115.077 78.9735 114.93C78.9037 114.633 78.927 114.335 79.1363 114.228C79.2532 114.173 79.385 114.158 79.5112 114.186C79.6374 114.214 79.7508 114.283 79.834 114.382C80.0698 114.597 80.2832 114.835 80.4712 115.093C80.3988 114.763 80.2472 114.455 80.0293 114.196Z" fill="#263238"/>
<path d="M74.9689 116.726C74.8691 116.566 74.7277 116.436 74.5596 116.349C74.4642 116.308 74.3613 116.287 74.2573 116.287C74.1533 116.287 74.0504 116.308 73.955 116.349C73.8586 116.392 73.7733 116.456 73.7055 116.537C73.6378 116.617 73.5895 116.712 73.5643 116.815C73.522 116.995 73.522 117.183 73.5643 117.363C73.5924 117.47 73.6298 117.575 73.6759 117.675C73.7615 117.888 73.8971 118.078 74.0712 118.228C73.9982 118.08 73.9405 117.924 73.8991 117.763C73.862 117.618 73.8355 117.471 73.8201 117.321C73.7922 117.015 73.8526 116.726 74.0759 116.647C74.2991 116.568 74.541 116.647 74.7457 116.889C74.9508 117.134 75.1315 117.399 75.2852 117.68C75.2559 117.341 75.1476 117.015 74.9689 116.726Z" fill="#263238"/>
<path d="M64.5084 122.145C67.3595 121.447 67.7642 117.656 66.2386 115.196C66.2386 115.196 73.9595 113.8 72.4107 107.754C73.1899 108.394 74.1152 108.832 75.1043 109.028C76.0935 109.225 77.1158 109.173 78.0805 108.879L79.5781 110.977C80.2665 110.512 80.42 107.921 78.0153 106.824C78.0153 106.824 76.9363 103.903 74.1781 102.824C73.4249 102.502 72.5947 102.405 71.7876 102.545C70.9805 102.684 70.231 103.054 69.6293 103.61C68.0391 103.09 66.3092 103.211 64.806 103.945C62.1921 105.168 61.8665 108.019 61.8665 108.019C61.8665 108.019 58.42 109.879 58.634 112.703C58.677 113.5 58.8877 114.279 59.2524 114.989C59.6171 115.699 60.1275 116.324 60.7502 116.824C60.7502 116.824 60.1595 118.145 61.3409 120.219C62.0991 121.54 63.6572 122.354 64.5084 122.145Z" fill="#263238"/>
<path d="M72.0758 107.266C72.2804 107.73 72.4363 108.215 72.5409 108.712C72.6613 109.199 72.7222 109.699 72.7223 110.2C72.7288 111.195 72.3601 112.155 71.6897 112.889C71.0572 113.656 70.0944 114.052 69.1781 114.447C68.713 114.587 68.2153 114.763 67.7223 114.875C67.2293 114.987 66.7223 115.075 66.22 115.196C66.7316 115.159 67.2386 115.098 67.7549 115.052C68.2711 115.005 68.7595 114.824 69.2665 114.712C70.2813 114.419 71.2059 113.875 71.9549 113.131C72.672 112.328 73.046 111.276 72.9967 110.2C72.9398 109.161 72.6231 108.152 72.0758 107.266Z" fill="#263238"/>
<path d="M76.9968 109.475C76.0979 109.469 75.2064 109.312 74.3596 109.01C73.9491 108.854 73.5612 108.645 73.2061 108.386C72.8453 108.112 72.5147 107.801 72.2201 107.456C72.4055 107.888 72.6815 108.275 73.0294 108.591C73.3763 108.917 73.7841 109.172 74.2294 109.34C74.6757 109.512 75.1469 109.611 75.6247 109.633C76.0878 109.659 76.5518 109.605 76.9968 109.475Z" fill="#263238"/>
<path d="M75.1735 121.182C74.6058 121.399 73.9887 121.453 73.3919 121.338C72.7951 121.222 72.2425 120.942 71.7967 120.529C71.3509 120.116 71.0296 119.586 70.8693 119C70.709 118.414 70.716 117.794 70.8896 117.211C71.0631 116.629 71.3963 116.107 71.8513 115.704C72.3064 115.301 72.8652 115.033 73.4644 114.931C74.0637 114.83 74.6795 114.897 75.2421 115.128C75.8047 115.358 76.2917 115.741 76.6479 116.233C76.8994 116.582 77.0793 116.977 77.1771 117.396C77.2749 117.815 77.2888 118.249 77.2178 118.673C77.1469 119.098 76.9926 119.504 76.7639 119.868C76.5351 120.232 76.2365 120.548 75.8851 120.796C75.6663 120.956 75.4269 121.086 75.1735 121.182ZM72.9596 115.494C72.4077 115.707 71.9363 116.087 71.6114 116.582C71.2865 117.076 71.1242 117.66 71.1474 118.251C71.1706 118.842 71.3781 119.411 71.7407 119.879C72.1034 120.346 72.6031 120.689 73.17 120.858C73.7369 121.028 74.3425 121.016 74.9022 120.824C75.462 120.632 75.9477 120.27 76.2915 119.789C76.6353 119.307 76.82 118.73 76.8197 118.138C76.8194 117.547 76.6341 116.97 76.2898 116.489C75.9215 115.98 75.3956 115.606 74.7935 115.426C74.1915 115.246 73.5468 115.27 72.9596 115.494Z" fill="#4D4295"/>
<path d="M81.7829 117.628C80.6154 118.094 79.0945 117.303 78.2945 115.796C77.9016 115.088 77.7391 114.275 77.8294 113.47C77.8486 113.12 77.9579 112.781 78.1467 112.485C78.3355 112.19 78.5974 111.948 78.9071 111.783C79.2168 111.619 79.5637 111.537 79.9143 111.545C80.2649 111.554 80.6074 111.653 80.9084 111.833C81.6319 112.209 82.2192 112.803 82.5875 113.531C83.434 115.121 83.1596 116.931 81.9735 117.559C81.9113 117.585 81.8477 117.609 81.7829 117.628ZM79.2666 112.075L79.1177 112.145C78.8773 112.287 78.6745 112.485 78.5264 112.723C78.3783 112.96 78.2892 113.229 78.2666 113.508C78.184 114.227 78.3287 114.954 78.6805 115.587C79.4108 116.982 80.7968 117.67 81.7735 117.149C82.7503 116.628 82.941 115.089 82.2108 113.712C81.8821 113.068 81.3622 112.542 80.7224 112.205C80.5021 112.083 80.2589 112.009 80.0082 111.987C79.7575 111.964 79.5049 111.994 79.2666 112.075Z" fill="#4D4295"/>
<path d="M76.727 116.619L76.3224 116.456C76.5642 115.856 77.3131 114.823 78.4201 115.205L78.2805 115.619C77.2898 115.275 76.7735 116.563 76.727 116.619Z" fill="#4D4295"/>
<path d="M64.2526 124.196H63.8154C63.8154 123.991 63.8154 122.186 64.6015 121.586C65.3875 120.986 70.7736 118.768 71.0061 118.675L71.1736 119.075C69.6154 119.726 65.4387 121.503 64.8666 121.935C64.2945 122.368 64.248 123.703 64.2526 124.196Z" fill="#4D4295"/>
<path d="M67.4712 121.331C67.4712 121.331 63.9968 118.819 62.7782 120.168C61.5596 121.517 64.9782 125.726 66.9642 125.749C67.2197 125.773 67.4774 125.744 67.7216 125.666C67.9658 125.587 68.1916 125.46 68.3854 125.292C68.5792 125.124 68.737 124.918 68.8493 124.687C68.9615 124.456 69.0259 124.205 69.0387 123.949L67.4712 121.331Z" fill="#AD6359"/>
<path d="M63.7968 121.349C63.7918 121.351 63.7876 121.355 63.7846 121.359C63.7816 121.364 63.78 121.369 63.78 121.375C63.78 121.38 63.7816 121.385 63.7846 121.39C63.7876 121.394 63.7918 121.398 63.7968 121.4C65.1921 121.47 66.2619 122.396 67.1317 123.428C66.6061 123.098 66.0154 123.019 65.5549 123.675C65.527 123.707 65.5549 123.749 65.6107 123.726C65.8046 123.582 66.038 123.501 66.2793 123.495C66.5206 123.488 66.7581 123.556 66.9596 123.689C67.2977 123.916 67.6097 124.179 67.8898 124.475C67.9875 124.563 68.1689 124.437 68.0805 124.321V124.298C67.5456 122.707 65.5503 120.912 63.7968 121.349Z" fill="#263238"/>
<path d="M68.0619 136.075C69.3962 137.211 70.7938 138.27 72.2479 139.247C73.6433 140.122 75.22 140.833 76.8154 140.643C78.4107 140.452 79.7735 139.745 79.927 137.977C80.0572 136.433 79.7549 135.331 79.141 133.27C79.1177 133.182 79.22 133.14 79.2526 133.229C80.1363 135.712 81.1642 138.945 79.1503 140.284C76.8991 141.782 74.1968 140.945 72.0898 139.508C70.6124 138.525 69.2476 137.384 68.02 136.103C68.02 136.103 68.0386 136.052 68.0619 136.075Z" fill="#263238"/>
<path d="M123.132 141.442C122.667 142.317 116.532 147.563 114.099 148.601C111.667 149.638 104.704 149.656 103.508 149.108C102.313 148.559 99.1503 147.414 99.1782 146.461C99.2061 145.508 100.932 144.331 101.504 144.359C102.076 144.387 104.294 144.359 104.662 144.503C105.029 144.647 108.936 142.112 109.201 141.638C109.467 141.163 108.778 133.884 111.22 132.294C113.662 130.703 123.132 141.442 123.132 141.442Z" fill="#4D4295"/>
<path opacity="0.2" d="M123.132 141.442C122.667 142.317 116.532 147.563 114.099 148.601C111.667 149.638 104.704 149.656 103.508 149.108C102.313 148.559 99.1503 147.414 99.1782 146.461C99.2061 145.508 100.932 144.331 101.504 144.359C102.076 144.387 104.294 144.359 104.662 144.503C105.029 144.647 108.936 142.112 109.201 141.638C109.467 141.163 108.778 133.884 111.22 132.294C113.662 130.703 123.132 141.442 123.132 141.442Z" fill="black"/>
<path d="M104.067 119.759C104.067 119.759 94.42 116.67 92.4805 116.81C90.541 116.949 85.2852 119.6 85.2107 120.782C85.1363 121.963 87.4433 123.107 88.3038 123.191C89.1642 123.275 93.0293 121.563 93.4433 121.507C93.6805 121.48 96.5084 125.907 100.946 128.252C104.243 129.991 107.211 130.577 107.42 130.549C107.936 130.452 104.215 120.447 104.067 119.759Z" fill="#4D4295"/>
<path opacity="0.2" d="M104.067 119.759C104.067 119.759 94.42 116.67 92.4805 116.81C90.541 116.949 85.2852 119.6 85.2107 120.782C85.1363 121.963 87.4433 123.107 88.3038 123.191C89.1642 123.275 93.0293 121.563 93.4433 121.507C93.6805 121.48 96.5084 125.907 100.946 128.252C104.243 129.991 107.211 130.577 107.42 130.549C107.936 130.452 104.215 120.447 104.067 119.759Z" fill="black"/>
<path d="M133.099 127.228C134.318 129.865 135.155 131.665 133.508 136.451C131.648 141.791 121.764 147.526 115.653 142.893C106.35 135.851 103.885 122.675 102.825 120.53C101.374 117.582 92.5921 119.828 88.4758 117.386C87.9907 117.088 87.5426 116.734 87.141 116.33C86.9921 116.186 86.8479 116.037 86.7038 115.865C85.7964 114.871 85.0467 113.743 84.4805 112.521C84.0154 111.47 83.8572 110.563 84.2247 110.163C84.7363 109.6 85.8014 109.623 87.0665 109.6C88.2012 109.646 89.3294 109.409 90.3503 108.912C92.9363 107.628 94.6247 103.507 98.1782 102.842C99.8898 102.521 105.806 103.419 108.006 104.768C111.02 106.628 110.969 111.707 113.815 113.982C118.09 117.405 131.601 123.972 133.099 127.228Z" fill="#4D4295"/>
<path opacity="0.1" d="M133.099 127.228C134.318 129.865 135.155 131.665 133.508 136.451C131.648 141.791 121.764 147.526 115.653 142.893C106.35 135.851 103.885 122.675 102.825 120.53C101.374 117.582 92.5921 119.828 88.4758 117.386C87.9907 117.088 87.5426 116.734 87.141 116.33C86.9921 116.186 86.8479 116.037 86.7038 115.865C85.7964 114.871 85.0467 113.743 84.4805 112.521C84.0154 111.47 83.8572 110.563 84.2247 110.163C84.7363 109.6 85.8014 109.623 87.0665 109.6C88.2012 109.646 89.3294 109.409 90.3503 108.912C92.9363 107.628 94.6247 103.507 98.1782 102.842C99.8898 102.521 105.806 103.419 108.006 104.768C111.02 106.628 110.969 111.707 113.815 113.982C118.09 117.405 131.601 123.972 133.099 127.228Z" fill="black"/>
<path d="M132.443 126.703C132.443 126.703 141.281 129.293 141.774 121.196C141.806 120.628 144.35 124.917 140.881 129.052C137.411 133.186 130.648 131.298 130.648 131.298C130.648 131.298 129.467 128.112 132.443 126.703Z" fill="#4D4295"/>
<path opacity="0.1" d="M132.443 126.703C132.443 126.703 141.281 129.293 141.774 121.196C141.806 120.628 144.35 124.917 140.881 129.052C137.411 133.186 130.648 131.298 130.648 131.298C130.648 131.298 129.467 128.112 132.443 126.703Z" fill="black"/>
<path opacity="0.1" d="M98.9224 112.838C97.7177 115.163 94.6991 115.777 93.2387 113.349C92.9752 112.896 92.8056 112.394 92.7401 111.874C92.6746 111.354 92.7144 110.826 92.8573 110.321C92.9858 109.599 93.3472 108.938 93.8864 108.44C94.4255 107.942 95.1128 107.634 95.8433 107.563C98.3643 107.373 99.9922 110.768 98.9224 112.838Z" fill="black"/>
<path d="M94.2108 111.773C93.7131 111.656 93.4759 111.084 93.5689 110.401C93.6619 109.717 94.1364 109.247 94.7178 109.377C95.3782 109.526 95.4666 110.275 95.3038 110.824C95.141 111.373 94.7503 111.894 94.2108 111.773Z" fill="#263238"/>
<path d="M85.1456 112.93C84.7456 113 83.2851 111.293 83.3874 110.521C83.4898 109.749 86.5735 109.126 87.006 109.679C87.4386 110.233 85.9177 112.791 85.1456 112.93Z" fill="#263238"/>
<path d="M82.9363 116.498C82.6387 115.801 83.4015 115.256 83.9224 115.233C85.0201 115.177 85.4108 116.405 87.2201 116.275C87.4526 116.275 87.3689 115.68 87.3689 115.68C87.726 115.643 88.0857 115.719 88.3968 115.898C88.2294 116.828 87.6712 117.233 86.834 117.503C85.4108 117.959 83.2852 117.261 82.9363 116.498Z" fill="#FF97B8"/>
<path d="M83.8572 115.94C84.5261 116.412 85.3181 116.678 86.1363 116.707C86.5338 116.736 86.9333 116.689 87.313 116.568C87.499 116.503 87.6711 116.41 87.713 116.219C87.7767 116.024 87.7943 115.817 87.7642 115.614C87.8386 115.815 87.8579 116.032 87.82 116.242C87.806 116.36 87.7498 116.469 87.6618 116.549C87.5798 116.626 87.4855 116.689 87.3828 116.735C86.9846 116.902 86.5527 116.972 86.1223 116.94C85.6961 116.925 85.2765 116.83 84.8851 116.661C84.4949 116.497 84.1444 116.251 83.8572 115.94Z" fill="#263238"/>
<path d="M89.1595 114.689C88.8014 116.977 86.6479 114.6 86.2293 114.121C85.5882 113.363 85.0227 112.543 84.5409 111.675C84.5409 111.642 84.4805 111.675 84.4851 111.698C84.6433 112.823 86.8107 115.419 86.9967 115.614C87.1037 115.73 87.4898 116.079 87.2107 116.126C86.9316 116.172 86.5874 115.791 86.4247 115.661C86.3828 115.623 86.3177 115.689 86.3549 115.735C86.513 115.907 87.5409 116.828 87.6805 116.256C87.7177 116.089 87.5642 115.903 87.4293 115.754L87.5177 115.814C88.6944 116.475 89.1828 115.814 89.2572 114.707C89.2604 114.7 89.262 114.692 89.2618 114.685C89.2616 114.677 89.2596 114.669 89.2561 114.662C89.2525 114.656 89.2474 114.65 89.2412 114.645C89.235 114.64 89.2278 114.637 89.2202 114.636C89.2126 114.634 89.2048 114.635 89.1973 114.637C89.1898 114.639 89.1829 114.642 89.177 114.647C89.1712 114.653 89.1666 114.659 89.1636 114.666C89.1605 114.673 89.1591 114.681 89.1595 114.689Z" fill="#263238"/>
<path d="M107.243 122.307C107.243 122.307 97.5921 119.247 95.6479 119.391C93.7038 119.535 88.4666 122.214 88.3921 123.387C88.3177 124.559 90.634 125.712 91.4945 125.791C92.3549 125.87 96.2154 124.149 96.6107 124.089C96.8479 124.056 99.6898 128.48 104.132 130.81C107.434 132.54 110.406 133.135 110.615 133.089C111.127 132.968 107.383 122.982 107.243 122.307Z" fill="#4D4295"/>
<path opacity="0.1" d="M107.243 122.307C107.243 122.307 97.5921 119.247 95.6479 119.391C93.7038 119.535 88.4666 122.214 88.3921 123.387C88.3177 124.559 90.634 125.712 91.4945 125.791C92.3549 125.87 96.2154 124.149 96.6107 124.089C96.8479 124.056 99.6898 128.48 104.132 130.81C107.434 132.54 110.406 133.135 110.615 133.089C111.127 132.968 107.383 122.982 107.243 122.307Z" fill="black"/>
<path d="M108.527 121.568C108.56 121.568 108.527 121.507 108.527 121.517C108.197 121.619 107.862 121.717 107.522 121.791C107.313 121.838 107.108 121.88 106.899 121.917C105.736 121.675 104.573 121.452 103.429 121.131C103.392 121.131 103.364 121.177 103.406 121.191C104.298 121.523 105.206 121.808 106.127 122.047C107.041 122.276 107.976 122.413 108.918 122.456C108.964 122.456 108.987 122.387 108.918 122.377C108.332 122.219 107.736 122.094 107.141 121.968C107.28 121.968 107.42 121.926 107.56 121.894C107.891 121.815 108.215 121.706 108.527 121.568Z" fill="#263238"/>
<path d="M127.699 134.833C128.164 135.693 129.173 143.712 128.699 146.316C128.225 148.921 124.401 154.74 123.285 155.433C122.169 156.126 119.471 158.14 118.69 157.591C117.908 157.042 117.88 154.949 118.225 154.493C118.569 154.037 119.773 152.168 120.085 151.94C120.397 151.712 120.443 147.056 120.197 146.568C119.95 146.079 113.49 142.651 113.508 139.74C113.527 136.828 127.699 134.833 127.699 134.833Z" fill="#4D4295"/>
<path opacity="0.1" d="M127.699 134.833C128.164 135.693 129.173 143.712 128.699 146.316C128.225 148.921 124.401 154.74 123.285 155.433C122.169 156.126 119.471 158.14 118.69 157.591C117.908 157.042 117.88 154.949 118.225 154.493C118.569 154.037 119.773 152.168 120.085 151.94C120.397 151.712 120.443 147.056 120.197 146.568C119.95 146.079 113.49 142.651 113.508 139.74C113.527 136.828 127.699 134.833 127.699 134.833Z" fill="black"/>
<path d="M129.29 136.168C129.29 136.135 129.36 136.168 129.341 136.205C129.16 136.549 128.987 136.903 128.834 137.266C128.741 137.484 128.653 137.731 128.569 137.931C128.601 139.27 128.615 140.61 128.736 141.94C128.736 141.95 128.732 141.959 128.725 141.966C128.718 141.973 128.709 141.977 128.699 141.977C128.689 141.977 128.68 141.973 128.673 141.966C128.666 141.959 128.662 141.95 128.662 141.94C128.499 140.875 128.332 139.824 128.267 138.745C128.194 137.686 128.232 136.623 128.378 135.573C128.378 135.521 128.467 135.508 128.471 135.573C128.522 136.256 128.546 136.94 128.564 137.628C128.615 137.475 128.667 137.326 128.732 137.163C128.887 136.815 129.074 136.482 129.29 136.168Z" fill="#263238"/>
<path d="M103.164 108.172C103.978 109.442 110.866 116.707 114.383 116.112C117.899 115.516 120.973 111.168 119.401 108.251C117.829 105.335 106.68 103.275 105.02 103.782C104.571 103.894 104.155 104.108 103.804 104.409C103.452 104.709 103.176 105.088 102.996 105.514C102.816 105.939 102.737 106.401 102.766 106.863C102.796 107.324 102.932 107.773 103.164 108.172Z" fill="#4D4295"/>
<path opacity="0.2" d="M103.164 108.172C103.978 109.442 110.866 116.707 114.383 116.112C117.899 115.516 120.973 111.168 119.401 108.251C117.829 105.335 106.68 103.275 105.02 103.782C104.571 103.894 104.155 104.108 103.804 104.409C103.452 104.709 103.176 105.088 102.996 105.514C102.816 105.939 102.737 106.401 102.766 106.863C102.796 107.324 102.932 107.773 103.164 108.172Z" fill="black"/>
<path d="M69.234 149.456C81.4851 160.187 97.2758 169.191 101.039 168.908C106.192 168.512 118.843 152.28 122.964 147.456C124.634 145.508 106.318 134.796 104.913 137.149C101.42 143.001 95.5782 148.582 95.4107 148.866C95.0572 149.461 77.5968 144.103 72.5037 142.252C61.1875 138.121 63.1503 144.131 69.234 149.456Z" fill="#AD6359"/>
<path d="M120.257 115.796C120.853 115.935 121.389 116.262 121.787 116.727C122.185 117.192 122.425 117.771 122.471 118.382C123.526 118.098 124.644 118.152 125.666 118.535C127.406 119.289 126.992 122.345 126.992 122.345C128.122 122.197 129.27 122.395 130.285 122.912C131.876 123.796 131.899 126.94 131.899 126.94C133.01 127.379 133.925 128.205 134.476 129.266C135.839 132.154 133.201 136.242 131.555 138.88C129.908 141.517 122.769 147.405 121.522 148.647L104.587 138.238C104.587 138.238 108.634 124.368 111.011 121.559C113.015 119.191 117.894 115.28 120.257 115.796Z" fill="#AD6359"/>
<path d="M122.197 118.466C119.467 120.47 117.476 123.173 115.332 125.763C115.285 125.819 115.378 125.893 115.425 125.833C117.522 123.238 120.108 121.089 122.308 118.582C122.318 118.566 122.322 118.548 122.319 118.53C122.317 118.512 122.309 118.495 122.297 118.481C122.284 118.468 122.267 118.46 122.249 118.457C122.231 118.454 122.213 118.457 122.197 118.466Z" fill="#263238"/>
<path d="M126.736 122.28C126.159 122.795 125.652 123.385 125.229 124.033C124.742 124.687 124.265 125.351 123.797 126.024C122.867 127.373 121.936 128.736 121.085 130.131C121.048 130.191 121.132 130.266 121.173 130.205C122.104 128.866 123.067 127.54 124.062 126.238C124.555 125.593 125.056 124.948 125.564 124.303C126.079 123.733 126.532 123.109 126.913 122.442C126.924 122.431 126.932 122.417 126.937 122.402C126.943 122.388 126.945 122.372 126.945 122.356C126.944 122.34 126.94 122.325 126.934 122.311C126.927 122.296 126.918 122.283 126.906 122.273C126.894 122.262 126.881 122.254 126.866 122.248C126.851 122.243 126.835 122.24 126.82 122.241C126.804 122.242 126.788 122.245 126.774 122.252C126.76 122.259 126.747 122.268 126.736 122.28Z" fill="#263238"/>
<path d="M131.857 127.015C131.313 127.401 130.95 128.117 130.583 128.666C130.169 129.284 129.75 129.908 129.332 130.526C128.49 131.763 127.648 132.996 126.76 134.201C126.718 134.261 126.806 134.336 126.853 134.275C127.755 133.056 128.681 131.847 129.574 130.619C130.011 130.018 130.446 129.413 130.881 128.805C131.327 128.287 131.68 127.696 131.922 127.056C131.924 127.048 131.923 127.04 131.92 127.032C131.916 127.025 131.911 127.018 131.904 127.014C131.897 127.009 131.889 127.007 131.88 127.007C131.872 127.007 131.864 127.01 131.857 127.015Z" fill="#263238"/>
<path d="M85.9781 146.465C87.9549 146.996 89.9316 147.526 91.9084 148.028C92.8991 148.27 93.8991 148.493 94.8851 148.665C95.0022 148.682 95.1204 148.69 95.2386 148.689C95.2663 148.694 95.2947 148.694 95.3223 148.689C95.3599 148.66 95.3957 148.629 95.4293 148.596C95.6014 148.428 95.7735 148.233 95.9409 148.047C96.2712 147.665 96.5968 147.27 96.9223 146.879L100.797 142.131C102.104 140.558 103.401 138.977 104.746 137.433C103.574 139.107 102.341 140.74 101.104 142.372C99.8665 144.005 98.5921 145.605 97.2619 147.163C96.9316 147.554 96.5968 147.94 96.2526 148.326C96.0805 148.517 95.9084 148.707 95.713 148.893C95.655 148.948 95.5928 148.998 95.527 149.042C95.4399 149.088 95.3416 149.109 95.2433 149.103C95.1047 149.102 94.9664 149.091 94.8293 149.07C93.8164 148.881 92.8149 148.636 91.8293 148.335C89.8572 147.768 87.9363 147.14 85.9781 146.465Z" fill="#263238"/>
<path d="M82.5502 162.479L84.9409 144.293C80.5504 142.598 76.0617 141.169 71.4991 140.014C63.7688 138.038 61.3223 141.252 68.2014 149.517C72.3456 154.496 77.1769 158.861 82.5502 162.479Z" fill="#4D4295"/>
<path d="M81.7643 144.284C81.4095 144.409 81.0252 144.424 80.662 144.326C80.4671 144.245 80.301 144.107 80.185 143.93C80.069 143.754 80.0084 143.547 80.0108 143.335C80.0077 143.196 79.9689 143.059 79.8981 142.939C79.8273 142.818 79.7268 142.718 79.6062 142.647C79.4662 142.561 79.3052 142.516 79.141 142.517C78.969 142.484 78.7922 142.461 78.6201 142.415C78.8542 142.358 79.092 142.32 79.3317 142.298L80.0015 142.521C80.1214 142.62 80.2186 142.744 80.2868 142.883C80.355 143.023 80.3925 143.176 80.3969 143.331C80.3939 143.472 80.427 143.611 80.4929 143.735C80.5588 143.86 80.6554 143.966 80.7736 144.042C80.9042 144.127 81.0552 144.175 81.2108 144.182C81.4248 144.219 81.5876 144.238 81.7643 144.284Z" fill="white"/>
<path d="M69.1364 149.707C69.4921 149.59 69.8729 149.57 70.2387 149.651C70.4367 149.727 70.6076 149.859 70.7295 150.033C70.8514 150.206 70.9186 150.412 70.9224 150.623C70.9204 150.765 70.9543 150.904 71.0211 151.029C71.0878 151.153 71.1851 151.259 71.3038 151.335C71.4327 151.42 71.5822 151.468 71.7364 151.475C71.9131 151.512 72.0898 151.53 72.2619 151.577C71.9072 151.702 71.5228 151.717 71.1596 151.619C70.9655 151.536 70.8001 151.398 70.6842 151.222C70.5684 151.046 70.5072 150.839 70.5084 150.628C70.5054 150.488 70.4666 150.352 70.3957 150.231C70.3249 150.111 70.2244 150.01 70.1038 149.94C69.9698 149.86 69.8178 149.815 69.6619 149.81C69.4852 149.777 69.3317 149.749 69.1364 149.707Z" fill="white"/>
<path d="M80.62 153.47C80.7391 153.826 80.76 154.207 80.6804 154.573C80.6052 154.771 80.4724 154.942 80.2992 155.064C80.1259 155.185 79.9201 155.253 79.7083 155.256C79.567 155.254 79.4274 155.288 79.3029 155.354C79.1783 155.421 79.0729 155.519 78.9967 155.638C78.9084 155.765 78.8584 155.915 78.8525 156.07C78.82 156.247 78.7967 156.424 78.7502 156.596C78.6267 156.241 78.6137 155.856 78.713 155.494C78.7942 155.3 78.9313 155.134 79.1069 155.018C79.2825 154.902 79.4886 154.841 79.699 154.842C79.8395 154.84 79.9769 154.801 80.0982 154.73C80.2195 154.659 80.3207 154.559 80.3921 154.438C80.4704 154.303 80.5151 154.152 80.5223 153.996C80.5549 153.833 80.5735 153.661 80.62 153.47Z" fill="white"/>
<path d="M64.6805 143.382C64.6428 143.493 64.5827 143.596 64.5038 143.684C64.4512 143.551 64.4077 143.414 64.3735 143.275V143.247C64.4547 143.105 64.4994 142.945 64.5038 142.782C64.5363 142.61 64.5549 142.433 64.6014 142.261C64.7302 142.62 64.7575 143.008 64.6805 143.382Z" fill="white"/>
<path d="M82.2805 143.94C81.9503 145.27 81.8154 146.656 81.5968 148.005C81.3782 149.354 81.1828 150.582 81.0154 151.875C80.6712 154.563 80.3828 157.247 80.1503 159.949C80.1503 159.96 80.1547 159.971 80.1625 159.979C80.1704 159.987 80.181 159.991 80.1921 159.991C80.2032 159.991 80.2139 159.987 80.2217 159.979C80.2296 159.971 80.234 159.96 80.234 159.949C80.6712 157.307 81.0712 154.661 81.434 152.01C81.62 150.689 81.7642 149.368 81.8991 148.042C82.034 146.716 82.2991 145.312 82.3642 143.944C82.3645 143.939 82.3637 143.933 82.3619 143.928C82.3601 143.923 82.3573 143.918 82.3536 143.914C82.3499 143.91 82.3455 143.907 82.3405 143.904C82.3356 143.902 82.3302 143.901 82.3247 143.9C82.3192 143.9 82.3137 143.901 82.3085 143.903C82.3033 143.904 82.2985 143.907 82.2944 143.911C82.2903 143.914 82.287 143.919 82.2846 143.924C82.2822 143.929 82.2808 143.934 82.2805 143.94Z" fill="#263238"/>
<path d="M82.8805 159.894C82.848 159.968 82.5131 162.317 82.5131 162.349C80.5549 160.791 78.6107 159.382 76.6852 157.777C74.737 156.127 72.8742 154.379 71.1038 152.54C70.0852 151.498 69.0945 150.424 68.1456 149.322C68.1224 149.298 68.0898 149.322 68.1084 149.359C68.8666 150.368 69.6573 151.345 70.4852 152.298C70.02 151.88 69.5549 151.438 69.0898 150.982C69.0805 150.976 69.0693 150.973 69.058 150.973C69.0468 150.974 69.0361 150.979 69.0276 150.986C69.0191 150.993 69.0133 151.003 69.0111 151.014C69.0089 151.025 69.0104 151.037 69.0154 151.047C69.5891 151.757 70.2591 152.383 71.0061 152.908C73.4342 155.623 76.123 158.094 79.034 160.284C80.1994 161.207 81.434 162.039 82.727 162.773C82.727 162.773 82.9735 159.982 82.9549 159.917C82.9543 159.908 82.9512 159.9 82.946 159.894C82.9408 159.887 82.9337 159.882 82.9257 159.88C82.9176 159.877 82.909 159.877 82.901 159.88C82.8929 159.882 82.8858 159.887 82.8805 159.894Z" fill="#263238"/>
<path d="M83.2851 143.405C82.6619 143.163 82.0293 142.94 81.3968 142.731L81.0014 142.6C80.2857 142.166 79.5483 141.769 78.7921 141.41C78.7894 141.408 78.7863 141.407 78.7832 141.407C78.7801 141.407 78.7769 141.407 78.7739 141.408C78.7709 141.409 78.7681 141.41 78.7656 141.412C78.7631 141.414 78.7611 141.416 78.7596 141.419C78.758 141.422 78.7571 141.425 78.7567 141.428C78.7563 141.431 78.7566 141.434 78.7575 141.437C78.7583 141.44 78.7598 141.443 78.7617 141.446C78.7637 141.448 78.7661 141.45 78.7689 141.452C79.3084 141.805 79.8712 142.112 80.4386 142.41C79.4665 142.093 78.4851 141.796 77.4851 141.577C77.4802 141.579 77.4759 141.583 77.4729 141.587C77.47 141.592 77.4684 141.597 77.4684 141.603C77.4684 141.608 77.47 141.614 77.4729 141.618C77.4759 141.623 77.4802 141.626 77.4851 141.628C78.7223 142.135 80.0014 142.559 81.2572 143.024C81.8665 143.247 84.8851 144.28 84.8851 144.321C84.8851 144.363 84.7223 146.056 84.7456 146.159C84.7689 146.261 84.7921 146.205 84.8014 146.159L85.127 144.098C85.127 144.098 83.7968 143.614 83.2851 143.405Z" fill="#263238"/>
</svg>
