<svg width="48" height="48" viewBox="0 0 48 48" fill="none" xmlns="http://www.w3.org/2000/svg">
<path d="M0.956665 0.510071H2.82122V2.37462H0.956665V0.510071ZM2.82122 0.510071H4.68577V2.37462H2.82122V0.510071ZM4.68577 0.510071H6.55032V2.37462H4.68577V0.510071ZM6.55032 0.510071H8.41487V2.37462H6.55032V0.510071ZM8.41487 0.510071H10.2794V2.37462H8.41487V0.510071ZM10.2794 0.510071H12.144V2.37462H10.2794V0.510071ZM12.144 0.510071H14.0085V2.37462H12.144V0.510071ZM21.4667 0.510071H23.3313V2.37462H21.4667V0.510071ZM27.0604 0.510071H28.9249V2.37462H27.0604V0.510071ZM28.9249 0.510071H30.7895V2.37462H28.9249V0.510071ZM30.7895 0.510071H32.6541V2.37462H30.7895V0.510071ZM34.5186 0.510071H36.3832V2.37462H34.5186V0.510071ZM36.3832 0.510071H38.2477V2.37462H36.3832V0.510071ZM38.2477 0.510071H40.1123V2.37462H38.2477V0.510071ZM40.1123 0.510071H41.9768V2.37462H40.1123V0.510071ZM41.9768 0.510071H43.8414V2.37462H41.9768V0.510071ZM43.8414 0.510071H45.7059V2.37462H43.8414V0.510071ZM45.7059 0.510071H47.5705V2.37462H45.7059V0.510071ZM0.956665 2.37462H2.82122V4.23918H0.956665V2.37462ZM12.144 2.37462H14.0085V4.23918H12.144V2.37462ZM17.7376 2.37462H19.6022V4.23918H17.7376V2.37462ZM25.1958 2.37462H27.0604V4.23918H25.1958V2.37462ZM27.0604 2.37462H28.9249V4.23918H27.0604V2.37462ZM30.7895 2.37462H32.6541V4.23918H30.7895V2.37462ZM34.5186 2.37462H36.3832V4.23918H34.5186V2.37462ZM45.7059 2.37462H47.5705V4.23918H45.7059V2.37462ZM0.956665 4.23918H2.82122V6.10373H0.956665V4.23918ZM4.68577 4.23918H6.55032V6.10373H4.68577V4.23918ZM6.55032 4.23918H8.41487V6.10373H6.55032V4.23918ZM8.41487 4.23918H10.2794V6.10373H8.41487V4.23918ZM12.144 4.23918H14.0085V6.10373H12.144V4.23918ZM17.7376 4.23918H19.6022V6.10373H17.7376V4.23918ZM19.6022 4.23918H21.4667V6.10373H19.6022V4.23918ZM23.3313 4.23918H25.1958V6.10373H23.3313V4.23918ZM27.0604 4.23918H28.9249V6.10373H27.0604V4.23918ZM28.9249 4.23918H30.7895V6.10373H28.9249V4.23918ZM34.5186 4.23918H36.3832V6.10373H34.5186V4.23918ZM38.2477 4.23918H40.1123V6.10373H38.2477V4.23918ZM40.1123 4.23918H41.9768V6.10373H40.1123V4.23918ZM41.9768 4.23918H43.8414V6.10373H41.9768V4.23918ZM45.7059 4.23918H47.5705V6.10373H45.7059V4.23918ZM0.956665 6.10373H2.82122V7.96828H0.956665V6.10373ZM4.68577 6.10373H6.55032V7.96828H4.68577V6.10373ZM6.55032 6.10373H8.41487V7.96828H6.55032V6.10373ZM8.41487 6.10373H10.2794V7.96828H8.41487V6.10373ZM12.144 6.10373H14.0085V7.96828H12.144V6.10373ZM15.8731 6.10373H17.7376V7.96828H15.8731V6.10373ZM17.7376 6.10373H19.6022V7.96828H17.7376V6.10373ZM23.3313 6.10373H25.1958V7.96828H23.3313V6.10373ZM27.0604 6.10373H28.9249V7.96828H27.0604V6.10373ZM28.9249 6.10373H30.7895V7.96828H28.9249V6.10373ZM34.5186 6.10373H36.3832V7.96828H34.5186V6.10373ZM38.2477 6.10373H40.1123V7.96828H38.2477V6.10373ZM40.1123 6.10373H41.9768V7.96828H40.1123V6.10373ZM41.9768 6.10373H43.8414V7.96828H41.9768V6.10373ZM45.7059 6.10373H47.5705V7.96828H45.7059V6.10373ZM0.956665 7.96828H2.82122V9.83283H0.956665V7.96828ZM4.68577 7.96828H6.55032V9.83283H4.68577V7.96828ZM6.55032 7.96828H8.41487V9.83283H6.55032V7.96828ZM8.41487 7.96828H10.2794V9.83283H8.41487V7.96828ZM12.144 7.96828H14.0085V9.83283H12.144V7.96828ZM19.6022 7.96828H21.4667V9.83283H19.6022V7.96828ZM21.4667 7.96828H23.3313V9.83283H21.4667V7.96828ZM23.3313 7.96828H25.1958V9.83283H23.3313V7.96828ZM25.1958 7.96828H27.0604V9.83283H25.1958V7.96828ZM27.0604 7.96828H28.9249V9.83283H27.0604V7.96828ZM34.5186 7.96828H36.3832V9.83283H34.5186V7.96828ZM38.2477 7.96828H40.1123V9.83283H38.2477V7.96828ZM40.1123 7.96828H41.9768V9.83283H40.1123V7.96828ZM41.9768 7.96828H43.8414V9.83283H41.9768V7.96828ZM45.7059 7.96828H47.5705V9.83283H45.7059V7.96828ZM0.956665 9.83283H2.82122V11.6974H0.956665V9.83283ZM12.144 9.83283H14.0085V11.6974H12.144V9.83283ZM15.8731 9.83283H17.7376V11.6974H15.8731V9.83283ZM21.4667 9.83283H23.3313V11.6974H21.4667V9.83283ZM30.7895 9.83283H32.6541V11.6974H30.7895V9.83283ZM34.5186 9.83283H36.3832V11.6974H34.5186V9.83283ZM45.7059 9.83283H47.5705V11.6974H45.7059V9.83283ZM0.956665 11.6974H2.82122V13.5619H0.956665V11.6974ZM2.82122 11.6974H4.68577V13.5619H2.82122V11.6974ZM4.68577 11.6974H6.55032V13.5619H4.68577V11.6974ZM6.55032 11.6974H8.41487V13.5619H6.55032V11.6974ZM8.41487 11.6974H10.2794V13.5619H8.41487V11.6974ZM10.2794 11.6974H12.144V13.5619H10.2794V11.6974ZM12.144 11.6974H14.0085V13.5619H12.144V11.6974ZM15.8731 11.6974H17.7376V13.5619H15.8731V11.6974ZM19.6022 11.6974H21.4667V13.5619H19.6022V11.6974ZM23.3313 11.6974H25.1958V13.5619H23.3313V11.6974ZM27.0604 11.6974H28.9249V13.5619H27.0604V11.6974ZM30.7895 11.6974H32.6541V13.5619H30.7895V11.6974ZM34.5186 11.6974H36.3832V13.5619H34.5186V11.6974ZM36.3832 11.6974H38.2477V13.5619H36.3832V11.6974ZM38.2477 11.6974H40.1123V13.5619H38.2477V11.6974ZM40.1123 11.6974H41.9768V13.5619H40.1123V11.6974ZM41.9768 11.6974H43.8414V13.5619H41.9768V11.6974ZM43.8414 11.6974H45.7059V13.5619H43.8414V11.6974ZM45.7059 11.6974H47.5705V13.5619H45.7059V11.6974ZM15.8731 13.5619H17.7376V15.4265H15.8731V13.5619ZM17.7376 13.5619H19.6022V15.4265H17.7376V13.5619ZM19.6022 13.5619H21.4667V15.4265H19.6022V13.5619ZM27.0604 13.5619H28.9249V15.4265H27.0604V13.5619ZM28.9249 13.5619H30.7895V15.4265H28.9249V13.5619ZM30.7895 13.5619H32.6541V15.4265H30.7895V13.5619ZM2.82122 15.4265H4.68577V17.291H2.82122V15.4265ZM4.68577 15.4265H6.55032V17.291H4.68577V15.4265ZM12.144 15.4265H14.0085V17.291H12.144V15.4265ZM25.1958 15.4265H27.0604V17.291H25.1958V15.4265ZM27.0604 15.4265H28.9249V17.291H27.0604V15.4265ZM30.7895 15.4265H32.6541V17.291H30.7895V15.4265ZM34.5186 15.4265H36.3832V17.291H34.5186V15.4265ZM36.3832 15.4265H38.2477V17.291H36.3832V15.4265ZM40.1123 15.4265H41.9768V17.291H40.1123V15.4265ZM2.82122 17.291H4.68577V19.1556H2.82122V17.291ZM4.68577 17.291H6.55032V19.1556H4.68577V17.291ZM8.41487 17.291H10.2794V19.1556H8.41487V17.291ZM14.0085 17.291H15.8731V19.1556H14.0085V17.291ZM19.6022 17.291H21.4667V19.1556H19.6022V17.291ZM21.4667 17.291H23.3313V19.1556H21.4667V17.291ZM23.3313 17.291H25.1958V19.1556H23.3313V17.291ZM25.1958 17.291H27.0604V19.1556H25.1958V17.291ZM27.0604 17.291H28.9249V19.1556H27.0604V17.291ZM28.9249 17.291H30.7895V19.1556H28.9249V17.291ZM30.7895 17.291H32.6541V19.1556H30.7895V17.291ZM34.5186 17.291H36.3832V19.1556H34.5186V17.291ZM36.3832 17.291H38.2477V19.1556H36.3832V17.291ZM40.1123 17.291H41.9768V19.1556H40.1123V17.291ZM43.8414 17.291H45.7059V19.1556H43.8414V17.291ZM45.7059 17.291H47.5705V19.1556H45.7059V17.291ZM12.144 19.1556H14.0085V21.0201H12.144V19.1556ZM21.4667 19.1556H23.3313V21.0201H21.4667V19.1556ZM28.9249 19.1556H30.7895V21.0201H28.9249V19.1556ZM32.6541 19.1556H34.5186V21.0201H32.6541V19.1556ZM36.3832 19.1556H38.2477V21.0201H36.3832V19.1556ZM40.1123 19.1556H41.9768V21.0201H40.1123V19.1556ZM41.9768 19.1556H43.8414V21.0201H41.9768V19.1556ZM45.7059 19.1556H47.5705V21.0201H45.7059V19.1556ZM0.956665 21.0201H2.82122V22.8847H0.956665V21.0201ZM2.82122 21.0201H4.68577V22.8847H2.82122V21.0201ZM8.41487 21.0201H10.2794V22.8847H8.41487V21.0201ZM14.0085 21.0201H15.8731V22.8847H14.0085V21.0201ZM17.7376 21.0201H19.6022V22.8847H17.7376V21.0201ZM19.6022 21.0201H21.4667V22.8847H19.6022V21.0201ZM25.1958 21.0201H27.0604V22.8847H25.1958V21.0201ZM28.9249 21.0201H30.7895V22.8847H28.9249V21.0201ZM32.6541 21.0201H34.5186V22.8847H32.6541V21.0201ZM36.3832 21.0201H38.2477V22.8847H36.3832V21.0201ZM40.1123 21.0201H41.9768V22.8847H40.1123V21.0201ZM0.956665 22.8847H2.82122V24.7493H0.956665V22.8847ZM2.82122 22.8847H4.68577V24.7493H2.82122V22.8847ZM6.55032 22.8847H8.41487V24.7493H6.55032V22.8847ZM12.144 22.8847H14.0085V24.7493H12.144V22.8847ZM14.0085 22.8847H15.8731V24.7493H14.0085V22.8847ZM15.8731 22.8847H17.7376V24.7493H15.8731V22.8847ZM17.7376 22.8847H19.6022V24.7493H17.7376V22.8847ZM19.6022 22.8847H21.4667V24.7493H19.6022V22.8847ZM25.1958 22.8847H27.0604V24.7493H25.1958V22.8847ZM28.9249 22.8847H30.7895V24.7493H28.9249V22.8847ZM30.7895 22.8847H32.6541V24.7493H30.7895V22.8847ZM34.5186 22.8847H36.3832V24.7493H34.5186V22.8847ZM36.3832 22.8847H38.2477V24.7493H36.3832V22.8847ZM45.7059 22.8847H47.5705V24.7493H45.7059V22.8847ZM4.68577 24.7493H6.55032V26.6138H4.68577V24.7493ZM6.55032 24.7493H8.41487V26.6138H6.55032V24.7493ZM8.41487 24.7493H10.2794V26.6138H8.41487V24.7493ZM19.6022 24.7493H21.4667V26.6138H19.6022V24.7493ZM21.4667 24.7493H23.3313V26.6138H21.4667V24.7493ZM23.3313 24.7493H25.1958V26.6138H23.3313V24.7493ZM28.9249 24.7493H30.7895V26.6138H28.9249V24.7493ZM30.7895 24.7493H32.6541V26.6138H30.7895V24.7493ZM34.5186 24.7493H36.3832V26.6138H34.5186V24.7493ZM36.3832 24.7493H38.2477V26.6138H36.3832V24.7493ZM43.8414 24.7493H45.7059V26.6138H43.8414V24.7493ZM45.7059 24.7493H47.5705V26.6138H45.7059V24.7493ZM0.956665 26.6138H2.82122V28.4784H0.956665V26.6138ZM2.82122 26.6138H4.68577V28.4784H2.82122V26.6138ZM6.55032 26.6138H8.41487V28.4784H6.55032V26.6138ZM10.2794 26.6138H12.144V28.4784H10.2794V26.6138ZM12.144 26.6138H14.0085V28.4784H12.144V26.6138ZM15.8731 26.6138H17.7376V28.4784H15.8731V26.6138ZM17.7376 26.6138H19.6022V28.4784H17.7376V26.6138ZM19.6022 26.6138H21.4667V28.4784H19.6022V26.6138ZM23.3313 26.6138H25.1958V28.4784H23.3313V26.6138ZM28.9249 26.6138H30.7895V28.4784H28.9249V26.6138ZM30.7895 26.6138H32.6541V28.4784H30.7895V26.6138ZM34.5186 26.6138H36.3832V28.4784H34.5186V26.6138ZM40.1123 26.6138H41.9768V28.4784H40.1123V26.6138ZM41.9768 26.6138H43.8414V28.4784H41.9768V26.6138ZM45.7059 26.6138H47.5705V28.4784H45.7059V26.6138ZM4.68577 28.4784H6.55032V30.3429H4.68577V28.4784ZM6.55032 28.4784H8.41487V30.3429H6.55032V28.4784ZM8.41487 28.4784H10.2794V30.3429H8.41487V28.4784ZM14.0085 28.4784H15.8731V30.3429H14.0085V28.4784ZM19.6022 28.4784H21.4667V30.3429H19.6022V28.4784ZM27.0604 28.4784H28.9249V30.3429H27.0604V28.4784ZM28.9249 28.4784H30.7895V30.3429H28.9249V28.4784ZM30.7895 28.4784H32.6541V30.3429H30.7895V28.4784ZM32.6541 28.4784H34.5186V30.3429H32.6541V28.4784ZM34.5186 28.4784H36.3832V30.3429H34.5186V28.4784ZM36.3832 28.4784H38.2477V30.3429H36.3832V28.4784ZM38.2477 28.4784H40.1123V30.3429H38.2477V28.4784ZM40.1123 28.4784H41.9768V30.3429H40.1123V28.4784ZM0.956665 30.3429H2.82122V32.2075H0.956665V30.3429ZM2.82122 30.3429H4.68577V32.2075H2.82122V30.3429ZM4.68577 30.3429H6.55032V32.2075H4.68577V30.3429ZM8.41487 30.3429H10.2794V32.2075H8.41487V30.3429ZM12.144 30.3429H14.0085V32.2075H12.144V30.3429ZM15.8731 30.3429H17.7376V32.2075H15.8731V30.3429ZM21.4667 30.3429H23.3313V32.2075H21.4667V30.3429ZM30.7895 30.3429H32.6541V32.2075H30.7895V30.3429ZM32.6541 30.3429H34.5186V32.2075H32.6541V30.3429ZM34.5186 30.3429H36.3832V32.2075H34.5186V30.3429ZM36.3832 30.3429H38.2477V32.2075H36.3832V30.3429ZM38.2477 30.3429H40.1123V32.2075H38.2477V30.3429ZM43.8414 30.3429H45.7059V32.2075H43.8414V30.3429ZM15.8731 32.2075H17.7376V34.072H15.8731V32.2075ZM17.7376 32.2075H19.6022V34.072H17.7376V32.2075ZM19.6022 32.2075H21.4667V34.072H19.6022V32.2075ZM21.4667 32.2075H23.3313V34.072H21.4667V32.2075ZM25.1958 32.2075H27.0604V34.072H25.1958V32.2075ZM27.0604 32.2075H28.9249V34.072H27.0604V32.2075ZM30.7895 32.2075H32.6541V34.072H30.7895V32.2075ZM38.2477 32.2075H40.1123V34.072H38.2477V32.2075ZM45.7059 32.2075H47.5705V34.072H45.7059V32.2075ZM0.956665 34.072H2.82122V35.9366H0.956665V34.072ZM2.82122 34.072H4.68577V35.9366H2.82122V34.072ZM4.68577 34.072H6.55032V35.9366H4.68577V34.072ZM6.55032 34.072H8.41487V35.9366H6.55032V34.072ZM8.41487 34.072H10.2794V35.9366H8.41487V34.072ZM10.2794 34.072H12.144V35.9366H10.2794V34.072ZM12.144 34.072H14.0085V35.9366H12.144V34.072ZM19.6022 34.072H21.4667V35.9366H19.6022V34.072ZM21.4667 34.072H23.3313V35.9366H21.4667V34.072ZM27.0604 34.072H28.9249V35.9366H27.0604V34.072ZM30.7895 34.072H32.6541V35.9366H30.7895V34.072ZM34.5186 34.072H36.3832V35.9366H34.5186V34.072ZM38.2477 34.072H40.1123V35.9366H38.2477V34.072ZM45.7059 34.072H47.5705V35.9366H45.7059V34.072ZM0.956665 35.9366H2.82122V37.8011H0.956665V35.9366ZM12.144 35.9366H14.0085V37.8011H12.144V35.9366ZM17.7376 35.9366H19.6022V37.8011H17.7376V35.9366ZM19.6022 35.9366H21.4667V37.8011H19.6022V35.9366ZM23.3313 35.9366H25.1958V37.8011H23.3313V35.9366ZM25.1958 35.9366H27.0604V37.8011H25.1958V35.9366ZM30.7895 35.9366H32.6541V37.8011H30.7895V35.9366ZM38.2477 35.9366H40.1123V37.8011H38.2477V35.9366ZM43.8414 35.9366H45.7059V37.8011H43.8414V35.9366ZM0.956665 37.8011H2.82122V39.6657H0.956665V37.8011ZM4.68577 37.8011H6.55032V39.6657H4.68577V37.8011ZM6.55032 37.8011H8.41487V39.6657H6.55032V37.8011ZM8.41487 37.8011H10.2794V39.6657H8.41487V37.8011ZM12.144 37.8011H14.0085V39.6657H12.144V37.8011ZM17.7376 37.8011H19.6022V39.6657H17.7376V37.8011ZM19.6022 37.8011H21.4667V39.6657H19.6022V37.8011ZM27.0604 37.8011H28.9249V39.6657H27.0604V37.8011ZM28.9249 37.8011H30.7895V39.6657H28.9249V37.8011ZM30.7895 37.8011H32.6541V39.6657H30.7895V37.8011ZM32.6541 37.8011H34.5186V39.6657H32.6541V37.8011ZM34.5186 37.8011H36.3832V39.6657H34.5186V37.8011ZM36.3832 37.8011H38.2477V39.6657H36.3832V37.8011ZM38.2477 37.8011H40.1123V39.6657H38.2477V37.8011ZM43.8414 37.8011H45.7059V39.6657H43.8414V37.8011ZM45.7059 37.8011H47.5705V39.6657H45.7059V37.8011ZM0.956665 39.6657H2.82122V41.5302H0.956665V39.6657ZM4.68577 39.6657H6.55032V41.5302H4.68577V39.6657ZM6.55032 39.6657H8.41487V41.5302H6.55032V39.6657ZM8.41487 39.6657H10.2794V41.5302H8.41487V39.6657ZM12.144 39.6657H14.0085V41.5302H12.144V39.6657ZM17.7376 39.6657H19.6022V41.5302H17.7376V39.6657ZM19.6022 39.6657H21.4667V41.5302H19.6022V39.6657ZM21.4667 39.6657H23.3313V41.5302H21.4667V39.6657ZM23.3313 39.6657H25.1958V41.5302H23.3313V39.6657ZM28.9249 39.6657H30.7895V41.5302H28.9249V39.6657ZM32.6541 39.6657H34.5186V41.5302H32.6541V39.6657ZM38.2477 39.6657H40.1123V41.5302H38.2477V39.6657ZM41.9768 39.6657H43.8414V41.5302H41.9768V39.6657ZM43.8414 39.6657H45.7059V41.5302H43.8414V39.6657ZM0.956665 41.5302H2.82122V43.3948H0.956665V41.5302ZM4.68577 41.5302H6.55032V43.3948H4.68577V41.5302ZM6.55032 41.5302H8.41487V43.3948H6.55032V41.5302ZM8.41487 41.5302H10.2794V43.3948H8.41487V41.5302ZM12.144 41.5302H14.0085V43.3948H12.144V41.5302ZM15.8731 41.5302H17.7376V43.3948H15.8731V41.5302ZM25.1958 41.5302H27.0604V43.3948H25.1958V41.5302ZM27.0604 41.5302H28.9249V43.3948H27.0604V41.5302ZM28.9249 41.5302H30.7895V43.3948H28.9249V41.5302ZM30.7895 41.5302H32.6541V43.3948H30.7895V41.5302ZM32.6541 41.5302H34.5186V43.3948H32.6541V41.5302ZM36.3832 41.5302H38.2477V43.3948H36.3832V41.5302ZM38.2477 41.5302H40.1123V43.3948H38.2477V41.5302ZM40.1123 41.5302H41.9768V43.3948H40.1123V41.5302ZM43.8414 41.5302H45.7059V43.3948H43.8414V41.5302ZM45.7059 41.5302H47.5705V43.3948H45.7059V41.5302ZM0.956665 43.3948H2.82122V45.2593H0.956665V43.3948ZM12.144 43.3948H14.0085V45.2593H12.144V43.3948ZM15.8731 43.3948H17.7376V45.2593H15.8731V43.3948ZM17.7376 43.3948H19.6022V45.2593H17.7376V43.3948ZM19.6022 43.3948H21.4667V45.2593H19.6022V43.3948ZM25.1958 43.3948H27.0604V45.2593H25.1958V43.3948ZM30.7895 43.3948H32.6541V45.2593H30.7895V43.3948ZM32.6541 43.3948H34.5186V45.2593H32.6541V43.3948ZM34.5186 43.3948H36.3832V45.2593H34.5186V43.3948ZM36.3832 43.3948H38.2477V45.2593H36.3832V43.3948ZM38.2477 43.3948H40.1123V45.2593H38.2477V43.3948ZM0.956665 45.2593H2.82122V47.1239H0.956665V45.2593ZM2.82122 45.2593H4.68577V47.1239H2.82122V45.2593ZM4.68577 45.2593H6.55032V47.1239H4.68577V45.2593ZM6.55032 45.2593H8.41487V47.1239H6.55032V45.2593ZM8.41487 45.2593H10.2794V47.1239H8.41487V45.2593ZM10.2794 45.2593H12.144V47.1239H10.2794V45.2593ZM12.144 45.2593H14.0085V47.1239H12.144V45.2593ZM19.6022 45.2593H21.4667V47.1239H19.6022V45.2593ZM23.3313 45.2593H25.1958V47.1239H23.3313V45.2593ZM30.7895 45.2593H32.6541V47.1239H30.7895V45.2593ZM34.5186 45.2593H36.3832V47.1239H34.5186V45.2593ZM40.1123 45.2593H41.9768V47.1239H40.1123V45.2593ZM45.7059 45.2593H47.5705V47.1239H45.7059V45.2593Z" fill="black"/>
</svg>
