<svg width="328" height="207" viewBox="0 0 328 207" fill="none" xmlns="http://www.w3.org/2000/svg">
<g clip-path="url(#clip0_612_2267)">
<rect width="328" height="207" fill="white"/>
<rect width="328" height="207" fill="#F5F5FA"/>
<path d="M-460.451 514.241L-440.196 502.594L-207.267 445.881L32.7523 384.61L121.873 365.368L218.59 340.556L251.504 327.39L334.042 298.021L364.424 291.438L437.341 263.082L535.577 230.168L635.838 199.785L811.042 157.757" stroke="#D9D9D9" stroke-width="9.05478"/>
<path d="M334.042 298.021L284.418 33.6964L250.491 -133.405" stroke="#D9D9D9" stroke-width="9.05478"/>
<path d="M-926.311 -335.953L-900.486 -357.727L-463.489 -745.099M-855.925 -231.641L-799.212 -152.647L-637.174 61.0403L-623.502 81.2951M-623.502 81.2951L-599.703 113.196L-531.343 209.406L-522.228 230.168L-460.451 514.241L-436.145 644.884L-425.005 690.964L-411.333 717.801L-236.13 1019.6L-116.12 1222.14L-103.967 1256.07M-623.502 81.2951L-595.652 73.6995L-500.454 50.913L-360.696 20.5308L127.443 -101.504L250.491 -133.405L691.538 -243.794L925.481 -297.469L1056.63 -329.877L1212.59 -370.386M-103.967 1256.07L-234.611 1393.8M-103.967 1256.07L-93.3336 1281.9L-49.2794 1354.31L-23.961 1393.8M-103.967 1256.07L-79.1552 1232.78L-16.3655 1164.42L183.144 972.505L624.191 536.521L678.373 496.518L738.631 442.843L866.236 340.05L1118.41 125.349L1212.59 54.4575M-426.018 1393.8L-514.126 1314.3" stroke="#D9D9D9" stroke-width="9.05478"/>
<path d="M-55.3559 -55.9309L-19.4037 112.69L85.9211 668.177L94.5293 683.874L159.345 892.498L183.144 972.505" stroke="#D9D9D9" stroke-width="9.05478"/>
<path d="M336.067 612.476L173.017 63.0658L127.443 -101.504" stroke="#D9D9D9" stroke-width="9.05478"/>
<path d="M-926.311 258.524L-907.069 245.865M-907.069 245.865L-721.231 425.626L-535.394 596.779L-425.005 690.964M-907.069 245.865L-653.884 89.397L-623.502 81.2951M-740.473 -500.017L-671.101 -405.326M-522.228 230.168L-19.4037 112.69L284.418 33.6964L464.685 -9.85135L571.529 -38.7144L1037.39 -150.622M75.2874 87.8779L121.873 365.368L183.65 658.556M295.558 1393.8L553.806 1331.52L831.296 1263.16L1119.93 1195.31L1212.59 1171M811.548 694.002L746.226 475.757L738.631 442.843M1151.83 1303.16L863.198 1375.07M1180.18 78.7632L1212.59 122.817" stroke="#D9D9D9" stroke-width="9.05478"/>
<path d="M-460.451 514.241L-440.196 502.594L-207.267 445.881L32.7523 384.61L121.873 365.368L218.59 340.556L251.504 327.39L334.042 298.021L364.424 291.438L437.341 263.082L535.577 230.168L635.838 199.785L811.042 157.757" stroke="white" stroke-width="7.05478"/>
<path d="M334.042 298.021L284.418 33.6964L250.491 -133.405" stroke="white" stroke-width="7.05478"/>
<path d="M-926.311 -335.953L-900.486 -357.727L-463.489 -745.099M-855.925 -231.641L-799.212 -152.647L-637.174 61.0403L-623.502 81.2951M-623.502 81.2951L-599.703 113.196L-531.343 209.406L-522.228 230.168L-460.451 514.241L-436.145 644.884L-425.005 690.964L-411.333 717.801L-236.13 1019.6L-116.12 1222.14L-103.967 1256.07M-623.502 81.2951L-595.652 73.6995L-500.454 50.913L-360.696 20.5308L127.443 -101.504L250.491 -133.405L691.538 -243.794L925.481 -297.469L1056.63 -329.877L1212.59 -370.386M-103.967 1256.07L-234.611 1393.8M-103.967 1256.07L-93.3336 1281.9L-49.2794 1354.31L-23.961 1393.8M-103.967 1256.07L-79.1552 1232.78L-16.3655 1164.42L183.144 972.505L624.191 536.521L678.373 496.518L738.631 442.843L866.236 340.05L1118.41 125.349L1212.59 54.4575M-426.018 1393.8L-514.126 1314.3" stroke="white" stroke-width="7.05478"/>
<path d="M-55.3559 -55.9309L-19.4037 112.69L85.9211 668.177L94.5293 683.874L159.345 892.498L183.144 972.505" stroke="white" stroke-width="7.05478"/>
<path d="M336.067 612.476L173.017 63.0658L127.443 -101.504" stroke="white" stroke-width="7.05478"/>
<path d="M-926.311 258.524L-907.069 245.865M-907.069 245.865L-721.231 425.626L-535.394 596.779L-425.005 690.964M-907.069 245.865L-653.884 89.397L-623.502 81.2951M-740.473 -500.017L-671.101 -405.326M-522.228 230.168L-19.4037 112.69L284.418 33.6964L464.685 -9.85135L571.529 -38.7144L1037.39 -150.622M75.2874 87.8779L121.873 365.368L183.65 658.556M295.558 1393.8L553.806 1331.52L831.296 1263.16L1119.93 1195.31L1212.59 1171M811.548 694.002L746.226 475.757L738.631 442.843M1151.83 1303.16L863.198 1375.07M1180.18 78.7632L1212.59 122.817" stroke="white" stroke-width="7.05478"/>
<path d="M207.45 102.056L200.361 74.7123L227.705 76.7378L240.87 90.4097L246.44 90.9161L245.427 86.3588L239.857 85.8524L241.376 66.104L262.138 67.6231L270.24 96.9925H272.771L271.759 110.664L283.405 155.225H287.962L295.558 183.075L293.533 216.496L312.775 288.4L294.545 287.387L293.533 297.515L263.657 295.489L264.669 283.843L257.58 283.336L258.593 267.133L252.517 268.652L244.921 268.145L245.934 254.473L253.023 252.954L215.552 112.69L206.943 112.184L207.45 102.056Z" fill="#DBD9EA"/>
<path d="M-162.2 410.941L-203.722 418.031L-231.066 251.435L-223.47 250.422L-225.496 237.763L-234.611 239.282L-245.244 177.505L-36.1138 143.072L-11.3018 295.489L-7.75717 294.983L-4.71895 314.225L-14.34 315.744L-12.3145 328.91L-1.17438 326.884L6.92754 376.002L-43.203 384.104L-48.2667 352.709L-30.5438 350.177L-32.0629 338.531L-55.3559 342.075L-48.7731 383.091L-57.8877 384.61L-57.3813 390.687L-147.515 405.371L-148.021 402.333L-163.212 404.865L-162.2 410.941Z" fill="#DBD9EA"/>
<path d="M-3.19983 124.336L65.16 114.715L94.5294 328.91L90.4784 329.416L93.5167 350.683L37.3097 358.785L26.6759 280.298L23.6377 280.805L15.5358 221.559L23.1314 220.547L21.6123 210.926L8.95303 212.445L-3.19983 124.336Z" fill="#DBD9EA"/>
<path d="M338.093 -125.81L364.93 -1.24303L342.144 3.82066L314.8 -120.746L338.093 -125.81Z" fill="#DBD9EA"/>
<path d="M110.841 77.2661C110.696 76.8942 110.434 76.6442 110.056 76.5162C109.678 76.3882 109.254 76.3852 108.784 76.5073C108.441 76.5965 108.155 76.7302 107.926 76.9082C107.7 77.0856 107.54 77.2902 107.447 77.522C107.356 77.7531 107.343 77.9924 107.407 78.2398C107.461 78.4468 107.557 78.612 107.694 78.7354C107.833 78.8555 107.993 78.9445 108.176 79.0023C108.357 79.0575 108.542 79.0944 108.73 79.1128C108.917 79.1288 109.088 79.137 109.242 79.1374L110.084 79.1447C110.3 79.1452 110.544 79.16 110.816 79.1891C111.09 79.2175 111.362 79.283 111.631 79.3855C111.902 79.4848 112.144 79.6401 112.358 79.8513C112.572 80.0625 112.726 80.3498 112.821 80.7134C112.93 81.1325 112.919 81.5397 112.787 81.9351C112.658 82.3298 112.41 82.6814 112.042 82.9898C111.678 83.2975 111.197 83.5289 110.602 83.6838C110.046 83.8282 109.542 83.8636 109.089 83.79C108.638 83.7158 108.255 83.5486 107.94 83.2883C107.627 83.0275 107.4 82.6889 107.259 82.2726L108.229 82.0206C108.33 82.3069 108.491 82.5236 108.713 82.6709C108.936 82.8149 109.193 82.8992 109.482 82.9237C109.773 82.945 110.073 82.9156 110.381 82.8355C110.74 82.7423 111.046 82.6006 111.301 82.4103C111.556 82.2174 111.739 81.9946 111.851 81.7417C111.963 81.4863 111.982 81.2173 111.908 80.9345C111.841 80.677 111.715 80.4862 111.529 80.362C111.343 80.2379 111.12 80.1558 110.858 80.1159C110.597 80.076 110.321 80.0536 110.028 80.0487L109.003 80.0242C108.352 80.0075 107.808 79.8836 107.37 79.6523C106.933 79.4211 106.646 79.0441 106.51 78.5216C106.397 78.0873 106.416 77.6781 106.567 77.2939C106.72 76.9066 106.972 76.5714 107.324 76.2885C107.679 76.0023 108.103 75.7949 108.598 75.6663C109.098 75.5363 109.565 75.5104 110.001 75.5886C110.435 75.6642 110.806 75.8265 111.114 76.0754C111.424 76.3237 111.636 76.6418 111.75 77.0299L110.841 77.2661ZM116.538 82.1402C116.17 82.236 115.817 82.2536 115.481 82.1928C115.144 82.1296 114.852 81.9884 114.606 81.7692C114.36 81.5476 114.188 81.2474 114.089 80.8687C114.003 80.5355 113.998 80.2483 114.076 80.0072C114.152 79.7635 114.285 79.5538 114.474 79.378C114.663 79.2022 114.882 79.0509 115.132 78.9239C115.384 78.7937 115.64 78.6759 115.901 78.5703C116.243 78.4329 116.521 78.3244 116.734 78.2445C116.95 78.1615 117.101 78.0779 117.187 77.9935C117.275 77.9086 117.3 77.7941 117.263 77.6502L117.255 77.6199C117.158 77.2463 116.98 76.9826 116.722 76.8287C116.466 76.6742 116.133 76.6505 115.721 76.7574C115.294 76.8684 114.984 77.0488 114.79 77.2986C114.597 77.5484 114.478 77.7922 114.435 78.0298L113.508 77.9474C113.567 77.5546 113.698 77.2269 113.899 76.9644C114.102 76.6986 114.344 76.4876 114.624 76.3312C114.906 76.1716 115.193 76.0538 115.486 75.9777C115.673 75.9291 115.893 75.896 116.147 75.8784C116.403 75.8577 116.663 75.8859 116.925 75.9632C117.191 76.0398 117.435 76.196 117.658 76.4318C117.881 76.6676 118.052 77.0165 118.172 77.4785L119.169 81.3107L118.275 81.5431L118.07 80.7554L118.025 80.7672C117.997 80.9092 117.931 81.0705 117.827 81.2512C117.723 81.4319 117.567 81.6032 117.359 81.7652C117.15 81.9273 116.877 82.0522 116.538 82.1402ZM116.466 81.3019C116.819 81.2101 117.099 81.0632 117.306 80.8613C117.514 80.6588 117.652 80.4316 117.719 80.1798C117.788 79.9274 117.791 79.68 117.728 79.4376L117.515 78.6197C117.489 78.6749 117.417 78.7383 117.298 78.8096C117.181 78.8778 117.042 78.9474 116.883 79.0185C116.725 79.0864 116.571 79.1508 116.42 79.2117C116.27 79.2694 116.149 79.317 116.057 79.3546C115.832 79.4453 115.628 79.551 115.444 79.6716C115.261 79.7891 115.126 79.9309 115.037 80.0968C114.95 80.2596 114.936 80.4546 114.995 80.6818C115.076 80.9923 115.252 81.1973 115.523 81.2966C115.796 81.3927 116.11 81.3945 116.466 81.3019ZM120.784 77.1552L121.694 80.6543L120.8 80.8866L119.288 75.0701L120.151 74.8456L120.387 75.7544L120.463 75.7347C120.523 75.4039 120.668 75.1128 120.899 74.8613C121.13 74.6074 121.464 74.4233 121.904 74.309C122.298 74.2067 122.663 74.1978 123 74.2826C123.337 74.3649 123.63 74.5475 123.879 74.8305C124.127 75.111 124.315 75.4986 124.444 75.9934L125.405 79.6894L124.511 79.9217L123.566 76.2864C123.447 75.8294 123.236 75.5043 122.932 75.311C122.628 75.1152 122.269 75.0712 121.855 75.1788C121.57 75.253 121.331 75.3811 121.138 75.5632C120.948 75.7447 120.82 75.9708 120.753 76.2416C120.686 76.5124 120.696 76.8169 120.784 77.1552ZM128.055 72.7905L128.252 73.5479L125.238 74.3316L125.041 73.5742L128.055 72.7905ZM125.557 71.9523L126.451 71.7199L127.892 77.2638C127.958 77.5163 128.044 77.6961 128.15 77.8033C128.258 77.9073 128.375 77.9657 128.502 77.9784C128.632 77.9879 128.762 77.9756 128.893 77.9415C128.992 77.9159 129.071 77.8899 129.132 77.8634C129.191 77.8343 129.239 77.8111 129.275 77.7937L129.666 78.5492C129.611 78.5877 129.532 78.6324 129.43 78.6834C129.328 78.7368 129.193 78.7852 129.027 78.8285C128.774 78.8942 128.513 78.9042 128.242 78.8587C127.974 78.8125 127.732 78.699 127.515 78.5182C127.301 78.3367 127.149 78.0768 127.062 77.7385L125.557 71.9523ZM132.659 77.9489C132.29 78.0447 131.938 78.0622 131.601 78.0015C131.264 77.9382 130.973 77.797 130.727 77.5779C130.481 77.3562 130.308 77.0561 130.21 76.6774C130.123 76.3441 130.119 76.057 130.196 75.8158C130.273 75.5721 130.406 75.3624 130.594 75.1867C130.783 75.0109 131.003 74.8595 131.253 74.7325C131.504 74.6024 131.761 74.4845 132.022 74.3789C132.363 74.2416 132.641 74.133 132.855 74.0532C133.07 73.9702 133.221 73.8865 133.307 73.8022C133.395 73.7172 133.421 73.6028 133.384 73.4589L133.376 73.4286C133.279 73.055 133.101 72.7912 132.843 72.6374C132.587 72.4829 132.253 72.4591 131.842 72.5661C131.415 72.677 131.105 72.8574 130.911 73.1072C130.717 73.3571 130.599 73.6008 130.555 73.8385L129.628 73.7561C129.688 73.3633 129.818 73.0356 130.019 72.773C130.223 72.5073 130.464 72.2962 130.744 72.1399C131.026 71.9803 131.314 71.8625 131.606 71.7863C131.793 71.7377 132.014 71.7047 132.268 71.6871C132.524 71.6664 132.783 71.6946 133.046 71.7719C133.311 71.8484 133.555 72.0046 133.778 72.2404C134.001 72.4762 134.173 72.8251 134.293 73.2871L135.289 77.1194L134.396 77.3518L134.191 76.5641L134.145 76.5759C134.118 76.7179 134.052 76.8792 133.948 77.0599C133.844 77.2405 133.688 77.4119 133.479 77.5739C133.271 77.7359 132.997 77.8609 132.659 77.9489ZM132.587 77.1106C132.94 77.0187 133.22 76.8718 133.426 76.67C133.635 76.4674 133.773 76.2403 133.839 75.9885C133.908 75.736 133.911 75.4886 133.848 75.2463L133.636 74.4283C133.61 74.4836 133.537 74.5469 133.418 74.6183C133.301 74.6864 133.163 74.7561 133.004 74.8271C132.846 74.8951 132.692 74.9595 132.54 75.0203C132.391 75.0781 132.27 75.1257 132.177 75.1633C131.953 75.2539 131.749 75.3596 131.564 75.4803C131.382 75.5978 131.246 75.7395 131.157 75.9055C131.07 76.0683 131.056 76.2633 131.115 76.4905C131.196 76.801 131.372 77.0059 131.643 77.1052C131.916 77.2014 132.231 77.2032 132.587 77.1106ZM136.905 72.9639L137.814 76.4629L136.921 76.6953L135.408 70.8787L136.272 70.6542L136.508 71.5631L136.584 71.5434C136.643 71.2126 136.789 70.9214 137.02 70.67C137.25 70.416 137.585 70.2319 138.024 70.1177C138.418 70.0153 138.784 70.0065 139.121 70.0913C139.458 70.1735 139.751 70.3562 139.999 70.6392C140.247 70.9196 140.436 71.3073 140.564 71.8021L141.525 75.498L140.632 75.7304L139.686 72.095C139.568 71.6381 139.356 71.313 139.053 71.1197C138.749 70.9239 138.389 70.8798 137.975 70.9875C137.69 71.0616 137.451 71.1898 137.259 71.3719C137.069 71.5534 136.94 71.7795 136.873 72.0503C136.806 72.3211 136.817 72.6256 136.905 72.9639ZM145.386 74.6236C144.902 74.7496 144.442 74.7384 144.007 74.59C143.572 74.4391 143.191 74.1662 142.864 73.7713C142.537 73.3739 142.294 72.8672 142.134 72.2512C141.975 71.6402 141.942 71.0828 142.034 70.579C142.127 70.0751 142.328 69.6522 142.638 69.3102C142.948 68.9682 143.348 68.7335 143.838 68.6061C144.217 68.5077 144.532 68.493 144.785 68.5621C145.039 68.6281 145.245 68.7255 145.402 68.8543C145.562 68.98 145.687 69.0848 145.779 69.1687L145.855 69.149L145.111 66.2862L146.004 66.0538L148.021 73.8092L147.157 74.0337L146.925 73.14L146.819 73.1676C146.781 73.2907 146.722 73.4488 146.643 73.6419C146.563 73.8324 146.427 74.02 146.236 74.2047C146.043 74.3868 145.76 74.5264 145.386 74.6236ZM145.299 73.7892C145.657 73.696 145.936 73.5239 146.135 73.2727C146.333 73.0191 146.453 72.7089 146.495 72.3421C146.537 71.9729 146.5 71.5686 146.386 71.1294C146.273 70.6952 146.111 70.3316 145.9 70.0388C145.689 69.7434 145.436 69.537 145.141 69.4195C144.846 69.2996 144.516 69.2869 144.153 69.3814C143.774 69.4798 143.484 69.6591 143.282 69.9191C143.082 70.176 142.962 70.4861 142.921 70.8497C142.883 71.21 142.917 71.5947 143.023 72.0037C143.131 72.4177 143.292 72.7775 143.506 73.0829C143.722 73.3852 143.981 73.6036 144.283 73.7381C144.586 73.8693 144.925 73.8864 145.299 73.7892ZM152.252 72.8385C151.691 72.9842 151.176 72.9862 150.705 72.8445C150.236 72.6996 149.834 72.4323 149.498 72.0425C149.164 71.6496 148.92 71.1553 148.765 70.5595C148.61 69.9637 148.582 69.4103 148.681 68.8995C148.782 68.3854 148.994 67.95 149.319 67.5933C149.646 67.2334 150.072 66.9852 150.597 66.8487C150.9 66.7699 151.213 66.7426 151.534 66.7668C151.856 66.791 152.167 66.8852 152.469 67.0494C152.77 67.211 153.04 67.4587 153.281 67.7924C153.521 68.1261 153.712 68.5644 153.853 69.1071L153.951 69.4858L149.468 70.6516L149.267 69.879L152.842 68.9496C152.756 68.6214 152.615 68.3456 152.416 68.1223C152.221 67.8982 151.984 67.7429 151.705 67.6563C151.429 67.5691 151.129 67.5675 150.806 67.6515C150.45 67.744 150.165 67.9125 149.951 68.1568C149.739 68.3979 149.6 68.6767 149.534 68.993C149.468 69.3093 149.476 69.6278 149.56 69.9484L149.694 70.4634C149.808 70.9027 149.981 71.2554 150.211 71.5215C150.444 71.7844 150.718 71.9599 151.032 72.0481C151.345 72.1337 151.682 72.1296 152.043 72.0357C152.278 71.9747 152.481 71.8867 152.654 71.7719C152.828 71.6538 152.967 71.5098 153.071 71.3399C153.174 71.1675 153.238 70.9705 153.261 70.7488L154.187 70.7667C154.173 71.0832 154.087 71.3804 153.93 71.6583C153.773 71.9338 153.552 72.1743 153.269 72.3801C152.985 72.5833 152.646 72.7361 152.252 72.8385ZM155.988 71.7377L154.476 65.9211L155.339 65.6966L155.568 66.5752L155.628 66.5594C155.66 66.2441 155.791 65.9607 156.022 65.7092C156.253 65.4578 156.543 65.2867 156.891 65.1962C156.957 65.1791 157.039 65.159 157.138 65.136C157.237 65.1129 157.313 65.0973 157.365 65.0892L157.601 65.9981C157.569 65.9984 157.496 66.0051 157.384 66.0181C157.273 66.028 157.158 66.0484 157.04 66.0793C156.757 66.1528 156.52 66.2777 156.329 66.4542C156.139 66.6274 156.007 66.8343 155.932 67.0747C155.859 67.312 155.857 67.562 155.925 67.8245L156.882 71.5053L155.988 71.7377Z" fill="#37474F"/>
<path d="M301.116 147.026L308.991 145.548L309.878 150.27L309.032 150.429L308.324 146.66L305.663 147.16L306.304 150.575L305.458 150.734L304.817 147.319L301.295 147.98L301.116 147.026ZM302.474 155.023C302.403 154.649 302.41 154.296 302.494 153.964C302.58 153.632 302.741 153.351 302.977 153.121C303.215 152.891 303.526 152.74 303.91 152.667C304.249 152.604 304.536 152.619 304.771 152.713C305.009 152.806 305.209 152.953 305.371 153.153C305.534 153.354 305.67 153.583 305.779 153.841C305.892 154.102 305.992 154.365 306.079 154.633C306.192 154.983 306.282 155.268 306.347 155.486C306.415 155.707 306.488 155.863 306.566 155.955C306.645 156.049 306.757 156.082 306.903 156.055L306.934 156.049C307.313 155.978 307.589 155.819 307.76 155.571C307.932 155.327 307.978 154.996 307.9 154.578C307.819 154.144 307.66 153.823 307.424 153.612C307.188 153.402 306.953 153.267 306.719 153.207L306.865 152.288C307.253 152.374 307.571 152.527 307.819 152.746C308.07 152.967 308.264 153.222 308.401 153.512C308.54 153.805 308.638 154.099 308.694 154.397C308.73 154.587 308.747 154.809 308.747 155.064C308.751 155.32 308.705 155.577 308.609 155.834C308.515 156.093 308.342 156.326 308.092 156.532C307.841 156.739 307.481 156.886 307.012 156.974L303.12 157.704L302.95 156.797L303.75 156.647L303.741 156.601C303.601 156.563 303.445 156.486 303.272 156.37C303.099 156.254 302.939 156.086 302.791 155.867C302.644 155.648 302.538 155.367 302.474 155.023ZM303.315 155.009C303.382 155.367 303.51 155.657 303.697 155.876C303.884 156.099 304.102 156.252 304.348 156.335C304.595 156.422 304.842 156.442 305.088 156.396L305.919 156.24C305.865 156.21 305.807 156.133 305.744 156.01C305.684 155.888 305.624 155.745 305.564 155.582C305.507 155.42 305.454 155.261 305.403 155.106C305.356 154.953 305.317 154.829 305.286 154.734C305.211 154.504 305.119 154.293 305.012 154.101C304.907 153.911 304.775 153.766 304.615 153.666C304.459 153.568 304.265 153.54 304.035 153.584C303.719 153.643 303.503 153.804 303.385 154.068C303.27 154.333 303.247 154.647 303.315 155.009ZM303.431 159.361L309.338 158.252L309.503 159.129L308.611 159.296L308.622 159.358C308.935 159.411 309.208 159.561 309.443 159.809C309.678 160.057 309.829 160.357 309.895 160.711C309.908 160.778 309.922 160.861 309.938 160.962C309.955 161.062 309.965 161.139 309.969 161.191L309.047 161.364C309.048 161.332 309.047 161.259 309.041 161.146C309.039 161.035 309.027 160.919 309.004 160.799C308.95 160.512 308.842 160.267 308.679 160.064C308.519 159.863 308.322 159.717 308.087 159.625C307.855 159.536 307.606 159.517 307.34 159.567L303.602 160.268L303.431 159.361ZM304.376 165.154C304.305 164.78 304.312 164.427 304.396 164.096C304.482 163.763 304.643 163.482 304.879 163.252C305.117 163.022 305.428 162.871 305.812 162.798C306.151 162.735 306.438 162.75 306.673 162.844C306.911 162.937 307.111 163.084 307.273 163.285C307.436 163.485 307.572 163.714 307.681 163.972C307.794 164.233 307.894 164.497 307.981 164.764C308.094 165.114 308.184 165.399 308.249 165.618C308.317 165.838 308.39 165.994 308.468 166.086C308.547 166.18 308.659 166.213 308.805 166.186L308.836 166.18C309.215 166.109 309.491 165.95 309.662 165.703C309.834 165.458 309.88 165.127 309.802 164.709C309.721 164.276 309.562 163.954 309.326 163.743C309.09 163.533 308.855 163.398 308.621 163.338L308.767 162.419C309.155 162.505 309.473 162.658 309.721 162.877C309.972 163.098 310.166 163.353 310.303 163.643C310.442 163.936 310.54 164.231 310.596 164.528C310.632 164.718 310.649 164.94 310.649 165.195C310.653 165.452 310.607 165.708 310.511 165.965C310.417 166.224 310.244 166.457 309.994 166.663C309.743 166.87 309.383 167.017 308.914 167.105L305.022 167.836L304.852 166.928L305.652 166.778L305.643 166.732C305.503 166.694 305.347 166.617 305.174 166.501C305.001 166.385 304.841 166.218 304.693 165.998C304.546 165.779 304.44 165.498 304.376 165.154ZM305.217 165.14C305.284 165.499 305.412 165.788 305.599 166.008C305.786 166.23 306.004 166.383 306.25 166.466C306.497 166.553 306.744 166.573 306.99 166.527L307.821 166.371C307.767 166.341 307.709 166.264 307.646 166.141C307.586 166.019 307.526 165.877 307.466 165.713C307.409 165.551 307.356 165.392 307.305 165.237C307.258 165.084 307.219 164.96 307.188 164.865C307.113 164.635 307.021 164.424 306.914 164.232C306.809 164.042 306.677 163.897 306.517 163.797C306.361 163.699 306.167 163.671 305.937 163.715C305.621 163.774 305.405 163.935 305.287 164.199C305.172 164.465 305.149 164.778 305.217 165.14ZM305.629 171.746C305.537 171.253 305.579 170.795 305.757 170.372C305.938 169.948 306.236 169.587 306.653 169.288C307.072 168.989 307.594 168.781 308.219 168.664C308.84 168.547 309.398 168.552 309.894 168.68C310.391 168.807 310.799 169.037 311.119 169.369C311.439 169.702 311.645 170.117 311.739 170.614C311.811 170.999 311.804 171.315 311.717 171.562C311.634 171.811 311.523 172.01 311.384 172.158C311.247 172.308 311.134 172.427 311.044 172.512L311.058 172.589L313.966 172.044L314.136 172.951L306.26 174.43L306.096 173.553L307.003 173.383L306.983 173.275C306.863 173.228 306.709 173.159 306.522 173.067C306.337 172.974 306.16 172.826 305.989 172.622C305.82 172.417 305.7 172.125 305.629 171.746ZM306.467 171.716C306.536 172.08 306.688 172.369 306.925 172.585C307.165 172.8 307.466 172.941 307.829 173.009C308.194 173.075 308.6 173.067 309.046 172.983C309.487 172.9 309.861 172.764 310.168 172.574C310.477 172.383 310.7 172.144 310.838 171.859C310.978 171.572 311.013 171.244 310.944 170.875C310.871 170.491 310.713 170.189 310.467 169.969C310.225 169.752 309.923 169.611 309.563 169.546C309.207 169.483 308.82 169.49 308.405 169.568C307.985 169.647 307.615 169.783 307.295 169.976C306.979 170.17 306.743 170.414 306.588 170.706C306.436 170.999 306.396 171.336 306.467 171.716ZM306.784 177.982C306.714 177.608 306.72 177.255 306.804 176.923C306.89 176.591 307.051 176.31 307.287 176.08C307.525 175.85 307.836 175.698 308.221 175.626C308.559 175.563 308.846 175.578 309.081 175.672C309.319 175.765 309.519 175.912 309.681 176.112C309.844 176.313 309.98 176.542 310.089 176.8C310.202 177.06 310.302 177.324 310.389 177.592C310.503 177.942 310.592 178.227 310.657 178.445C310.725 178.666 310.798 178.822 310.876 178.914C310.955 179.008 311.067 179.041 311.213 179.014L311.244 179.008C311.624 178.937 311.899 178.777 312.07 178.53C312.242 178.286 312.289 177.955 312.21 177.537C312.129 177.103 311.97 176.782 311.734 176.571C311.498 176.361 311.263 176.225 311.029 176.166L311.175 175.247C311.563 175.333 311.881 175.486 312.129 175.705C312.38 175.926 312.574 176.181 312.711 176.471C312.851 176.764 312.948 177.058 313.004 177.356C313.04 177.545 313.058 177.768 313.058 178.022C313.061 178.279 313.015 178.536 312.92 178.793C312.825 179.052 312.652 179.285 312.402 179.491C312.151 179.697 311.791 179.845 311.322 179.933L307.431 180.663L307.26 179.756L308.06 179.606L308.051 179.56C307.912 179.522 307.755 179.445 307.582 179.329C307.409 179.213 307.249 179.045 307.102 178.826C306.954 178.607 306.848 178.326 306.784 177.982ZM307.625 177.967C307.693 178.326 307.82 178.616 308.007 178.835C308.195 179.058 308.412 179.211 308.659 179.294C308.906 179.381 309.152 179.401 309.398 179.354L310.229 179.198C310.176 179.169 310.117 179.092 310.054 178.968C309.995 178.847 309.935 178.704 309.875 178.54C309.818 178.379 309.764 178.22 309.714 178.065C309.666 177.912 309.627 177.788 309.596 177.693C309.521 177.463 309.43 177.252 309.322 177.06C309.217 176.87 309.085 176.725 308.926 176.625C308.769 176.527 308.576 176.499 308.345 176.542C308.03 176.602 307.813 176.763 307.695 177.027C307.581 177.292 307.557 177.606 307.625 177.967ZM305.597 183.109C305.568 182.955 305.555 182.815 305.558 182.69C305.558 182.565 305.566 182.478 305.58 182.427L306.423 182.508C306.408 182.739 306.424 182.937 306.472 183.104C306.519 183.27 306.622 183.406 306.783 183.511C306.941 183.619 307.181 183.7 307.501 183.754L307.995 183.837L313.522 180.538L313.707 181.522L309.306 184.037L309.318 184.098L314.331 184.845L314.515 185.829L307.277 184.593C306.95 184.537 306.672 184.445 306.44 184.316C306.206 184.187 306.02 184.022 305.881 183.82C305.743 183.62 305.648 183.383 305.597 183.109Z" fill="#37474F"/>
<circle opacity="0.5" cx="164.5" cy="100.5" r="50.5" fill="#4BE6D0"/>
<path d="M158.193 114.896L158.193 114.896C159.768 116.412 161.784 117.167 163.8 117.167C165.817 117.167 167.83 116.411 169.386 114.899L169.39 114.896C174.102 110.365 179.018 103.444 177.191 95.3878C175.569 88.25 169.352 85 163.8 85H163.8H163.8H163.8H163.8H163.8H163.8H163.8H163.8H163.8H163.8H163.8H163.8H163.8H163.8H163.8H163.8H163.8H163.8H163.8H163.8H163.8H163.8H163.8H163.8H163.8H163.8H163.8H163.8H163.8H163.8H163.8H163.8H163.8H163.8H163.8H163.8H163.8H163.8H163.8H163.8H163.8H163.8H163.8H163.8H163.8H163.799H163.799H163.799H163.799H163.799H163.799H163.799H163.799H163.799H163.799H163.799H163.799H163.799H163.799H163.799H163.799H163.799H163.799H163.799H163.799H163.799H163.799H163.799H163.799H163.799H163.799H163.799H163.799H163.799H163.799H163.799H163.799H163.799H163.799H163.799H163.799H163.799H163.799H163.799H163.799H163.799H163.799H163.799H163.799H163.799H163.799H163.799H163.799H163.799H163.799H163.799H163.799H163.799H163.799H163.799H163.799H163.799H163.799H163.799H163.799H163.799H163.799H163.799H163.799H163.799H163.799H163.799H163.799H163.799H163.799H163.799H163.799H163.799H163.799H163.798H163.798H163.798H163.798H163.798H163.798H163.798H163.798H163.798H163.798H163.798H163.798H163.798H163.798H163.798H163.798H163.798H163.798H163.798H163.798H163.798H163.798H163.798H163.798H163.798H163.798H163.798H163.798H163.798H163.798H163.798H163.798H163.798H163.798H163.798H163.798H163.798H163.798H163.798H163.798H163.798H163.798H163.798H163.798H163.797H163.797H163.797H163.797H163.797H163.797H163.797H163.797H163.797H163.797H163.797H163.797H163.797H163.797H163.797H163.797H163.797H163.797H163.797H163.797H163.797H163.797H163.797H163.797H163.797H163.797H163.797H163.797H163.797H163.797H163.797H163.797H163.797H163.796H163.796H163.796H163.796H163.796H163.796H163.796H163.796H163.796H163.796H163.796H163.796H163.796H163.796H163.796H163.796H163.796H163.796H163.796H163.796H163.796H163.796H163.796H163.796H163.796H163.796H163.796H163.795H163.795H163.795H163.795H163.795H163.795H163.795H163.795H163.795H163.795H163.795H163.795H163.795H163.795H163.795H163.795H163.795H163.795H163.795H163.795H163.795H163.795H163.795H163.794H163.794H163.794H163.794H163.794H163.794H163.794H163.794H163.794H163.794H163.794H163.794H163.794H163.794H163.794H163.794H163.794H163.794H163.794H163.794H163.793H163.793H163.793H163.793H163.793H163.793H163.793H163.793H163.793H163.793H163.793H163.793H163.793H163.793H163.793H163.793H163.793H163.793H163.793H163.792H163.792H163.792H163.792H163.792H163.792H163.792H163.792H163.792H163.792H163.792H163.792H163.792H163.792H163.792H163.792H163.791H163.791H163.791H163.791H163.791H163.791H163.791H163.791H163.791H163.791H163.791H163.791H163.791H163.791H163.791H163.791H163.79H163.79H163.79H163.79H163.79H163.79H163.79H163.79H163.79H163.79H163.79H163.79H163.79H163.79H163.789H163.789H163.789H163.789H163.789H163.789H163.789H163.789H163.789H163.789H163.789H163.789H163.789H163.789H163.788H163.788H163.788H163.788H163.788H163.788H163.788H163.788H163.788H163.788H163.788H163.788H163.788H163.787H163.787H163.787H163.787H163.787H163.787H163.787H163.787H163.787H163.787H163.787H163.787H163.786H163.786H163.786H163.786H163.786H163.786H163.786H163.786H163.786H163.786H163.786H163.786H163.785H163.785H163.785H163.785H163.785H163.785H163.785H163.785H163.785H163.785H163.785H163.784H163.784H163.784H163.784H163.784H163.784H163.784H163.784H163.784H163.784H163.783H163.783H163.783C158.245 85 152.014 88.2355 150.392 95.3711L158.193 114.896ZM158.193 114.896C153.482 110.366 148.565 103.428 150.392 95.3716L158.193 114.896Z" fill="#F5F5FA" stroke="#9087CA" stroke-width="2"/>
<g clip-path="url(#clip1_612_2267)">
<path d="M161.402 93.5352C160.894 93.6758 160.505 94.1188 160.35 94.7352C160.28 95.0164 160.277 95.5836 160.348 95.9141C160.514 96.6945 161.03 97.3367 161.599 97.4727C162.347 97.6485 162.996 97.1281 163.242 96.1555C163.289 95.9774 163.296 95.8883 163.294 95.5039C163.294 95.0188 163.275 94.8969 163.144 94.5617C163.055 94.3297 162.916 94.1188 162.715 93.9078C162.541 93.7227 162.33 93.5961 162.098 93.5352C161.932 93.493 161.559 93.493 161.402 93.5352Z" fill="#4BE6D0"/>
<path d="M165.494 93.5352C164.965 93.6781 164.496 94.2406 164.344 94.9156C164.318 95.0352 164.306 95.2063 164.306 95.5156C164.306 95.8883 164.313 95.9797 164.358 96.1555C164.531 96.8516 164.932 97.3414 165.429 97.4727C165.846 97.5805 166.282 97.4492 166.612 97.1117C166.959 96.7602 167.182 96.3266 167.271 95.8203C167.32 95.5344 167.311 94.9813 167.25 94.7352C167.095 94.1164 166.704 93.6711 166.188 93.5352C166.029 93.4906 165.654 93.493 165.494 93.5352Z" fill="#4BE6D0"/>
<path d="M158.773 96.5422C158.409 96.6687 158.121 96.9664 157.948 97.3953C157.755 97.8711 157.748 98.7148 157.931 99.2633C158.053 99.6242 158.341 100.084 158.557 100.259C158.866 100.51 159.274 100.576 159.593 100.426C159.769 100.344 160.05 100.065 160.174 99.8516C160.294 99.6453 160.397 99.3687 160.455 99.1016C160.495 98.9234 160.505 98.7992 160.505 98.4805C160.505 98.2531 160.491 98.0211 160.474 97.9414C160.324 97.2172 159.905 96.6641 159.408 96.5328C159.239 96.4883 158.918 96.493 158.773 96.5422Z" fill="#4BE6D0"/>
<path d="M168.061 96.554C167.862 96.6219 167.676 96.7508 167.543 96.9055C167.208 97.304 167.058 97.6813 167.008 98.2438C166.957 98.8555 167.048 99.4063 167.278 99.8399C167.381 100.037 167.639 100.302 167.81 100.388C168.178 100.571 168.619 100.538 168.958 100.302C169.254 100.095 169.598 99.5352 169.72 99.0665C169.802 98.7501 169.826 98.1219 169.767 97.8055C169.659 97.2313 169.366 96.8094 168.937 96.6008C168.766 96.5165 168.743 96.5118 168.487 96.5047C168.253 96.5001 168.197 96.5071 168.061 96.554Z" fill="#4BE6D0"/>
<path d="M163.383 98.525C162.035 98.7829 160.619 100.081 160.062 101.574C159.858 102.118 159.778 102.608 159.799 103.184C159.815 103.681 159.893 104.012 160.076 104.375C160.35 104.923 160.819 105.31 161.383 105.456C161.632 105.519 162.152 105.519 162.408 105.453C162.623 105.399 162.787 105.336 163.008 105.226C163.352 105.052 163.673 104.987 163.983 105.031C164.215 105.062 164.344 105.104 164.632 105.242C165.037 105.434 165.319 105.5 165.757 105.5C166.085 105.5 166.258 105.474 166.472 105.39C167.079 105.148 167.517 104.607 167.705 103.866C167.927 102.99 167.791 102.01 167.325 101.091C166.704 99.8704 165.537 98.8625 164.409 98.5696C164.13 98.4969 163.645 98.4758 163.383 98.525Z" fill="#4FDBD1"/>
<g clip-path="url(#clip2_612_2267)">
<path d="M161.657 101.629C161.657 102.671 162.518 103.227 163.149 103.724C163.371 103.899 163.586 104.064 163.8 104.064C164.014 104.064 164.229 103.899 164.451 103.724C165.082 103.227 165.943 102.671 165.943 101.629C165.943 100.587 164.764 99.8482 163.8 100.85C162.836 99.8482 161.657 100.587 161.657 101.629Z" fill="#4D4295"/>
</g>
</g>
</g>
<defs>
<clipPath id="clip0_612_2267">
<rect width="328" height="207" fill="white"/>
</clipPath>
<clipPath id="clip1_612_2267">
<rect width="12" height="12" fill="white" transform="translate(157.8 93.5)"/>
</clipPath>
<clipPath id="clip2_612_2267">
<rect width="5.14286" height="5.14286" fill="white" transform="translate(161.229 99.6714)"/>
</clipPath>
</defs>
</svg>
