<svg width="90" height="80" viewBox="0 0 90 80" fill="none" xmlns="http://www.w3.org/2000/svg">
<rect x="0.5" y="0.5" width="89" height="79" rx="11.5" fill="#F5F5FA" stroke="#4D4295"/>
<path d="M17.8591 56.062C17.1763 57.1764 17.0272 58.5261 16.5014 59.719C15.7167 61.5082 14.0765 62.858 13.2996 64.6394C12.8368 65.8302 12.7389 67.1318 13.0184 68.3784C13.298 69.625 13.9422 70.7602 14.8691 71.6394C15.8189 72.4937 16.9737 73.0873 18.2211 73.3624C19.4686 73.6375 20.766 73.5846 21.9869 73.209C23.6898 72.6832 25.2436 71.8042 26.9466 71.2706C28.5161 70.7997 30.0856 70.7997 31.5845 70.0385C32.9813 69.3659 34.0799 68.2003 34.6686 66.7661C35.0201 65.8969 35.0941 64.9402 34.8805 64.0273C34.5587 62.4578 33.8446 60.3075 32.5262 59.3187C31.2078 58.3299 29.8345 58.2044 28.469 57.6629C27.1035 57.1214 25.8793 56.0149 24.5923 55.1831C22.4028 53.7313 19.4286 53.5743 17.8591 56.062Z" fill="#DBD9EA"/>
<path d="M12.7817 60.5587C12.9525 60.1322 13.0839 59.6909 13.1741 59.2403C13.3247 58.6599 13.3032 58.0481 13.1123 57.4796C12.9214 56.9112 12.5694 56.4104 12.099 56.0385C11.2881 55.3091 10.3594 54.7227 9.35231 54.3042C8.61208 53.94 7.81649 53.7013 6.99803 53.5979C6.73079 53.5629 6.45911 53.5877 6.20262 53.6705C5.94613 53.7533 5.71122 53.892 5.51484 54.0766C5.28255 54.387 5.12313 54.7456 5.04841 55.126C4.97369 55.5064 4.98559 55.8988 5.08322 56.2739C5.24829 57.4554 5.60898 58.6011 6.15049 59.6641C6.56084 60.5521 7.18014 61.3276 7.95544 61.9242C8.34474 62.2179 8.7957 62.4192 9.27425 62.513C9.7528 62.6068 10.2464 62.5906 10.7178 62.4657C11.5601 62.1801 12.2582 61.5778 12.664 60.7863C12.708 60.713 12.7473 60.637 12.7817 60.5587Z" fill="#DBD9EA"/>
<path d="M9.32097 48.9521C8.70102 47.1786 8.65393 45.2637 10.0586 43.8983C11.6988 42.3288 14.1629 43.7963 15.3244 45.2324C16.6705 46.78 17.4508 48.7391 17.5374 50.7884C17.4746 53.3703 15.1831 54.4376 12.9701 53.4174C11.2168 52.4632 9.90693 50.8603 9.32097 48.9521Z" fill="#DBD9EA"/>
<path d="M30.2661 55.0653C29.8599 54.8372 29.4739 54.5747 29.1125 54.2806C28.6312 53.9278 28.2604 53.4452 28.0436 52.8892C27.8268 52.3333 27.7729 51.727 27.8883 51.1415C28.0257 50.0607 28.3497 49.0118 28.8457 48.0418C29.182 47.2924 29.6349 46.601 30.1877 45.9935C30.3723 45.7963 30.5981 45.642 30.849 45.5417C31.0998 45.4413 31.3697 45.3973 31.6395 45.4128C32.0166 45.5013 32.3691 45.6734 32.6706 45.9166C32.9722 46.1598 33.2152 46.4677 33.3816 46.8175C34.0084 47.8332 34.4669 48.9436 34.7392 50.1057C34.9912 51.0494 35.0127 52.0398 34.802 52.9936C34.6908 53.4687 34.4735 53.9125 34.1663 54.2917C33.8592 54.6709 33.4702 54.9756 33.0285 55.183C32.2021 55.5124 31.2809 55.5124 30.4545 55.183L30.2661 55.0653Z" fill="#DBD9EA"/>
<path d="M25.8322 43.3725C25.1573 41.6146 23.9487 40.1314 21.9947 40.0059C19.7111 39.8568 18.8007 42.5799 18.8557 44.4319C18.8323 46.4819 19.5045 48.4792 20.7626 50.0979C22.4891 52.0205 24.914 51.3535 25.9499 49.1405C26.6614 47.2755 26.6192 45.2068 25.8322 43.3725Z" fill="#DBD9EA"/>
<path d="M42.9988 40C39.5282 39.9997 36.165 38.7959 33.4825 36.5938C30.8 34.3917 28.9641 31.3275 28.2877 27.9235C27.6113 24.5194 28.1362 20.9861 29.773 17.9257C31.4098 14.8653 34.0571 12.4672 37.264 11.1401C40.4708 9.8129 44.0386 9.6388 47.3594 10.6475C50.6802 11.6561 53.5485 13.7851 55.4755 16.6716C57.4024 19.5581 58.2689 23.0235 57.9271 26.4773C57.5853 29.931 56.0564 33.1593 53.601 35.6121C52.2118 37.0083 50.5594 38.1151 48.7395 38.8683C46.9196 39.6214 44.9684 40.0061 42.9988 40ZM42.9988 13.9808C41.1882 13.9854 39.4067 14.4357 37.8114 15.2918C36.2161 16.148 34.8561 17.3837 33.8514 18.89C32.8468 20.3962 32.2284 22.1266 32.0509 23.9284C31.8733 25.7302 32.1421 27.548 32.8335 29.2213C33.5248 30.8947 34.6175 32.3721 36.015 33.5231C37.4126 34.6742 39.072 35.4635 40.8468 35.8214C42.6216 36.1792 44.4572 36.0947 46.1916 35.5751C47.926 35.0556 49.5058 34.1171 50.7916 32.8424C52.857 30.7729 54.0169 27.9685 54.0169 25.0447C54.0169 22.1208 52.857 19.3164 50.7916 17.2468C49.7748 16.2121 48.5619 15.3903 47.2239 14.8295C45.8859 14.2688 44.4495 13.9802 42.9988 13.9808Z" fill="#7E57C2"/>
<path d="M42.9987 53.8583C42.4722 53.8583 41.9672 53.6491 41.5948 53.2768C41.2225 52.9045 41.0133 52.3995 41.0133 51.8729V37.9748C41.0133 37.4482 41.2225 36.9432 41.5948 36.5709C41.9672 36.1986 42.4722 35.9894 42.9987 35.9894C43.5253 35.9894 44.0303 36.1986 44.4027 36.5709C44.775 36.9432 44.9842 37.4482 44.9842 37.9748V51.8729C44.9842 52.3995 44.775 52.9045 44.4027 53.2768C44.0303 53.6491 43.5253 53.8583 42.9987 53.8583Z" fill="#7E57C2"/>
<path d="M47.9821 48.8748H38.055C37.5284 48.8748 37.0234 48.6656 36.651 48.2933C36.2787 47.9209 36.0695 47.4159 36.0695 46.8894C36.0695 46.3628 36.2787 45.8578 36.651 45.4855C37.0234 45.1131 37.5284 44.9039 38.055 44.9039H47.9821C48.5087 44.9039 49.0137 45.1131 49.3861 45.4855C49.7584 45.8578 49.9676 46.3628 49.9676 46.8894C49.9676 47.4159 49.7584 47.9209 49.3861 48.2933C49.0137 48.6656 48.5087 48.8748 47.9821 48.8748Z" fill="#7E57C2"/>
<path d="M27.408 58.969V69H26.05V64.436H20.639V69H19.281V58.969H20.639V63.442H26.05V58.969H27.408ZM34.2057 64.681C34.2057 64.3917 34.1637 64.128 34.0797 63.89C34.0003 63.6473 33.8813 63.4397 33.7227 63.267C33.5687 63.0897 33.3797 62.9543 33.1557 62.861C32.9317 62.763 32.6773 62.714 32.3927 62.714C31.7953 62.714 31.3217 62.889 30.9717 63.239C30.6263 63.5843 30.4117 64.065 30.3277 64.681H34.2057ZM35.2137 68.006C35.0597 68.1927 34.8753 68.356 34.6607 68.496C34.446 68.6313 34.215 68.7433 33.9677 68.832C33.725 68.9207 33.473 68.986 33.2117 69.028C32.9503 69.0747 32.6913 69.098 32.4347 69.098C31.9447 69.098 31.492 69.0163 31.0767 68.853C30.666 68.685 30.309 68.4423 30.0057 68.125C29.707 67.803 29.4737 67.4063 29.3057 66.935C29.1377 66.4637 29.0537 65.9223 29.0537 65.311C29.0537 64.8163 29.1283 64.3543 29.2777 63.925C29.4317 63.4957 29.651 63.1247 29.9357 62.812C30.2203 62.4947 30.568 62.2473 30.9787 62.07C31.3893 61.888 31.8513 61.797 32.3647 61.797C32.7893 61.797 33.1813 61.8693 33.5407 62.014C33.9047 62.154 34.2173 62.3593 34.4787 62.63C34.7447 62.896 34.9523 63.2273 35.1017 63.624C35.251 64.016 35.3257 64.464 35.3257 64.968C35.3257 65.164 35.3047 65.2947 35.2627 65.36C35.2207 65.4253 35.1413 65.458 35.0247 65.458H30.2857C30.2997 65.906 30.3603 66.2957 30.4677 66.627C30.5797 66.9583 30.7337 67.236 30.9297 67.46C31.1257 67.6793 31.359 67.845 31.6297 67.957C31.9003 68.0643 32.2037 68.118 32.5397 68.118C32.8523 68.118 33.1207 68.083 33.3447 68.013C33.5733 67.9383 33.7693 67.859 33.9327 67.775C34.096 67.691 34.2313 67.614 34.3387 67.544C34.4507 67.4693 34.5463 67.432 34.6257 67.432C34.7283 67.432 34.8077 67.4717 34.8637 67.551L35.2137 68.006ZM36.8561 69V61.909H37.6051C37.7825 61.909 37.8921 61.9953 37.9341 62.168L38.0251 62.896C38.2865 62.574 38.5805 62.3103 38.9071 62.105C39.2338 61.8997 39.6118 61.797 40.0411 61.797C40.5171 61.797 40.9021 61.93 41.1961 62.196C41.4948 62.462 41.7095 62.8213 41.8401 63.274C41.9428 63.0173 42.0735 62.7957 42.2321 62.609C42.3955 62.4223 42.5775 62.2683 42.7781 62.147C42.9788 62.0257 43.1911 61.937 43.4151 61.881C43.6438 61.825 43.8748 61.797 44.1081 61.797C44.4815 61.797 44.8128 61.8577 45.1021 61.979C45.3961 62.0957 45.6435 62.2683 45.8441 62.497C46.0495 62.7257 46.2058 63.008 46.3131 63.344C46.4205 63.6753 46.4741 64.0557 46.4741 64.485V69H45.2211V64.485C45.2211 63.9297 45.0998 63.5097 44.8571 63.225C44.6145 62.9357 44.2645 62.791 43.8071 62.791C43.6018 62.791 43.4058 62.8283 43.2191 62.903C43.0371 62.973 42.8761 63.078 42.7361 63.218C42.5961 63.358 42.4841 63.5353 42.4001 63.75C42.3208 63.96 42.2811 64.205 42.2811 64.485V69H41.0281V64.485C41.0281 63.9157 40.9138 63.491 40.6851 63.211C40.4565 62.931 40.1228 62.791 39.6841 62.791C39.3761 62.791 39.0915 62.875 38.8301 63.043C38.5688 63.2063 38.3285 63.4303 38.1091 63.715V69H36.8561ZM49.6209 67.292C49.8495 67.6 50.0992 67.817 50.3699 67.943C50.6452 68.069 50.9462 68.132 51.2729 68.132C51.9402 68.132 52.4512 67.8963 52.8059 67.425C53.1605 66.9537 53.3379 66.2513 53.3379 65.318C53.3379 64.45 53.1792 63.813 52.8619 63.407C52.5492 62.9963 52.1012 62.791 51.5179 62.791C51.1119 62.791 50.7572 62.8843 50.4539 63.071C50.1552 63.2577 49.8775 63.5213 49.6209 63.862V67.292ZM49.6209 62.931C49.9195 62.5857 50.2555 62.3103 50.6289 62.105C51.0069 61.8997 51.4409 61.797 51.9309 61.797C52.3462 61.797 52.7195 61.8763 53.0509 62.035C53.3869 62.1937 53.6715 62.4247 53.9049 62.728C54.1382 63.0267 54.3155 63.3907 54.4369 63.82C54.5629 64.2493 54.6259 64.7323 54.6259 65.269C54.6259 65.843 54.5559 66.3657 54.4159 66.837C54.2759 67.3083 54.0729 67.712 53.8069 68.048C53.5455 68.3793 53.2259 68.6383 52.8479 68.825C52.4699 69.007 52.0452 69.098 51.5739 69.098C51.1072 69.098 50.7129 69.0117 50.3909 68.839C50.0735 68.6617 49.7959 68.412 49.5579 68.09L49.4949 68.734C49.4575 68.9113 49.3502 69 49.1729 69H48.3679V58.689H49.6209V62.931ZM57.3848 63.33C57.6088 62.8447 57.8842 62.4667 58.2108 62.196C58.5375 61.9207 58.9365 61.783 59.4078 61.783C59.5572 61.783 59.6995 61.7993 59.8348 61.832C59.9748 61.8647 60.0985 61.916 60.2058 61.986L60.1148 62.917C60.0868 63.0337 60.0168 63.092 59.9048 63.092C59.8395 63.092 59.7438 63.078 59.6178 63.05C59.4918 63.022 59.3495 63.008 59.1908 63.008C58.9668 63.008 58.7662 63.0407 58.5888 63.106C58.4162 63.1713 58.2598 63.2693 58.1198 63.4C57.9845 63.526 57.8608 63.6847 57.7488 63.876C57.6415 64.0627 57.5435 64.2773 57.4548 64.52V69H56.2018V61.909H56.9158C57.0512 61.909 57.1445 61.9347 57.1958 61.986C57.2472 62.0373 57.2822 62.126 57.3008 62.252L57.3848 63.33ZM65.0351 65.808C64.4611 65.8267 63.9711 65.8733 63.5651 65.948C63.1637 66.018 62.8347 66.1113 62.5781 66.228C62.3261 66.3447 62.1417 66.4823 62.0251 66.641C61.9131 66.7997 61.8571 66.977 61.8571 67.173C61.8571 67.3597 61.8874 67.5207 61.9481 67.656C62.0087 67.7913 62.0904 67.9033 62.1931 67.992C62.3004 68.076 62.4241 68.139 62.5641 68.181C62.7087 68.2183 62.8627 68.237 63.0261 68.237C63.2454 68.237 63.4461 68.216 63.6281 68.174C63.8101 68.1273 63.9804 68.062 64.1391 67.978C64.3024 67.894 64.4564 67.7937 64.6011 67.677C64.7504 67.5603 64.8951 67.4273 65.0351 67.278V65.808ZM61.0101 62.91C61.4021 62.532 61.8244 62.2497 62.2771 62.063C62.7297 61.8763 63.2314 61.783 63.7821 61.783C64.1787 61.783 64.5311 61.8483 64.8391 61.979C65.1471 62.1097 65.4061 62.2917 65.6161 62.525C65.8261 62.7583 65.9847 63.0407 66.0921 63.372C66.1994 63.7033 66.2531 64.0673 66.2531 64.464V69H65.7001C65.5787 69 65.4854 68.9813 65.4201 68.944C65.3547 68.902 65.3034 68.8227 65.2661 68.706L65.1261 68.034C64.9394 68.2067 64.7574 68.3607 64.5801 68.496C64.4027 68.6267 64.2161 68.7387 64.0201 68.832C63.8241 68.9207 63.6141 68.9883 63.3901 69.035C63.1707 69.0863 62.9257 69.112 62.6551 69.112C62.3797 69.112 62.1207 69.0747 61.8781 69C61.6354 68.9207 61.4231 68.804 61.2411 68.65C61.0637 68.496 60.9214 68.3023 60.8141 68.069C60.7114 67.831 60.6601 67.551 60.6601 67.229C60.6601 66.949 60.7371 66.6807 60.8911 66.424C61.0451 66.1627 61.2947 65.9317 61.6401 65.731C61.9854 65.5303 62.4357 65.367 62.9911 65.241C63.5464 65.1103 64.2277 65.0357 65.0351 65.017V64.464C65.0351 63.9133 64.9161 63.498 64.6781 63.218C64.4401 62.9333 64.0924 62.791 63.6351 62.791C63.3271 62.791 63.0681 62.8307 62.8581 62.91C62.6527 62.9847 62.4731 63.071 62.3191 63.169C62.1697 63.2623 62.0391 63.3487 61.9271 63.428C61.8197 63.5027 61.7124 63.54 61.6051 63.54C61.5211 63.54 61.4487 63.519 61.3881 63.477C61.3274 63.4303 61.2761 63.3743 61.2341 63.309L61.0101 62.91Z" fill="#37474F"/>
</svg>
