<svg width="90" height="80" viewBox="0 0 90 80" fill="none" xmlns="http://www.w3.org/2000/svg">
<rect x="0.5" y="0.5" width="89" height="79" rx="11.5" fill="#F5F5FA" stroke="#4D4295"/>
<path d="M17.8591 56.062C17.1763 57.1764 17.0272 58.5261 16.5014 59.719C15.7167 61.5082 14.0765 62.858 13.2996 64.6394C12.8368 65.8302 12.7389 67.1318 13.0184 68.3784C13.298 69.625 13.9422 70.7602 14.8691 71.6394C15.8189 72.4937 16.9737 73.0873 18.2211 73.3624C19.4686 73.6375 20.766 73.5846 21.9869 73.209C23.6898 72.6832 25.2436 71.8042 26.9466 71.2706C28.5161 70.7997 30.0856 70.7997 31.5845 70.0385C32.9813 69.3659 34.0799 68.2003 34.6686 66.7661C35.0201 65.8969 35.0941 64.9402 34.8805 64.0273C34.5587 62.4578 33.8446 60.3075 32.5262 59.3187C31.2078 58.3299 29.8345 58.2044 28.469 57.6629C27.1035 57.1214 25.8793 56.0149 24.5923 55.1831C22.4028 53.7313 19.4286 53.5743 17.8591 56.062Z" fill="#DBD9EA"/>
<path d="M12.7817 60.5587C12.9525 60.1322 13.0839 59.6909 13.1741 59.2403C13.3247 58.6599 13.3032 58.0481 13.1123 57.4796C12.9214 56.9112 12.5694 56.4104 12.099 56.0385C11.2881 55.3091 10.3594 54.7227 9.35231 54.3042C8.61208 53.94 7.81649 53.7013 6.99803 53.5979C6.73079 53.5629 6.45911 53.5877 6.20262 53.6705C5.94613 53.7533 5.71122 53.892 5.51484 54.0766C5.28255 54.387 5.12313 54.7456 5.04841 55.126C4.97369 55.5064 4.98559 55.8988 5.08322 56.2739C5.24829 57.4554 5.60898 58.6011 6.15049 59.6641C6.56084 60.5521 7.18014 61.3276 7.95544 61.9242C8.34474 62.2179 8.7957 62.4192 9.27425 62.513C9.7528 62.6068 10.2464 62.5906 10.7178 62.4657C11.5601 62.1801 12.2582 61.5778 12.664 60.7863C12.708 60.713 12.7473 60.637 12.7817 60.5587Z" fill="#DBD9EA"/>
<path d="M9.32097 48.9521C8.70102 47.1786 8.65393 45.2637 10.0586 43.8983C11.6988 42.3288 14.1629 43.7963 15.3244 45.2324C16.6705 46.78 17.4508 48.7391 17.5374 50.7884C17.4746 53.3703 15.1831 54.4376 12.9701 53.4174C11.2168 52.4632 9.90693 50.8603 9.32097 48.9521Z" fill="#DBD9EA"/>
<path d="M30.2661 55.0653C29.8599 54.8372 29.4739 54.5747 29.1125 54.2806C28.6312 53.9278 28.2604 53.4452 28.0436 52.8892C27.8268 52.3333 27.7729 51.727 27.8883 51.1415C28.0257 50.0607 28.3497 49.0118 28.8457 48.0418C29.182 47.2924 29.6349 46.601 30.1877 45.9935C30.3723 45.7963 30.5981 45.642 30.849 45.5417C31.0998 45.4413 31.3697 45.3973 31.6395 45.4128C32.0166 45.5013 32.3691 45.6734 32.6706 45.9166C32.9722 46.1598 33.2152 46.4677 33.3816 46.8175C34.0084 47.8332 34.4669 48.9436 34.7392 50.1057C34.9912 51.0494 35.0127 52.0398 34.802 52.9936C34.6908 53.4687 34.4735 53.9125 34.1663 54.2917C33.8592 54.6709 33.4702 54.9756 33.0285 55.183C32.2021 55.5124 31.2809 55.5124 30.4545 55.183L30.2661 55.0653Z" fill="#DBD9EA"/>
<path d="M25.8322 43.3725C25.1573 41.6146 23.9487 40.1314 21.9947 40.0059C19.7111 39.8568 18.8007 42.5799 18.8557 44.4319C18.8323 46.4819 19.5045 48.4792 20.7626 50.0979C22.4891 52.0205 24.914 51.3535 25.9499 49.1405C26.6614 47.2755 26.6192 45.2068 25.8322 43.3725Z" fill="#DBD9EA"/>
<path d="M48.6153 28.7337C48.2432 28.734 47.8794 28.6241 47.5697 28.4178C47.2601 28.2114 47.0185 27.918 46.8754 27.5745C46.7324 27.231 46.6943 26.8528 46.766 26.4877C46.8377 26.1226 47.016 25.7869 47.2783 25.523L57.2777 15.5519C57.4526 15.3769 57.6604 15.2381 57.889 15.1434C58.1176 15.0488 58.3626 15 58.61 15C58.8574 15 59.1025 15.0488 59.3311 15.1434C59.5597 15.2381 59.7674 15.3769 59.9423 15.5519C60.1173 15.7268 60.2561 15.9345 60.3507 16.1631C60.4454 16.3917 60.4942 16.6368 60.4942 16.8842C60.4942 17.1316 60.4454 17.3766 60.3507 17.6052C60.2561 17.8338 60.1173 18.0415 59.9423 18.2165L49.9429 28.2159C49.5853 28.5557 49.1086 28.7417 48.6153 28.7337Z" fill="#7E57C2"/>
<path d="M39.7258 49.6176C36.4341 49.6173 33.2443 48.4755 30.7 46.3869C28.1557 44.2983 26.4144 41.392 25.7729 38.1634C25.1313 34.9348 25.6291 31.5836 27.1816 28.6809C28.734 25.7782 31.245 23.5037 34.2866 22.2449C37.3281 20.9861 40.7121 20.821 43.8618 21.7777C47.0114 22.7344 49.7319 24.7536 51.5596 27.4914C53.3872 30.2291 54.209 33.516 53.8848 36.7917C53.5606 40.0675 52.1106 43.1295 49.7817 45.4559C48.4641 46.7801 46.8968 47.8298 45.1707 48.5442C43.4446 49.2585 41.5939 49.6234 39.7258 49.6176ZM39.7258 24.9392C38.0086 24.9436 36.3189 25.3707 34.8058 26.1827C33.2927 26.9947 32.0028 28.1668 31.0499 29.5954C30.097 31.024 29.5105 32.6653 29.3421 34.3742C29.1737 36.0832 29.4287 37.8073 30.0844 39.3944C30.7401 40.9815 31.7765 42.3828 33.102 43.4745C34.4275 44.5662 36.0014 45.3149 37.6847 45.6543C39.3681 45.9937 41.1091 45.9135 42.7541 45.4208C44.3992 44.928 45.8975 44.0379 47.1171 42.8289C48.5907 41.368 49.5966 39.5018 50.0068 37.4677C50.417 35.4335 50.2129 33.3234 49.4205 31.4055C48.6282 29.4877 47.2833 27.8488 45.557 26.6974C43.8307 25.546 41.8009 24.934 39.7258 24.9392Z" fill="#7E57C2"/>
<path d="M56.6657 28.0274C56.5374 28.0414 56.408 28.0414 56.2797 28.0274C56.0372 27.977 55.807 27.8792 55.6024 27.7397C55.3977 27.6002 55.2226 27.4217 55.087 27.2145C54.9515 27.0072 54.8581 26.7752 54.8123 26.5318C54.7666 26.2883 54.7693 26.0383 54.8203 25.7959L56.1761 19.3651L49.7452 20.7209C49.4984 20.7856 49.241 20.7995 48.9887 20.7617C48.7363 20.7239 48.4943 20.6352 48.2772 20.501C48.0602 20.3668 47.8727 20.1899 47.7262 19.981C47.5796 19.7721 47.477 19.5356 47.4246 19.2859C47.3722 19.0362 47.3712 18.7784 47.4215 18.5282C47.4718 18.278 47.5724 18.0407 47.7172 17.8306C47.862 17.6205 48.048 17.442 48.2639 17.306C48.4799 17.17 48.7212 17.0793 48.9732 17.0394L58.2287 15.0904C58.5341 15.0265 58.8506 15.0396 59.1497 15.1283C59.4488 15.2171 59.7212 15.3787 59.9424 15.5988C60.1656 15.82 60.3299 16.0936 60.4204 16.3945C60.5108 16.6955 60.5245 17.0143 60.4602 17.3219L58.5112 26.5774C58.4132 26.9923 58.1772 27.3617 57.842 27.6251C57.5068 27.8885 57.092 28.0303 56.6657 28.0274Z" fill="#7E57C2"/>
<path d="M35.218 58.969V69H34.028V61.629C34.028 61.531 34.0303 61.426 34.035 61.314C34.0443 61.202 34.0537 61.0877 34.063 60.971L30.619 67.243C30.5117 67.453 30.3483 67.558 30.129 67.558H29.933C29.7137 67.558 29.5503 67.453 29.443 67.243L25.929 60.943C25.957 61.1903 25.971 61.419 25.971 61.629V69H24.781V58.969H25.782C25.9033 58.969 25.9967 58.9807 26.062 59.004C26.1273 59.0273 26.1903 59.0927 26.251 59.2L29.716 65.374C29.772 65.486 29.8257 65.6027 29.877 65.724C29.933 65.8453 29.9843 65.969 30.031 66.095C30.0777 65.969 30.1267 65.8453 30.178 65.724C30.2293 65.598 30.2853 65.479 30.346 65.367L33.748 59.2C33.804 59.0927 33.8647 59.0273 33.93 59.004C34 58.9807 34.0957 58.969 34.217 58.969H35.218ZM41.1269 65.808C40.5529 65.8267 40.0629 65.8733 39.6569 65.948C39.2555 66.018 38.9265 66.1113 38.6699 66.228C38.4179 66.3447 38.2335 66.4823 38.1169 66.641C38.0049 66.7997 37.9489 66.977 37.9489 67.173C37.9489 67.3597 37.9792 67.5207 38.0399 67.656C38.1005 67.7913 38.1822 67.9033 38.2849 67.992C38.3922 68.076 38.5159 68.139 38.6559 68.181C38.8005 68.2183 38.9545 68.237 39.1179 68.237C39.3372 68.237 39.5379 68.216 39.7199 68.174C39.9019 68.1273 40.0722 68.062 40.2309 67.978C40.3942 67.894 40.5482 67.7937 40.6929 67.677C40.8422 67.5603 40.9869 67.4273 41.1269 67.278V65.808ZM37.1019 62.91C37.4939 62.532 37.9162 62.2497 38.3689 62.063C38.8215 61.8763 39.3232 61.783 39.8739 61.783C40.2705 61.783 40.6229 61.8483 40.9309 61.979C41.2389 62.1097 41.4979 62.2917 41.7079 62.525C41.9179 62.7583 42.0765 63.0407 42.1839 63.372C42.2912 63.7033 42.3449 64.0673 42.3449 64.464V69H41.7919C41.6705 69 41.5772 68.9813 41.5119 68.944C41.4465 68.902 41.3952 68.8227 41.3579 68.706L41.2179 68.034C41.0312 68.2067 40.8492 68.3607 40.6719 68.496C40.4945 68.6267 40.3079 68.7387 40.1119 68.832C39.9159 68.9207 39.7059 68.9883 39.4819 69.035C39.2625 69.0863 39.0175 69.112 38.7469 69.112C38.4715 69.112 38.2125 69.0747 37.9699 69C37.7272 68.9207 37.5149 68.804 37.3329 68.65C37.1555 68.496 37.0132 68.3023 36.9059 68.069C36.8032 67.831 36.7519 67.551 36.7519 67.229C36.7519 66.949 36.8289 66.6807 36.9829 66.424C37.1369 66.1627 37.3865 65.9317 37.7319 65.731C38.0772 65.5303 38.5275 65.367 39.0829 65.241C39.6382 65.1103 40.3195 65.0357 41.1269 65.017V64.464C41.1269 63.9133 41.0079 63.498 40.7699 63.218C40.5319 62.9333 40.1842 62.791 39.7269 62.791C39.4189 62.791 39.1599 62.8307 38.9499 62.91C38.7445 62.9847 38.5649 63.071 38.4109 63.169C38.2615 63.2623 38.1309 63.3487 38.0189 63.428C37.9115 63.5027 37.8042 63.54 37.6969 63.54C37.6129 63.54 37.5405 63.519 37.4799 63.477C37.4192 63.4303 37.3679 63.3743 37.3259 63.309L37.1019 62.91ZM49.1779 63.169C49.1405 63.2203 49.1032 63.26 49.0659 63.288C49.0285 63.316 48.9772 63.33 48.9119 63.33C48.8419 63.33 48.7649 63.302 48.6809 63.246C48.5969 63.1853 48.4919 63.12 48.3659 63.05C48.2445 62.98 48.0929 62.917 47.9109 62.861C47.7335 62.8003 47.5142 62.77 47.2529 62.77C46.9029 62.77 46.5949 62.833 46.3289 62.959C46.0629 63.0803 45.8389 63.2577 45.6569 63.491C45.4795 63.7243 45.3442 64.0067 45.2509 64.338C45.1622 64.6693 45.1179 65.0403 45.1179 65.451C45.1179 65.8803 45.1669 66.263 45.2649 66.599C45.3629 66.9303 45.5005 67.2103 45.6779 67.439C45.8599 67.663 46.0769 67.8357 46.3289 67.957C46.5855 68.0737 46.8725 68.132 47.1899 68.132C47.4932 68.132 47.7429 68.097 47.9389 68.027C48.1349 67.9523 48.2959 67.8707 48.4219 67.782C48.5525 67.6933 48.6599 67.614 48.7439 67.544C48.8325 67.4693 48.9189 67.432 49.0029 67.432C49.1055 67.432 49.1849 67.4717 49.2409 67.551L49.5909 68.006C49.4369 68.1973 49.2619 68.3607 49.0659 68.496C48.8699 68.6313 48.6575 68.7457 48.4289 68.839C48.2049 68.9277 47.9692 68.993 47.7219 69.035C47.4745 69.077 47.2225 69.098 46.9659 69.098C46.5225 69.098 46.1095 69.0163 45.7269 68.853C45.3489 68.6897 45.0199 68.454 44.7399 68.146C44.4599 67.8333 44.2405 67.4507 44.0819 66.998C43.9232 66.5453 43.8439 66.0297 43.8439 65.451C43.8439 64.9237 43.9162 64.436 44.0609 63.988C44.2102 63.54 44.4249 63.155 44.7049 62.833C44.9895 62.5063 45.3372 62.252 45.7479 62.07C46.1632 61.888 46.6392 61.797 47.1759 61.797C47.6752 61.797 48.1139 61.8787 48.4919 62.042C48.8745 62.2007 49.2129 62.427 49.5069 62.721L49.1779 63.169ZM52.1814 62.854C52.4847 62.532 52.8207 62.2753 53.1894 62.084C53.5581 61.8927 53.9827 61.797 54.4634 61.797C54.8507 61.797 55.1914 61.8623 55.4854 61.993C55.7841 62.119 56.0314 62.301 56.2274 62.539C56.4281 62.7723 56.5797 63.0547 56.6824 63.386C56.7851 63.7173 56.8364 64.0837 56.8364 64.485V69H55.5834V64.485C55.5834 63.9483 55.4597 63.533 55.2124 63.239C54.9697 62.9403 54.5987 62.791 54.0994 62.791C53.7307 62.791 53.3854 62.8797 53.0634 63.057C52.7461 63.2343 52.4521 63.4747 52.1814 63.778V69H50.9284V58.689H52.1814V62.854ZM61.724 61.797C62.242 61.797 62.7087 61.8833 63.124 62.056C63.5394 62.2287 63.894 62.4737 64.188 62.791C64.482 63.1083 64.706 63.4933 64.86 63.946C65.0187 64.394 65.098 64.8957 65.098 65.451C65.098 66.011 65.0187 66.515 64.86 66.963C64.706 67.411 64.482 67.7937 64.188 68.111C63.894 68.4283 63.5394 68.6733 63.124 68.846C62.7087 69.014 62.242 69.098 61.724 69.098C61.2014 69.098 60.73 69.014 60.31 68.846C59.8947 68.6733 59.54 68.4283 59.246 68.111C58.952 67.7937 58.7257 67.411 58.567 66.963C58.413 66.515 58.336 66.011 58.336 65.451C58.336 64.8957 58.413 64.394 58.567 63.946C58.7257 63.4933 58.952 63.1083 59.246 62.791C59.54 62.4737 59.8947 62.2287 60.31 62.056C60.73 61.8833 61.2014 61.797 61.724 61.797ZM61.724 68.125C62.424 68.125 62.9467 67.8917 63.292 67.425C63.6374 66.9537 63.81 66.298 63.81 65.458C63.81 64.6133 63.6374 63.9553 63.292 63.484C62.9467 63.0127 62.424 62.777 61.724 62.777C61.3694 62.777 61.059 62.8377 60.793 62.959C60.5317 63.0803 60.3124 63.2553 60.135 63.484C59.9624 63.7127 59.8317 63.995 59.743 64.331C59.659 64.6623 59.617 65.038 59.617 65.458C59.617 66.298 59.7897 66.9537 60.135 67.425C60.485 67.8917 61.0147 68.125 61.724 68.125Z" fill="#37474F"/>
</svg>
