<svg width="90" height="80" viewBox="0 0 90 80" fill="none" xmlns="http://www.w3.org/2000/svg">
<rect x="0.5" y="0.5" width="89" height="79" rx="11.5" fill="#F5F5FA" stroke="#4D4295"/>
<path d="M17.8591 56.062C17.1763 57.1764 17.0272 58.5261 16.5014 59.719C15.7167 61.5082 14.0765 62.858 13.2996 64.6394C12.8368 65.8302 12.7389 67.1318 13.0184 68.3784C13.298 69.625 13.9422 70.7602 14.8691 71.6394C15.8189 72.4937 16.9737 73.0873 18.2211 73.3624C19.4686 73.6375 20.766 73.5846 21.9869 73.209C23.6898 72.6832 25.2436 71.8042 26.9466 71.2706C28.5161 70.7997 30.0856 70.7997 31.5845 70.0385C32.9813 69.3659 34.0799 68.2003 34.6686 66.7661C35.0201 65.8969 35.0941 64.9402 34.8805 64.0273C34.5587 62.4578 33.8446 60.3075 32.5262 59.3187C31.2078 58.3299 29.8345 58.2044 28.469 57.6629C27.1035 57.1214 25.8793 56.0149 24.5923 55.1831C22.4028 53.7313 19.4286 53.5743 17.8591 56.062Z" fill="#DBD9EA"/>
<path d="M12.7817 60.5587C12.9525 60.1322 13.0839 59.6909 13.1741 59.2403C13.3247 58.6599 13.3032 58.0481 13.1123 57.4796C12.9214 56.9112 12.5694 56.4104 12.099 56.0385C11.2881 55.3091 10.3594 54.7227 9.35231 54.3042C8.61208 53.94 7.81649 53.7013 6.99803 53.5979C6.73079 53.5629 6.45911 53.5877 6.20262 53.6705C5.94613 53.7533 5.71122 53.892 5.51484 54.0766C5.28255 54.387 5.12313 54.7456 5.04841 55.126C4.97369 55.5064 4.98559 55.8988 5.08322 56.2739C5.24829 57.4554 5.60898 58.6011 6.15049 59.6641C6.56084 60.5521 7.18014 61.3276 7.95544 61.9242C8.34474 62.2179 8.7957 62.4192 9.27425 62.513C9.7528 62.6068 10.2464 62.5906 10.7178 62.4657C11.5601 62.1801 12.2582 61.5778 12.664 60.7863C12.708 60.713 12.7473 60.637 12.7817 60.5587Z" fill="#DBD9EA"/>
<path d="M9.32091 48.9521C8.70095 47.1786 8.65387 45.2637 10.0586 43.8983C11.6987 42.3288 14.1629 43.7963 15.3243 45.2324C16.6704 46.78 17.4507 48.7391 17.5373 50.7884C17.4745 53.3703 15.1831 54.4376 12.97 53.4174C11.2168 52.4632 9.90687 50.8603 9.32091 48.9521Z" fill="#DBD9EA"/>
<path d="M30.2661 55.0653C29.8598 54.8372 29.4739 54.5747 29.1125 54.2806C28.6311 53.9278 28.2603 53.4452 28.0435 52.8892C27.8267 52.3333 27.7728 51.727 27.8883 51.1415C28.0257 50.0607 28.3496 49.0118 28.8457 48.0418C29.1819 47.2924 29.6348 46.601 30.1876 45.9935C30.3723 45.7963 30.598 45.642 30.8489 45.5417C31.0998 45.4413 31.3696 45.3973 31.6394 45.4128C32.0166 45.5013 32.369 45.6734 32.6706 45.9166C32.9722 46.1598 33.2152 46.4677 33.3816 46.8175C34.0084 47.8332 34.4668 48.9436 34.7392 50.1057C34.9911 51.0494 35.0126 52.0398 34.802 52.9936C34.6907 53.4687 34.4734 53.9125 34.1662 54.2917C33.8591 54.6709 33.4701 54.9756 33.0284 55.183C32.202 55.5124 31.2808 55.5124 30.4544 55.183L30.2661 55.0653Z" fill="#DBD9EA"/>
<path d="M25.8322 43.3725C25.1573 41.6146 23.9488 40.1314 21.9948 40.0059C19.7111 39.8568 18.8008 42.5799 18.8557 44.4319C18.8323 46.4819 19.5046 48.4792 20.7627 50.0979C22.4892 52.0205 24.9141 51.3535 25.9499 49.1405C26.6615 47.2755 26.6193 45.2068 25.8322 43.3725Z" fill="#DBD9EA"/>
<path d="M33 18.7308C33.5933 18.2058 34.2214 17.7213 34.88 17.2808C35.5823 16.8176 36.3254 16.4193 37.1 16.0908C37.936 15.7425 38.8032 15.4746 39.69 15.2908C40.6777 15.0937 41.6828 14.9965 42.69 15.0008C44.0477 14.9851 45.3988 15.1911 46.69 15.6108C47.8304 15.9752 48.885 16.5671 49.79 17.3508C50.6454 18.1024 51.3277 19.0303 51.79 20.0708C52.2708 21.2022 52.5093 22.4217 52.49 23.6508C52.5164 24.7855 52.3298 25.915 51.94 26.9808C51.5994 27.8634 51.1274 28.6894 50.54 29.4308C50.0008 30.1022 49.383 30.7065 48.7 31.2308L46.82 32.6608C46.2762 33.064 45.7616 33.5051 45.28 33.9808C44.8704 34.3701 44.5999 34.883 44.51 35.4408L43.93 39.1408H39.64L39.21 35.0008C39.0958 34.2857 39.215 33.5529 39.55 32.9108C39.8931 32.2928 40.3396 31.7381 40.87 31.2708C41.4607 30.7426 42.089 30.258 42.75 29.8208C43.42 29.3618 44.0551 28.8538 44.65 28.3008C45.2391 27.7534 45.7416 27.1194 46.14 26.4208C46.5558 25.6726 46.763 24.8265 46.74 23.9708C46.7516 23.4088 46.6354 22.8514 46.4 22.3408C46.1743 21.8623 45.8507 21.4364 45.45 21.0908C45.0164 20.737 44.5215 20.4659 43.99 20.2908C43.3942 20.1067 42.7736 20.0156 42.15 20.0208C41.3224 20.0014 40.4967 20.1059 39.7 20.3308C39.1109 20.5098 38.5414 20.7476 38 21.0408C37.54 21.3008 37.15 21.5408 36.82 21.7508C36.5705 21.9387 36.2716 22.0499 35.96 22.0708C35.6897 22.0877 35.4204 22.0246 35.1856 21.8894C34.9509 21.7543 34.7612 21.5531 34.64 21.3108L33 18.7308ZM37.75 45.8208C37.7507 45.3102 37.8491 44.8044 38.04 44.3308C38.2193 43.8732 38.4917 43.4577 38.84 43.1108C39.573 42.3956 40.5558 41.9939 41.58 41.9908C42.0997 41.9852 42.6146 42.0909 43.09 42.3008C43.5407 42.4923 43.9512 42.7671 44.3 43.1108C44.8414 43.6526 45.2094 44.3431 45.3572 45.0945C45.505 45.846 45.4259 46.6245 45.13 47.3308C44.7421 48.2277 44.0269 48.9429 43.13 49.3308C42.6517 49.5294 42.1378 49.6281 41.62 49.6208C41.0989 49.628 40.5818 49.5294 40.1 49.3308C39.6423 49.1515 39.2269 48.8791 38.88 48.5308C38.532 48.1915 38.2594 47.7826 38.08 47.3308C37.8714 46.8542 37.7592 46.341 37.75 45.8208Z" fill="#7E57C2"/>
<path d="M27.408 58.969V69H26.729C26.6217 69 26.5307 68.9813 26.456 68.944C26.386 68.9067 26.316 68.8437 26.246 68.755L20.443 61.195C20.4523 61.3117 20.4593 61.426 20.464 61.538C20.4687 61.65 20.471 61.755 20.471 61.853V69H19.281V58.969H19.981C20.0417 58.969 20.093 58.9737 20.135 58.983C20.177 58.9877 20.2143 58.9993 20.247 59.018C20.2797 59.032 20.3123 59.0553 20.345 59.088C20.3777 59.116 20.4127 59.1533 20.45 59.2L26.253 66.753C26.2437 66.6317 26.2343 66.515 26.225 66.403C26.2203 66.2863 26.218 66.1767 26.218 66.074V58.969H27.408ZM32.4487 61.797C32.9667 61.797 33.4333 61.8833 33.8487 62.056C34.264 62.2287 34.6187 62.4737 34.9127 62.791C35.2067 63.1083 35.4307 63.4933 35.5847 63.946C35.7433 64.394 35.8227 64.8957 35.8227 65.451C35.8227 66.011 35.7433 66.515 35.5847 66.963C35.4307 67.411 35.2067 67.7937 34.9127 68.111C34.6187 68.4283 34.264 68.6733 33.8487 68.846C33.4333 69.014 32.9667 69.098 32.4487 69.098C31.926 69.098 31.4547 69.014 31.0347 68.846C30.6193 68.6733 30.2647 68.4283 29.9707 68.111C29.6767 67.7937 29.4503 67.411 29.2917 66.963C29.1377 66.515 29.0607 66.011 29.0607 65.451C29.0607 64.8957 29.1377 64.394 29.2917 63.946C29.4503 63.4933 29.6767 63.1083 29.9707 62.791C30.2647 62.4737 30.6193 62.2287 31.0347 62.056C31.4547 61.8833 31.926 61.797 32.4487 61.797ZM32.4487 68.125C33.1487 68.125 33.6713 67.8917 34.0167 67.425C34.362 66.9537 34.5347 66.298 34.5347 65.458C34.5347 64.6133 34.362 63.9553 34.0167 63.484C33.6713 63.0127 33.1487 62.777 32.4487 62.777C32.094 62.777 31.7837 62.8377 31.5177 62.959C31.2563 63.0803 31.037 63.2553 30.8597 63.484C30.687 63.7127 30.5563 63.995 30.4677 64.331C30.3837 64.6623 30.3417 65.038 30.3417 65.458C30.3417 66.298 30.5143 66.9537 30.8597 67.425C31.2097 67.8917 31.7393 68.125 32.4487 68.125ZM42.273 58.689V69H41.027V58.689H42.273ZM47.2826 61.797C47.8006 61.797 48.2673 61.8833 48.6826 62.056C49.098 62.2287 49.4526 62.4737 49.7466 62.791C50.0406 63.1083 50.2646 63.4933 50.4186 63.946C50.5773 64.394 50.6566 64.8957 50.6566 65.451C50.6566 66.011 50.5773 66.515 50.4186 66.963C50.2646 67.411 50.0406 67.7937 49.7466 68.111C49.4526 68.4283 49.098 68.6733 48.6826 68.846C48.2673 69.014 47.8006 69.098 47.2826 69.098C46.76 69.098 46.2886 69.014 45.8686 68.846C45.4533 68.6733 45.0986 68.4283 44.8046 68.111C44.5106 67.7937 44.2843 67.411 44.1256 66.963C43.9716 66.515 43.8946 66.011 43.8946 65.451C43.8946 64.8957 43.9716 64.394 44.1256 63.946C44.2843 63.4933 44.5106 63.1083 44.8046 62.791C45.0986 62.4737 45.4533 62.2287 45.8686 62.056C46.2886 61.8833 46.76 61.797 47.2826 61.797ZM47.2826 68.125C47.9826 68.125 48.5053 67.8917 48.8506 67.425C49.196 66.9537 49.3686 66.298 49.3686 65.458C49.3686 64.6133 49.196 63.9553 48.8506 63.484C48.5053 63.0127 47.9826 62.777 47.2826 62.777C46.928 62.777 46.6176 62.8377 46.3516 62.959C46.0903 63.0803 45.871 63.2553 45.6936 63.484C45.521 63.7127 45.3903 63.995 45.3016 64.331C45.2176 64.6623 45.1756 65.038 45.1756 65.458C45.1756 66.298 45.3483 66.9537 45.6936 67.425C46.0436 67.8917 46.5733 68.125 47.2826 68.125ZM59.949 63.078C59.893 63.1807 59.8067 63.232 59.69 63.232C59.62 63.232 59.5407 63.2063 59.452 63.155C59.3634 63.1037 59.2537 63.0477 59.123 62.987C58.997 62.9217 58.8454 62.8633 58.668 62.812C58.4907 62.756 58.2807 62.728 58.038 62.728C57.828 62.728 57.639 62.756 57.471 62.812C57.303 62.8633 57.1584 62.9357 57.037 63.029C56.9204 63.1223 56.8294 63.232 56.764 63.358C56.7034 63.4793 56.673 63.6123 56.673 63.757C56.673 63.939 56.7244 64.0907 56.827 64.212C56.9344 64.3333 57.0744 64.4383 57.247 64.527C57.4197 64.6157 57.6157 64.695 57.835 64.765C58.0544 64.8303 58.2784 64.9027 58.507 64.982C58.7404 65.0567 58.9667 65.1407 59.186 65.234C59.4054 65.3273 59.6014 65.444 59.774 65.584C59.9467 65.724 60.0844 65.8967 60.187 66.102C60.2944 66.3027 60.348 66.5453 60.348 66.83C60.348 67.1567 60.2897 67.46 60.173 67.74C60.0564 68.0153 59.8837 68.2557 59.655 68.461C59.4264 68.6617 59.1464 68.8203 58.815 68.937C58.4837 69.0537 58.101 69.112 57.667 69.112C57.1724 69.112 56.7244 69.0327 56.323 68.874C55.9217 68.7107 55.581 68.503 55.301 68.251L55.595 67.775C55.6324 67.7143 55.6767 67.6677 55.728 67.635C55.7794 67.6023 55.8447 67.586 55.924 67.586C56.008 67.586 56.0967 67.6187 56.19 67.684C56.2834 67.7493 56.3954 67.8217 56.526 67.901C56.6614 67.9803 56.8247 68.0527 57.016 68.118C57.2074 68.1833 57.4454 68.216 57.73 68.216C57.9727 68.216 58.185 68.1857 58.367 68.125C58.549 68.0597 58.7007 67.9733 58.822 67.866C58.9434 67.7587 59.032 67.635 59.088 67.495C59.1487 67.355 59.179 67.2057 59.179 67.047C59.179 66.851 59.1254 66.69 59.018 66.564C58.9154 66.4333 58.7777 66.3237 58.605 66.235C58.4324 66.1417 58.234 66.0623 58.01 65.997C57.7907 65.927 57.5644 65.8547 57.331 65.78C57.1024 65.7053 56.876 65.6213 56.652 65.528C56.4327 65.43 56.2367 65.3087 56.064 65.164C55.8914 65.0193 55.7514 64.842 55.644 64.632C55.5414 64.4173 55.49 64.1583 55.49 63.855C55.49 63.5843 55.546 63.3253 55.658 63.078C55.77 62.826 55.9334 62.6067 56.148 62.42C56.3627 62.2287 56.6264 62.077 56.939 61.965C57.2517 61.853 57.6087 61.797 58.01 61.797C58.4767 61.797 58.8944 61.8717 59.263 62.021C59.6364 62.1657 59.9584 62.3663 60.229 62.623L59.949 63.078ZM66.6217 64.681C66.6217 64.3917 66.5797 64.128 66.4957 63.89C66.4163 63.6473 66.2973 63.4397 66.1387 63.267C65.9847 63.0897 65.7957 62.9543 65.5717 62.861C65.3477 62.763 65.0933 62.714 64.8087 62.714C64.2113 62.714 63.7377 62.889 63.3877 63.239C63.0423 63.5843 62.8277 64.065 62.7437 64.681H66.6217ZM67.6297 68.006C67.4757 68.1927 67.2913 68.356 67.0767 68.496C66.862 68.6313 66.631 68.7433 66.3837 68.832C66.141 68.9207 65.889 68.986 65.6277 69.028C65.3663 69.0747 65.1073 69.098 64.8507 69.098C64.3607 69.098 63.908 69.0163 63.4927 68.853C63.082 68.685 62.725 68.4423 62.4217 68.125C62.123 67.803 61.8897 67.4063 61.7217 66.935C61.5537 66.4637 61.4697 65.9223 61.4697 65.311C61.4697 64.8163 61.5443 64.3543 61.6937 63.925C61.8477 63.4957 62.067 63.1247 62.3517 62.812C62.6363 62.4947 62.984 62.2473 63.3947 62.07C63.8053 61.888 64.2673 61.797 64.7807 61.797C65.2053 61.797 65.5973 61.8693 65.9567 62.014C66.3207 62.154 66.6333 62.3593 66.8947 62.63C67.1607 62.896 67.3683 63.2273 67.5177 63.624C67.667 64.016 67.7417 64.464 67.7417 64.968C67.7417 65.164 67.7207 65.2947 67.6787 65.36C67.6367 65.4253 67.5573 65.458 67.4407 65.458H62.7017C62.7157 65.906 62.7763 66.2957 62.8837 66.627C62.9957 66.9583 63.1497 67.236 63.3457 67.46C63.5417 67.6793 63.775 67.845 64.0457 67.957C64.3163 68.0643 64.6197 68.118 64.9557 68.118C65.2683 68.118 65.5367 68.083 65.7607 68.013C65.9893 67.9383 66.1853 67.859 66.3487 67.775C66.512 67.691 66.6473 67.614 66.7547 67.544C66.8667 67.4693 66.9623 67.432 67.0417 67.432C67.1443 67.432 67.2237 67.4717 67.2797 67.551L67.6297 68.006ZM66.8457 58.857L65.2147 60.663C65.1493 60.733 65.084 60.7843 65.0187 60.817C64.958 60.845 64.8787 60.859 64.7807 60.859H64.0387L65.0747 59.165C65.14 59.0577 65.21 58.9807 65.2847 58.934C65.364 58.8827 65.4783 58.857 65.6277 58.857H66.8457Z" fill="#37474F"/>
</svg>
