<svg width="32" height="35" viewBox="0 0 32 35" fill="none" xmlns="http://www.w3.org/2000/svg">
<path d="M9.74907 31.25L9.74921 31.2501C11.4846 32.8602 13.7121 33.6667 15.9429 33.6667C18.1741 33.6667 20.4005 32.86 22.1176 31.2517L22.1194 31.25C27.0387 26.6892 32.3119 19.5992 30.356 11.2814C28.609 3.86985 21.9011 0.5 15.9429 0.5H15.9429H15.9429H15.9428H15.9428H15.9428H15.9428H15.9428H15.9428H15.9428H15.9428H15.9428H15.9428H15.9428H15.9428H15.9427H15.9427H15.9427H15.9427H15.9427H15.9427H15.9427H15.9427H15.9427H15.9427H15.9427H15.9426H15.9426H15.9426H15.9426H15.9426H15.9426H15.9426H15.9426H15.9425H15.9425H15.9425H15.9425H15.9425H15.9425H15.9425H15.9425H15.9425H15.9425H15.9425H15.9424H15.9424H15.9424H15.9424H15.9424H15.9424H15.9424H15.9424H15.9424H15.9424H15.9424H15.9423H15.9423H15.9423H15.9423H15.9423H15.9423H15.9423H15.9423H15.9423H15.9423H15.9422H15.9422H15.9422H15.9422H15.9422H15.9422H15.9422H15.9422H15.9421H15.9421H15.9421H15.9421H15.9421H15.9421H15.9421H15.9421H15.942H15.942H15.942H15.942H15.942H15.942H15.942H15.9419H15.9419H15.9419H15.9419H15.9419H15.9419H15.9419H15.9418H15.9418H15.9418H15.9418H15.9418H15.9418H15.9417H15.9417H15.9417H15.9417H15.9417H15.9417H15.9416H15.9416H15.9416H15.9416H15.9416H15.9416H15.9415H15.9415H15.9415H15.9415H15.9415H15.9414H15.9414H15.9414H15.9414H15.9414H15.9413H15.9413H15.9413H15.9413H15.9413H15.9412H15.9412H15.9412H15.9412H15.9412H15.9411H15.9411H15.9411H15.9411H15.941H15.941H15.941H15.941H15.941H15.9409H15.9409H15.9409H15.9409H15.9408H15.9408H15.9408H15.9408H15.9407H15.9407H15.9407H15.9407H15.9406H15.9406H15.9406H15.9406H15.9405H15.9405H15.9405H15.9405H15.9404H15.9404H15.9404H15.9403H15.9403H15.9403H15.9403H15.9402H15.9402H15.9402H15.9401H15.9401H15.9401H15.94H15.94H15.94H15.94H15.9399H15.9399H15.9399H15.9398H15.9398H15.9398H15.9397H15.9397H15.9397H15.9396H15.9396H15.9396H15.9395H15.9395H15.9395H15.9394H15.9394H15.9394H15.9393H15.9393H15.9393H15.9392H15.9392H15.9391H15.9391H15.9391H15.939H15.939H15.939H15.9389H15.9389H15.9388H15.9388H15.9388H15.9387H15.9387H15.9387H15.9386H15.9386H15.9385H15.9385H15.9385H15.9384H15.9384H15.9383H15.9383H15.9382H15.9382H15.9382H15.9381H15.9381H15.938H15.938H15.9379H15.9379H15.9379H15.9378H15.9378H15.9377H15.9377H15.9376H15.9376H15.9375H15.9375H15.9374H15.9374H15.9374H15.9373H15.9373H15.9372H15.9372H15.9371H15.9371H15.937H15.937H15.9369H15.9369H15.9368H15.9368H15.9367H15.9367H15.9366H15.9366H15.9365H15.9365H15.9364H15.9364H15.9363H15.9362H15.9362H15.9361H15.9361H15.936H15.936H15.9359H15.9359H15.9358H15.9358H15.9357H15.9356H15.9356H15.9355H15.9355H15.9354H15.9354H15.9353H15.9352H15.9352H15.9351H15.9351H15.935H15.9349H15.9349H15.9348H15.9348H15.9347H15.9346H15.9346H15.9345H15.9344H15.9344H15.9343H15.9343H15.9342H15.9341H15.9341H15.934H15.9339H15.9339H15.9338H15.9337H15.9337H15.9336H15.9335H15.9335H15.9334H15.9333H15.9333H15.9332H15.9331H15.9331H15.933H15.9329H15.9328H15.9328H15.9327H15.9326H15.9326H15.9325H15.9324H15.9323H15.9323H15.9322H15.9321H15.9321H15.932H15.9319H15.9318H15.9318H15.9317H15.9316H15.9315H15.9314H15.9314H15.9313H15.9312H15.9311H15.9311H15.931H15.9309H15.9308H15.9307H15.9307H15.9306H15.9305H15.9304H15.9303H15.9303H15.9302H15.9301H15.93H15.9299H15.9298H15.9298H15.9297H15.9296H15.9295H15.9294H15.9293H15.9292H15.9292H15.9291H15.929H15.9289H15.9288H15.9287H15.9286H15.9285H15.9285H15.9284H15.9283H15.9282H15.9281H15.928H15.9279H15.9278H15.9277H15.9276H15.9275H15.9274H15.9273H15.9273H15.9272H15.9271H15.927H15.9269H15.9268H15.9267H15.9266H15.9265H15.9264H15.9263H15.9262H15.9261H15.926H15.9259H15.9258H15.9257H15.9256C9.9834 0.5 3.25935 3.85415 1.51256 11.2645L9.74907 31.25ZM9.74907 31.25C4.83016 26.6895 -0.443423 19.5828 1.5125 11.2647L9.74907 31.25Z" fill="#F5F5FA" stroke="#9087CA"/>
<g clip-path="url(#clip0_484_2370)">
<path d="M13.4562 9.53529C12.9287 9.67592 12.5252 10.1189 12.3648 10.7353C12.2919 11.0165 12.2895 11.5837 12.3624 11.9142C12.535 12.6947 13.0697 13.3369 13.6604 13.4728C14.4358 13.6486 15.1091 13.1283 15.3643 12.1556C15.4129 11.9775 15.4202 11.8884 15.4178 11.504C15.4178 11.0189 15.3984 10.897 15.2622 10.5619C15.1699 10.3298 15.0265 10.1189 14.8174 9.90795C14.6375 9.72279 14.4188 9.59623 14.1781 9.53529C14.0056 9.4931 13.6191 9.4931 13.4562 9.53529Z" fill="#4BE6D0"/>
<path d="M17.7003 9.53517C17.1509 9.67814 16.6648 10.2406 16.5068 10.9156C16.48 11.0352 16.4679 11.2063 16.4679 11.5156C16.4679 11.8883 16.4752 11.9797 16.5214 12.1555C16.7012 12.8516 17.1169 13.3414 17.6322 13.4727C18.0649 13.5805 18.517 13.4492 18.8597 13.1117C19.2195 12.7602 19.4504 12.3266 19.5428 11.8203C19.5938 11.5344 19.5841 10.9813 19.5209 10.7352C19.3605 10.1164 18.9545 9.67111 18.4198 9.53517C18.2545 9.49064 17.8656 9.49298 17.7003 9.53517Z" fill="#4BE6D0"/>
<path d="M10.7287 12.5422C10.352 12.6687 10.053 12.9664 9.87312 13.3953C9.6738 13.8711 9.66651 14.7148 9.85611 15.2633C9.9825 15.6242 10.2815 16.0836 10.5051 16.2594C10.826 16.5102 11.2489 16.5758 11.5795 16.4258C11.7618 16.3437 12.0535 16.0648 12.1823 15.8516C12.3063 15.6453 12.4132 15.3687 12.474 15.1016C12.5153 14.9234 12.525 14.7992 12.525 14.4805C12.525 14.2531 12.5105 14.0211 12.4934 13.9414C12.3379 13.2172 11.9028 12.6641 11.3875 12.5328C11.2124 12.4883 10.8794 12.493 10.7287 12.5422Z" fill="#4BE6D0"/>
<path d="M20.3619 12.5538C20.1553 12.6218 19.9632 12.7507 19.8247 12.9054C19.4771 13.3038 19.3215 13.6812 19.2705 14.2437C19.217 14.8554 19.3118 15.4062 19.55 15.8398C19.657 16.0367 19.9243 16.3015 20.1018 16.3882C20.4834 16.571 20.9404 16.5382 21.2928 16.3015C21.5991 16.0952 21.9564 15.5351 22.0828 15.0663C22.1679 14.7499 22.1922 14.1218 22.1314 13.8054C22.0196 13.2312 21.7158 12.8093 21.271 12.6007C21.0935 12.5163 21.0692 12.5117 20.8043 12.5046C20.5612 12.4999 20.5029 12.507 20.3619 12.5538Z" fill="#4BE6D0"/>
<path d="M15.5102 14.525C14.1125 14.7829 12.6444 16.0813 12.0659 17.5743C11.8544 18.118 11.7718 18.6079 11.7936 19.1844C11.8106 19.6813 11.8909 20.0118 12.0805 20.375C12.3648 20.9235 12.851 21.3102 13.4368 21.4555C13.6945 21.5188 14.2341 21.5188 14.499 21.4532C14.7226 21.3993 14.8928 21.336 15.1213 21.2258C15.4786 21.0524 15.8116 20.9868 16.1325 21.0313C16.3731 21.0618 16.5068 21.104 16.8058 21.2422C17.2263 21.4344 17.518 21.5 17.9725 21.5C18.3128 21.5 18.4927 21.4743 18.7139 21.3899C19.3435 21.1485 19.798 20.6071 19.9925 19.8665C20.2234 18.9899 20.0824 18.0102 19.5987 17.0915C18.9545 15.8704 17.744 14.8625 16.5749 14.5696C16.2856 14.4969 15.7824 14.4758 15.5102 14.525Z" fill="#4FDBD1"/>
<g clip-path="url(#clip1_484_2370)">
<path d="M13.7205 17.6293C13.7205 18.6713 14.6137 19.2266 15.2676 19.7237C15.4984 19.8991 15.7206 20.0642 15.9428 20.0642C16.1651 20.0642 16.3873 19.8991 16.6181 19.7237C17.2719 19.2266 18.1652 18.6713 18.1652 17.6293C18.1652 16.5872 16.9429 15.8482 15.9428 16.85C14.9428 15.8482 13.7205 16.5872 13.7205 17.6293Z" fill="#4D4295"/>
</g>
</g>
<defs>
<clipPath id="clip0_484_2370">
<rect width="12.4453" height="12" fill="white" transform="translate(9.72021 9.5)"/>
</clipPath>
<clipPath id="clip1_484_2370">
<rect width="5.3337" height="5.14286" fill="white" transform="translate(13.276 15.6714)"/>
</clipPath>
</defs>
</svg>
