<svg width="192" height="192" viewBox="0 0 192 192" fill="none" xmlns="http://www.w3.org/2000/svg">
<path id="Vector" d="M0 0H7.68V7.68H0V0ZM7.68 0H15.36V7.68H7.68V0ZM15.36 0H23.04V7.68H15.36V0ZM23.04 0H30.72V7.68H23.04V0ZM30.72 0H38.4V7.68H30.72V0ZM38.4 0H46.08V7.68H38.4V0ZM46.08 0H53.76V7.68H46.08V0ZM84.48 0H92.16V7.68H84.48V0ZM107.52 0H115.2V7.68H107.52V0ZM115.2 0H122.88V7.68H115.2V0ZM122.88 0H130.56V7.68H122.88V0ZM138.24 0H145.92V7.68H138.24V0ZM145.92 0H153.6V7.68H145.92V0ZM153.6 0H161.28V7.68H153.6V0ZM161.28 0H168.96V7.68H161.28V0ZM168.96 0H176.64V7.68H168.96V0ZM176.64 0H184.32V7.68H176.64V0ZM184.32 0H192V7.68H184.32V0ZM0 7.68H7.68V15.36H0V7.68ZM46.08 7.68H53.76V15.36H46.08V7.68ZM69.12 7.68H76.8V15.36H69.12V7.68ZM99.84 7.68H107.52V15.36H99.84V7.68ZM107.52 7.68H115.2V15.36H107.52V7.68ZM122.88 7.68H130.56V15.36H122.88V7.68ZM138.24 7.68H145.92V15.36H138.24V7.68ZM184.32 7.68H192V15.36H184.32V7.68ZM0 15.36H7.68V23.04H0V15.36ZM15.36 15.36H23.04V23.04H15.36V15.36ZM23.04 15.36H30.72V23.04H23.04V15.36ZM30.72 15.36H38.4V23.04H30.72V15.36ZM46.08 15.36H53.76V23.04H46.08V15.36ZM69.12 15.36H76.8V23.04H69.12V15.36ZM76.8 15.36H84.48V23.04H76.8V15.36ZM92.16 15.36H99.84V23.04H92.16V15.36ZM107.52 15.36H115.2V23.04H107.52V15.36ZM115.2 15.36H122.88V23.04H115.2V15.36ZM138.24 15.36H145.92V23.04H138.24V15.36ZM153.6 15.36H161.28V23.04H153.6V15.36ZM161.28 15.36H168.96V23.04H161.28V15.36ZM168.96 15.36H176.64V23.04H168.96V15.36ZM184.32 15.36H192V23.04H184.32V15.36ZM0 23.04H7.68V30.72H0V23.04ZM15.36 23.04H23.04V30.72H15.36V23.04ZM23.04 23.04H30.72V30.72H23.04V23.04ZM30.72 23.04H38.4V30.72H30.72V23.04ZM46.08 23.04H53.76V30.72H46.08V23.04ZM61.44 23.04H69.12V30.72H61.44V23.04ZM69.12 23.04H76.8V30.72H69.12V23.04ZM92.16 23.04H99.84V30.72H92.16V23.04ZM107.52 23.04H115.2V30.72H107.52V23.04ZM115.2 23.04H122.88V30.72H115.2V23.04ZM138.24 23.04H145.92V30.72H138.24V23.04ZM153.6 23.04H161.28V30.72H153.6V23.04ZM161.28 23.04H168.96V30.72H161.28V23.04ZM168.96 23.04H176.64V30.72H168.96V23.04ZM184.32 23.04H192V30.72H184.32V23.04ZM0 30.72H7.68V38.4H0V30.72ZM15.36 30.72H23.04V38.4H15.36V30.72ZM23.04 30.72H30.72V38.4H23.04V30.72ZM30.72 30.72H38.4V38.4H30.72V30.72ZM46.08 30.72H53.76V38.4H46.08V30.72ZM76.8 30.72H84.48V38.4H76.8V30.72ZM84.48 30.72H92.16V38.4H84.48V30.72ZM92.16 30.72H99.84V38.4H92.16V30.72ZM99.84 30.72H107.52V38.4H99.84V30.72ZM107.52 30.72H115.2V38.4H107.52V30.72ZM138.24 30.72H145.92V38.4H138.24V30.72ZM153.6 30.72H161.28V38.4H153.6V30.72ZM161.28 30.72H168.96V38.4H161.28V30.72ZM168.96 30.72H176.64V38.4H168.96V30.72ZM184.32 30.72H192V38.4H184.32V30.72ZM0 38.4H7.68V46.08H0V38.4ZM46.08 38.4H53.76V46.08H46.08V38.4ZM61.44 38.4H69.12V46.08H61.44V38.4ZM84.48 38.4H92.16V46.08H84.48V38.4ZM122.88 38.4H130.56V46.08H122.88V38.4ZM138.24 38.4H145.92V46.08H138.24V38.4ZM184.32 38.4H192V46.08H184.32V38.4ZM0 46.08H7.68V53.76H0V46.08ZM7.68 46.08H15.36V53.76H7.68V46.08ZM15.36 46.08H23.04V53.76H15.36V46.08ZM23.04 46.08H30.72V53.76H23.04V46.08ZM30.72 46.08H38.4V53.76H30.72V46.08ZM38.4 46.08H46.08V53.76H38.4V46.08ZM46.08 46.08H53.76V53.76H46.08V46.08ZM61.44 46.08H69.12V53.76H61.44V46.08ZM76.8 46.08H84.48V53.76H76.8V46.08ZM92.16 46.08H99.84V53.76H92.16V46.08ZM107.52 46.08H115.2V53.76H107.52V46.08ZM122.88 46.08H130.56V53.76H122.88V46.08ZM138.24 46.08H145.92V53.76H138.24V46.08ZM145.92 46.08H153.6V53.76H145.92V46.08ZM153.6 46.08H161.28V53.76H153.6V46.08ZM161.28 46.08H168.96V53.76H161.28V46.08ZM168.96 46.08H176.64V53.76H168.96V46.08ZM176.64 46.08H184.32V53.76H176.64V46.08ZM184.32 46.08H192V53.76H184.32V46.08ZM61.44 53.76H69.12V61.44H61.44V53.76ZM69.12 53.76H76.8V61.44H69.12V53.76ZM76.8 53.76H84.48V61.44H76.8V53.76ZM107.52 53.76H115.2V61.44H107.52V53.76ZM115.2 53.76H122.88V61.44H115.2V53.76ZM122.88 53.76H130.56V61.44H122.88V53.76ZM7.68 61.44H15.36V69.12H7.68V61.44ZM15.36 61.44H23.04V69.12H15.36V61.44ZM46.08 61.44H53.76V69.12H46.08V61.44ZM99.84 61.44H107.52V69.12H99.84V61.44ZM107.52 61.44H115.2V69.12H107.52V61.44ZM122.88 61.44H130.56V69.12H122.88V61.44ZM138.24 61.44H145.92V69.12H138.24V61.44ZM145.92 61.44H153.6V69.12H145.92V61.44ZM161.28 61.44H168.96V69.12H161.28V61.44ZM7.68 69.12H15.36V76.8H7.68V69.12ZM15.36 69.12H23.04V76.8H15.36V69.12ZM30.72 69.12H38.4V76.8H30.72V69.12ZM53.76 69.12H61.44V76.8H53.76V69.12ZM76.8 69.12H84.48V76.8H76.8V69.12ZM84.48 69.12H92.16V76.8H84.48V69.12ZM92.16 69.12H99.84V76.8H92.16V69.12ZM99.84 69.12H107.52V76.8H99.84V69.12ZM107.52 69.12H115.2V76.8H107.52V69.12ZM115.2 69.12H122.88V76.8H115.2V69.12ZM122.88 69.12H130.56V76.8H122.88V69.12ZM138.24 69.12H145.92V76.8H138.24V69.12ZM145.92 69.12H153.6V76.8H145.92V69.12ZM161.28 69.12H168.96V76.8H161.28V69.12ZM176.64 69.12H184.32V76.8H176.64V69.12ZM184.32 69.12H192V76.8H184.32V69.12ZM46.08 76.8H53.76V84.48H46.08V76.8ZM84.48 76.8H92.16V84.48H84.48V76.8ZM115.2 76.8H122.88V84.48H115.2V76.8ZM130.56 76.8H138.24V84.48H130.56V76.8ZM145.92 76.8H153.6V84.48H145.92V76.8ZM161.28 76.8H168.96V84.48H161.28V76.8ZM168.96 76.8H176.64V84.48H168.96V76.8ZM184.32 76.8H192V84.48H184.32V76.8ZM0 84.48H7.68V92.16H0V84.48ZM7.68 84.48H15.36V92.16H7.68V84.48ZM30.72 84.48H38.4V92.16H30.72V84.48ZM53.76 84.48H61.44V92.16H53.76V84.48ZM69.12 84.48H76.8V92.16H69.12V84.48ZM76.8 84.48H84.48V92.16H76.8V84.48ZM99.84 84.48H107.52V92.16H99.84V84.48ZM115.2 84.48H122.88V92.16H115.2V84.48ZM130.56 84.48H138.24V92.16H130.56V84.48ZM145.92 84.48H153.6V92.16H145.92V84.48ZM161.28 84.48H168.96V92.16H161.28V84.48ZM0 92.16H7.68V99.84H0V92.16ZM7.68 92.16H15.36V99.84H7.68V92.16ZM23.04 92.16H30.72V99.84H23.04V92.16ZM46.08 92.16H53.76V99.84H46.08V92.16ZM53.76 92.16H61.44V99.84H53.76V92.16ZM61.44 92.16H69.12V99.84H61.44V92.16ZM69.12 92.16H76.8V99.84H69.12V92.16ZM76.8 92.16H84.48V99.84H76.8V92.16ZM99.84 92.16H107.52V99.84H99.84V92.16ZM115.2 92.16H122.88V99.84H115.2V92.16ZM122.88 92.16H130.56V99.84H122.88V92.16ZM138.24 92.16H145.92V99.84H138.24V92.16ZM145.92 92.16H153.6V99.84H145.92V92.16ZM184.32 92.16H192V99.84H184.32V92.16ZM15.36 99.84H23.04V107.52H15.36V99.84ZM23.04 99.84H30.72V107.52H23.04V99.84ZM30.72 99.84H38.4V107.52H30.72V99.84ZM76.8 99.84H84.48V107.52H76.8V99.84ZM84.48 99.84H92.16V107.52H84.48V99.84ZM92.16 99.84H99.84V107.52H92.16V99.84ZM115.2 99.84H122.88V107.52H115.2V99.84ZM122.88 99.84H130.56V107.52H122.88V99.84ZM138.24 99.84H145.92V107.52H138.24V99.84ZM145.92 99.84H153.6V107.52H145.92V99.84ZM176.64 99.84H184.32V107.52H176.64V99.84ZM184.32 99.84H192V107.52H184.32V99.84ZM0 107.52H7.68V115.2H0V107.52ZM7.68 107.52H15.36V115.2H7.68V107.52ZM23.04 107.52H30.72V115.2H23.04V107.52ZM38.4 107.52H46.08V115.2H38.4V107.52ZM46.08 107.52H53.76V115.2H46.08V107.52ZM61.44 107.52H69.12V115.2H61.44V107.52ZM69.12 107.52H76.8V115.2H69.12V107.52ZM76.8 107.52H84.48V115.2H76.8V107.52ZM92.16 107.52H99.84V115.2H92.16V107.52ZM115.2 107.52H122.88V115.2H115.2V107.52ZM122.88 107.52H130.56V115.2H122.88V107.52ZM138.24 107.52H145.92V115.2H138.24V107.52ZM161.28 107.52H168.96V115.2H161.28V107.52ZM168.96 107.52H176.64V115.2H168.96V107.52ZM184.32 107.52H192V115.2H184.32V107.52ZM15.36 115.2H23.04V122.88H15.36V115.2ZM23.04 115.2H30.72V122.88H23.04V115.2ZM30.72 115.2H38.4V122.88H30.72V115.2ZM53.76 115.2H61.44V122.88H53.76V115.2ZM76.8 115.2H84.48V122.88H76.8V115.2ZM107.52 115.2H115.2V122.88H107.52V115.2ZM115.2 115.2H122.88V122.88H115.2V115.2ZM122.88 115.2H130.56V122.88H122.88V115.2ZM130.56 115.2H138.24V122.88H130.56V115.2ZM138.24 115.2H145.92V122.88H138.24V115.2ZM145.92 115.2H153.6V122.88H145.92V115.2ZM153.6 115.2H161.28V122.88H153.6V115.2ZM161.28 115.2H168.96V122.88H161.28V115.2ZM0 122.88H7.68V130.56H0V122.88ZM7.68 122.88H15.36V130.56H7.68V122.88ZM15.36 122.88H23.04V130.56H15.36V122.88ZM30.72 122.88H38.4V130.56H30.72V122.88ZM46.08 122.88H53.76V130.56H46.08V122.88ZM61.44 122.88H69.12V130.56H61.44V122.88ZM84.48 122.88H92.16V130.56H84.48V122.88ZM122.88 122.88H130.56V130.56H122.88V122.88ZM130.56 122.88H138.24V130.56H130.56V122.88ZM138.24 122.88H145.92V130.56H138.24V122.88ZM145.92 122.88H153.6V130.56H145.92V122.88ZM153.6 122.88H161.28V130.56H153.6V122.88ZM176.64 122.88H184.32V130.56H176.64V122.88ZM61.44 130.56H69.12V138.24H61.44V130.56ZM69.12 130.56H76.8V138.24H69.12V130.56ZM76.8 130.56H84.48V138.24H76.8V130.56ZM84.48 130.56H92.16V138.24H84.48V130.56ZM99.84 130.56H107.52V138.24H99.84V130.56ZM107.52 130.56H115.2V138.24H107.52V130.56ZM122.88 130.56H130.56V138.24H122.88V130.56ZM153.6 130.56H161.28V138.24H153.6V130.56ZM184.32 130.56H192V138.24H184.32V130.56ZM0 138.24H7.68V145.92H0V138.24ZM7.68 138.24H15.36V145.92H7.68V138.24ZM15.36 138.24H23.04V145.92H15.36V138.24ZM23.04 138.24H30.72V145.92H23.04V138.24ZM30.72 138.24H38.4V145.92H30.72V138.24ZM38.4 138.24H46.08V145.92H38.4V138.24ZM46.08 138.24H53.76V145.92H46.08V138.24ZM76.8 138.24H84.48V145.92H76.8V138.24ZM84.48 138.24H92.16V145.92H84.48V138.24ZM107.52 138.24H115.2V145.92H107.52V138.24ZM122.88 138.24H130.56V145.92H122.88V138.24ZM138.24 138.24H145.92V145.92H138.24V138.24ZM153.6 138.24H161.28V145.92H153.6V138.24ZM184.32 138.24H192V145.92H184.32V138.24ZM0 145.92H7.68V153.6H0V145.92ZM46.08 145.92H53.76V153.6H46.08V145.92ZM69.12 145.92H76.8V153.6H69.12V145.92ZM76.8 145.92H84.48V153.6H76.8V145.92ZM92.16 145.92H99.84V153.6H92.16V145.92ZM99.84 145.92H107.52V153.6H99.84V145.92ZM122.88 145.92H130.56V153.6H122.88V145.92ZM153.6 145.92H161.28V153.6H153.6V145.92ZM176.64 145.92H184.32V153.6H176.64V145.92ZM0 153.6H7.68V161.28H0V153.6ZM15.36 153.6H23.04V161.28H15.36V153.6ZM23.04 153.6H30.72V161.28H23.04V153.6ZM30.72 153.6H38.4V161.28H30.72V153.6ZM46.08 153.6H53.76V161.28H46.08V153.6ZM69.12 153.6H76.8V161.28H69.12V153.6ZM76.8 153.6H84.48V161.28H76.8V153.6ZM107.52 153.6H115.2V161.28H107.52V153.6ZM115.2 153.6H122.88V161.28H115.2V153.6ZM122.88 153.6H130.56V161.28H122.88V153.6ZM130.56 153.6H138.24V161.28H130.56V153.6ZM138.24 153.6H145.92V161.28H138.24V153.6ZM145.92 153.6H153.6V161.28H145.92V153.6ZM153.6 153.6H161.28V161.28H153.6V153.6ZM176.64 153.6H184.32V161.28H176.64V153.6ZM184.32 153.6H192V161.28H184.32V153.6ZM0 161.28H7.68V168.96H0V161.28ZM15.36 161.28H23.04V168.96H15.36V161.28ZM23.04 161.28H30.72V168.96H23.04V161.28ZM30.72 161.28H38.4V168.96H30.72V161.28ZM46.08 161.28H53.76V168.96H46.08V161.28ZM69.12 161.28H76.8V168.96H69.12V161.28ZM76.8 161.28H84.48V168.96H76.8V161.28ZM84.48 161.28H92.16V168.96H84.48V161.28ZM92.16 161.28H99.84V168.96H92.16V161.28ZM115.2 161.28H122.88V168.96H115.2V161.28ZM130.56 161.28H138.24V168.96H130.56V161.28ZM153.6 161.28H161.28V168.96H153.6V161.28ZM168.96 161.28H176.64V168.96H168.96V161.28ZM176.64 161.28H184.32V168.96H176.64V161.28ZM0 168.96H7.68V176.64H0V168.96ZM15.36 168.96H23.04V176.64H15.36V168.96ZM23.04 168.96H30.72V176.64H23.04V168.96ZM30.72 168.96H38.4V176.64H30.72V168.96ZM46.08 168.96H53.76V176.64H46.08V168.96ZM61.44 168.96H69.12V176.64H61.44V168.96ZM99.84 168.96H107.52V176.64H99.84V168.96ZM107.52 168.96H115.2V176.64H107.52V168.96ZM115.2 168.96H122.88V176.64H115.2V168.96ZM122.88 168.96H130.56V176.64H122.88V168.96ZM130.56 168.96H138.24V176.64H130.56V168.96ZM145.92 168.96H153.6V176.64H145.92V168.96ZM153.6 168.96H161.28V176.64H153.6V168.96ZM161.28 168.96H168.96V176.64H161.28V168.96ZM176.64 168.96H184.32V176.64H176.64V168.96ZM184.32 168.96H192V176.64H184.32V168.96ZM0 176.64H7.68V184.32H0V176.64ZM46.08 176.64H53.76V184.32H46.08V176.64ZM61.44 176.64H69.12V184.32H61.44V176.64ZM69.12 176.64H76.8V184.32H69.12V176.64ZM76.8 176.64H84.48V184.32H76.8V176.64ZM99.84 176.64H107.52V184.32H99.84V176.64ZM122.88 176.64H130.56V184.32H122.88V176.64ZM130.56 176.64H138.24V184.32H130.56V176.64ZM138.24 176.64H145.92V184.32H138.24V176.64ZM145.92 176.64H153.6V184.32H145.92V176.64ZM153.6 176.64H161.28V184.32H153.6V176.64ZM0 184.32H7.68V192H0V184.32ZM7.68 184.32H15.36V192H7.68V184.32ZM15.36 184.32H23.04V192H15.36V184.32ZM23.04 184.32H30.72V192H23.04V184.32ZM30.72 184.32H38.4V192H30.72V184.32ZM38.4 184.32H46.08V192H38.4V184.32ZM46.08 184.32H53.76V192H46.08V184.32ZM76.8 184.32H84.48V192H76.8V184.32ZM92.16 184.32H99.84V192H92.16V184.32ZM122.88 184.32H130.56V192H122.88V184.32ZM138.24 184.32H145.92V192H138.24V184.32ZM161.28 184.32H168.96V192H161.28V184.32ZM184.32 184.32H192V192H184.32V184.32Z" fill="black"/>
</svg>
