<?xml version="1.0" encoding="UTF-8" standalone="no"?>
<svg
   width="24"
   height="18.90909"
   viewBox="0 0 24 18.90909"
   fill="none"
   version="1.1"
   id="svg5"
   xmlns="http://www.w3.org/2000/svg"
   xmlns:svg="http://www.w3.org/2000/svg">
  <defs
     id="defs9" />
  <g
     id="Group"
     transform="scale(0.72727198)">
    <path
       id="Vector"
       d="M 20.7294,10.0174 20.1216,8.42432 c 0,0 1.4105,-3.5171 1.288,-3.65243 L 19.5416,2.75562 C 19.4114,2.61661 16.2264,4.22077 16.2264,4.22077 L 14.757,3.56508 C 14.757,3.56508 13.4556,0 13.2797,0 H 10.6414 C 10.4588,0 9.25873,3.57492 9.25873,3.57492 L 7.79038,4.23307 c 0,0 -3.25286,-1.52789 -3.37754,-1.39626 L 2.54596,4.85801 C 2.41682,4.99948 3.90298,8.44523 3.90298,8.44523 L 3.29739,10.0383 c 0,0 -3.29739,1.4012 -3.29739,1.5931 v 2.8565 c 0,0.1968 3.30518,1.4971 3.30518,1.4971 l 0.60671,1.5882 c 0,0 -1.41158,3.5196 -1.28801,3.6549 l 1.86911,2.0187 c 0.1258,0.1366 3.31298,-1.47 3.31298,-1.47 l 1.47057,0.6606 c 0,0 1.29806,3.5626 1.47616,3.5626 h 2.6383 c 0.1815,0 1.3849,-3.5749 1.3849,-3.5749 l 1.4695,-0.6582 c 0,0 3.2484,1.5279 3.3742,1.3963 l 1.868,-2.0212 c 0.128,-0.1366 -1.3593,-3.5848 -1.3593,-3.5848 l 0.6078,-1.5931 c 0,0 3.2985,-1.4061 3.2985,-1.598 v -2.854 c 0.0011,-0.1956 -3.3052,-1.4947 -3.3052,-1.4947 z m -8.7121,7.1474 c -2.12069,0 -3.85065,-1.8699 -3.85065,-4.1666 0,-2.2943 1.72996,-4.16423 3.85065,-4.16423 2.1241,0 3.8507,1.86993 3.8507,4.16423 0,2.2979 -1.7266,4.1666 -3.8507,4.1666 z"
       fill="#4d4295" />
    <path
       id="Vector_2"
       d="m 31.7694,6.69096 0.0155,-0.83161 c 0,0 1.2446,-1.23757 1.2146,-1.32368 L 32.5386,3.24644 C 32.5041,3.15786 30.8198,3.17016 30.8198,3.17016 L 30.2921,2.56491 c 0,0 0.0646,-1.847739 -0.0145,-1.885875 L 29.1188,0.104538 C 29.0364,0.0639416 27.8753,1.37778 27.8753,1.37778 L 27.1138,1.34457 c 0,0 -1.1566,-1.3765831 -1.2345,-1.3433681 L 24.6981,0.484665 C 24.6191,0.51542 24.658,2.35209 24.658,2.35209 l -0.551,0.56958 c 0,0 -1.6955,-0.10088 -1.73,-0.01723 l -0.5087,1.25479 c -0.0356,0.08858 1.1856,1.37658 1.1856,1.37658 L 23.0383,6.3625 c 0,0 -1.2435,1.24003 -1.2134,1.32614 l 0.462,1.29047 c 0.0334,0.08611 1.7177,0.07258 1.7177,0.07258 l 0.5265,0.60771 c 0,0 -0.0612,1.8477 0.0179,1.8859 l 1.1588,0.572 c 0.0802,0.0406 1.2424,-1.2659 1.2424,-1.2659 l 0.7625,0.0283 c 0,0 1.1545,1.3766 1.2346,1.3459 l 1.1778,-0.4835 c 0.0813,-0.0307 0.0423,-1.86988 0.0423,-1.86988 l 0.55,-0.56465 c 0,0 1.6954,0.09595 1.731,0.0123 L 32.9572,8.06508 C 32.9895,7.97896 31.7694,6.69096 31.7694,6.69096 Z m -2.664,0.25465 C 28.6968,7.95436 27.6059,8.40215 26.6708,7.94083 25.7401,7.48197 25.3126,6.285 25.7212,5.27378 c 0.4063,-1.00629 1.5006,-1.45162 2.4313,-0.99276 0.9317,0.46378 1.3592,1.65829 0.9529,2.66459 z"
       fill="#4d4295" />
  </g>
</svg>
