<svg width="24" height="24" viewBox="0 0 24 24" fill="none" xmlns="http://www.w3.org/2000/svg">
<path d="M19.08 15.7199C18.49 12.1899 15.1 9.31995 11.52 9.31995C7.63003 9.31995 4.21003 12.4699 3.88003 16.3499C3.75003 17.8499 4.23003 19.2699 5.22003 20.3399C6.20003 21.4099 7.58003 21.9999 9.08003 21.9999H13.76C15.45 21.9999 16.93 21.3399 17.94 20.1499C18.95 18.9599 19.35 17.3799 19.08 15.7199Z" fill="#4D4295"/>
<path d="M10.28 7.86C11.8982 7.86 13.21 6.54819 13.21 4.93C13.21 3.31181 11.8982 2 10.28 2C8.66178 2 7.34998 3.31181 7.34998 4.93C7.34998 6.54819 8.66178 7.86 10.28 7.86Z" fill="#4D4295"/>
<path d="M16.94 9.03002C18.2876 9.03002 19.38 7.9376 19.38 6.59002C19.38 5.24245 18.2876 4.15002 16.94 4.15002C15.5924 4.15002 14.5 5.24245 14.5 6.59002C14.5 7.9376 15.5924 9.03002 16.94 9.03002Z" fill="#4D4295"/>
<path d="M20.55 12.93C21.6269 12.93 22.5 12.057 22.5 10.98C22.5 9.90307 21.6269 9.03003 20.55 9.03003C19.473 9.03003 18.6 9.90307 18.6 10.98C18.6 12.057 19.473 12.93 20.55 12.93Z" fill="#4D4295"/>
<path d="M3.94 10.98C5.28757 10.98 6.38 9.88755 6.38 8.53998C6.38 7.1924 5.28757 6.09998 3.94 6.09998C2.59243 6.09998 1.5 7.1924 1.5 8.53998C1.5 9.88755 2.59243 10.98 3.94 10.98Z" fill="#4D4295"/>
</svg>
