<svg xmlns="http://www.w3.org/2000/svg" width="299" height="313" viewBox="0 0 299 313" fill="none">
  <path opacity="0.7" d="M157.963 3.25381C186.413 8.97889 218.746 24.8066 231.962 52.2444C251.939 93.7056 287.873 93.2868 297.108 171.771C298.509 183.226 298.659 194.8 297.557 206.289C297.005 211.907 296.092 217.483 294.824 222.984C283.671 271.503 246.861 301.773 204.677 310.535C149.2 322.138 116.326 287.407 96.654 264.56C76.9816 241.713 11.6608 220.845 1.97693 143.732C0.448477 131.964 0.284979 120.059 1.48968 108.254C4.337 81.3266 15.5816 52.625 35.7488 33.7597C37.2715 32.3436 38.8321 30.9733 40.4309 29.6486C71.7514 3.70298 119.174 -4.54966 157.963 3.25381Z" fill="white"/>
</svg>