<svg width="283" height="327" viewBox="0 0 283 327" fill="none" xmlns="http://www.w3.org/2000/svg">
<path d="M273.427 290.9L245.237 217.72L239.157 235.08L188.097 124L161.787 69.2802L113.697 48.2802L59.0169 67.6402C59.0169 67.6402 45.2069 104.64 43.5469 113.49C41.8869 122.34 47.9669 151.63 47.9669 151.63L63.4369 188.63L73.2669 241.89C73.2669 241.89 69.5169 270.98 70.0469 285.89C70.5769 300.8 77.5769 331.65 77.5769 331.65H282.267L273.427 290.9Z" fill="#8E80F3"/>
<g opacity="0.5">
<path d="M206.097 311.62C206.397 282.46 200.167 260.72 192.007 238.98C191.506 237.796 190.743 236.742 189.774 235.896C188.806 235.051 187.658 234.437 186.417 234.1C181.807 232.82 177.787 237.18 174.657 240.78C171.527 244.38 166.167 247.86 162.397 244.93C158.207 241.67 161.277 235.04 164.547 230.85C170.867 222.77 177.227 214.51 180.957 204.95C184.687 195.39 188.477 184.2 183.737 175.1C173.627 188.34 159.057 199.87 134.457 207.65C113.567 214.4 89.6572 212.71 71.8872 207.65C84.8872 215.06 96.9472 226 107.887 236.2C112.127 240.2 116.537 245.87 114.277 251.2C112.587 255.2 107.827 256.93 103.507 257.39C99.1872 257.85 94.6472 257.55 90.6872 259.39C83.7372 262.55 80.9672 271.12 81.0172 278.76C81.1072 296.36 87.2672 319.11 100.177 331.76H205.397C206.647 325.24 206.017 315.71 206.097 311.62Z" fill="white"/>
</g>
<path d="M182.647 184.48C182.647 184.48 182.517 184.58 182.237 184.73L181.027 185.35C180.497 185.61 179.847 185.94 179.117 186.35C178.387 186.76 177.527 187.19 176.627 187.74C174.797 188.8 172.687 190.17 170.417 191.81C165.525 195.393 161.116 199.591 157.297 204.3C155.74 206.225 154.281 208.228 152.927 210.3C152.327 211.17 151.857 212.01 151.417 212.72C150.977 213.43 150.617 214.06 150.327 214.58L149.647 215.76C149.487 216.03 149.397 216.17 149.377 216.16C149.42 216.007 149.481 215.86 149.557 215.72L150.147 214.48C150.407 213.95 150.737 213.3 151.147 212.57C151.557 211.84 152.017 210.99 152.597 210.1C153.916 207.986 155.355 205.95 156.907 204C158.818 201.622 160.879 199.367 163.077 197.25C165.287 195.163 167.625 193.216 170.077 191.42C172.1 189.965 174.207 188.629 176.387 187.42C177.297 186.88 178.167 186.47 178.917 186.09C179.667 185.71 180.337 185.4 180.917 185.17L182.177 184.64C182.327 184.57 182.485 184.516 182.647 184.48Z" fill="#263238"/>
<path d="M201.347 111.04C196.294 96.4398 185.742 84.3881 171.937 77.4502C171.937 77.4502 168.237 71.8802 156.437 60.8902C144.637 49.9002 123.017 42.3002 107.177 40.7802C106.547 40.7202 105.907 40.6802 105.247 40.6602C89.3571 40.2502 65.3471 51.8602 65.3471 51.8602C50.0771 56.0902 30.1571 84.9402 26.3471 96.3202C22.5371 107.7 24.9371 129.01 24.9371 129.01C24.9371 129.01 16.6571 147.89 21.8471 166.3C31.0171 198.73 87.0171 224.74 141.787 203.83C196.557 182.92 209.507 135.33 201.347 111.04Z" fill="#8E80F3"/>
<g opacity="0.5">
<path d="M141.367 205.41C162.747 197.41 184.707 178.92 193.997 161.87C197.297 149.38 200.997 135.3 200.997 135.3L185.547 86.8702C183.376 84.8658 181.064 83.021 178.627 81.3502C173.287 82.1802 168.297 85.9102 165.177 90.5002C161.047 96.5802 159.357 103.92 157.227 110.95C155.097 117.98 152.227 125.19 146.517 129.82C140.397 134.82 130.217 133.64 122.357 132.98C123.117 140.16 125.627 149.63 126.357 156.81L111.767 161.24C106.884 154.595 103.195 147.151 100.867 139.24C97.7971 142.91 94.6971 146.61 90.8671 149.43C87.0371 152.25 82.2571 154.13 77.5071 153.65C70.8571 152.98 65.5871 147.99 59.7371 144.73C55.4599 142.379 50.7574 140.903 45.9037 140.388C41.0501 139.872 36.1425 140.329 31.4671 141.73C27.3335 142.985 23.4564 144.966 20.0171 147.58C19.8507 153.871 20.4586 160.158 21.8271 166.3C25.4371 183.85 44.4571 199.39 66.5271 206.1C86.8771 212.29 114.937 215.25 141.367 205.41Z" fill="white"/>
</g>
<path d="M125.757 152.83C121.982 152.876 118.25 153.636 114.757 155.07C111.245 156.528 108.34 159.147 106.527 162.49C105.623 164.103 105.304 165.979 105.627 167.8C106.427 171.27 110.127 173.1 113.407 174.47C116.687 175.84 120.507 177.32 124.087 176.42C126.777 175.75 128.977 173.84 130.877 171.82C133.437 169.1 135.767 165.82 135.937 162.1C136.107 158.38 134.367 152.76 125.757 152.83Z" fill="#263238"/>
<path d="M124.557 173.82C124.799 174.337 124.999 174.872 125.157 175.42C125.674 176.898 126.065 178.417 126.327 179.96C126.758 182.28 126.529 184.674 125.667 186.87C125.138 188.179 124.277 189.327 123.167 190.2C121.963 191.107 120.567 191.726 119.087 192.01C116.265 192.539 113.363 192.453 110.577 191.76C108.309 191.205 106.147 190.283 104.177 189.03C102.846 188.182 101.624 187.174 100.537 186.03C100.24 185.729 99.9596 185.412 99.697 185.08C99.5928 184.974 99.5052 184.852 99.437 184.72C100.929 186.234 102.586 187.576 104.377 188.72C106.333 189.902 108.462 190.769 110.687 191.29C113.405 191.939 116.229 192.01 118.977 191.5C120.381 191.229 121.706 190.648 122.857 189.8C123.901 188.98 124.716 187.906 125.227 186.68C126.072 184.565 126.325 182.259 125.957 180.01C125.726 178.479 125.392 176.966 124.957 175.48C124.781 174.938 124.647 174.383 124.557 173.82Z" fill="#263238"/>
<path d="M125.577 177.65C125.577 177.55 126.147 177.87 127.017 178.48C128.23 179.359 129.488 180.174 130.787 180.92C132.723 181.986 134.879 182.592 137.087 182.69C139.781 182.923 142.47 182.193 144.677 180.63C146.813 178.97 148.438 176.741 149.367 174.2C150.134 172.12 150.625 169.948 150.827 167.74C151.027 165.85 151.087 164.31 151.147 163.25C151.149 162.694 151.193 162.14 151.277 161.59C151.349 162.14 151.373 162.696 151.347 163.25C151.347 164.32 151.347 165.87 151.197 167.78C151.04 170.033 150.575 172.253 149.817 174.38C148.88 177.021 147.203 179.336 144.987 181.05C142.671 182.692 139.843 183.448 137.017 183.18C134.745 183.057 132.534 182.396 130.567 181.25C129.27 180.469 128.027 179.6 126.847 178.65C126.449 178.286 126.024 177.952 125.577 177.65Z" fill="#263238"/>
<path d="M84.487 127.63C83.6686 126.655 82.6527 125.865 81.5064 125.312C80.3601 124.758 79.1094 124.455 77.837 124.42C76.2462 124.413 74.7135 125.018 73.557 126.11C72.2524 126.92 71.1916 128.068 70.4873 129.433C69.783 130.798 69.4615 132.328 69.557 133.86C69.7292 135.62 70.4402 137.283 71.5927 138.623C72.7452 139.964 74.2833 140.916 75.997 141.35C77.7292 141.715 79.5313 141.544 81.1639 140.86C82.7966 140.176 84.1823 139.011 85.137 137.52C86.0306 135.996 86.4464 134.239 86.3305 132.475C86.2146 130.712 85.5724 129.024 84.487 127.63Z" fill="#263238"/>
<path d="M144.627 112.82C143.844 111.895 142.864 111.158 141.758 110.663C140.652 110.168 139.449 109.928 138.237 109.96C136.633 110.003 135.068 110.465 133.697 111.3C132.39 112.108 131.328 113.256 130.623 114.621C129.918 115.986 129.598 117.517 129.697 119.05C129.869 120.809 130.579 122.471 131.732 123.81C132.885 125.149 134.424 126.099 136.137 126.53C137.867 126.895 139.667 126.725 141.298 126.043C142.928 125.361 144.313 124.198 145.267 122.71C146.162 121.187 146.58 119.43 146.466 117.667C146.351 115.904 145.711 114.215 144.627 112.82Z" fill="#263238"/>
<g opacity="0.5">
<path d="M77.5771 88.2902L75.5771 87.2902C68.8471 85.3802 61.9371 92.0502 57.8771 97.2902C56.5409 98.7983 55.7211 100.694 55.5371 102.7C55.5371 105.4 57.5371 107.7 59.8571 109.12C64.5171 111.85 70.4271 111.55 75.5571 109.85C77.6871 109.14 79.8671 108.1 81.0571 106.19C81.8797 104.686 82.2643 102.982 82.1671 101.27C82.1169 96.5546 80.5025 91.9891 77.5771 88.2902Z" fill="white"/>
</g>
<g opacity="0.5">
<path d="M123.297 76.1802L125.297 75.1802C132.027 73.2702 138.937 79.9402 142.997 85.2402C144.342 86.7386 145.164 88.634 145.337 90.6402C145.337 93.3502 143.337 95.7002 141.017 97.0602C136.367 99.8002 130.447 99.5002 125.327 97.7902C123.187 97.0802 121.007 96.0402 119.817 94.1402C118.992 92.6338 118.611 90.9244 118.717 89.2102C118.748 84.4776 120.36 79.8913 123.297 76.1802Z" fill="white"/>
</g>
<path d="M94.2972 172.78C93.9001 172.426 93.5384 172.034 93.2172 171.61C92.2664 170.514 91.3911 169.355 90.5972 168.14C89.3579 166.344 88.5346 164.294 88.1872 162.14C88.0193 160.852 88.0905 159.543 88.3972 158.28C88.737 156.949 89.1955 155.65 89.7672 154.4C91.7482 150.03 94.1779 145.878 97.0172 142.01L99.5172 138.48C99.8138 138.029 100.148 137.604 100.517 137.21C100.294 137.694 100.026 138.156 99.7172 138.59C99.1772 139.46 98.3572 140.69 97.3472 142.22C94.6425 146.126 92.2995 150.269 90.3472 154.6C89.7843 155.82 89.3325 157.089 88.9972 158.39C88.6967 159.592 88.6154 160.839 88.7572 162.07C89.0841 164.164 89.851 166.164 91.0072 167.94C91.7672 169.164 92.5883 170.349 93.4672 171.49C93.7767 171.898 94.0542 172.329 94.2972 172.78Z" fill="#263238"/>
<path d="M152.017 151.11C151.959 150.559 151.939 150.004 151.957 149.45C151.962 147.947 151.801 146.448 151.477 144.98C151.243 143.982 150.833 143.034 150.267 142.18C149.601 141.219 148.712 140.433 147.677 139.89C146.516 139.28 145.292 138.797 144.027 138.45L139.947 137.18C134.357 135.44 129.307 133.85 125.657 132.67L121.337 131.24C120.801 131.087 120.28 130.889 119.777 130.65C120.326 130.742 120.868 130.875 121.397 131.05L125.767 132.31C129.437 133.4 134.517 134.95 140.107 136.68L144.187 137.95C145.479 138.322 146.73 138.828 147.917 139.46C149.008 140.051 149.938 140.899 150.627 141.93C151.206 142.832 151.616 143.832 151.837 144.88C152.132 146.381 152.239 147.913 152.157 149.44C152.157 149.98 152.107 150.44 152.077 150.68C152.047 150.92 152.017 151.12 152.017 151.11Z" fill="#263238"/>
<path d="M21.587 37.5402C15.277 35.9002 7.58703 35.6502 3.22703 40.4702C-1.13297 45.2902 -0.29297 52.5202 1.22703 58.7102C5.50825 75.7775 13.4748 91.7004 24.567 105.36L57.377 55.9402C46.157 48.5002 34.647 40.9302 21.587 37.5402Z" fill="#8E80F3"/>
<g opacity="0.5">
<path d="M19.7169 45.0602C15.8869 43.7002 10.9169 43.2102 8.40692 46.4102C6.13692 49.3102 7.25691 53.5302 8.69691 56.9302C13.7969 68.9302 20.7869 82.1202 30.7869 90.4502C35.6369 80.4502 41.2869 71.4502 48.3469 64.1902C40.1869 56.8302 30.0769 48.7302 19.7169 45.0602Z" fill="white"/>
</g>
<path d="M37.577 78.3602C37.2267 78.0827 36.9082 77.7675 36.627 77.4202L34.177 74.7702C32.027 72.4502 29.177 69.4102 26.037 66.0402C22.897 62.6702 20.037 59.5102 18.037 57.2002C17.037 56.0402 16.237 55.1002 15.707 54.4302C15.4063 54.1027 15.1415 53.744 14.917 53.3602C15.2636 53.6346 15.5789 53.9465 15.857 54.2902L18.307 56.9502L26.447 65.6802C29.637 69.0902 32.447 72.2102 34.447 74.5202C35.447 75.6702 36.237 76.6202 36.777 77.2902C37.0772 77.6205 37.3451 77.9788 37.577 78.3602Z" fill="#263238"/>
<path d="M151.077 13.2502C148.457 7.43018 144.537 1.18017 138.237 0.140167C131.937 -0.899833 125.947 4.02017 122.017 9.18017C113.867 19.9302 109.507 33.0002 105.287 45.8102L158.727 63.8802C157.267 45.4502 158.267 29.2302 151.077 13.2502Z" fill="#8E80F3"/>
<g opacity="0.5">
<path d="M128.127 13.9602C130.297 10.5202 133.897 7.06016 137.847 8.02016C141.427 8.89016 143.157 12.9002 144.127 16.4502C147.537 29.0102 150.197 43.1902 147.507 55.9202C139.037 50.9202 129.147 47.3402 118.507 44.4402C120.307 33.6102 122.267 23.2602 128.127 13.9602Z" fill="white"/>
</g>
<path d="M134.817 49.8102C134.754 49.3866 134.737 48.9574 134.767 48.5302C134.767 47.7102 134.767 46.5302 134.877 45.0602C135.007 42.1302 135.297 38.0602 135.677 33.6202C136.057 29.1802 136.377 25.2402 136.627 22.2102C136.737 20.8302 136.827 19.6702 136.897 18.7502C136.91 18.3227 136.963 17.8974 137.057 17.4802C137.103 17.9056 137.103 18.3348 137.057 18.7602C137.057 19.5802 137.057 20.7602 136.947 22.2302C136.817 25.1702 136.527 29.2302 136.147 33.6702C135.767 38.1102 135.447 42.0502 135.197 45.0802C135.087 46.4602 134.997 47.6202 134.927 48.5402C134.937 48.9662 134.9 49.3921 134.817 49.8102Z" fill="#263238"/>
<path d="M182.647 176.7C182.466 177.092 182.245 177.464 181.987 177.81C181.266 178.821 180.463 179.771 179.587 180.65C178.477 181.81 177.047 183.17 175.317 184.65C174.457 185.4 173.517 186.19 172.507 187.01L169.367 189.65C164.132 193.92 158.465 197.631 152.457 200.72C145.093 204.503 137.295 207.374 129.237 209.27C121.176 211.149 112.933 212.135 104.657 212.21C97.9034 212.267 91.1579 211.735 84.4969 210.62C80.0079 209.863 75.5771 208.794 71.2369 207.42C69.7169 206.91 68.5269 206.51 67.7469 206.19L66.8469 205.83L66.5469 205.7C66.656 205.716 66.7633 205.743 66.8669 205.78L67.7769 206.09C68.5769 206.38 69.7769 206.75 71.2969 207.23C75.6476 208.515 80.0768 209.517 84.5569 210.23C91.1994 211.293 97.9203 211.788 104.647 211.71C112.888 211.594 121.092 210.588 129.117 208.71C137.134 206.824 144.896 203.983 152.237 200.25C158.225 197.187 163.887 193.525 169.137 189.32L175.137 184.38C176.877 182.9 178.327 181.57 179.457 180.44C180.339 179.577 181.161 178.655 181.917 177.68C182.417 177.08 182.627 176.68 182.647 176.7Z" fill="#263238"/>
<g opacity="0.5">
<path d="M125.747 155.38C123.01 155.256 120.287 155.834 117.836 157.059C115.386 158.284 113.29 160.116 111.747 162.38C111.537 162.62 111.387 162.907 111.311 163.217C111.234 163.526 111.233 163.85 111.307 164.16C111.44 164.422 111.651 164.636 111.91 164.774C112.17 164.912 112.465 164.966 112.757 164.93C113.338 164.855 113.897 164.657 114.397 164.35L124.937 158.86C125.65 158.574 126.258 158.074 126.677 157.43C127.027 156.75 126.757 155.71 126.007 155.57" fill="white"/>
</g>
<path d="M151.367 58.1802C150.889 57.9873 150.43 57.7496 149.997 57.4702C149.147 56.9802 147.897 56.2802 146.337 55.4702C138.246 51.0825 129.676 47.6431 120.797 45.2202C119.097 44.7502 117.717 44.3902 116.797 44.1502C116.291 44.0562 115.795 43.9122 115.317 43.7202C115.829 43.7557 116.337 43.8326 116.837 43.9502C117.837 44.1302 119.217 44.4302 120.937 44.8602C129.893 47.1211 138.499 50.5931 146.517 55.1802C148.057 56.0602 149.277 56.8102 150.107 57.3602C150.549 57.5972 150.971 57.8715 151.367 58.1802Z" fill="#263238"/>
<path d="M138.597 186.33C138.167 186.853 137.657 187.305 137.087 187.67C135.791 188.648 134.424 189.527 132.997 190.3C131.571 191.073 130.09 191.742 128.567 192.3C127.946 192.57 127.289 192.749 126.617 192.83C126.567 192.68 129.447 191.65 132.747 189.83C136.047 188.01 138.497 186.18 138.597 186.33Z" fill="#263238"/>
<path d="M52.2568 61.0302C51.9274 61.4751 51.5557 61.887 51.1468 62.2602C50.3968 63.0302 49.3368 64.1502 48.0568 65.5702C41.3758 72.9308 35.764 81.1952 31.3868 90.1202C30.5468 91.8302 29.8868 93.2302 29.4468 94.2002C29.2461 94.7166 29.0019 95.2151 28.7168 95.6902C28.8567 95.1559 29.0407 94.6341 29.2668 94.1302C29.6468 93.1302 30.2668 91.7002 31.0568 89.9602C35.2736 80.9014 40.9227 72.5814 47.7868 65.3202C49.1068 63.9302 50.2068 62.8402 50.9968 62.1202C51.3892 61.7261 51.8103 61.3617 52.2568 61.0302Z" fill="#263238"/>
<path d="M260.647 311.29C260.647 311.29 260.447 311.29 260.067 311.16L258.387 310.71C256.927 310.3 254.787 309.71 252.097 308.71C244.632 306.144 237.416 302.904 230.537 299.03L230.797 298.68C236.169 303.947 240.911 309.819 244.927 316.18L245.407 316.96L244.597 316.54C239.622 314.014 234.929 310.967 230.597 307.45C226.479 304.107 222.7 300.366 219.317 296.28L219.747 296.01L227.547 314.52L227.857 315.26L227.207 314.8C220.12 309.765 214.035 303.45 209.267 296.18C207.441 293.444 205.865 290.549 204.557 287.53L204.647 287.67C204.707 287.79 204.777 287.93 204.877 288.11L205.757 289.8C206.557 291.28 207.757 293.43 209.487 296.03C214.289 303.228 220.374 309.482 227.437 314.48L227.097 314.75C224.707 309.12 222.097 302.9 219.257 296.26L218.577 294.66L219.687 296C226.606 304.358 235.161 311.212 244.827 316.14L244.497 316.5C240.51 310.167 235.813 304.309 230.497 299.04L229.317 297.88L230.757 298.7C237.602 302.585 244.769 305.873 252.177 308.53C254.857 309.48 256.977 310.15 258.427 310.61L260.077 311.12L260.647 311.29Z" fill="#263238"/>
<path d="M184.017 166.81C183.207 173.81 181.017 183.46 180.677 190.43L184.587 184.48C185.757 202.66 188.587 225.13 191.177 243.16" fill="#8E80F3"/>
<path d="M191.217 243.18C191.183 243.108 191.163 243.03 191.157 242.95C191.157 242.77 191.077 242.55 191.037 242.28C190.927 241.65 190.787 240.78 190.617 239.69C190.267 237.44 189.787 234.18 189.227 230.14C188.117 222.07 186.677 210.9 185.497 198.52C185.037 193.63 184.657 188.91 184.377 184.52L184.837 184.64C183.457 186.71 182.147 188.7 180.907 190.58L180.437 191.28L180.487 190.44C180.701 187.191 181.092 183.957 181.657 180.75C182.157 177.9 182.597 175.4 182.957 173.32C183.317 171.24 183.597 169.64 183.767 168.53C183.847 168.01 183.917 167.59 183.967 167.26C183.985 167.115 184.015 166.971 184.057 166.83C184.081 166.976 184.081 167.125 184.057 167.27C184.057 167.56 183.997 167.99 183.927 168.55C183.807 169.67 183.577 171.3 183.247 173.37C182.917 175.44 182.517 177.95 182.057 180.81C181.523 184.005 181.159 187.226 180.967 190.46L180.547 190.32L184.437 184.37L184.847 183.75L184.897 184.49C185.187 188.87 185.577 193.58 186.037 198.49C187.217 210.86 188.597 222.03 189.617 230.11C190.127 234.11 190.537 237.38 190.837 239.68C190.967 240.78 191.077 241.68 191.157 242.29L191.227 242.97C191.231 243.04 191.228 243.111 191.217 243.18Z" fill="#263238"/>
<g opacity="0.3">
<path d="M205.017 288.09C202.157 280.78 201.017 273.81 198.137 266.49C199.087 280.44 205.437 293.39 212.047 305.71C214.093 309.861 216.613 313.76 219.557 317.33C222.617 320.79 226.557 323.62 231.137 324.5C231.953 324.74 232.83 324.658 233.587 324.27C235.037 323.32 234.457 321.08 233.587 319.57C232.717 318.06 231.127 311.82 231.127 311.82C238.527 317 249.127 323.19 258.077 324.13C255.697 320.324 253.324 316.51 250.957 312.69C253.566 314.054 256.429 314.861 259.365 315.061C262.302 315.261 265.248 314.848 268.017 313.85C256.667 309.46 243.167 304.45 231.827 300.06C236.76 304.95 241.082 310.42 244.697 316.35C236.017 312.35 225.137 305.04 219.477 296.14C222.807 303.58 226.337 311.63 227.047 314.67C216.677 306.67 209.147 299.16 204.547 286.93" fill="black"/>
</g>
<path d="M175.067 117.89C175.069 123.511 175.686 129.114 176.907 134.6C182.767 160.92 192.957 240.6 193.787 241.6C194.787 242.8 258.617 244.93 258.617 244.93L248.177 231.54L257.337 234.54C257.337 234.54 255.657 231.95 248.177 225.29C238.177 216.39 224.027 107.63 224.027 107.63C225.847 92.7802 227.667 77.8902 227.527 62.9402C227.387 47.9902 225.217 32.9402 219.327 19.0702C217.564 14.5421 215 10.3687 211.757 6.75017C208.387 3.22017 204.287 3.37017 199.547 1.86017C191.047 -0.839833 185.617 3.04016 181.247 7.96017C178.247 11.3102 178.027 15.2402 176.247 19.3302C174.324 20.8221 172.887 22.851 172.117 25.1602C169.537 32.0102 167.497 39.1602 167.207 46.4302C166.917 53.7002 168.627 61.2702 173.207 67.0602L168.857 64.6602L176.787 73.3602L174.787 77.1702C173.565 79.3997 173.072 81.956 173.377 84.4802L176.657 81.0002C174.657 85.1702 174.417 89.1702 173.747 95.4702C173.437 98.2902 173.277 101.13 173.237 103.96L173.097 113.83L175.007 112.23L175.067 117.89Z" fill="#8E80F3"/>
<g opacity="0.5">
<path d="M199.717 126.48C206.377 126.33 213.517 129.26 217.437 134.48C219.577 137.34 220.297 140.94 220.967 144.42C224.167 161.18 227.371 177.937 230.577 194.69C233.777 211.45 236.977 228.23 239.097 245.15C240.157 253.58 240.857 262.52 237.097 270.21C235.667 273.15 233.387 275.97 230.167 276.88C226.597 277.88 222.677 276.25 220.087 273.66C217.497 271.07 215.977 267.66 214.577 264.33C207.647 247.415 201.965 230.015 197.577 212.27C190.407 184.18 190.967 169.69 188.157 140.89C188.237 140.9 187.857 126.74 199.717 126.48Z" fill="white"/>
</g>
<path d="M194.017 8.64017C192.127 6.92017 188.957 7.09017 186.837 8.54017C184.808 10.1024 183.415 12.3482 182.917 14.8602C182.376 16.8194 182.342 18.884 182.817 20.8602C183.067 21.8616 183.522 22.8001 184.154 23.6162C184.785 24.4322 185.58 25.1078 186.487 25.6002C187.415 26.0887 188.46 26.3091 189.505 26.2367C190.551 26.1643 191.556 25.8019 192.407 25.1902C193.887 24.0102 194.497 22.1002 194.897 20.2802C195.677 16.7202 196.777 10.9902 194.017 8.59017" fill="#263238"/>
<path d="M177.397 26.2902C177.077 26.2902 173.087 26.9902 171.647 32.1802C170.207 37.3702 169.587 43.8602 173.697 44.3602C177.807 44.8602 181.507 44.6502 182.017 39.2702C182.527 33.8902 180.687 26.1802 177.397 26.2902Z" fill="#263238"/>
<path d="M206.687 10.5102C206.447 10.5102 202.617 9.74017 200.867 13.1602C199.117 16.5802 196.617 22.5202 198.557 26.2902C200.497 30.0602 205.047 34.4302 208.627 29.1902C212.207 23.9502 212.747 18.4602 212.027 15.7502C211.307 13.0402 206.687 10.5102 206.687 10.5102Z" fill="#263238"/>
<path d="M216.847 34.1802C216.327 34.2602 206.767 39.1802 205.077 43.8602C203.387 48.5402 204.617 49.3402 208.417 51.7402C210.182 52.8568 212.317 53.2311 214.356 52.7816C216.396 52.3321 218.175 51.0952 219.307 49.3402C221.877 45.7502 223.317 33.0802 216.847 34.1802Z" fill="#263238"/>
<g opacity="0.5">
<path d="M201.017 63.3202C200.307 62.0202 198.867 61.4902 197.547 61.0602L189.147 58.3202C187.467 57.7702 185.457 57.3202 184.147 58.5902L182.147 59.1402C182.254 62.2575 182.673 65.3562 183.397 68.3902C184.092 71.3574 185.714 74.0262 188.027 76.0102C189.127 76.9312 190.482 77.496 191.91 77.63C193.339 77.7639 194.775 77.4606 196.027 76.7602C198.617 75.1502 199.827 71.7602 200.847 68.6802C201.337 66.9402 201.887 64.9102 201.017 63.3202Z" fill="white"/>
</g>
<path d="M190.727 43.0302C189.087 45.0802 186.367 45.9402 183.827 46.7802C181.287 47.6202 178.597 48.6702 177.217 50.9002C176.675 51.9109 176.36 53.0274 176.292 54.1722C176.225 55.3171 176.408 56.4628 176.827 57.5302C177.275 59.1265 178.288 60.5056 179.677 61.4102C182.327 62.9302 185.747 61.6702 188.767 62.2602C193.147 63.1202 195.937 67.6902 200.297 68.6902C204.037 69.5502 208.037 67.3502 210.017 64.1402C210.565 63.3413 210.942 62.4372 211.122 61.4854C211.303 60.5335 211.284 59.5544 211.067 58.6102C210.357 56.2202 208.067 54.6902 205.807 53.4702C203.547 52.2502 201.167 50.9902 200.007 48.7802C199.484 47.5151 199.086 46.2023 198.817 44.8602C198.672 44.1836 198.391 43.5437 197.991 42.9797C197.59 42.4156 197.078 41.9394 196.487 41.5802C194.627 40.6702 192.357 41.7302 190.887 43.1602" fill="#263238"/>
<g opacity="0.3">
<path d="M202.957 113.36C201.197 111.3 199.367 109.3 197.467 107.36L188.727 112.18C189.931 114.535 191.684 116.565 193.837 118.1C194.934 118.863 196.183 119.379 197.499 119.61C198.815 119.842 200.166 119.784 201.457 119.44C202.977 118.97 204.457 117.75 204.407 116.21C204.268 115.121 203.756 114.114 202.957 113.36Z" fill="black"/>
</g>
<path d="M196.767 107.12C195.858 106.752 194.877 106.595 193.898 106.66C192.919 106.726 191.968 107.013 191.117 107.5C190.289 107.99 189.626 108.717 189.214 109.586C188.803 110.456 188.661 111.429 188.807 112.38C189.23 113.96 190.247 115.314 191.647 116.16C192.939 117.017 194.389 117.608 195.912 117.899C197.435 118.189 199 118.172 200.517 117.85C202.097 117.51 203.777 116.61 204.047 115.07C204.049 113.767 203.616 112.5 202.817 111.47C201.216 109.515 199.13 108.015 196.767 107.12Z" fill="#263238"/>
<path d="M201.707 99.6602C201.707 99.6602 201.577 99.5902 201.377 99.4202C201.177 99.2502 200.857 99.0002 200.487 98.6502C199.418 97.6682 198.416 96.6159 197.487 95.5002C194.433 91.8077 192.136 87.5501 190.727 82.9702L191.237 82.9002C191.237 84.2902 191.167 85.6502 191.127 86.9602C191.127 87.6202 191.127 88.2602 191.067 88.8902V89.8302C191.081 90.1717 191.023 90.5124 190.897 90.8302C190.826 91.0078 190.713 91.1656 190.567 91.2902C190.48 91.3538 190.381 91.3991 190.277 91.4231C190.172 91.4472 190.063 91.4496 189.957 91.4302C189.788 91.3814 189.631 91.2986 189.495 91.1868C189.359 91.075 189.248 90.9367 189.167 90.7802C188.857 90.2902 188.557 89.7802 188.307 89.3302C187.836 88.4429 187.435 87.5201 187.107 86.5702C186.639 85.1919 186.344 83.761 186.227 82.3102C186.206 81.9171 186.206 81.5232 186.227 81.1302C186.204 80.9945 186.204 80.8558 186.227 80.7202C186.405 82.6694 186.818 84.5901 187.457 86.4402C187.799 87.3665 188.21 88.2657 188.687 89.1302C188.947 89.5902 189.237 90.0502 189.547 90.5302C189.857 91.0102 190.267 91.1602 190.457 90.6502C190.588 90.0767 190.639 89.4876 190.607 88.9002C190.607 88.2702 190.607 87.6202 190.607 86.9702C190.607 85.6502 190.667 84.2902 190.707 82.9002V81.3002L191.177 82.8302C192.571 87.353 194.792 91.5779 197.727 95.2902C198.847 96.7102 199.847 97.7902 200.547 98.5302C200.962 98.8766 201.35 99.2544 201.707 99.6602Z" fill="#263238"/>
<path d="M202.547 38.0302C202.098 37.5728 201.692 37.0739 201.337 36.5402L198.267 32.3902L198.637 32.2802C198.637 33.7402 198.567 35.3702 198.527 37.1102V37.7202L198.117 37.2702C197.029 36.0667 196.211 34.6451 195.717 33.1002H196.197C195.877 33.8302 195.537 34.5902 195.197 35.3702L194.277 37.4202L194.107 37.8002L193.847 37.4802C193.286 36.7905 192.918 35.9636 192.783 35.0847C192.648 34.2058 192.749 33.3068 193.077 32.4802L193.447 32.7602C191.79 34.0529 190 35.1658 188.107 36.0802L187.647 36.3102L187.857 35.8502C188.435 34.5796 189.234 33.4217 190.217 32.4302C190.478 32.1595 190.759 31.9088 191.057 31.6802C191.257 31.5202 191.367 31.4502 191.387 31.4602C191.407 31.4702 190.997 31.8502 190.387 32.5702C189.483 33.5853 188.751 34.7403 188.217 35.9902L187.967 35.7602C189.803 34.8001 191.544 33.6683 193.167 32.3802L193.887 31.8102L193.547 32.6602C193.263 33.4021 193.179 34.2056 193.304 34.9902C193.428 35.7748 193.757 36.5128 194.257 37.1302L193.827 37.1902L194.737 35.1402L195.737 32.8702L196.017 32.2502L196.217 32.8902C196.689 34.3659 197.462 35.7279 198.487 36.8902L198.067 37.0402C198.137 35.2902 198.197 33.6702 198.257 32.2102V31.6002L198.597 32.0902L201.527 36.3502C201.906 36.8853 202.247 37.4467 202.547 38.0302Z" fill="#263238"/>
<path d="M193.777 2.92016C193.479 2.70083 193.118 2.58255 192.747 2.58255C192.377 2.58255 192.016 2.70083 191.717 2.92016C191.427 3.08918 191.176 3.31713 190.98 3.58928C190.783 3.86143 190.646 4.17174 190.577 4.50017C190.534 4.66117 190.536 4.83087 190.581 4.99115C190.627 5.15143 190.716 5.29626 190.837 5.41016C191.014 5.5528 191.217 5.65825 191.435 5.72012C191.654 5.782 191.882 5.79901 192.107 5.77016C192.457 5.76111 192.8 5.67377 193.112 5.51456C193.423 5.35534 193.695 5.12831 193.907 4.85016C194.121 4.56638 194.225 4.21529 194.201 3.86098C194.177 3.50666 194.027 3.17275 193.777 2.92016Z" fill="#E0E0E0"/>
<path d="M209.717 8.08015C209.405 7.28936 208.843 6.62218 208.117 6.18016C208.037 6.11869 207.944 6.07525 207.846 6.05281C207.748 6.03037 207.646 6.02946 207.547 6.05015C207.387 6.11015 207.027 6.23016 206.937 6.37016C206.8 6.57139 206.709 6.79989 206.669 7.03988C206.629 7.27988 206.642 7.52563 206.707 7.76016C206.898 8.22677 207.235 8.61905 207.668 8.87854C208.1 9.13803 208.605 9.25084 209.107 9.20016C209.345 9.18633 209.568 9.07841 209.727 8.90016C209.794 8.77373 209.829 8.63225 209.827 8.48887C209.825 8.3455 209.787 8.2049 209.717 8.08015Z" fill="#E0E0E0"/>
<g opacity="0.3">
<path d="M185.297 192C183.233 208.303 185.271 224.864 191.227 240.18C190.077 223.59 187.227 208.01 185.827 190.96" fill="black"/>
</g>
<g opacity="0.3">
<path d="M200.387 98.8002C196.469 94.2242 193.306 89.0526 191.017 83.4802C191.196 85.5953 191.085 87.7251 190.687 89.8102C190.627 90.2402 190.687 91.1202 190.237 91.2002C189.787 91.2802 189.237 90.5302 189.047 90.2002C187.478 87.826 186.488 85.1167 186.157 82.2902L185.947 83.2102C185.721 84.8943 185.863 86.6072 186.362 88.2315C186.861 89.8558 187.705 91.3529 188.837 92.6202C189.059 92.9175 189.345 93.1615 189.674 93.3345C190.003 93.5075 190.366 93.6051 190.737 93.6202C191.092 93.5625 191.422 93.4019 191.687 93.1584C191.952 92.915 192.14 92.5992 192.227 92.2502C192.372 91.5543 192.372 90.836 192.227 90.1402C192.848 92.1046 193.904 93.9036 195.317 95.403C196.73 96.9025 198.463 98.0637 200.387 98.8002Z" fill="black"/>
</g>
<path d="M215.797 185.45C215.638 185.354 215.49 185.24 215.357 185.11C215.087 184.88 214.667 184.54 214.177 184.06C212.746 182.721 211.41 181.284 210.177 179.76C206.01 174.649 202.982 168.706 201.297 162.33L201.807 162.24C201.877 163.09 201.947 164 202.027 164.91C202.293 168.841 202.353 172.783 202.207 176.72V177.43L201.807 176.85C199.194 173.199 197.234 169.122 196.017 164.8C195.673 163.574 195.399 162.328 195.197 161.07C195.127 160.63 195.097 160.29 195.067 160.07C195.056 159.954 195.056 159.837 195.067 159.72C195.201 160.156 195.305 160.6 195.377 161.05C195.557 161.92 195.847 163.18 196.317 164.73C197.597 168.971 199.563 172.974 202.137 176.58L201.697 176.71C201.807 173.1 201.757 169.12 201.477 164.96C201.397 164.05 201.327 163.15 201.267 162.3L201.767 162.21C203.436 168.522 206.384 174.424 210.427 179.55C211.625 181.086 212.914 182.548 214.287 183.93C214.757 184.43 215.157 184.79 215.407 185.05C215.549 185.171 215.68 185.305 215.797 185.45Z" fill="#263238"/>
<path d="M257.917 265.77C258.036 266.195 258.109 266.63 258.137 267.07C258.247 267.92 258.337 269.14 258.407 270.65C258.734 278.576 257.585 286.494 255.017 294C254.527 295.43 254.077 296.58 253.737 297.35C253.589 297.767 253.394 298.166 253.157 298.54C253.247 298.109 253.377 297.687 253.547 297.28C253.827 296.48 254.217 295.28 254.667 293.88C255.839 290.131 256.715 286.296 257.287 282.41C257.842 278.519 258.096 274.591 258.047 270.66C258.047 269.16 257.977 267.93 257.927 267.09C257.883 266.651 257.88 266.21 257.917 265.77Z" fill="#263238"/>
</svg>
