<svg width="87" height="87" viewBox="0 0 87 87" fill="none" xmlns="http://www.w3.org/2000/svg">
<path id="Vector" d="M0.712402 0.888245H4.12789V4.30373H0.712402V0.888245ZM4.12789 0.888245H7.54337V4.30373H4.12789V0.888245ZM7.54337 0.888245H10.9589V4.30373H7.54337V0.888245ZM10.9589 0.888245H14.3743V4.30373H10.9589V0.888245ZM14.3743 0.888245H17.7898V4.30373H14.3743V0.888245ZM17.7898 0.888245H21.2053V4.30373H17.7898V0.888245ZM21.2053 0.888245H24.6208V4.30373H21.2053V0.888245ZM38.2827 0.888245H41.6982V4.30373H38.2827V0.888245ZM48.5292 0.888245H51.9447V4.30373H48.5292V0.888245ZM51.9447 0.888245H55.3602V4.30373H51.9447V0.888245ZM55.3602 0.888245H58.7756V4.30373H55.3602V0.888245ZM62.1911 0.888245H65.6066V4.30373H62.1911V0.888245ZM65.6066 0.888245H69.0221V4.30373H65.6066V0.888245ZM69.0221 0.888245H72.4376V4.30373H69.0221V0.888245ZM72.4376 0.888245H75.8531V4.30373H72.4376V0.888245ZM75.8531 0.888245H79.2685V4.30373H75.8531V0.888245ZM79.2685 0.888245H82.684V4.30373H79.2685V0.888245ZM82.684 0.888245H86.0995V4.30373H82.684V0.888245ZM0.712402 4.30373H4.12789V7.71921H0.712402V4.30373ZM21.2053 4.30373H24.6208V7.71921H21.2053V4.30373ZM31.4518 4.30373H34.8672V7.71921H31.4518V4.30373ZM45.1137 4.30373H48.5292V7.71921H45.1137V4.30373ZM48.5292 4.30373H51.9447V7.71921H48.5292V4.30373ZM55.3602 4.30373H58.7756V7.71921H55.3602V4.30373ZM62.1911 4.30373H65.6066V7.71921H62.1911V4.30373ZM82.684 4.30373H86.0995V7.71921H82.684V4.30373ZM0.712402 7.71921H4.12789V11.1347H0.712402V7.71921ZM7.54337 7.71921H10.9589V11.1347H7.54337V7.71921ZM10.9589 7.71921H14.3743V11.1347H10.9589V7.71921ZM14.3743 7.71921H17.7898V11.1347H14.3743V7.71921ZM21.2053 7.71921H24.6208V11.1347H21.2053V7.71921ZM31.4518 7.71921H34.8672V11.1347H31.4518V7.71921ZM34.8672 7.71921H38.2827V11.1347H34.8672V7.71921ZM41.6982 7.71921H45.1137V11.1347H41.6982V7.71921ZM48.5292 7.71921H51.9447V11.1347H48.5292V7.71921ZM51.9447 7.71921H55.3602V11.1347H51.9447V7.71921ZM62.1911 7.71921H65.6066V11.1347H62.1911V7.71921ZM69.0221 7.71921H72.4376V11.1347H69.0221V7.71921ZM72.4376 7.71921H75.8531V11.1347H72.4376V7.71921ZM75.8531 7.71921H79.2685V11.1347H75.8531V7.71921ZM82.684 7.71921H86.0995V11.1347H82.684V7.71921ZM0.712402 11.1347H4.12789V14.5502H0.712402V11.1347ZM7.54337 11.1347H10.9589V14.5502H7.54337V11.1347ZM10.9589 11.1347H14.3743V14.5502H10.9589V11.1347ZM14.3743 11.1347H17.7898V14.5502H14.3743V11.1347ZM21.2053 11.1347H24.6208V14.5502H21.2053V11.1347ZM28.0363 11.1347H31.4518V14.5502H28.0363V11.1347ZM31.4518 11.1347H34.8672V14.5502H31.4518V11.1347ZM41.6982 11.1347H45.1137V14.5502H41.6982V11.1347ZM48.5292 11.1347H51.9447V14.5502H48.5292V11.1347ZM51.9447 11.1347H55.3602V14.5502H51.9447V11.1347ZM62.1911 11.1347H65.6066V14.5502H62.1911V11.1347ZM69.0221 11.1347H72.4376V14.5502H69.0221V11.1347ZM72.4376 11.1347H75.8531V14.5502H72.4376V11.1347ZM75.8531 11.1347H79.2685V14.5502H75.8531V11.1347ZM82.684 11.1347H86.0995V14.5502H82.684V11.1347ZM0.712402 14.5502H4.12789V17.9657H0.712402V14.5502ZM7.54337 14.5502H10.9589V17.9657H7.54337V14.5502ZM10.9589 14.5502H14.3743V17.9657H10.9589V14.5502ZM14.3743 14.5502H17.7898V17.9657H14.3743V14.5502ZM21.2053 14.5502H24.6208V17.9657H21.2053V14.5502ZM34.8672 14.5502H38.2827V17.9657H34.8672V14.5502ZM38.2827 14.5502H41.6982V17.9657H38.2827V14.5502ZM41.6982 14.5502H45.1137V17.9657H41.6982V14.5502ZM45.1137 14.5502H48.5292V17.9657H45.1137V14.5502ZM48.5292 14.5502H51.9447V17.9657H48.5292V14.5502ZM62.1911 14.5502H65.6066V17.9657H62.1911V14.5502ZM69.0221 14.5502H72.4376V17.9657H69.0221V14.5502ZM72.4376 14.5502H75.8531V17.9657H72.4376V14.5502ZM75.8531 14.5502H79.2685V17.9657H75.8531V14.5502ZM82.684 14.5502H86.0995V17.9657H82.684V14.5502ZM0.712402 17.9657H4.12789V21.3812H0.712402V17.9657ZM21.2053 17.9657H24.6208V21.3812H21.2053V17.9657ZM28.0363 17.9657H31.4518V21.3812H28.0363V17.9657ZM38.2827 17.9657H41.6982V21.3812H38.2827V17.9657ZM55.3602 17.9657H58.7756V21.3812H55.3602V17.9657ZM62.1911 17.9657H65.6066V21.3812H62.1911V17.9657ZM82.684 17.9657H86.0995V21.3812H82.684V17.9657ZM0.712402 21.3812H4.12789V24.7966H0.712402V21.3812ZM4.12789 21.3812H7.54337V24.7966H4.12789V21.3812ZM7.54337 21.3812H10.9589V24.7966H7.54337V21.3812ZM10.9589 21.3812H14.3743V24.7966H10.9589V21.3812ZM14.3743 21.3812H17.7898V24.7966H14.3743V21.3812ZM17.7898 21.3812H21.2053V24.7966H17.7898V21.3812ZM21.2053 21.3812H24.6208V24.7966H21.2053V21.3812ZM28.0363 21.3812H31.4518V24.7966H28.0363V21.3812ZM34.8672 21.3812H38.2827V24.7966H34.8672V21.3812ZM41.6982 21.3812H45.1137V24.7966H41.6982V21.3812ZM48.5292 21.3812H51.9447V24.7966H48.5292V21.3812ZM55.3602 21.3812H58.7756V24.7966H55.3602V21.3812ZM62.1911 21.3812H65.6066V24.7966H62.1911V21.3812ZM65.6066 21.3812H69.0221V24.7966H65.6066V21.3812ZM69.0221 21.3812H72.4376V24.7966H69.0221V21.3812ZM72.4376 21.3812H75.8531V24.7966H72.4376V21.3812ZM75.8531 21.3812H79.2685V24.7966H75.8531V21.3812ZM79.2685 21.3812H82.684V24.7966H79.2685V21.3812ZM82.684 21.3812H86.0995V24.7966H82.684V21.3812ZM28.0363 24.7966H31.4518V28.2121H28.0363V24.7966ZM31.4518 24.7966H34.8672V28.2121H31.4518V24.7966ZM34.8672 24.7966H38.2827V28.2121H34.8672V24.7966ZM48.5292 24.7966H51.9447V28.2121H48.5292V24.7966ZM51.9447 24.7966H55.3602V28.2121H51.9447V24.7966ZM55.3602 24.7966H58.7756V28.2121H55.3602V24.7966ZM4.12789 28.2121H7.54337V31.6276H4.12789V28.2121ZM7.54337 28.2121H10.9589V31.6276H7.54337V28.2121ZM21.2053 28.2121H24.6208V31.6276H21.2053V28.2121ZM45.1137 28.2121H48.5292V31.6276H45.1137V28.2121ZM48.5292 28.2121H51.9447V31.6276H48.5292V28.2121ZM55.3602 28.2121H58.7756V31.6276H55.3602V28.2121ZM62.1911 28.2121H65.6066V31.6276H62.1911V28.2121ZM65.6066 28.2121H69.0221V31.6276H65.6066V28.2121ZM72.4376 28.2121H75.8531V31.6276H72.4376V28.2121ZM4.12789 31.6276H7.54337V35.0431H4.12789V31.6276ZM7.54337 31.6276H10.9589V35.0431H7.54337V31.6276ZM14.3743 31.6276H17.7898V35.0431H14.3743V31.6276ZM24.6208 31.6276H28.0363V35.0431H24.6208V31.6276ZM34.8672 31.6276H38.2827V35.0431H34.8672V31.6276ZM38.2827 31.6276H41.6982V35.0431H38.2827V31.6276ZM41.6982 31.6276H45.1137V35.0431H41.6982V31.6276ZM45.1137 31.6276H48.5292V35.0431H45.1137V31.6276ZM48.5292 31.6276H51.9447V35.0431H48.5292V31.6276ZM51.9447 31.6276H55.3602V35.0431H51.9447V31.6276ZM55.3602 31.6276H58.7756V35.0431H55.3602V31.6276ZM62.1911 31.6276H65.6066V35.0431H62.1911V31.6276ZM65.6066 31.6276H69.0221V35.0431H65.6066V31.6276ZM72.4376 31.6276H75.8531V35.0431H72.4376V31.6276ZM79.2685 31.6276H82.684V35.0431H79.2685V31.6276ZM82.684 31.6276H86.0995V35.0431H82.684V31.6276ZM21.2053 35.0431H24.6208V38.4586H21.2053V35.0431ZM38.2827 35.0431H41.6982V38.4586H38.2827V35.0431ZM51.9447 35.0431H55.3602V38.4586H51.9447V35.0431ZM58.7756 35.0431H62.1911V38.4586H58.7756V35.0431ZM65.6066 35.0431H69.0221V38.4586H65.6066V35.0431ZM72.4376 35.0431H75.8531V38.4586H72.4376V35.0431ZM75.8531 35.0431H79.2685V38.4586H75.8531V35.0431ZM82.684 35.0431H86.0995V38.4586H82.684V35.0431ZM0.712402 38.4586H4.12789V41.8741H0.712402V38.4586ZM4.12789 38.4586H7.54337V41.8741H4.12789V38.4586ZM14.3743 38.4586H17.7898V41.8741H14.3743V38.4586ZM24.6208 38.4586H28.0363V41.8741H24.6208V38.4586ZM31.4518 38.4586H34.8672V41.8741H31.4518V38.4586ZM34.8672 38.4586H38.2827V41.8741H34.8672V38.4586ZM45.1137 38.4586H48.5292V41.8741H45.1137V38.4586ZM51.9447 38.4586H55.3602V41.8741H51.9447V38.4586ZM58.7756 38.4586H62.1911V41.8741H58.7756V38.4586ZM65.6066 38.4586H69.0221V41.8741H65.6066V38.4586ZM72.4376 38.4586H75.8531V41.8741H72.4376V38.4586ZM0.712402 41.8741H4.12789V45.2895H0.712402V41.8741ZM4.12789 41.8741H7.54337V45.2895H4.12789V41.8741ZM10.9589 41.8741H14.3743V45.2895H10.9589V41.8741ZM21.2053 41.8741H24.6208V45.2895H21.2053V41.8741ZM24.6208 41.8741H28.0363V45.2895H24.6208V41.8741ZM28.0363 41.8741H31.4518V45.2895H28.0363V41.8741ZM31.4518 41.8741H34.8672V45.2895H31.4518V41.8741ZM34.8672 41.8741H38.2827V45.2895H34.8672V41.8741ZM45.1137 41.8741H48.5292V45.2895H45.1137V41.8741ZM51.9447 41.8741H55.3602V45.2895H51.9447V41.8741ZM55.3602 41.8741H58.7756V45.2895H55.3602V41.8741ZM62.1911 41.8741H65.6066V45.2895H62.1911V41.8741ZM65.6066 41.8741H69.0221V45.2895H65.6066V41.8741ZM82.684 41.8741H86.0995V45.2895H82.684V41.8741ZM7.54337 45.2895H10.9589V48.705H7.54337V45.2895ZM10.9589 45.2895H14.3743V48.705H10.9589V45.2895ZM14.3743 45.2895H17.7898V48.705H14.3743V45.2895ZM34.8672 45.2895H38.2827V48.705H34.8672V45.2895ZM38.2827 45.2895H41.6982V48.705H38.2827V45.2895ZM41.6982 45.2895H45.1137V48.705H41.6982V45.2895ZM51.9447 45.2895H55.3602V48.705H51.9447V45.2895ZM55.3602 45.2895H58.7756V48.705H55.3602V45.2895ZM62.1911 45.2895H65.6066V48.705H62.1911V45.2895ZM65.6066 45.2895H69.0221V48.705H65.6066V45.2895ZM79.2685 45.2895H82.684V48.705H79.2685V45.2895ZM82.684 45.2895H86.0995V48.705H82.684V45.2895ZM0.712402 48.705H4.12789V52.1205H0.712402V48.705ZM4.12789 48.705H7.54337V52.1205H4.12789V48.705ZM10.9589 48.705H14.3743V52.1205H10.9589V48.705ZM17.7898 48.705H21.2053V52.1205H17.7898V48.705ZM21.2053 48.705H24.6208V52.1205H21.2053V48.705ZM28.0363 48.705H31.4518V52.1205H28.0363V48.705ZM31.4518 48.705H34.8672V52.1205H31.4518V48.705ZM34.8672 48.705H38.2827V52.1205H34.8672V48.705ZM41.6982 48.705H45.1137V52.1205H41.6982V48.705ZM51.9447 48.705H55.3602V52.1205H51.9447V48.705ZM55.3602 48.705H58.7756V52.1205H55.3602V48.705ZM62.1911 48.705H65.6066V52.1205H62.1911V48.705ZM72.4376 48.705H75.8531V52.1205H72.4376V48.705ZM75.8531 48.705H79.2685V52.1205H75.8531V48.705ZM82.684 48.705H86.0995V52.1205H82.684V48.705ZM7.54337 52.1205H10.9589V55.536H7.54337V52.1205ZM10.9589 52.1205H14.3743V55.536H10.9589V52.1205ZM14.3743 52.1205H17.7898V55.536H14.3743V52.1205ZM24.6208 52.1205H28.0363V55.536H24.6208V52.1205ZM34.8672 52.1205H38.2827V55.536H34.8672V52.1205ZM48.5292 52.1205H51.9447V55.536H48.5292V52.1205ZM51.9447 52.1205H55.3602V55.536H51.9447V52.1205ZM55.3602 52.1205H58.7756V55.536H55.3602V52.1205ZM58.7756 52.1205H62.1911V55.536H58.7756V52.1205ZM62.1911 52.1205H65.6066V55.536H62.1911V52.1205ZM65.6066 52.1205H69.0221V55.536H65.6066V52.1205ZM69.0221 52.1205H72.4376V55.536H69.0221V52.1205ZM72.4376 52.1205H75.8531V55.536H72.4376V52.1205ZM0.712402 55.536H4.12789V58.9515H0.712402V55.536ZM4.12789 55.536H7.54337V58.9515H4.12789V55.536ZM7.54337 55.536H10.9589V58.9515H7.54337V55.536ZM14.3743 55.536H17.7898V58.9515H14.3743V55.536ZM21.2053 55.536H24.6208V58.9515H21.2053V55.536ZM28.0363 55.536H31.4518V58.9515H28.0363V55.536ZM38.2827 55.536H41.6982V58.9515H38.2827V55.536ZM55.3602 55.536H58.7756V58.9515H55.3602V55.536ZM58.7756 55.536H62.1911V58.9515H58.7756V55.536ZM62.1911 55.536H65.6066V58.9515H62.1911V55.536ZM65.6066 55.536H69.0221V58.9515H65.6066V55.536ZM69.0221 55.536H72.4376V58.9515H69.0221V55.536ZM79.2685 55.536H82.684V58.9515H79.2685V55.536ZM28.0363 58.9515H31.4518V62.367H28.0363V58.9515ZM31.4518 58.9515H34.8672V62.367H31.4518V58.9515ZM34.8672 58.9515H38.2827V62.367H34.8672V58.9515ZM38.2827 58.9515H41.6982V62.367H38.2827V58.9515ZM45.1137 58.9515H48.5292V62.367H45.1137V58.9515ZM48.5292 58.9515H51.9447V62.367H48.5292V58.9515ZM55.3602 58.9515H58.7756V62.367H55.3602V58.9515ZM69.0221 58.9515H72.4376V62.367H69.0221V58.9515ZM82.684 58.9515H86.0995V62.367H82.684V58.9515ZM0.712402 62.367H4.12789V65.7825H0.712402V62.367ZM4.12789 62.367H7.54337V65.7825H4.12789V62.367ZM7.54337 62.367H10.9589V65.7825H7.54337V62.367ZM10.9589 62.367H14.3743V65.7825H10.9589V62.367ZM14.3743 62.367H17.7898V65.7825H14.3743V62.367ZM17.7898 62.367H21.2053V65.7825H17.7898V62.367ZM21.2053 62.367H24.6208V65.7825H21.2053V62.367ZM34.8672 62.367H38.2827V65.7825H34.8672V62.367ZM38.2827 62.367H41.6982V65.7825H38.2827V62.367ZM48.5292 62.367H51.9447V65.7825H48.5292V62.367ZM55.3602 62.367H58.7756V65.7825H55.3602V62.367ZM62.1911 62.367H65.6066V65.7825H62.1911V62.367ZM69.0221 62.367H72.4376V65.7825H69.0221V62.367ZM82.684 62.367H86.0995V65.7825H82.684V62.367ZM0.712402 65.7825H4.12789V69.1979H0.712402V65.7825ZM21.2053 65.7825H24.6208V69.1979H21.2053V65.7825ZM31.4518 65.7825H34.8672V69.1979H31.4518V65.7825ZM34.8672 65.7825H38.2827V69.1979H34.8672V65.7825ZM41.6982 65.7825H45.1137V69.1979H41.6982V65.7825ZM45.1137 65.7825H48.5292V69.1979H45.1137V65.7825ZM55.3602 65.7825H58.7756V69.1979H55.3602V65.7825ZM69.0221 65.7825H72.4376V69.1979H69.0221V65.7825ZM79.2685 65.7825H82.684V69.1979H79.2685V65.7825ZM0.712402 69.1979H4.12789V72.6134H0.712402V69.1979ZM7.54337 69.1979H10.9589V72.6134H7.54337V69.1979ZM10.9589 69.1979H14.3743V72.6134H10.9589V69.1979ZM14.3743 69.1979H17.7898V72.6134H14.3743V69.1979ZM21.2053 69.1979H24.6208V72.6134H21.2053V69.1979ZM31.4518 69.1979H34.8672V72.6134H31.4518V69.1979ZM34.8672 69.1979H38.2827V72.6134H34.8672V69.1979ZM48.5292 69.1979H51.9447V72.6134H48.5292V69.1979ZM51.9447 69.1979H55.3602V72.6134H51.9447V69.1979ZM55.3602 69.1979H58.7756V72.6134H55.3602V69.1979ZM58.7756 69.1979H62.1911V72.6134H58.7756V69.1979ZM62.1911 69.1979H65.6066V72.6134H62.1911V69.1979ZM65.6066 69.1979H69.0221V72.6134H65.6066V69.1979ZM69.0221 69.1979H72.4376V72.6134H69.0221V69.1979ZM79.2685 69.1979H82.684V72.6134H79.2685V69.1979ZM82.684 69.1979H86.0995V72.6134H82.684V69.1979ZM0.712402 72.6134H4.12789V76.0289H0.712402V72.6134ZM7.54337 72.6134H10.9589V76.0289H7.54337V72.6134ZM10.9589 72.6134H14.3743V76.0289H10.9589V72.6134ZM14.3743 72.6134H17.7898V76.0289H14.3743V72.6134ZM21.2053 72.6134H24.6208V76.0289H21.2053V72.6134ZM31.4518 72.6134H34.8672V76.0289H31.4518V72.6134ZM34.8672 72.6134H38.2827V76.0289H34.8672V72.6134ZM38.2827 72.6134H41.6982V76.0289H38.2827V72.6134ZM41.6982 72.6134H45.1137V76.0289H41.6982V72.6134ZM51.9447 72.6134H55.3602V76.0289H51.9447V72.6134ZM58.7756 72.6134H62.1911V76.0289H58.7756V72.6134ZM69.0221 72.6134H72.4376V76.0289H69.0221V72.6134ZM75.8531 72.6134H79.2685V76.0289H75.8531V72.6134ZM79.2685 72.6134H82.684V76.0289H79.2685V72.6134ZM0.712402 76.0289H4.12789V79.4444H0.712402V76.0289ZM7.54337 76.0289H10.9589V79.4444H7.54337V76.0289ZM10.9589 76.0289H14.3743V79.4444H10.9589V76.0289ZM14.3743 76.0289H17.7898V79.4444H14.3743V76.0289ZM21.2053 76.0289H24.6208V79.4444H21.2053V76.0289ZM28.0363 76.0289H31.4518V79.4444H28.0363V76.0289ZM45.1137 76.0289H48.5292V79.4444H45.1137V76.0289ZM48.5292 76.0289H51.9447V79.4444H48.5292V76.0289ZM51.9447 76.0289H55.3602V79.4444H51.9447V76.0289ZM55.3602 76.0289H58.7756V79.4444H55.3602V76.0289ZM58.7756 76.0289H62.1911V79.4444H58.7756V76.0289ZM65.6066 76.0289H69.0221V79.4444H65.6066V76.0289ZM69.0221 76.0289H72.4376V79.4444H69.0221V76.0289ZM72.4376 76.0289H75.8531V79.4444H72.4376V76.0289ZM79.2685 76.0289H82.684V79.4444H79.2685V76.0289ZM82.684 76.0289H86.0995V79.4444H82.684V76.0289ZM0.712402 79.4444H4.12789V82.8599H0.712402V79.4444ZM21.2053 79.4444H24.6208V82.8599H21.2053V79.4444ZM28.0363 79.4444H31.4518V82.8599H28.0363V79.4444ZM31.4518 79.4444H34.8672V82.8599H31.4518V79.4444ZM34.8672 79.4444H38.2827V82.8599H34.8672V79.4444ZM45.1137 79.4444H48.5292V82.8599H45.1137V79.4444ZM55.3602 79.4444H58.7756V82.8599H55.3602V79.4444ZM58.7756 79.4444H62.1911V82.8599H58.7756V79.4444ZM62.1911 79.4444H65.6066V82.8599H62.1911V79.4444ZM65.6066 79.4444H69.0221V82.8599H65.6066V79.4444ZM69.0221 79.4444H72.4376V82.8599H69.0221V79.4444ZM0.712402 82.8599H4.12789V86.2754H0.712402V82.8599ZM4.12789 82.8599H7.54337V86.2754H4.12789V82.8599ZM7.54337 82.8599H10.9589V86.2754H7.54337V82.8599ZM10.9589 82.8599H14.3743V86.2754H10.9589V82.8599ZM14.3743 82.8599H17.7898V86.2754H14.3743V82.8599ZM17.7898 82.8599H21.2053V86.2754H17.7898V82.8599ZM21.2053 82.8599H24.6208V86.2754H21.2053V82.8599ZM34.8672 82.8599H38.2827V86.2754H34.8672V82.8599ZM41.6982 82.8599H45.1137V86.2754H41.6982V82.8599ZM55.3602 82.8599H58.7756V86.2754H55.3602V82.8599ZM62.1911 82.8599H65.6066V86.2754H62.1911V82.8599ZM72.4376 82.8599H75.8531V86.2754H72.4376V82.8599ZM82.684 82.8599H86.0995V86.2754H82.684V82.8599Z" fill="black"/>
</svg>
