<svg width="27" height="31" viewBox="0 0 27 31" fill="none" xmlns="http://www.w3.org/2000/svg">
<g clip-path="url(#clip0_369_3217)">
<path d="M8.04578 0.0785322C6.90984 0.392615 6.04087 1.38198 5.69538 2.75871C5.53834 3.38688 5.53311 4.65368 5.69015 5.39178C6.06181 7.13494 7.21345 8.56926 8.48549 8.87287C10.1554 9.26548 11.6054 8.10337 12.155 5.93096C12.2597 5.53312 12.2754 5.3342 12.2702 4.4757C12.2702 3.39211 12.2283 3.11991 11.9352 2.37134C11.7363 1.8531 11.4274 1.38198 10.9772 0.910853C10.5899 0.49731 10.1187 0.214635 9.60049 0.0785322C9.22882 -0.0156937 8.3965 -0.0156937 8.04578 0.0785322Z" fill="#4BE6D0"/>
<path d="M17.1856 0.0785217C16.0026 0.39784 14.9556 1.65417 14.6154 3.16178C14.5578 3.42875 14.5316 3.81088 14.5316 4.50187C14.5316 5.33419 14.5473 5.53834 14.6468 5.93095C15.0342 7.48566 15.9293 8.57972 17.0391 8.87286C17.9708 9.11366 18.9445 8.82052 19.6826 8.06672C20.4573 7.28151 20.9546 6.31308 21.1535 5.18238C21.2635 4.54374 21.2425 3.30835 21.1064 2.7587C20.7609 1.37673 19.8867 0.382135 18.7351 0.0785217C18.3791 -0.0209379 17.5416 -0.0157032 17.1856 0.0785217Z" fill="#4BE6D0"/>
<path d="M2.17241 6.79468C1.36102 7.07736 0.717152 7.74217 0.329782 8.70012C-0.0994655 9.76277 -0.11517 11.6473 0.293139 12.8722C0.565345 13.6783 1.20922 14.7044 1.69081 15.097C2.3818 15.6571 3.29264 15.8036 4.00456 15.4686C4.39717 15.2854 5.02533 14.6625 5.30277 14.1861C5.56974 13.7255 5.80007 13.1078 5.93094 12.511C6.01993 12.1132 6.04087 11.8357 6.04087 11.1238C6.04087 10.616 6.00946 10.0978 5.97282 9.91981C5.6378 8.30228 4.70078 7.06689 3.59102 6.77374C3.21412 6.67428 2.49696 6.68475 2.17241 6.79468Z" fill="#4BE6D0"/>
<path d="M22.9176 6.82087C22.4727 6.97268 22.0591 7.26059 21.7607 7.60608C21.0122 8.49598 20.6772 9.33878 20.5672 10.5951C20.4521 11.9614 20.6562 13.1915 21.1692 14.16C21.3995 14.5997 21.9754 15.1912 22.3575 15.3849C23.1794 15.7932 24.1635 15.7199 24.9225 15.1912C25.5821 14.7305 26.3516 13.4794 26.6238 12.4325C26.807 11.7258 26.8594 10.3229 26.7285 9.61622C26.4877 8.33371 25.8334 7.39146 24.8754 6.92557C24.4933 6.73712 24.4409 6.72665 23.8703 6.71094C23.3469 6.70047 23.2212 6.71618 22.9176 6.82087Z" fill="#4BE6D0"/>
<path d="M12.4691 11.2233C9.45915 11.7991 6.29738 14.6991 5.05151 18.0336C4.59609 19.2481 4.41811 20.3422 4.46522 21.6299C4.50187 22.7397 4.67461 23.4778 5.08292 24.2891C5.69538 25.5141 6.74233 26.3778 8.0039 26.7024C8.55878 26.8437 9.72089 26.8437 10.2915 26.6971C10.7731 26.5767 11.1395 26.4354 11.6316 26.1893C12.4011 25.802 13.1182 25.6554 13.8092 25.7549C14.3274 25.8229 14.6154 25.9171 15.2592 26.226C16.1648 26.6552 16.793 26.8018 17.7719 26.8018C18.5048 26.8018 18.8921 26.7442 19.3685 26.5558C20.7243 26.0166 21.7032 24.8074 22.122 23.1532C22.6193 21.1954 22.3156 19.0073 21.2739 16.9553C19.8867 14.228 17.2798 11.9771 14.7619 11.3227C14.139 11.1604 13.0554 11.1133 12.4691 11.2233Z" fill="#4FDBD1"/>
<path d="M8.61487 18.1568C8.61487 20.4842 10.5386 21.7245 11.9468 22.8346C12.4437 23.2263 12.9223 23.5952 13.4009 23.5952C13.8795 23.5952 14.3581 23.2263 14.855 22.8346C16.2632 21.7245 18.1869 20.4842 18.1869 18.1568C18.1869 15.8294 15.5545 14.1789 13.4009 16.4164C11.2473 14.1789 8.61487 15.8294 8.61487 18.1568Z" fill="#4D4295"/>
</g>
<defs>
<clipPath id="clip0_369_3217">
<rect width="26.8018" height="26.8018" fill="white"/>
</clipPath>
</defs>
</svg>
