<svg width="104" height="120" viewBox="0 0 104 120" fill="none" xmlns="http://www.w3.org/2000/svg">
<path d="M83.9001 100.044C87.5186 98.8446 90.6264 96.459 92.7201 93.2733C94.6712 90.1035 95.0774 86.4537 94.8805 82.9269C94.6835 79.4001 93.9203 75.8918 93.6495 72.365C93.5633 71.1341 93.6002 69.7492 94.6712 68.8567C96.1484 67.6258 98.8935 68.0504 100.358 69.2814C101.823 70.5124 102.309 72.2727 102.666 73.9469C103.848 79.5232 104.168 85.2719 102.71 90.8114C101.165 96.7144 97.5913 101.885 92.6155 105.417C86.8861 109.406 79.8849 111.138 72.9566 110.279L71.6641 100.696C75.7239 101.622 79.9616 101.396 83.9001 100.044Z" fill="#7E57C2"/>
<g opacity="0.3">
<path d="M83.8991 100.044C87.5176 98.8443 90.6254 96.4587 92.7191 93.2731C94.6702 90.1033 95.0764 86.4534 94.8795 82.9267C94.6825 79.3999 93.9193 75.8916 93.6485 72.3648C93.5623 71.1338 93.5993 69.749 94.6702 68.8565C96.1474 67.6255 98.8925 68.0502 100.357 69.2812C101.822 70.5122 102.309 72.2725 102.665 73.9466C103.847 79.523 104.167 85.2717 102.709 90.8111C101.164 96.7142 97.5903 101.885 92.6145 105.417C86.8851 109.406 79.8839 111.138 72.9556 110.279L71.6631 100.696C75.723 101.622 79.9607 101.396 83.8991 100.044Z" fill="white"/>
</g>
<path opacity="0.3" d="M78.834 101.152C78.834 101.152 75.6088 105.842 75.8673 106.014C76.1258 106.186 78.8832 110.766 78.8832 110.766L80.7297 110.378V100.881L78.834 101.152Z" fill="black"/>
<path d="M76.2605 105.811C76.1374 106.162 79.6026 108.119 78.8825 110.766C78.1624 113.412 78.5194 113.295 77.6146 113.529C76.7098 113.763 60.03 115.886 59.0205 115.08C58.0111 114.274 38.2046 111.861 38.063 112.206C37.9214 112.55 30.6771 114.274 28.2151 114.274C25.7531 114.274 22.4356 114.852 21.7093 112.427C20.9831 110.002 21.8571 108.667 24.3129 106.888C26.7687 105.109 27.6365 104.506 27.6365 104.506C27.6365 104.506 22.6511 104.161 23.045 100.247C23.3421 97.4454 24.0128 94.6964 25.0392 92.073C25.4639 91.0082 32.1173 75.7255 32.1173 75.7255L25.1807 56.1528C25.1807 56.1528 26.0486 50.9704 25.3223 47.7452C24.596 44.52 24.1713 42.9136 24.1713 42.9136H58.7251C58.7251 42.9136 64.9416 56.7929 68.1545 64.5974C71.3673 72.4018 80.7474 76.0886 80.7474 93.4148C80.7536 99.4281 76.2605 105.811 76.2605 105.811Z" fill="#7E57C2"/>
<path opacity="0.3" d="M76.2605 105.811C76.1374 106.162 79.6026 108.119 78.8825 110.766C78.1624 113.412 78.5194 113.295 77.6146 113.529C76.7098 113.763 60.03 115.886 59.0205 115.08C58.0111 114.274 38.2046 111.861 38.063 112.206C37.9214 112.55 30.6771 114.274 28.2151 114.274C25.7531 114.274 22.4356 114.852 21.7093 112.427C20.9831 110.002 21.8571 108.667 24.3129 106.888C26.7687 105.109 27.6365 104.506 27.6365 104.506C27.6365 104.506 22.6511 104.161 23.045 100.247C23.3421 97.4454 24.0128 94.6964 25.0392 92.073C25.4639 91.0082 32.1173 75.7255 32.1173 75.7255L25.1807 56.1528C25.1807 56.1528 26.0486 50.9704 25.3223 47.7452C24.596 44.52 24.1713 42.9136 24.1713 42.9136H58.7251C58.7251 42.9136 64.9416 56.7929 68.1545 64.5974C71.3673 72.4018 80.7474 76.0886 80.7474 93.4148C80.7536 99.4281 76.2605 105.811 76.2605 105.811Z" fill="white"/>
<path opacity="0.3" d="M42.0461 112.477C41.9538 112.477 42.8647 80.4218 42.8955 80.0648C43.234 76.5996 47.3886 78.3968 46.7485 81.9605L46.133 112.704L42.0461 112.477Z" fill="black"/>
<path d="M24.8063 56.6823C24.8063 56.6823 23.4276 59.5381 23.126 66.5732C22.8244 73.6083 23.7415 87.6785 26.1665 92.7686C28.5916 97.8587 33.4786 105.626 33.1708 110.002C33.1708 110.002 31.0289 113.874 32.5554 115.874C34.0818 117.875 39.0488 116.354 39.0488 116.354C40.1291 115.139 41.1205 113.847 42.0155 112.489C42.9695 110.901 43.2034 93.3287 43.2034 93.3287L41.9724 73.3375L24.8063 56.6823Z" fill="#7E57C2"/>
<path opacity="0.3" d="M24.8063 56.6823C24.8063 56.6823 23.4276 59.5381 23.126 66.5732C22.8244 73.6083 23.7415 87.6785 26.1665 92.7686C28.5916 97.8587 33.4786 105.626 33.1708 110.002C33.1708 110.002 31.0289 113.874 32.5554 115.874C34.0818 117.875 39.0488 116.354 39.0488 116.354C40.1291 115.139 41.1205 113.847 42.0155 112.489C42.9695 110.901 43.2034 93.3287 43.2034 93.3287L41.9724 73.3375L24.8063 56.6823Z" fill="white"/>
<g opacity="0.3">
<path d="M56.8793 111.104C61.8033 98.6957 67.0473 86.1396 68.5737 72.8757C70.8203 79.9108 69.0107 87.6106 66.2287 94.4488C63.4467 101.287 58.1903 107.768 56.3315 114.92L56.8793 111.104Z" fill="black"/>
</g>
<path d="M46.7673 81.5787C46.7673 81.5787 45.8564 106.475 44.453 110.778C43.0497 115.08 41.8003 115.222 44.453 117.776C47.1058 120.33 57.0706 119.105 57.0706 116.896C57.0706 114.686 56.5659 110.642 57.0706 110.242C57.5753 109.842 63.4902 94.4979 64.672 88.977C65.8537 83.456 67.5463 82.1142 65.6875 77.5411C63.8287 72.968 62.1361 67.6932 61.6314 67.5824C61.1267 67.4716 46.7673 81.5787 46.7673 81.5787Z" fill="#7E57C2"/>
<path opacity="0.3" d="M46.7673 81.5787C46.7673 81.5787 45.8564 106.475 44.453 110.778C43.0497 115.08 41.8003 115.222 44.453 117.776C47.1058 120.33 57.0706 119.105 57.0706 116.896C57.0706 114.686 56.5659 110.642 57.0706 110.242C57.5753 109.842 63.4902 94.4979 64.672 88.977C65.8537 83.456 67.5463 82.1142 65.6875 77.5411C63.8287 72.968 62.1361 67.6932 61.6314 67.5824C61.1267 67.4716 46.7673 81.5787 46.7673 81.5787Z" fill="white"/>
<path opacity="0.3" d="M30.2708 114.083C30.8096 112.5 31.0394 110.829 30.9478 109.159C30.6454 105.565 29.566 102.078 27.7842 98.9419C25.8526 95.4793 24.7784 91.6044 24.6514 87.6415L25.8393 91.6483C26.0701 92.4162 26.3645 93.1636 26.7194 93.8826C29.2183 98.9358 33.0405 105.934 32.7574 109.99L32.025 113.763L30.2708 114.083Z" fill="black"/>
<path opacity="0.3" d="M33.0106 24.221C35.2487 22.8678 37.8414 22.2177 40.4532 22.3549C43.0649 22.4921 45.5753 23.4102 47.6593 24.9903C52.0478 28.1417 58.8305 32.6286 61.274 37.6633C63.0897 41.4178 63.3236 47.7451 62.2527 49.6901C60.0677 53.66 57.6365 60.0734 48.5703 64.1172C39.504 68.161 30.8625 62.5662 26.8372 58.8855C22.8119 55.2049 23.8705 52.2136 24.2583 49.887C24.646 47.5605 20.6023 34.9613 24.5845 30.1913C28.5667 25.4212 33.0106 24.221 33.0106 24.221Z" fill="black"/>
<path d="M45.345 13.7762C45.345 13.7762 55.1621 0.383066 58.0672 0.93701C60.9723 1.49095 67.3981 18.3309 62.9911 27.0647L59.0951 29.8775L48.3855 21.0636L45.345 13.7762Z" fill="#7E57C2"/>
<path opacity="0.3" d="M45.345 13.7762C45.345 13.7762 55.1621 0.383066 58.0672 0.93701C60.9723 1.49095 67.3981 18.3309 62.9911 27.0647L59.0951 29.8775L48.3855 21.0636L45.345 13.7762Z" fill="white"/>
<path d="M30.1912 17.1307C29.945 16.8661 14.0222 2.40813 10.6862 8.86466C7.35027 15.3212 13.2774 34.143 16.6134 38.156C19.9494 42.169 30.1912 17.1307 30.1912 17.1307Z" fill="#7E57C2"/>
<path opacity="0.3" d="M30.1912 17.1307C29.945 16.8661 14.0222 2.40813 10.6862 8.86466C7.35027 15.3212 13.2774 34.143 16.6134 38.156C19.9494 42.169 30.1912 17.1307 30.1912 17.1307Z" fill="white"/>
<path d="M36.5682 14.2316C36.5682 14.2316 47.7578 11.0433 55.4207 18.9463C59.8153 23.4763 65.0963 29.6989 66.1303 35.7185C66.8997 40.2116 66.1734 47.4128 63.933 49.1916C59.3783 52.8415 53.4696 59.0395 39.8487 60.9413C26.2279 62.8432 17.334 54.571 13.6472 49.5732C9.96042 44.5754 12.6132 41.6826 14.1581 39.2945C15.703 36.9064 15.7645 22.393 23.0212 18.3677C30.2778 14.3424 36.5682 14.2316 36.5682 14.2316Z" fill="#7E57C2"/>
<path opacity="0.3" d="M36.5682 14.2316C36.5682 14.2316 47.7578 11.0433 55.4207 18.9463C59.8153 23.4763 65.0963 29.6989 66.1303 35.7185C66.8997 40.2116 66.1734 47.4128 63.933 49.1916C59.3783 52.8415 53.4696 59.0395 39.8487 60.9413C26.2279 62.8432 17.334 54.571 13.6472 49.5732C9.96042 44.5754 12.6132 41.6826 14.1581 39.2945C15.703 36.9064 15.7645 22.393 23.0212 18.3677C30.2778 14.3424 36.5682 14.2316 36.5682 14.2316Z" fill="white"/>
<g opacity="0.3">
<path d="M31.6444 15.8197C32.4137 19.3957 33.1277 23.021 33.0292 26.677C32.9308 30.3331 31.946 34.0629 29.6502 36.9127C27.3544 39.7624 23.606 41.5719 19.9992 40.9564C18.1528 40.6487 16.3063 39.5962 15.6908 37.879C15.143 36.3403 15.6539 34.6477 16.177 33.0966C17.5557 29.0344 19.0822 24.9475 21.6857 21.5315C24.2892 18.1155 28.1299 15.4258 32.4076 15.1611" fill="black"/>
</g>
<path d="M48.7673 43.0367C53.6691 41.8516 58.6657 41.0998 63.6992 40.7902C68.7216 40.5194 73.8179 40.4271 78.7849 41.3318L76.9015 41.1964C67.4968 40.8025 58.0674 41.658 48.7673 43.0429V43.0367Z" fill="#7E57C2"/>
<path d="M48.9456 45.3819C53.3661 45.3579 57.7831 45.6335 62.1664 46.2067C66.5302 46.8222 70.9679 47.5177 75.0548 49.2165C66.5671 46.9022 57.6671 46.3359 48.9456 45.3819Z" fill="#7E57C2"/>
<path d="M16.8292 45.5172C11.8555 45.6036 6.9369 46.5748 2.30362 48.3854L1.31267 48.7793C0.986462 48.9271 0.660247 49.0686 0.327881 49.1979C0.943374 48.804 1.55887 48.4593 2.17436 48.1146C6.68383 45.792 11.79 44.8866 16.8231 45.5172H16.8292Z" fill="#7E57C2"/>
<path d="M17.1557 48.3176C12.3177 49.371 7.59923 50.9136 3.07324 52.9215C7.26224 50.1365 12.1306 48.545 17.1557 48.3176Z" fill="#7E57C2"/>
<path d="M25.274 28.899C25.198 28.9574 25.1095 28.9972 25.0155 29.0154C24.9215 29.0336 24.8245 29.0295 24.7323 29.0036C23.8791 28.7736 22.9819 28.76 22.1221 28.9642C21.2623 29.1684 20.4671 29.5839 19.8084 30.1731C19.7461 30.2408 19.6705 30.2948 19.5863 30.3318C19.502 30.3688 19.4111 30.3879 19.3191 30.3879C19.2271 30.3879 19.1361 30.3688 19.0519 30.3318C18.9677 30.2948 18.892 30.2408 18.8297 30.1731C18.7024 30.0243 18.635 29.8335 18.6407 29.6378C18.6464 29.4421 18.7248 29.2555 18.8605 29.1144C19.6786 28.3577 20.6743 27.8195 21.7554 27.5495C22.8366 27.2795 23.9684 27.2863 25.0462 27.5695C25.1809 27.6129 25.3009 27.6928 25.3928 27.8005C25.4847 27.9081 25.5449 28.0391 25.5666 28.179C25.5883 28.3188 25.5707 28.4619 25.5158 28.5923C25.4608 28.7227 25.3707 28.8353 25.2555 28.9175L25.274 28.899Z" fill="#7E57C2"/>
<path d="M25.7106 37.0418C25.926 39.5776 24.7997 41.8303 23.1932 42.0826C21.5868 42.335 20.1158 40.4885 19.888 37.9527C19.6603 35.4168 20.7928 33.1642 22.4054 32.9118C24.018 32.6594 25.489 34.5121 25.7106 37.0418Z" fill="#7E57C2"/>
<path d="M22.4114 38.7713C22.4114 39.633 22.1529 40.3285 21.7959 40.3346C21.4389 40.3408 21.1804 39.6391 21.1804 38.7836C21.1804 37.9281 21.4451 37.2264 21.7959 37.2203C22.1467 37.2141 22.4114 37.9158 22.4114 38.7713Z" fill="white"/>
<path d="M44.7418 27.5941C44.6547 27.6335 44.5603 27.6539 44.4648 27.6539C44.3692 27.6539 44.2748 27.6335 44.1878 27.5941C43.4062 27.1898 42.5364 26.986 41.6565 27.001C40.7766 27.0161 39.9143 27.2495 39.1469 27.6803C39.0705 27.732 38.9842 27.7673 38.8935 27.7839C38.8027 27.8004 38.7095 27.7979 38.6198 27.7765C38.53 27.7551 38.4457 27.7152 38.3722 27.6594C38.2987 27.6037 38.2377 27.5332 38.1929 27.4525C38.1018 27.2794 38.0778 27.0788 38.1255 26.8892C38.1732 26.6995 38.2893 26.5341 38.4514 26.4247C39.4124 25.8617 40.4997 25.5497 41.613 25.5174C42.7263 25.4852 43.8298 25.7336 44.8218 26.24C44.9903 26.3327 45.1164 26.4869 45.1738 26.6705C45.2312 26.854 45.2153 27.0527 45.1295 27.2248C45.0482 27.39 44.9108 27.5209 44.7418 27.5941Z" fill="#7E57C2"/>
<path d="M45.2399 35.0538C45.4553 37.5896 44.3289 39.8485 42.7225 40.1008C41.1161 40.3532 39.645 38.5005 39.4173 35.9709C39.1896 33.4412 40.3221 31.1762 41.9347 30.93C43.5473 30.6838 45.0183 32.5179 45.2399 35.0538Z" fill="#7E57C2"/>
<path d="M41.6514 36.7894C41.6514 37.645 41.3929 38.3466 41.0359 38.3466C40.6789 38.3466 40.4204 37.6573 40.4204 36.7956C40.4204 35.9339 40.6789 35.2384 41.0359 35.2384C41.3929 35.2384 41.6452 35.9277 41.6514 36.7894Z" fill="white"/>
<path d="M29.8652 40.9379C30.2546 40.7302 30.668 40.571 31.0961 40.464C32.8995 39.9346 35.5954 39.7131 35.7247 40.5501C35.4756 41.3771 35.0077 42.1213 34.3706 42.7044C34.1208 42.9271 33.8282 43.0965 33.5107 43.2023C33.1933 43.3081 32.8575 43.3481 32.5241 43.3199C32.0541 43.2904 31.5972 43.1536 31.1885 42.9198C30.7823 42.6797 30.573 42.4459 30.1606 42.2058C29.9547 42.0894 29.7696 41.9397 29.6128 41.7627C29.5524 41.6173 29.5446 41.4554 29.5907 41.3049C29.6367 41.1544 29.7338 41.0246 29.8652 40.9379Z" fill="#7E57C2"/>
<path opacity="0.3" d="M38.254 45.4434C38.254 45.4434 35.7243 48.0347 34.5611 46.9883L33.3978 45.9481C33.3978 45.9481 32.2838 48.1824 30.4988 47.6161C29.9709 47.4391 29.4906 47.1435 29.0947 46.7519C28.6989 46.3603 28.3981 45.8832 28.2153 45.3573C28.2153 45.3573 29.7356 47.0991 31.1635 46.3974C32.5915 45.6958 32.8254 42.089 32.8254 42.089C32.8254 42.089 33.804 45.6527 35.7305 45.8189C37.657 45.9851 38.254 45.4434 38.254 45.4434Z" fill="black"/>
<path d="M38.8575 43.7384C37.5095 47.7391 34.1859 46.9635 32.838 43.4429L33.4165 43.3691C33.3123 44.1083 33.1051 44.8292 32.801 45.511C32.0809 47.0312 30.1359 47.696 28.9234 46.2988C28.4815 45.7323 27.9891 45.207 27.4524 44.7293C28.0646 45.1095 28.6288 45.562 29.1327 46.0772C30.2221 47.1728 31.7362 46.5081 32.2779 45.2463C32.6361 44.2989 32.886 43.314 33.0226 42.3104C33.3837 43.2305 33.8417 44.1094 34.389 44.9324C36.0939 47.019 37.8727 45.6895 38.8821 43.7384H38.8575Z" fill="#7E57C2"/>
<path opacity="0.3" d="M58.11 24.3379C58.11 24.3379 55.1556 22.0729 54.9156 20.4849C54.7595 19.5695 54.8818 18.6282 55.2664 17.7829L52.7429 19.6786L49.9116 16.0534C49.9116 16.0534 56.0666 4.72216 57.6484 6.59326C59.2302 8.46436 60.9659 15.3271 60.4735 20.1341C59.9811 24.9411 58.11 24.3379 58.11 24.3379Z" fill="black"/>
<g opacity="0.3">
<path d="M13.1107 13.5362C13.0573 13.2215 13.0673 12.8993 13.1402 12.5885C13.2132 12.2777 13.3475 11.9847 13.5353 11.7266C14.0831 11.1604 15.0064 11.2466 15.7757 11.4435C18.6009 12.1821 21.7583 14.7487 23.494 17.106C20.2073 20.5528 18.5701 23.4456 16.5389 27.5694C14.4965 23.1584 13.3321 18.3921 13.1107 13.5362Z" fill="black"/>
</g>
</svg>
