<svg width="32" height="32" viewBox="0 0 33 32" fill="none" xmlns="http://www.w3.org/2000/svg">
<mask id="mask0_399_1267" style="mask-type:alpha" maskUnits="userSpaceOnUse" x="0" y="0" width="33" height="32">
<circle cx="16.75" cy="16" r="16" fill="#D9D9D9"/>
</mask>
<g mask="url(#mask0_399_1267)">
<path d="M-7.57264 0.062809C-8.90597 0.747253 -6.90597 7.41392 -7.88375 9.9117C-8.37264 11.1561 -9.99041 14.2673 -8.85264 14.925C-7.70597 15.5828 -4.15041 12.1073 -3.66152 9.95614C-3.17264 7.80503 -5.85708 -0.817191 -7.57264 0.062809ZM-8.45263 24.9873C-8.45263 26.925 -2.08819 26.7028 -2.08819 26.7028C-2.08819 26.7028 1.92959 30.2673 2.8007 29.645C3.85848 28.8984 3.45848 27.8406 2.62292 26.525C1.30736 24.4539 0.516252 23.2717 -0.941526 22.6584C-2.25708 22.0984 -4.85264 22.8539 -6.21264 23.1828C-7.9193 23.6006 -8.45263 24.3561 -8.45263 24.9873ZM0.0806971 11.6628C-0.710414 12.6317 0.356253 13.5028 1.35181 15.0495C2.29403 16.5073 4.36514 19.2717 4.36514 19.2717C4.36514 19.2717 4.0807 25.5117 4.87181 26.0806C5.79625 26.7384 6.97848 24.8539 7.55625 23.2628C8.13403 21.6717 8.16959 19.6539 8.03625 18.4272C7.90292 17.2006 7.06737 15.2184 4.07181 13.0761C1.77848 11.4495 0.471808 11.1828 0.0806971 11.6628ZM4.24959 0.898363C4.24959 0.898363 6.05403 3.6717 7.02292 6.30281C7.99181 8.94281 8.94292 11.805 9.28959 13.9117C9.47625 15.0406 10.0629 17.4761 10.934 17.6006C11.814 17.7339 12.4274 15.2539 12.6851 12.4895C12.9518 9.61836 12.6051 5.5117 12.1251 3.66281C11.6451 1.81392 11.0674 0.418363 11.0674 0.418363C11.0674 0.418363 9.45847 0.391696 7.50292 0.498363C5.79625 0.587252 4.24959 0.898363 4.24959 0.898363ZM16.6051 0.320584C16.6051 0.320584 17.5651 3.94726 17.7607 9.12059C17.894 12.5073 18.3207 18.3828 19.3429 18.3828C20.6585 18.3828 21.8496 13.9117 22.374 8.85392C22.8985 3.79614 22.774 0.542806 22.774 0.542806C22.774 0.542806 21.174 0.36503 19.7696 0.311697C18.0274 0.258363 16.6051 0.320584 16.6051 0.320584ZM28.2763 18.4539C30.054 18.685 31.734 13.4673 32.5251 10.2139C33.3162 6.96059 33.8318 2.43614 33.8318 2.43614C33.8318 2.43614 32.4274 2.03614 30.9785 1.70725C29.3074 1.32503 27.814 1.14725 27.814 1.14725C27.814 1.14725 28.1074 4.17836 28.0363 9.1117C27.9918 11.7517 27.1918 18.3206 28.2763 18.4539ZM38.694 4.54281C38.694 4.54281 38.0985 11.1295 37.7074 12.4895C37.3074 13.8495 33.9118 18.7206 34.6051 19.5117C35.5118 20.5517 39.9829 16.9073 41.2985 14.0095C42.614 11.1117 42.8274 8.21392 42.8274 8.21392C42.8274 8.21392 42.3207 7.24503 40.8363 6.02725C39.6807 5.07614 38.694 4.54281 38.694 4.54281ZM5.62737 35.965C5.62737 35.965 9.66292 30.2139 10.6318 27.6717C11.6007 25.1206 13.3163 20.9339 14.8096 20.5517C16.3474 20.1517 15.9029 24.205 14.9429 27.3695C14.0185 30.4006 12.3918 34.6673 12.3918 34.6673C12.3918 34.6673 10.7385 34.9339 9.32514 35.1473C6.42737 35.5828 5.62737 35.965 5.62737 35.965ZM16.5696 34.1873C16.5696 34.1873 19.5829 28.4539 20.3918 26.1073C20.8985 24.6495 21.9651 20.5873 23.3251 20.6317C24.6851 20.6761 24.5963 24.0628 24.2051 26.125C23.8051 28.1873 22.2674 33.6895 22.2674 33.6895C22.2674 33.6895 21.0585 33.7873 19.7607 33.9206C18.694 34.0273 16.5696 34.1873 16.5696 34.1873ZM26.6318 30.9784C26.854 31.7161 32.8807 31.3517 34.8718 30.0361C38.6674 27.5206 40.6051 20.7828 39.2896 20.8717C37.974 20.9606 33.974 25.4406 32.5607 26.365C31.1562 27.2806 26.1874 29.5206 26.6318 30.9784ZM23.334 36.6584C23.334 36.6584 28.9696 37.6184 32.3029 36.8273C35.2718 36.125 37.8407 32.8361 38.7651 33.3695C39.6896 33.8939 38.4985 38.3828 34.2851 39.8317C30.2051 41.2361 27.0318 40.6228 27.0318 40.6228C27.0318 40.6228 25.6096 39.6006 24.9251 38.7739C23.8585 37.5117 23.334 36.6584 23.334 36.6584Z" fill="#33312F"/>
</g>
</svg>
