<svg width="122" height="118" viewBox="0 0 122 118" fill="none" xmlns="http://www.w3.org/2000/svg">
<path d="M114.611 90.1408C115.615 90.6761 117.76 90.5292 119.484 89.3851C121.209 88.2409 121.629 85.6658 121.003 83.7869C120.24 81.5127 118.904 80.4 118.403 79.039C117.903 77.6779 117.928 75.6836 117.291 74.4905C117.035 74.0345 116.683 73.6391 116.261 73.3312C115.838 73.0233 115.354 72.8101 114.842 72.7061C114.515 72.6311 114.175 72.6322 113.849 72.7092C113.522 72.7863 113.218 72.9372 112.959 73.1504L112.455 73.5528L114.611 90.1408Z" fill="#263238"/>
<path d="M111.262 83.1082L113.207 85.6834C113.207 85.6834 112.746 88.9093 113.379 89.6546C114.313 90.7567 115.681 90.7812 117.833 89.7665C120.282 88.6084 120.562 86.1907 120.17 84.3993C119.617 81.8486 116.948 80.2532 116.86 77.734C116.773 75.2149 115.135 71.9854 112.025 73.8153C109.817 75.0679 107.91 77.3491 107.91 77.3491L111.262 83.1082Z" fill="#37474F"/>
<path d="M113.208 85.6658C114.074 85.0664 115.073 84.6858 116.119 84.5567C116.2 84.5546 116.279 84.5318 116.349 84.4906C116.419 84.4494 116.478 84.3911 116.519 84.3211C116.56 84.2512 116.583 84.1719 116.585 84.0907C116.587 84.0095 116.569 83.9291 116.532 83.8569C116.49 83.7725 116.424 83.7024 116.343 83.6557C116.261 83.6089 116.167 83.5876 116.073 83.5945C115.374 83.64 113.67 83.8674 112.679 84.9556C112.469 85.6204 113.208 85.6658 113.208 85.6658Z" fill="#BA68C8"/>
<path d="M112.022 84.0947C112.855 83.4514 113.832 83.0203 114.87 82.8386C114.947 82.8304 115.022 82.8033 115.087 82.7596C115.152 82.7159 115.205 82.657 115.242 82.588C115.279 82.5189 115.299 82.4419 115.299 82.3636C115.299 82.2853 115.28 82.2081 115.244 82.1388C115.198 82.0565 115.128 81.9898 115.044 81.9468C114.96 81.9039 114.865 81.8867 114.772 81.8974C114.072 81.9814 112.385 82.2963 111.455 83.4334C111.28 84.0877 112.022 84.0947 112.022 84.0947Z" fill="#BA68C8"/>
<path opacity="0.3" d="M113.208 85.6658C114.074 85.0664 115.073 84.6858 116.119 84.5567C116.2 84.5546 116.279 84.5318 116.349 84.4906C116.419 84.4494 116.478 84.3911 116.519 84.3211C116.56 84.2512 116.583 84.1719 116.585 84.0907C116.587 84.0095 116.569 83.9291 116.532 83.8569C116.49 83.7725 116.424 83.7024 116.343 83.6557C116.261 83.6089 116.167 83.5876 116.073 83.5945C115.374 83.64 113.67 83.8674 112.679 84.9556C112.469 85.6204 113.208 85.6658 113.208 85.6658Z" fill="black"/>
<path opacity="0.3" d="M112.022 84.0947C112.855 83.4514 113.832 83.0203 114.87 82.8386C114.947 82.8304 115.022 82.8033 115.087 82.7596C115.152 82.7159 115.205 82.657 115.242 82.588C115.279 82.5189 115.299 82.4419 115.299 82.3636C115.299 82.2853 115.28 82.2081 115.244 82.1388C115.198 82.0565 115.128 81.9898 115.044 81.9468C114.96 81.9039 114.865 81.8867 114.772 81.8974C114.072 81.9814 112.385 82.2963 111.455 83.4334C111.28 84.0877 112.022 84.0947 112.022 84.0947Z" fill="black"/>
<path d="M83.401 89.0562L77.6139 86.7609C77.7084 85.2704 76.6867 82.7758 75.686 80.3091L82.5123 78.1118L84.2617 84.6861L83.401 89.0562Z" fill="#FFA8A7"/>
<path d="M66.883 94.1398C66.7309 94.6067 66.7596 95.1136 66.9635 95.5603C67.1629 95.9767 69.3322 97.1978 72.2572 97.0018C74.4262 96.8551 76.5162 96.1302 78.3102 94.9025C79.4264 94.1643 80.588 94.0278 82.0365 93.9439C83.485 93.8599 85.3884 93.1391 85.7068 92.4604C86.0252 91.7816 85.6578 90.6165 85.6578 90.6165L66.883 94.1398Z" fill="#263238"/>
<path d="M78.695 85.008L78.4605 84.959C78.335 84.9259 78.204 84.9188 78.0757 84.938C77.9377 84.9839 77.8162 85.069 77.7258 85.1829C77.44 85.5493 77.1893 85.9417 76.977 86.355C76.3647 87.3557 75.0772 88.1849 73.6706 88.9407C72.7154 89.455 71.7778 89.8539 70.7911 90.2982C69.8044 90.7426 68.4469 91.026 67.6421 91.5578C66.4945 92.331 66.3441 94.2764 67.6421 95.0566C68.7722 95.7179 71.7428 96.4352 74.8567 95.5535C76.5537 95.0741 78.436 93.2617 80.6648 93.0868C82.0643 92.9748 84.7584 92.576 85.6681 91.5018C86.018 91.026 85.5562 89.5145 85.1853 88.2059C84.7829 86.7819 84.636 84.2697 84.1636 84.3957C84.1636 84.3957 84.2896 84.7456 84.1077 84.9415C83.9257 85.1374 83.2714 85.5118 83.0825 85.6763C82.7533 85.9997 82.4875 86.3818 82.2988 86.8029C82.2217 86.9915 82.0787 87.1457 81.8964 87.2367C81.6585 87.3277 81.48 87.1773 81.2701 87.0828C81.0045 86.9612 80.7041 86.9388 80.4234 87.0198C80.4511 86.7375 80.5014 86.4579 80.5738 86.1836C80.6051 86.0973 80.6123 86.0042 80.5948 85.9142C80.5569 85.8291 80.4933 85.7582 80.4129 85.7112C79.8943 85.3618 79.3097 85.1225 78.695 85.008Z" fill="#37474F"/>
<path d="M74.9827 88.171C75.085 87.9757 75.2347 87.8093 75.4181 87.6871C75.6015 87.5648 75.8127 87.4906 76.0323 87.4712C76.6761 87.3523 77.8132 87.8211 78.5235 88.4089C78.5904 88.4638 78.6428 88.5342 78.6763 88.6139C78.7098 88.6937 78.7234 88.7804 78.7158 88.8666C78.7082 88.9527 78.6797 89.0358 78.6328 89.1084C78.5859 89.1811 78.5219 89.2412 78.4465 89.2836C78.3506 89.3344 78.2416 89.3552 78.1337 89.3433C78.0257 89.3315 77.9239 89.2875 77.8412 89.2171C77.0613 88.5088 76.0355 88.1334 74.9827 88.171Z" fill="#BA68C8"/>
<path d="M72.9849 89.2904C73.1252 89.0925 73.3108 88.9311 73.5263 88.8197C73.7418 88.7083 73.9809 88.6502 74.2235 88.6501C74.2235 88.6501 75.9064 88.6991 76.949 89.6718C77.0133 89.7246 77.0639 89.7922 77.0963 89.8689C77.1287 89.9455 77.142 90.0288 77.1351 90.1118C77.1283 90.1947 77.1014 90.2747 77.0568 90.3449C77.0122 90.4152 76.9512 90.4735 76.8791 90.515C76.7874 90.5657 76.6821 90.5866 76.578 90.5746C76.4739 90.5627 76.3761 90.5187 76.2983 90.4486C75.8683 90.0192 75.3472 89.6922 74.7736 89.4917C74.2 89.2912 73.5887 89.2224 72.9849 89.2904Z" fill="#BA68C8"/>
<path d="M70.7808 90.2983C70.9414 90.1153 71.1395 89.9691 71.3617 89.8695C71.5839 89.7699 71.8249 89.7192 72.0683 89.721C73.0241 89.7796 73.9367 90.1397 74.675 90.7497C74.7392 90.8028 74.7897 90.8708 74.8221 90.9477C74.8545 91.0245 74.8678 91.1081 74.8609 91.1913C74.8541 91.2744 74.8272 91.3547 74.7826 91.4252C74.7381 91.4957 74.6771 91.5545 74.605 91.5964C74.5128 91.6461 74.4075 91.6661 74.3035 91.6535C74.1995 91.641 74.1019 91.5966 74.0242 91.5264C73.6162 91.0837 73.1106 90.7422 72.5476 90.529C71.9846 90.3159 71.3796 90.2369 70.7808 90.2983Z" fill="#BA68C8"/>
<path opacity="0.3" d="M74.9827 88.171C75.085 87.9757 75.2347 87.8093 75.4181 87.6871C75.6015 87.5648 75.8127 87.4906 76.0323 87.4712C76.6761 87.3523 77.8132 87.8211 78.5235 88.4089C78.5904 88.4638 78.6428 88.5342 78.6763 88.6139C78.7098 88.6937 78.7234 88.7804 78.7158 88.8666C78.7082 88.9527 78.6797 89.0358 78.6328 89.1084C78.5859 89.1811 78.5219 89.2412 78.4465 89.2836C78.3506 89.3344 78.2416 89.3552 78.1337 89.3433C78.0257 89.3315 77.9239 89.2875 77.8412 89.2171C77.0613 88.5088 76.0355 88.1334 74.9827 88.171Z" fill="black"/>
<path opacity="0.3" d="M72.9849 89.2904C73.1252 89.0925 73.3108 88.9311 73.5263 88.8197C73.7418 88.7083 73.9809 88.6502 74.2235 88.6501C74.2235 88.6501 75.9064 88.6991 76.949 89.6718C77.0133 89.7246 77.0639 89.7922 77.0963 89.8689C77.1287 89.9455 77.142 90.0288 77.1351 90.1118C77.1283 90.1947 77.1014 90.2747 77.0568 90.3449C77.0122 90.4152 76.9512 90.4735 76.8791 90.515C76.7874 90.5657 76.6821 90.5866 76.578 90.5746C76.4739 90.5627 76.3761 90.5187 76.2983 90.4486C75.8683 90.0192 75.3472 89.6922 74.7736 89.4917C74.2 89.2912 73.5887 89.2224 72.9849 89.2904Z" fill="black"/>
<path opacity="0.3" d="M70.7808 90.2983C70.9414 90.1153 71.1395 89.9691 71.3617 89.8695C71.5839 89.7699 71.8249 89.7192 72.0683 89.721C73.0241 89.7796 73.9367 90.1397 74.675 90.7497C74.7392 90.8028 74.7897 90.8708 74.8221 90.9477C74.8545 91.0245 74.8678 91.1081 74.8609 91.1913C74.8541 91.2744 74.8272 91.3547 74.7826 91.4252C74.7381 91.4957 74.6771 91.5545 74.605 91.5964C74.5128 91.6461 74.4075 91.6661 74.3035 91.6535C74.1995 91.641 74.1019 91.5966 74.0242 91.5264C73.6162 91.0837 73.1106 90.7422 72.5476 90.529C71.9846 90.3159 71.3796 90.2369 70.7808 90.2983Z" fill="black"/>
<path d="M107.91 57.7729C108.477 60.1312 108.834 64.7706 107.851 68.3324C106.868 71.8943 103.579 77.8143 103.579 77.8143L110.055 74.8788C110.055 74.8788 111.577 74.8193 112.97 76.9781C114.362 79.1369 112.97 82.3488 112.97 82.3488C112.97 82.3488 105.069 88.5522 98.9743 92.226C92.9388 95.8578 89.7723 96.1727 85.8291 94.3568C83.5654 93.3072 83.4219 89.4584 84.5835 85.4278C85.7451 81.3971 90.2412 68.6333 90.2412 68.6333L79.9336 69.3961L83.8313 81.1557C83.8313 81.1557 81.9559 84.574 76.4417 83.4089C76.4417 83.4089 67.5652 68.8013 66.4175 64.8441C65.2699 60.8869 65.9697 57.7799 70.2663 56.8178C74.6958 55.8241 85.3113 54.9214 85.3113 54.9214L107.91 57.7729Z" fill="#BA68C8"/>
<path opacity="0.5" d="M107.91 57.7729C108.477 60.1312 108.834 64.7706 107.851 68.3324C106.868 71.8943 103.579 77.8143 103.579 77.8143L110.055 74.8788C110.055 74.8788 111.577 74.8193 112.97 76.9781C114.362 79.1369 112.97 82.3488 112.97 82.3488C112.97 82.3488 105.069 88.5522 98.9743 92.226C92.9388 95.8578 89.7723 96.1727 85.8291 94.3568C83.5654 93.3072 83.4219 89.4584 84.5835 85.4278C85.7451 81.3971 90.2412 68.6333 90.2412 68.6333L79.9336 69.3961L83.8313 81.1557C83.8313 81.1557 81.9559 84.574 76.4417 83.4089C76.4417 83.4089 67.5652 68.8013 66.4175 64.8441C65.2699 60.8869 65.9697 57.7799 70.2663 56.8178C74.6958 55.8241 85.3113 54.9214 85.3113 54.9214L107.91 57.7729Z" fill="black"/>
<path opacity="0.15" d="M90.2483 68.6299L91.109 67.0204C91.109 67.0204 88.2294 64.4907 87.2323 61.7336C87.2323 61.7336 87.6486 65.201 89.1706 67.3318L83.9958 69.0042L90.2483 68.6299Z" fill="black"/>
<path opacity="0.15" d="M103.201 82.8143C105.969 79.2665 111.882 75.7536 111.903 75.7396C110.748 74.76 110.055 74.8789 110.055 74.8789L103.579 77.8145C103.579 77.8145 99.6601 86.2886 96.4727 87.5797C99.114 86.6461 101.444 84.9961 103.201 82.8143Z" fill="black"/>
<path opacity="0.15" d="M79.9406 69.3926C79.9406 68.6509 78.4151 65.5019 75.686 64.3893C76.9405 64.6929 78.102 65.2976 79.0701 66.1511C80.0382 67.0046 80.7838 68.0812 81.2422 69.2877L79.9406 69.3926Z" fill="black"/>
<path d="M85.0596 24.9085C83.3276 24.751 80.8609 27.5116 79.4614 31.8817C78.0619 36.2517 71.2566 50.6285 71.2566 50.6285L51.3342 50.2996L54.5217 55.9607C54.5217 55.9607 69.7066 57.1958 72.0579 57.3602C75.3363 57.5877 76.099 57.0104 77.4426 55.002C78.7861 52.9937 83.8 44.1941 83.8 44.1941L85.0596 24.9085Z" fill="#FFA8A7"/>
<path d="M86.4204 24.5342C84.9893 24.4743 83.5856 24.9397 82.4737 25.8428C80.9622 27.0778 79.7411 29.0967 78.2506 32.7285C77.068 35.6045 72.53 46.6853 72.53 46.6853C73.5369 47.8933 74.7871 48.8757 76.1989 49.5683C77.6108 50.261 79.1527 50.6485 80.7243 50.7055L88.6702 35.1217L86.4204 24.5342Z" fill="#455A64"/>
<path d="M103.712 32.6827C105.622 39.8658 108.096 58.812 108.096 58.812C104.968 62.4473 90.535 62.2828 84.6325 54.9178C83.9327 49.0922 82.3408 44.4632 81.0637 34.0402C80.5004 29.4462 81.606 26.2483 85.9201 24.5164L93.9359 24.5339L99.1842 24.6283C102.046 26.1643 102.991 29.9746 103.712 32.6827Z" fill="#F0F0F0"/>
<path d="M94.5237 60.5089C100.262 61.807 106.217 60.9953 108.096 58.812C108.096 58.812 105.622 39.8658 103.712 32.6827C103.408 31.4512 103.037 30.2376 102.599 29.0474L97.4557 29.9501C97.3717 31.9899 99.7684 39.4704 101.472 43.5955C102.945 47.1749 103.978 51.0656 103.694 53.6022C103.411 56.1389 101.301 61.0652 94.5237 60.5089Z" fill="#E6E6E6"/>
<path d="M90.6156 8.01943C90.7275 9.37714 90.4341 10.7375 89.7726 11.9284C89.1111 13.1193 88.1111 14.0873 86.8994 14.7097C85.6876 15.3322 84.3184 15.5812 82.965 15.4253C81.6117 15.2694 80.335 14.7155 79.2965 13.8338C78.258 12.952 77.5044 11.7821 77.1311 10.4719C76.7577 9.16179 76.7814 7.77034 77.1991 6.47364C77.6168 5.17695 78.4097 4.03329 79.4776 3.18739C80.5454 2.34148 81.8402 1.83134 83.1981 1.72152C85.0166 1.57445 86.8191 2.15507 88.2098 3.33589C89.6005 4.51671 90.4658 6.20118 90.6156 8.01943Z" fill="#263238"/>
<path d="M96.0109 12.498C96.0109 12.498 95.3112 17.8163 94.9438 18.712C94.6876 19.2646 94.2293 19.6978 93.6632 19.9226L93.4463 16.2418L96.0109 12.498Z" fill="#263238"/>
<path d="M94.0198 5.12249C94.4056 5.0461 94.8037 5.05871 95.1839 5.15936C95.564 5.26001 95.9162 5.44604 96.2136 5.7033C97.2038 6.56401 96.9134 9.55202 96.0177 12.498L93.9429 12.9074L94.0198 5.12249Z" fill="#263238"/>
<path d="M93.3202 12.9598C93.761 13.1767 94.2964 12.323 94.7687 11.7387C95.241 11.1544 96.868 10.2762 97.8652 11.9871C98.8623 13.698 97.4558 16.2557 96.1577 16.7805C93.922 17.6832 93.4601 16.2417 93.4601 16.2417L93.95 24.5339C92.1481 26.9026 85.0384 29.1839 86.466 24.9153L86.2665 22.3961C85.249 22.5913 84.2209 22.7268 83.1875 22.802C82.0154 22.8265 80.6789 22.0637 79.7902 19.5131C78.6845 16.3221 78.4151 12.1655 78.7405 7.96692C79.1639 2.24981 85.9446 1.55704 90.1187 3.73682C94.2929 5.9166 93.3202 12.9598 93.3202 12.9598Z" fill="#FFA8A7"/>
<path d="M93.3624 13.6666C93.5478 13.5616 94.2721 12.267 94.7619 11.7387C95.4197 11.0319 94.0201 5.12239 94.0201 5.12239C94.0201 5.12239 94.5975 3.5829 93.079 2.15887C92.3209 1.42172 91.3823 0.896931 90.3573 0.637156C89.3323 0.377382 88.257 0.391764 87.2394 0.67886C85.1926 1.21768 83.1038 1.87196 80.98 1.4766C79.9303 1.28416 78.8807 0.979758 77.831 0.930774C77.7084 0.911261 77.5829 0.940112 77.4811 1.01125C77.4374 1.0642 77.406 1.12617 77.389 1.19271C77.3721 1.25925 77.3701 1.32871 77.3832 1.39612C77.4288 2.08749 77.6949 2.746 78.1424 3.275L76.8163 2.99509C76.7727 2.971 76.723 2.96021 76.6733 2.96405C76.6236 2.96788 76.5761 2.98618 76.5366 3.01668C76.4972 3.04718 76.4676 3.08856 76.4514 3.1357C76.4352 3.18285 76.4331 3.2337 76.4455 3.282C76.4337 3.74998 76.5273 4.21461 76.7193 4.64157C76.9113 5.06852 77.1967 5.44688 77.5546 5.74868C79.0486 6.99427 80.6161 7.32316 82.5439 7.33715C85.0781 7.3982 87.605 7.04362 90.0245 6.2875C90.7942 6.11956 91.0216 6.86131 91.6094 8.89064C92.0993 10.682 91.7564 14.5972 93.3624 13.6666Z" fill="#263238"/>
<path d="M94.0444 5.58777L96.4691 4.03428C96.3748 3.86918 96.2479 3.725 96.0962 3.61055C95.9444 3.4961 95.7708 3.41377 95.5862 3.36859C95.4015 3.32341 95.2096 3.31632 95.0221 3.34776C94.8346 3.3792 94.6555 3.4485 94.4957 3.55144C94.1753 3.76958 93.9503 4.10173 93.8664 4.48013C93.7825 4.85854 93.8462 5.25469 94.0444 5.58777Z" fill="#263238"/>
<path d="M86.2524 22.3961C86.2524 22.3961 89.9612 21.3464 91.2208 20.5277C91.9632 20.062 92.5474 19.3826 92.8967 18.5789C92.7617 19.3653 92.4689 20.1163 92.036 20.7866C91.1683 22.0952 86.3364 23.3968 86.3364 23.3968L86.2524 22.3961Z" fill="#F28F8F"/>
<path d="M85.9341 12.6274C85.9522 12.774 86.0128 12.912 86.1085 13.0245C86.2042 13.137 86.3307 13.2189 86.4724 13.2603C86.6142 13.3017 86.765 13.3006 86.9061 13.2572C87.0473 13.2138 87.1726 13.1301 87.2667 13.0163C87.3607 12.9024 87.4194 12.7635 87.4354 12.6168C87.4514 12.47 87.4241 12.3217 87.3568 12.1903C87.2895 12.0588 87.1851 11.95 87.0566 11.8772C86.9282 11.8045 86.7812 11.7709 86.6338 11.7807C86.532 11.7895 86.4328 11.8184 86.3423 11.8659C86.2517 11.9134 86.1715 11.9785 86.1063 12.0573C86.0412 12.1361 85.9924 12.2271 85.9628 12.325C85.9332 12.4229 85.9235 12.5257 85.9341 12.6274Z" fill="#263238"/>
<path d="M86.48 9.79326L88.1664 10.5525C88.2678 10.3201 88.2745 10.0573 88.1849 9.82002C88.0954 9.58277 87.9168 9.38987 87.6871 9.28243C87.5746 9.2338 87.4535 9.20849 87.331 9.20801C87.2084 9.20754 87.0871 9.23191 86.9743 9.27966C86.8614 9.32741 86.7595 9.39754 86.6745 9.48582C86.5895 9.57409 86.5234 9.67868 86.48 9.79326Z" fill="#263238"/>
<path d="M86.6197 17.8197L84.9473 18.6034C84.994 18.7162 85.063 18.8185 85.1502 18.904C85.2373 18.9896 85.3407 19.0567 85.4544 19.1015C85.568 19.1462 85.6894 19.1676 85.8115 19.1644C85.9336 19.1612 86.0537 19.1334 86.1649 19.0828C86.3884 18.971 86.5604 18.7775 86.6451 18.5423C86.7298 18.3071 86.7207 18.0484 86.6197 17.8197Z" fill="#F28F8F"/>
<path d="M78.9396 11.1649L80.5001 10.1433C80.4388 10.0385 80.3569 9.94735 80.2593 9.87524C80.1617 9.80313 80.0505 9.75161 79.9323 9.72379C79.8142 9.69598 79.6917 9.69246 79.5722 9.71345C79.4526 9.73443 79.3386 9.77949 79.237 9.84587C79.0275 9.9854 78.8797 10.2003 78.8243 10.4459C78.7689 10.6915 78.8102 10.949 78.9396 11.1649Z" fill="#263238"/>
<path d="M79.7482 13.0438C79.7663 13.1904 79.8269 13.3284 79.9226 13.4409C80.0183 13.5534 80.1448 13.6353 80.2865 13.6767C80.4283 13.718 80.579 13.717 80.7202 13.6736C80.8613 13.6302 80.9867 13.5465 81.0808 13.4326C81.1748 13.3188 81.2335 13.1799 81.2495 13.0331C81.2655 12.8863 81.2382 12.7381 81.1709 12.6067C81.1035 12.4752 80.9992 12.3664 80.8707 12.2936C80.7423 12.2208 80.5953 12.1873 80.4479 12.1971C80.3459 12.2054 80.2465 12.234 80.1557 12.2814C80.0649 12.3287 79.9845 12.3938 79.9193 12.4727C79.854 12.5516 79.8053 12.6429 79.7759 12.7409C79.7465 12.839 79.7371 12.942 79.7482 13.0438Z" fill="#263238"/>
<path d="M83.7892 11.9347L84.5694 16.4657L81.7878 16.3887L83.7892 11.9347Z" fill="#F28F8F"/>
<path d="M115.363 48.7284C115.737 47.2589 113.358 42.0141 110.464 36.416C105.412 26.6962 103.211 24.7543 98.9673 25.0272L100.29 36.1325L108.029 48.7284C107.83 49.778 106.007 55.9115 104.181 59.3648C103.849 59.9727 103.306 60.4382 102.655 60.6734C100.906 61.3207 100.083 62.1814 98.6698 63.1576C97.5642 63.9238 96.7385 64.0008 96.798 64.3262C96.8714 64.7496 97.3893 65.5123 98.5754 65.4038C99.4177 65.2558 100.24 65.0092 101.025 64.6691C100.181 65.9024 99.1583 67.0037 97.9911 67.937C95.2795 70.1413 93.8659 71.8767 98.2255 72.8354C100.955 73.4267 104.506 71.7857 107.816 66.1666C108.767 64.5501 110.321 61.9995 111.315 59.8372C113.613 54.7149 114.282 53.0179 115.363 48.7284Z" fill="#FFA8A7"/>
<path d="M97.6099 24.6003C97.6099 24.6003 95.9375 29.8485 99.8772 36.3389C102.221 40.1876 105.717 46.1356 105.717 46.1356C105.717 46.1356 112.365 44.8166 113.491 41.3737C113.491 41.3737 110.531 34.6699 107.512 29.9325C104.492 25.1951 103.324 24.1034 97.6099 24.6003Z" fill="#455A64"/>
<path d="M42.7548 56.5412C41.4848 52.5 41.5198 49.8059 42.405 48.2559C42.9928 47.2063 44.8262 46.8039 45.6099 46.7375C46.3936 46.671 46.6595 47.2728 45.9423 47.9725C45.225 48.6723 45.4944 49.3301 45.8793 50.1908C46.3557 51.1637 46.9177 52.0922 47.5588 52.9654L42.7548 56.5412Z" fill="#263238"/>
<path d="M59.5597 59.4873C59.7907 59.4421 60.0245 59.4129 60.2595 59.3999C60.9653 59.3539 61.6496 59.1378 62.2538 58.7701C62.6851 58.4936 63.02 58.0902 63.2125 57.6155C63.3175 57.2353 63.3461 56.8381 63.2965 56.4468C63.2977 56.1297 63.2541 55.8141 63.167 55.5092C62.9046 54.6869 62.1699 54.1341 61.4631 53.7038C59.8606 52.7311 58.1497 53.5743 55.7775 53.9872C53.9791 54.2986 50.5292 51.4505 46.2991 52.9725C42.174 54.463 42.1285 58.889 41.2993 62.4369C39.9452 68.2274 38.9061 66.7789 35.4842 72.5835C32.7341 77.2614 31.7684 80.8513 28.6825 85.4312C27.1535 87.695 24.134 91.6942 22.591 96.6625C20.6841 102.796 22.9898 107.306 26.9505 109.608C30.4494 111.655 32.3562 112.355 37.2336 112.008C39.9522 111.816 41.5757 110.654 42.6568 110.032C44.8401 111.291 49.546 107.89 51.201 106.62C54.301 104.245 52.5655 102.121 49.8399 102.737C48.7445 102.987 47.6802 103.357 46.6665 103.842C46.6665 103.842 48.3459 100.543 49.0037 97.7437C49.6055 95.1755 49.2486 93.0097 48.2725 92.4569C48.8708 91.8166 49.4166 91.1833 49.9169 90.5535C50.1199 92.8488 50.5327 98.4084 50.6937 98.9508C50.9071 99.6505 52.3521 101.022 53.6642 100.665C54.9762 100.308 57.7333 99.0767 58.1357 97.8976C58.671 96.3161 57.086 96.0712 54.3884 96.7745V96.715C54.4654 93.8355 54.5249 91.0574 54.5564 88.1778C54.5774 86.4564 54.6334 84.735 54.6578 83.0135C54.6788 81.614 54.8258 80.2355 54.9308 78.8464C55.0007 77.9227 55.0497 77.0025 55.0287 76.0753C54.9797 73.7521 54.6788 71.2224 54.7208 70.1273C54.7593 68.4304 54.9937 66.6635 56.2323 65.4599C57.4709 64.2563 59.0804 63.6475 60.5149 62.7797C61.042 62.4689 61.5386 62.1093 61.9984 61.7056C62.4323 61.3172 63.2895 60.3061 62.9781 59.6588C62.2318 60.146 61.3355 60.3496 60.4519 60.2326C60.0922 60.1621 59.7584 59.9952 59.4863 59.7498C59.4639 59.7338 59.4456 59.7129 59.4328 59.6885C59.42 59.6642 59.4132 59.6373 59.4128 59.6098C59.4233 59.5328 59.4967 59.5048 59.5597 59.4873Z" fill="#455A64"/>
<path d="M52.1562 50.3241C47.4292 50.0652 46.1626 51.6432 45.0815 52.5214C44.0004 53.3996 41.8871 57.1398 44.2803 57.8921C46.6735 58.6443 48.9057 55.8698 48.9057 55.8698L52.1562 50.3241Z" fill="#FFA8A7"/>
<path d="M54.5354 71.1875C54.5354 70.8376 54.5634 70.3443 54.5669 70.1064C54.5669 69.8055 54.8678 69.5046 54.8853 69.2037C52.9331 69.3776 50.9707 69.4068 49.0142 69.2912C43.8289 69.0637 41.5092 66.3486 41.5092 66.3486L40.3301 65.5719C40.0381 66.2552 39.6543 66.8956 39.1895 67.4753C45.1375 72.3736 51.5404 71.6564 53.5942 71.3975L54.5354 71.1875Z" fill="#37474F"/>
<path d="M62.5865 58.5076C63.294 58.5835 63.9484 58.9188 64.4234 59.4488C64.7523 59.8301 65.7109 62.0414 64.9657 62.7027C64.2204 63.364 62.548 62.7237 62.3555 61.0897C62.3555 61.0897 59.7559 61.1667 58.9897 60.068C58.2234 58.9694 59.4865 58.63 60.6446 58.5845L62.5865 58.5076Z" fill="#F28F8F"/>
<path d="M62.9746 59.6657C62.9746 59.6657 61.9004 60.4215 62.0614 61.1072H62.3553C62.401 61.5457 62.5778 61.9603 62.8626 62.2968C63.1665 62.6014 63.5734 62.7812 64.0032 62.8007C64.9059 62.8007 64.542 62.0414 64.3531 61.1807C64.1642 60.32 63.4679 59.5083 62.9746 59.6657Z" fill="#B16668"/>
<path d="M27.0802 106.424C27.378 106.675 27.5961 107.007 27.708 107.38C27.8199 107.753 27.8205 108.15 27.71 108.524C27.71 108.524 26.5484 110.403 21.1007 111.008C15.8944 111.585 10.8211 109.339 6.34256 111.008C1.86404 112.677 3.71843 116.071 3.25308 116.956C2.78774 117.841 1.50366 117.236 1.50366 114.559C1.50366 111.883 3.29857 109.451 6.54549 108.681C9.79241 107.911 14.3619 108.527 18.7005 108.594C23.1335 108.664 24.1796 106.869 24.8759 106.145C25.6876 105.329 26.4924 105.868 27.0802 106.424Z" fill="#263238"/>
<path d="M63.1633 55.5091C62.9009 54.6869 62.1661 54.1341 61.4594 53.7038C60.3397 53.025 59.1676 53.2314 57.7506 53.5603C57.3202 53.9382 57.9465 55.0018 58.7548 55.5896C59.563 56.1774 60.8541 58.3257 57.9255 59.0605C54.6436 59.8862 53.545 61.1353 52.6283 62.9617C51.3092 65.5963 51.974 67.2408 52.7053 69.0252C53.3701 70.6451 55.0285 74.9487 54.9515 78.472C55.0075 77.6743 55.0985 76.8521 55.081 76.0508C55.032 73.7276 54.6926 71.2189 54.7311 70.1238C54.7696 68.4269 55.004 66.66 56.2426 65.4563C57.4812 64.2527 59.0907 63.644 60.5252 62.7762C61.0522 62.4654 61.5489 62.1058 62.0087 61.7021C62.4425 61.3137 63.2998 60.3026 62.9884 59.6553C62.242 60.1425 61.3458 60.3461 60.4622 60.2291C60.1025 60.1586 59.7687 59.9917 59.4965 59.7462C59.4742 59.7303 59.4558 59.7094 59.4431 59.685C59.4303 59.6607 59.4234 59.6338 59.423 59.6063C59.423 59.5398 59.5105 59.5118 59.5735 59.4943C59.8045 59.4491 60.0383 59.4199 60.2733 59.4069C60.9791 59.3609 61.6634 59.1448 62.2676 58.7771C62.6989 58.5006 63.0338 58.0972 63.2263 57.6225C63.3313 57.2423 63.3598 56.8451 63.3103 56.4538C63.3064 56.1336 63.2569 55.8155 63.1633 55.5091Z" fill="#FAFAFA"/>
<path d="M61.1062 54.4386C61.0887 54.4176 61.0677 54.3966 61.0502 54.3722C60.9958 54.2716 60.935 54.1746 60.8683 54.0817C60.7385 53.9664 60.5781 53.891 60.4064 53.8648C60.158 53.7913 59.9201 53.6619 60.0146 53.3715C60.0426 53.2875 60.116 53.2525 60.193 53.2175C60.4669 53.0409 60.7881 52.952 61.1138 52.9626C61.4394 52.9733 61.7542 53.0829 62.0159 53.277C62.6232 53.585 63.1313 54.0579 63.4819 54.6416C63.6429 54.9635 63.237 55.9606 63.237 55.9606C63.2473 55.8055 63.2184 55.6503 63.153 55.5093C62.9641 54.9425 62.0299 54.8375 61.5471 54.6766C61.3847 54.6299 61.2343 54.5488 61.1062 54.4386Z" fill="#263238"/>
<path d="M56.2324 65.4496C57.4535 64.2634 59.0804 63.6372 60.515 62.7694C60.7039 62.654 60.8928 62.5315 61.0748 62.4196C58.5976 63.8191 55.732 62.717 54.364 63.6896C52.9959 64.6623 53.3143 67.6678 54.364 68.8399C55.1023 69.6552 53.8986 69.9281 53.0974 70.019C53.2549 70.4284 53.4228 70.8972 53.5977 71.4186L54.7559 71.2401C54.7559 70.7853 54.7139 70.4249 54.7209 70.138C54.7559 68.4131 54.9903 66.6637 56.2324 65.4496Z" fill="#E0E0E0"/>
<path d="M49.2137 56.8354C50.0464 57.6471 51.1975 58.7003 52.0687 59.6974C52.807 60.5407 53.3703 59.9179 53.9931 56.0237C54.5284 52.6788 54.8223 52.1504 55.3926 51.958C55.83 51.8111 56.5962 51.909 56.7327 51.6081C56.9986 51.0098 56.0784 49.8832 53.9336 49.5298C50.6517 48.9805 47.9051 55.5583 49.2137 56.8354Z" fill="#263238"/>
<path d="M40.9039 63.8398C40.7954 64.1897 40.7219 64.3577 40.7219 64.3577C40.7219 64.3577 42.3349 66.6494 47.6601 67.741C52.9854 68.8327 54.9237 68.0105 54.9237 68.0105C54.9759 67.7497 55.0449 67.4926 55.1302 67.2407C55.1302 67.2407 55.3996 67.4472 55.2981 68.6892C55.2246 69.5849 55.1022 69.9663 54.6193 70.0888C53.1218 70.4387 50.1198 70.4002 47.1773 69.7389C42.6533 68.7242 40.1796 66.8104 39.7773 66.359C39.3749 65.9077 39.5148 65.5403 39.8297 64.6096C40.1446 63.6789 40.3686 63.6544 40.9039 63.8398Z" fill="#BA68C8"/>
<path opacity="0.3" d="M40.9039 63.8398C40.7954 64.1897 40.7219 64.3577 40.7219 64.3577C40.7219 64.3577 42.3349 66.6494 47.6601 67.741C52.9854 68.8327 54.9237 68.0105 54.9237 68.0105C54.9759 67.7497 55.0449 67.4926 55.1302 67.2407C55.1302 67.2407 55.3996 67.4472 55.2981 68.6892C55.2246 69.5849 55.1022 69.9663 54.6193 70.0888C53.1218 70.4387 50.1198 70.4002 47.1773 69.7389C42.6533 68.7242 40.1796 66.8104 39.7773 66.359C39.3749 65.9077 39.5148 65.5403 39.8297 64.6096C40.1446 63.6789 40.3686 63.6544 40.9039 63.8398Z" fill="black"/>
<path d="M48.2689 92.471C46.7084 91.5683 43.0661 92.3311 39.7842 96.3792C39.7842 96.3792 39.9206 93.8146 43.0241 92.0162C46.1276 90.2178 48.3808 90.8231 49.2101 91.4179L48.2689 92.471Z" fill="#37474F"/>
<path d="M47.6918 103.401C47.055 103.65 46.6631 103.849 46.6631 103.849C45.8409 105.522 44.7493 107.348 44.7493 107.348C44.7493 107.348 46.957 105.35 47.6918 103.401Z" fill="#37474F"/>
<path d="M51.964 102.891C51.7641 102.798 51.552 102.734 51.3342 102.702C51.1368 102.753 50.9464 102.828 50.7674 102.926C50.5949 103.025 50.4331 103.143 50.2845 103.275C50.2285 103.328 49.9066 103.625 50.0116 103.713C50.0431 103.734 50.0816 103.713 50.1131 103.713C50.5192 103.418 50.969 103.189 51.4461 103.034C51.6162 102.978 51.789 102.93 51.964 102.891Z" fill="#37474F"/>
<path d="M52.7508 103.685C52.705 103.569 52.6425 103.461 52.5654 103.363C51.7747 103.496 50.9105 103.751 50.7285 104.447C50.7285 104.472 50.7285 104.563 50.7775 104.531C51.0973 104.303 51.4383 104.107 51.7957 103.944C52.1024 103.819 52.4231 103.732 52.7508 103.685Z" fill="#37474F"/>
<path d="M57.9468 96.7083C57.7697 96.5736 57.5615 96.4858 57.3415 96.4529L57.2225 96.4774C56.8972 96.5413 56.5979 96.6995 56.3618 96.9322C56.3618 96.9322 56.3618 97.0127 56.3618 97.0022C56.7584 96.8383 57.1792 96.7402 57.6074 96.7118C57.7334 96.7048 57.8418 96.7048 57.9468 96.7083Z" fill="#37474F"/>
<path d="M58.2233 97.2294C58.2118 97.1148 58.176 97.0038 58.1183 96.9041C58.0241 96.9109 57.9305 96.925 57.8384 96.946C57.555 97.016 57.1842 97.149 57.1177 97.4744C57.1177 97.4744 57.1177 97.5338 57.1457 97.5268C57.4157 97.4084 57.6955 97.3136 57.9819 97.2434C58.0624 97.2329 58.1428 97.2329 58.2233 97.2294Z" fill="#37474F"/>
<path d="M6.81127 111.931C6.17099 111.781 5.43273 112.236 4.98488 112.677C4.61864 113.042 4.36174 113.503 4.24313 114.006C4.18488 114.261 4.15785 114.522 4.16265 114.783C4.16562 114.914 4.17731 115.045 4.19764 115.175C4.19784 115.301 4.22157 115.425 4.26762 115.542C4.29561 115.591 4.36209 115.63 4.41107 115.598C4.42949 115.583 4.44364 115.562 4.45221 115.54C4.46077 115.517 4.46347 115.493 4.46005 115.469C4.43554 115.04 4.48405 114.611 4.60351 114.199C4.74894 113.807 4.95048 113.438 5.20181 113.104C5.63916 112.53 6.21997 112.376 6.81827 112.054C6.85676 112.033 6.85676 111.942 6.81127 111.931Z" fill="#E0E0E0"/>
<path d="M6.19897 113.264C5.87008 113.264 5.53069 113.614 5.36275 113.88C5.13647 114.225 5.02615 114.633 5.04785 115.045C5.06534 115.143 5.24728 115.252 5.32076 115.147C5.437 114.933 5.52073 114.703 5.56918 114.465C5.68428 114.061 5.95487 113.72 6.32143 113.516C6.45088 113.446 6.28294 113.268 6.19897 113.264Z" fill="#E0E0E0"/>
<path d="M5.0233 108.156C3.14793 108.31 1.33553 109.934 0.751221 111.655C0.751221 111.69 0.786209 111.795 0.824696 111.743C2.00381 110.189 3.18641 108.965 5.12827 108.412C5.30321 108.37 5.14926 108.146 5.0233 108.156Z" fill="#E0E0E0"/>
<path d="M3.83017 107.824C3.02544 107.68 1.9513 108.496 1.43347 109.052C1.36699 109.122 1.48595 109.29 1.56992 109.251C1.98432 109.034 2.38404 108.79 2.76652 108.52C3.13857 108.336 3.52188 108.176 3.91414 108.041C4.01911 107.992 3.90015 107.838 3.83017 107.824Z" fill="#E0E0E0"/>
</svg>
