<svg width="197" height="111" viewBox="0 0 197 111" fill="none" xmlns="http://www.w3.org/2000/svg">
<path d="M76.58 64.1875L54.3317 70.2334C54.0206 75.5979 56.068 80.9406 59.3633 85.1693C60.3839 86.4824 61.5414 87.7208 62.254 89.2144C63.4426 91.6571 63.371 94.5602 62.618 97.1678C61.865 99.7753 60.4803 102.146 59.0925 104.486C57.8105 103.217 55.6697 103.08 54.0672 103.932C52.4647 104.785 51.5935 107.617 51.2201 109.381H60.054C60.4569 109.332 60.8441 109.195 61.1882 108.98C61.5324 108.765 61.825 108.477 62.0455 108.136C63.3835 106.269 63.7818 105.79 64.4414 104.819L73.4434 91.5544C71.2767 88.9527 70.0346 85.7056 69.9117 82.3221C69.7997 78.9678 74.601 66.8977 76.58 64.1875Z" fill="#7968E3"/>
<g opacity="0.3">
<path d="M71.1034 76.8488C72.6344 72.0568 75.2419 66.0078 76.5706 64.1875L54.3224 70.2334C54.1846 72.6911 54.501 75.1531 55.2559 77.496C55.2559 77.496 61.0715 75.3178 63.9965 75.6663C66.9214 76.0148 71.1034 76.8488 71.1034 76.8488Z" fill="black"/>
</g>
<path d="M8.00253 14.0995C7.31486 14.7498 1.17248 21.6296 0.469249 34.2442C0.469249 34.2442 -0.330442 38.4138 0.158085 38.9117C0.646613 39.4095 1.38096 37.5208 1.38096 37.5208C1.38096 37.5208 0.0242848 39.9821 0.724404 44.3664C1.42452 48.7507 1.53032 50.9008 6.61163 62.2739C11.6929 73.6469 25.7015 77.0791 25.7015 77.0791C25.7015 77.0791 40.7712 74.011 41.2971 73.8367C41.8229 73.6625 51.6308 72.4334 58.0999 69.6298C64.569 66.8262 68.0852 69.4555 70.5465 71.9075C73.0078 74.3595 82.8032 83.9931 83.8612 86.4451C84.9192 88.8971 86.4874 92.2265 87.7134 93.9784C88.9394 95.7302 91.0429 99.7567 90.8655 101.86C90.6881 103.964 87.3618 107.29 90.1654 109.393H98.0503C98.0503 109.393 97.5244 103.086 95.2498 97.6563C92.9752 92.2265 88.9425 85.5676 89.1168 79.9635C89.291 74.3595 88.9425 67.1747 88.594 64.5485C88.2455 61.9223 87.7165 59.212 87.7165 59.212L86.8421 60.5189C86.8421 60.5189 87.0164 52.6371 81.0607 47.2073C75.105 41.7775 68.7977 36.0054 56.8864 37.2221C44.975 38.4387 40.9455 39.8483 37.4418 38.7966C33.938 37.7448 31.3118 37.3963 30.5961 34.7701L32.8739 23.9074C32.8739 23.9074 33.2255 18.6518 31.8252 15.8513C30.425 13.0508 25.073 10.3935 22.0174 9.73073C20.4864 9.40712 12.9158 9.36978 8.00253 14.0995Z" fill="#7968E3"/>
<path d="M21.7591 24.4955C21.7404 24.5204 21.5288 24.3337 21.1368 24.1564C20.6084 23.9189 20.0225 23.84 19.4502 23.9292C18.8857 24.0254 18.3602 24.2801 17.9349 24.6636C17.6082 24.9592 17.4619 25.2019 17.4401 25.1863C17.5263 24.9541 17.6685 24.7468 17.854 24.5827C18.2751 24.1484 18.8255 23.8622 19.4229 23.7668C20.0203 23.6715 20.6325 23.7721 21.1679 24.0537C21.3975 24.1514 21.6003 24.303 21.7591 24.4955Z" fill="#263238"/>
<path d="M42.9556 72.8472C41.6876 71.8207 40.7062 70.4842 40.1066 68.967C39.5069 67.4498 39.3092 65.8035 39.5328 64.1875L19.7303 70.6224C24.8583 74.599 28.2562 80.4645 30.3099 86.6162C32.3635 92.7679 33.2192 99.2463 34.0438 105.681C30.6864 107.134 31.3211 110.819 31.3211 110.819H40.6094C41.7171 109.543 42.5542 107.103 42.5386 105.41C42.5386 104.894 41.8914 103.833 41.6051 102.809C38.8918 93.0231 39.6759 82.459 42.9556 72.8472Z" fill="#7968E3"/>
<path d="M18.7284 69.7262C18.6599 69.8008 17.9878 69.3559 17.0823 68.4255C16.554 67.8775 16.0672 67.2909 15.6261 66.6705C15.0911 65.9069 14.6147 65.1039 14.2009 64.2684C13.797 63.4266 13.4589 62.5548 13.1896 61.6608C12.975 60.9308 12.8138 60.1862 12.7073 59.4329C12.5362 58.1446 12.6015 57.3418 12.7073 57.3356C12.8131 57.3294 12.9656 58.1042 13.2737 59.324C13.4261 59.9463 13.6377 60.6495 13.896 61.4305C14.1955 62.2778 14.5393 63.1087 14.9259 63.9198C15.3228 64.7227 15.7622 65.5038 16.2422 66.2598C16.6934 66.9537 17.1259 67.5605 17.5117 68.0583C18.2834 69.0447 18.8279 69.6359 18.7284 69.7262Z" fill="#7968E3"/>
<path d="M101.598 20.3944C101.041 17.4072 99.8488 14.4605 97.7142 12.3042C95.5796 10.1478 92.3964 8.88135 89.431 9.53791C85.1121 10.4901 83.9857 13.8444 83.2544 18.2038C82.5232 22.5632 84.9191 27.2276 84.3186 31.6212C83.7181 36.0149 78.1482 41.65 73.9351 42.9849L78.5714 48.0974C82.009 48.0976 85.4046 47.341 88.5169 45.8813C91.6292 44.4215 94.382 42.2945 96.5798 39.6512C98.7777 37.0079 100.367 33.9132 101.234 30.5867C102.101 27.2602 102.225 23.7836 101.598 20.4038V20.3944Z" fill="#7968E3"/>
<path d="M6.8699 41.6034C6.4138 43.189 6.27008 44.8482 6.44672 46.4887L8.08344 43.7909C7.86152 45.3159 8.19265 46.87 9.01693 48.1721L10.0438 45.3903C10.7399 47.5805 11.9083 49.5913 13.4666 51.2806" fill="#7968E3"/>
<path d="M13.4635 51.2649C13.4635 51.2649 13.4261 51.2401 13.367 51.1778C13.3079 51.1156 13.2176 51.0285 13.1087 50.9071C12.8878 50.6613 12.5766 50.2848 12.2157 49.8087C11.2318 48.4685 10.4701 46.9787 9.95976 45.3964H10.1153C9.80418 46.2583 9.45567 47.198 9.09472 48.1813L9.03871 48.3338L8.95159 48.1969C8.69975 47.7958 8.49114 47.3692 8.32926 46.9242C7.96706 45.912 7.86018 44.8261 8.01809 43.7628L8.16123 43.8126L6.51828 46.5041L6.41249 46.6722L6.38137 46.4886C6.25899 45.2969 6.30929 44.0937 6.53073 42.9164C6.61163 42.4932 6.69565 42.1665 6.75788 41.9456C6.789 41.8336 6.817 41.7527 6.83567 41.6967C6.85434 41.6406 6.86679 41.6095 6.8699 41.6126C6.85422 41.7283 6.8303 41.8427 6.79833 41.9549C6.74855 42.179 6.67387 42.5057 6.60541 42.9289C6.41394 44.1006 6.38358 45.293 6.51517 46.473L6.39071 46.445L8.01498 43.7472L8.21724 43.4143L8.15812 43.797C7.94051 45.3016 8.26475 46.8346 9.07294 48.1222H8.9298L9.95976 45.3435L10.0344 45.1381L10.0998 45.3466C10.5981 46.9163 11.3326 48.401 12.2779 49.7496C12.6264 50.2443 12.9283 50.6146 13.1367 50.8667L13.3763 51.156C13.4095 51.1888 13.4388 51.2254 13.4635 51.2649Z" fill="#263238"/>
<path d="M28.4553 75.5419L6.31601 61.2284C6.9819 64.7477 11.3631 71.5435 13.4728 74.8978L13.5661 105.429C10.7657 105.274 8.27634 106.577 8.1052 109.384H18.5323C18.5323 109.384 19.6992 105.566 20.4802 104.15C21.2612 102.735 20.2655 100.248 20.2655 100.248C20.2655 91.4673 23.1842 82.4965 28.4553 75.5419Z" fill="#7968E3"/>
<path d="M14.0858 60.4318C14.1003 60.5119 14.1076 60.5931 14.1076 60.6745C14.1262 60.8332 14.1076 61.0665 14.1574 61.3621C14.2462 62.2084 14.4245 63.0428 14.6894 63.8515C15.0798 65.0458 15.5874 66.1986 16.2048 67.2929C16.9574 68.6364 17.7951 69.9303 18.7128 71.1669C19.6473 72.385 20.7314 73.4806 21.9396 74.4279C23.0349 75.3303 24.0493 76.1144 24.8614 76.8239C25.5128 77.373 26.1242 77.9678 26.691 78.6037C26.8964 78.8247 27.0302 79.0207 27.1298 79.1421C27.1833 79.2022 27.2303 79.2679 27.2698 79.3381C27.2097 79.2851 27.1545 79.2268 27.1049 79.1638C26.996 79.0487 26.856 78.8527 26.6444 78.6473C26.0588 78.0302 25.4353 77.4503 24.7774 76.911C23.9559 76.214 22.9353 75.4423 21.8307 74.5431C20.6059 73.5903 19.5088 72.4838 18.5666 71.2509C17.6443 70.0099 16.8064 68.7084 16.0586 67.3552C15.4424 66.2496 14.9409 65.0839 14.5619 63.8764C14.3063 63.0614 14.1445 62.22 14.0796 61.3684C14.061 61.1376 14.0547 60.9059 14.0609 60.6745C14.0611 60.5929 14.0694 60.5116 14.0858 60.4318Z" fill="#263238"/>
<path d="M42.1964 74.2102C43.3614 71.4467 44.9893 68.9022 47.0101 66.6863C45.6113 67.3368 44.3189 68.1949 43.1765 69.2316C43.9599 67.2588 44.879 65.3426 45.9272 63.4968" fill="#7968E3"/>
<path d="M45.9272 63.4968C45.9166 63.536 45.9009 63.5737 45.8805 63.6088L45.7187 63.92L45.1182 65.0869C44.611 66.0888 43.9295 67.5264 43.2512 69.2596L43.1298 69.1756C44.0248 68.3573 45.0153 67.65 46.0797 67.069C46.3908 66.901 46.702 66.7578 46.9789 66.6116L47.3461 66.4404L47.0754 66.7516C45.6439 68.3208 44.4012 70.0523 43.3726 71.9107C42.9836 72.617 42.6973 73.1989 42.5044 73.6003L42.2866 74.064C42.2643 74.1203 42.235 74.1736 42.1995 74.2226C42.2136 74.1648 42.2334 74.1086 42.2586 74.0546C42.3021 73.9426 42.3613 73.7808 42.4515 73.5754C42.6258 73.1647 42.8996 72.5735 43.2761 71.8609C44.2805 69.9754 45.516 68.2225 46.954 66.6427L47.0474 66.7703C46.7611 66.9072 46.4593 67.0565 46.1575 67.2215C45.1048 67.7994 44.1223 68.4969 43.2294 69.3L42.9898 69.5179L43.1112 69.2067C43.6779 67.7858 44.322 66.397 45.0404 65.0464C45.3049 64.5486 45.5258 64.1627 45.6783 63.8982L45.8619 63.5871C45.8791 63.5539 45.9011 63.5235 45.9272 63.4968Z" fill="#263238"/>
<path d="M76.0977 77.496L76.0417 77.4462L75.8923 77.2999L75.3229 76.715C74.8312 76.2046 74.1311 75.4703 73.2692 74.5368C72.2803 73.4378 71.2267 72.3987 70.114 71.4252C69.4502 70.8628 68.7308 70.3697 67.967 69.9534C67.1429 69.5134 66.2654 69.1819 65.3563 68.967C64.4468 68.7585 63.5124 68.6789 62.5807 68.7305C61.7116 68.7847 60.8492 68.918 60.0043 69.1288C58.5717 69.4983 57.1636 69.9566 55.788 70.501C54.6056 70.9522 53.6534 71.3256 52.9875 71.5558C52.6577 71.6772 52.3932 71.7581 52.2158 71.8141L52.0136 71.8763C51.9669 71.8919 51.942 71.895 51.942 71.8919L52.0074 71.8608L52.2034 71.783C52.3776 71.7177 52.639 71.6274 52.9657 71.4967C53.6285 71.2478 54.5745 70.8744 55.7662 70.3952C57.1414 69.8327 58.5519 69.3608 59.9887 68.9825C60.8426 68.7666 61.7143 68.6291 62.5932 68.5718C63.5395 68.5171 64.4888 68.5977 65.4123 68.8114C66.3348 69.0287 67.225 69.3655 68.0603 69.8133C68.8371 70.2341 69.5672 70.7358 70.2385 71.31C71.3502 72.2947 72.3998 73.3474 73.3812 74.4621L75.3976 76.6807L75.9421 77.2844L76.0821 77.4462C76.0821 77.4742 76.1008 77.4929 76.0977 77.496Z" fill="#263238"/>
<g opacity="0.3">
<path d="M29.9707 34.8697C27.7272 35.685 25.9256 37.2937 25.1072 39.2042L26.5292 38.6348C24.9445 40.549 24.0754 42.955 24.071 45.44C22.4561 42.7577 22.649 38.6379 23.9964 37.3497C24.3727 36.7607 24.868 36.2569 25.4505 35.8706C26.0329 35.4842 26.6897 35.2239 27.3787 35.1062C29.6658 34.7453 29.9707 34.8697 29.9707 34.8697Z" fill="black"/>
</g>
<path d="M84.2906 51.1155C84.1754 50.9744 84.0714 50.8246 83.9794 50.6674C83.7958 50.3562 83.5158 49.9486 83.1548 49.4383C82.7939 48.928 82.3458 48.3399 81.8137 47.7082C81.2816 47.0766 80.6624 46.42 79.9747 45.7635C79.2871 45.1069 78.5838 44.5188 77.9304 44.0303C77.277 43.5418 76.6608 43.1155 76.1319 42.7856C75.6029 42.4558 75.1673 42.1975 74.8623 42.0326C74.6998 41.9513 74.5438 41.8577 74.3956 41.7526C74.5664 41.8134 74.7319 41.8883 74.8903 41.9766C75.2015 42.126 75.6527 42.3687 76.191 42.6892C76.8216 43.0649 77.4323 43.4731 78.0206 43.912C79.468 44.9842 80.7803 46.2275 81.9289 47.6149C82.4547 48.2528 82.9028 48.8595 83.2513 49.373C83.5998 49.8864 83.8736 50.3251 84.0323 50.6332C84.13 50.7875 84.2163 50.9487 84.2906 51.1155Z" fill="#263238"/>
<path d="M95.3742 20.662C95.3515 20.6039 95.3358 20.5433 95.3276 20.4815C95.2996 20.3632 95.2778 20.189 95.2218 19.965C95.075 19.3263 94.8731 18.7016 94.6181 18.098C94.2337 17.1865 93.7293 16.3305 93.1183 15.5526C92.3573 14.5722 91.4331 13.7301 90.3863 13.0633L90.5045 12.9793C90.6725 13.7323 90.8157 14.5351 90.9526 15.3286C91.1944 16.845 91.345 18.3745 91.4038 19.9089V20.1921L91.2544 19.9494C90.7608 19.1458 90.1348 18.4314 89.403 17.8366L89.5057 17.7775C89.7204 19.0812 89.8946 20.1485 90.0222 20.9078C90.0751 21.2687 90.1187 21.555 90.1529 21.7697C90.1727 21.8723 90.1842 21.9764 90.1871 22.0809C90.1556 21.9843 90.1317 21.8855 90.1156 21.7853L89.9506 20.9296C89.8137 20.1734 89.6177 19.1061 89.3812 17.8179L89.3532 17.6561L89.4839 17.7588C90.2322 18.3575 90.8731 19.0794 91.3789 19.8934L91.242 19.9369C91.1736 18.409 91.0199 16.8861 90.7815 15.3753C90.6539 14.5694 90.5014 13.7883 90.3396 13.0353L90.296 12.8486L90.4578 12.9513C91.5165 13.6271 92.4495 14.4821 93.2148 15.478C93.8287 16.268 94.3283 17.1406 94.699 18.07C94.9488 18.6815 95.1374 19.3163 95.2622 19.965C95.312 20.1921 95.3244 20.3695 95.3431 20.4908C95.3573 20.5471 95.3677 20.6043 95.3742 20.662Z" fill="#263238"/>
<path d="M24.1924 78.7034C24.0692 78.6832 23.9483 78.6509 23.8314 78.6069L22.8233 78.2958L19.276 77.1444L19.3569 77.0324C19.8108 77.6175 20.3702 78.1124 21.0061 78.4918L20.9345 78.6318C18.2184 77.5919 15.7788 75.9393 13.8057 73.8025C13.3503 73.3077 12.9223 72.7884 12.5237 72.2467L12.2126 71.7924C12.1716 71.7437 12.1381 71.6891 12.113 71.6306C12.1589 71.6743 12.2005 71.7223 12.2375 71.7738L12.5704 72.2094C12.8816 72.5766 13.2985 73.118 13.8866 73.7279C15.4131 75.3347 17.2019 76.67 19.1764 77.6765C19.7988 77.9877 20.4024 78.2553 20.9967 78.4918L20.9283 78.6318C20.2746 78.2416 19.7012 77.7305 19.2387 77.1258L19.0955 76.9391L19.3196 77.0138L22.8513 78.2273L23.8439 78.5789C23.9631 78.6114 24.0796 78.653 24.1924 78.7034Z" fill="#263238"/>
<path d="M2.87143 53.2564C2.87143 53.2564 10.0718 59.0876 12.2063 57.8928C14.3409 56.6979 34.5697 37.9783 34.5697 37.9783L39.0536 39.2572C39.0536 39.2572 19.0737 59.3957 18.6443 61.0231C18.6443 61.0231 15.7536 65.0246 17.241 68.1799C18.7283 71.3351 25.5397 77.5148 25.5397 77.5148C25.5397 77.5148 15.2278 74.5961 12.7042 70.859C10.1807 67.1219 7.67891 62.6691 7.67891 62.6691L5.99552 60.9204C4.73219 58.8449 3.72402 56.2187 2.87143 53.2564Z" fill="#263238"/>
<path d="M42.4577 73.6221C42.4577 73.6221 49.9256 69.2658 51.0676 65.3669C52.2096 61.4681 52.7323 37.6733 52.7323 37.6733L46.0205 38.5695C46.0205 38.5695 48.012 60.3852 47.01 64.1721C46.0081 67.9589 42.4577 73.6221 42.4577 73.6221Z" fill="#263238"/>
<path d="M37.0466 40.6106C40.8033 41.0409 44.6038 40.8961 48.3169 40.1812L48.0369 38.224C44.1689 38.8064 40.2557 39.0324 36.3464 38.8992" fill="#263238"/>
<path d="M24.2142 10.8073C24.2142 10.8073 29.3888 5.44595 30.6055 4.93253C31.8221 4.41911 32.5845 4.93253 32.905 6.14919C33.2255 7.36584 32.6374 11.9742 31.2994 14.9707" fill="#7968E3"/>
<path d="M8.41327 13.7198C8.41327 13.7198 9.5708 9.33858 10.5416 7.10753C11.5125 4.87649 15.1189 -0.326174 16.0275 0.0161061C16.9361 0.358386 17.8011 1.50347 19.0022 4.41908C20.2033 7.33468 21.115 9.62796 21.115 9.62796" fill="#7968E3"/>
<path d="M31.1562 20.581C30.9623 20.4807 30.7436 20.4383 30.5262 20.4591C30.3088 20.4799 30.1021 20.5629 29.9307 20.6982C29.7593 20.8335 29.6305 21.0153 29.5598 21.2219C29.4891 21.4285 29.4794 21.6511 29.532 21.863C29.6213 22.1916 29.8079 22.4855 30.0672 22.7062C30.2888 22.8195 30.5339 22.8792 30.7828 22.8805C31.0021 22.8645 31.2094 22.7745 31.3709 22.6253C31.5008 22.5316 31.6073 22.4092 31.6821 22.2675C31.8275 21.9221 31.8386 21.5347 31.7132 21.1815C31.6498 20.9935 31.5314 20.8289 31.3732 20.709C31.2151 20.5892 31.0246 20.5196 30.8264 20.5094" fill="#263238"/>
<path d="M29.2955 20.6184C31.0047 22.3293 33.0581 23.6572 35.3196 24.5142C37.9334 25.4819 39.8501 26.5741 39.0256 28.7149C38.201 30.8557 35.2605 33.6935 33.2006 34.3532C31.1407 35.0129 29.1554 34.3158 26.9991 35.3053C24.8427 36.2948 23.1842 39.2571 23.1842 39.2571" fill="#7968E3"/>
<path d="M23.1842 39.2571C23.192 39.2297 23.2035 39.2035 23.2184 39.1793C23.2464 39.1264 23.2869 39.0517 23.3429 38.9552C23.458 38.7592 23.6323 38.4792 23.8781 38.1275C24.1757 37.7009 24.5 37.2935 24.8489 36.9078C25.3043 36.3878 25.8276 35.9314 26.4048 35.5511C26.5712 35.4448 26.7437 35.3482 26.9213 35.2617C27.1079 35.1748 27.299 35.098 27.4938 35.0315C27.9072 34.884 28.3348 34.7798 28.7696 34.7203C29.6657 34.5927 30.6366 34.6332 31.6323 34.5523C32.1422 34.5138 32.6463 34.4188 33.1352 34.2691C33.6381 34.0945 34.1169 33.8572 34.5604 33.5628C35.0275 33.2634 35.4716 32.9295 35.889 32.5639C36.3227 32.1921 36.7322 31.793 37.115 31.3691C37.8969 30.5587 38.5196 29.6087 38.9509 28.5686C39.1449 28.08 39.1516 27.537 38.9696 27.0439C38.7584 26.5848 38.426 26.1921 38.0081 25.9081C37.2193 25.3783 36.366 24.9517 35.469 24.6386C34.6858 24.3495 33.9255 24.0021 33.1943 23.5993C32.1361 23.0153 31.1422 22.3218 30.229 21.5301C29.9178 21.2469 29.6689 21.0166 29.5102 20.8579L29.3328 20.6712C29.3123 20.6508 29.2946 20.6277 29.2799 20.6028C29.2799 20.6028 29.3048 20.6028 29.3453 20.6588L29.5319 20.833C29.6969 20.9855 29.9427 21.2064 30.2694 21.4803C31.1943 22.2497 32.1928 22.9261 33.2504 23.4997C33.9811 23.892 34.7392 24.231 35.5187 24.5141C36.4296 24.825 37.2958 25.2539 38.0952 25.7899C38.5378 26.087 38.8899 26.5004 39.1127 26.9848C39.3134 27.5119 39.3134 28.0944 39.1127 28.6215C38.676 29.6819 38.0425 30.6501 37.2457 31.4749C36.8575 31.9039 36.4417 32.3072 36.001 32.6822C35.5769 33.0527 35.1255 33.3907 34.6506 33.6935C34.1949 33.9937 33.7036 34.2362 33.1881 34.4154C32.6881 34.5676 32.1724 34.6626 31.651 34.6985C30.6366 34.7763 29.6782 34.7327 28.7945 34.851C28.3708 34.9016 27.9537 34.9965 27.5498 35.1341C27.3582 35.1975 27.1702 35.2713 26.9866 35.3551C26.8136 35.438 26.6454 35.5305 26.4825 35.632C25.9093 36.003 25.3864 36.4464 24.9267 36.9513C24.5768 37.332 24.2485 37.7319 23.9434 38.1493C23.6914 38.4916 23.5078 38.7716 23.3833 38.9552L23.2464 39.1699C23.2297 39.2017 23.2088 39.231 23.1842 39.2571Z" fill="#263238"/>
<path d="M20.7758 20.0924C20.5398 19.9718 20.2742 19.9212 20.0104 19.9468C19.7466 19.9723 19.4956 20.0728 19.2872 20.2364C19.0787 20.4001 18.9214 20.62 18.834 20.8702C18.7465 21.1204 18.7325 21.3904 18.7937 21.6483C18.9048 22.0487 19.1322 22.4071 19.4471 22.6782C19.7199 22.8141 20.0199 22.8865 20.3246 22.8898C20.592 22.8721 20.8449 22.7621 21.0403 22.5786C21.2005 22.4661 21.3325 22.3181 21.4261 22.1461C21.6012 21.7228 21.6144 21.2499 21.4635 20.8175C21.3846 20.5901 21.2398 20.3914 21.0475 20.2467C20.8551 20.1021 20.6241 20.018 20.3837 20.0053" fill="#263238"/>
<path d="M39.0287 26.9911C38.9504 26.7372 38.8211 26.502 38.6489 26.2997C38.4766 26.0975 38.2649 25.9325 38.0267 25.8149C37.5798 25.6082 37.099 25.4848 36.6078 25.4508C35.9668 25.3741 35.3237 25.3232 34.6786 25.2983C34.3145 25.2983 33.8664 25.3388 33.714 25.7277C33.5615 26.1167 33.8073 26.5243 34.0251 26.8386C34.4789 27.5238 35.0461 28.1268 35.7023 28.6216C36.0092 28.8535 36.3687 29.0058 36.7488 29.065C37.1288 29.1241 37.5176 29.0883 37.8805 28.9607C38.2629 28.7795 38.5785 28.4822 38.7824 28.1113C38.9863 27.7404 39.0681 27.3147 39.0162 26.8946" fill="#263238"/>
<path d="M23.3211 29.9378C23.2904 30.1743 23.3338 30.4146 23.4456 30.6254C23.7825 31.1847 24.233 31.667 24.768 32.0412C25.5436 32.6222 26.3855 33.1089 27.276 33.4912C27.7978 33.7204 28.3394 33.9016 28.8941 34.0327C29.4943 34.16 30.1024 34.2463 30.7144 34.2909C31.3221 34.3414 31.9341 34.291 32.5253 34.1416C33.0723 33.9901 33.5862 33.7378 34.0407 33.3979C34.8103 32.8053 35.4536 32.0647 35.9326 31.2198C36.263 30.6547 36.5642 30.0731 36.835 29.4772L37.0652 28.9918C37.0903 28.9348 37.1194 28.8797 37.1524 28.8269C37.1404 28.8893 37.1205 28.95 37.0932 29.0074C37.0434 29.135 36.975 29.2999 36.8941 29.5021C36.6429 30.1112 36.3551 30.7046 36.0322 31.2789C35.5556 32.1434 34.9076 32.9015 34.1278 33.5068C33.6614 33.8595 33.134 34.1232 32.572 34.2847C31.9625 34.4391 31.3317 34.4916 30.705 34.4403C30.0845 34.3954 29.468 34.307 28.8598 34.1758C28.2961 34.04 27.7462 33.8525 27.2169 33.6157C26.318 33.2231 25.4714 32.7203 24.6965 32.119C24.1562 31.7285 23.7098 31.2225 23.3896 30.6379C23.308 30.474 23.2704 30.2917 23.2807 30.1089C23.2841 30.0499 23.2978 29.992 23.3211 29.9378Z" fill="#263238"/>
<g opacity="0.3">
<path d="M12.446 11.495C12.7615 8.97589 13.5862 6.54729 14.8699 4.35691C15.1033 3.95551 15.514 3.50743 15.9434 3.6848C16.1503 3.8007 16.3083 3.98745 16.3884 4.21066C17.3012 6.03995 18.056 7.94395 18.6443 9.90185C16.4319 9.97248 14.2927 10.7112 12.5082 12.0209" fill="black"/>
</g>
<g opacity="0.3">
<path d="M26.8777 11.2336C28.2686 11.8715 28.9594 12.7894 30.0765 13.8194C30.9491 12.1385 31.506 10.3118 31.7195 8.43002C31.7599 8.08152 31.7568 7.66767 31.4736 7.4623C31.1251 7.21026 30.6459 7.4623 30.3099 7.73924C29.0291 8.75829 27.8794 9.93201 26.8871 11.2336" fill="black"/>
</g>
<path d="M37.0808 26.4247C37.0621 26.4682 36.4585 26.2317 35.6619 26.1664C34.8653 26.1011 34.2274 26.2224 34.2181 26.1664C34.6808 25.9853 35.1823 25.9263 35.6743 25.9953C36.1727 26.0126 36.6577 26.1607 37.0808 26.4247Z" fill="white"/>
<path d="M5.16781 59.4049C5.23148 59.4024 5.29521 59.4077 5.35762 59.4204C5.48209 59.436 5.66879 59.4702 5.89905 59.5231C6.56091 59.681 7.17946 59.9839 7.71002 60.4099C8.45803 61.0809 9.1038 61.8577 9.62679 62.7157C10.2875 63.7467 10.867 64.8277 11.36 65.9487C11.8983 67.1311 12.3837 68.2668 12.9158 69.2594C13.3657 70.144 13.9003 70.9829 14.5121 71.7643C14.9251 72.2901 15.3923 72.7709 15.9061 73.1988C16.2701 73.5099 16.4942 73.6437 16.4848 73.6593C16.4255 73.6334 16.3691 73.6011 16.3168 73.5628C16.1616 73.4678 16.012 73.3639 15.8687 73.2517C15.3346 72.8382 14.8492 72.3653 14.4218 71.8421C13.7938 71.0629 13.2455 70.2227 12.7851 69.3341C12.2499 68.3384 11.7583 67.1995 11.2293 66.0202C10.7337 64.9029 10.1533 63.8252 9.49299 62.7966C8.98288 61.9435 8.35428 61.1672 7.62601 60.4908C7.11083 60.0681 6.5131 59.7576 5.87104 59.5791C5.42608 59.4547 5.1647 59.4204 5.16781 59.4049Z" fill="#455A64"/>
<path d="M34.9867 38.4138C34.9659 38.4424 34.943 38.4695 34.9182 38.4947C34.8653 38.5538 34.7938 38.6285 34.7035 38.7219L33.8665 39.59C33.1352 40.3368 32.0711 41.4134 30.7548 42.7266C28.1006 45.359 24.3791 48.9498 20.1753 52.7865C18.0656 54.7095 16.043 56.5205 14.1698 58.1416C13.7093 58.5403 13.2001 58.879 12.6544 59.1498C12.1286 59.4044 11.5437 59.5119 10.9617 59.461C10.4272 59.3918 9.91025 59.224 9.437 58.9662C9.0073 58.7348 8.59169 58.4782 8.19234 58.1976C6.63652 57.1583 5.39186 56.2746 4.57973 55.6336C4.16588 55.3225 3.84849 55.0611 3.64623 54.8868L3.40353 54.6877C3.35063 54.641 3.32262 54.6161 3.32573 54.613L3.41286 54.6721L3.6649 54.8619L4.6264 55.5838C5.46343 56.2062 6.70186 57.0774 8.26391 58.1012C8.66403 58.3758 9.0796 58.6272 9.50856 58.8542C9.96964 59.1027 10.473 59.2631 10.9928 59.3272C11.5505 59.3744 12.1104 59.2667 12.6109 59.016C13.1443 58.7502 13.6411 58.4166 14.0889 58.0234C15.9559 56.4022 17.9753 54.585 20.0819 52.6651C24.2546 48.8254 27.9886 45.2439 30.6522 42.6456L33.8136 39.534L34.6973 38.7094L34.9213 38.4916C34.9412 38.4642 34.9631 38.4382 34.9867 38.4138Z" fill="#455A64"/>
<path d="M24.3449 77.1507L24.1457 77.0169L23.5638 76.6124C23.0535 76.2546 22.3192 75.7256 21.3857 74.9913C20.2449 74.1117 19.2017 73.1123 18.274 72.0103C17.7015 71.3144 17.2069 70.5579 16.7991 69.7544C16.3372 68.8539 16.0141 67.8887 15.8407 66.8917C15.6435 65.7898 15.6935 64.6579 15.987 63.5778C16.3333 62.418 16.8914 61.3324 17.633 60.3759C18.4176 59.3556 19.2624 58.383 20.1628 57.4634C21.0714 56.5019 22.0298 55.5186 23.0006 54.526C26.9213 50.5369 31.4332 46.3611 35.9233 41.7309C36.4927 41.146 37.0497 40.5547 37.6035 39.9729L37.6284 39.948H37.6596L47.6012 39.7021H47.6759V39.7768C48.0182 44.7243 48.2765 49.3482 48.3169 53.5023C48.3418 55.5777 48.3169 57.5474 48.2671 59.3522C48.2474 61.0317 48.0934 62.7069 47.8066 64.3619C47.5681 65.7136 47.1352 67.0237 46.5215 68.2514C46.0625 69.168 45.4712 70.0119 44.7665 70.7563C44.3276 71.2223 43.8333 71.633 43.2947 71.9792C43.1107 72.1014 42.9195 72.2126 42.7222 72.3121L42.8622 72.2219C42.9556 72.1597 43.1018 72.085 43.2792 71.9574C43.8094 71.6017 44.2951 71.1838 44.7261 70.7128C45.4187 69.9705 46.0003 69.1321 46.4531 68.2234C47.0495 66.9976 47.4686 65.6932 47.6977 64.3494C47.9753 62.6989 48.122 61.029 48.1365 59.3553C48.18 57.5381 48.1987 55.584 48.1707 53.5085C48.1209 49.3607 47.8595 44.743 47.5079 39.7955L47.5857 39.8671L37.6471 40.1191L37.7031 40.0911C37.1493 40.6761 36.5923 41.2673 36.0197 41.8523C31.5265 46.4855 27.0115 50.6613 23.0878 54.638C22.1045 55.6317 21.1575 56.6098 20.2468 57.5723C19.3483 58.4852 18.5046 59.4505 17.7202 60.463C16.9929 61.402 16.4435 62.466 16.099 63.6027C15.8086 64.6651 15.7555 65.7784 15.9434 66.8637C16.111 67.8499 16.4256 68.8055 16.8769 69.6984C17.2752 70.4986 17.7626 71.2512 18.3301 71.9418C19.2478 73.0441 20.2793 74.0464 21.4075 74.9321C22.341 75.6727 23.0753 76.2079 23.5856 76.5782L24.1582 76.9952C24.2826 77.0978 24.3449 77.1507 24.3449 77.1507Z" fill="#455A64"/>
<path d="M51.2139 37.891C51.2172 37.9231 51.2172 37.9554 51.2139 37.9875C51.2139 38.0621 51.2139 38.1555 51.2139 38.2737C51.2139 38.5351 51.1859 38.8961 51.1672 39.3721C51.1237 40.3243 51.0614 41.7059 51.0023 43.4173C50.8809 46.8401 50.8187 51.5418 50.9463 56.7475C50.9992 59.3426 50.9183 61.8724 50.2213 64.0443C49.588 65.96 48.5234 67.7048 47.1096 69.1443C46.1702 70.1121 45.1266 70.973 43.998 71.7114C43.5966 71.9666 43.2792 72.1595 43.0645 72.2808L42.8125 72.4177C42.7852 72.4355 42.756 72.4502 42.7253 72.4613C42.7253 72.4613 42.7502 72.4395 42.8062 72.4053L43.0458 72.2528C43.2637 72.1253 43.5717 71.923 43.9793 71.6585C45.0942 70.9062 46.1259 70.0373 47.0567 69.0665C48.4439 67.6308 49.4866 65.8986 50.1062 64.0008C50.7876 61.8506 50.8654 59.3333 50.8125 56.7475C50.6849 51.5418 50.7658 46.8214 50.9152 43.411C50.9899 41.7059 51.0676 40.3274 51.1299 39.3659C51.1641 38.8992 51.1921 38.532 51.2108 38.2675C51.2108 38.1524 51.2295 38.0559 51.2357 37.9843C51.2251 37.9541 51.2178 37.9228 51.2139 37.891Z" fill="#455A64"/>
<path d="M131.801 83.0869C131.666 83.4027 129.761 90.5405 130.623 93.3475C131.486 96.1545 132.864 97.187 132.488 98.9113C132.112 100.636 128.709 106.871 130.112 109.643C131.516 112.415 132.724 109.834 132.724 109.834C132.724 109.834 134.348 103.753 136.533 101.979C138.719 100.205 139.33 98.9213 139.33 98.9213L141.024 89.3224L131.801 83.0869Z" fill="#7767DB"/>
<path opacity="0.4" d="M131.801 83.0869C131.666 83.4027 129.761 90.5405 130.623 93.3475C131.486 96.1545 132.864 97.187 132.488 98.9113C132.112 100.636 128.709 106.871 130.112 109.643C131.516 112.415 132.724 109.834 132.724 109.834C132.724 109.834 134.348 103.753 136.533 101.979C138.719 100.205 139.33 98.9213 139.33 98.9213L141.024 89.3224L131.801 83.0869Z" fill="black"/>
<path d="M149.19 93.2122C149.16 93.5481 147.155 97.3225 150.052 99.8788C151.766 101.4 153.611 102.767 155.566 103.964C155.566 103.964 153.245 107.042 153.465 108.169C153.686 109.297 155.029 108.601 156.057 107.789C157.084 106.977 160.222 105.518 160.528 103.779C160.834 102.039 159.024 101.503 158.974 99.9189C158.924 98.335 161.756 97.5079 161.054 94.3751C160.352 91.2423 158.508 89.8639 158.508 89.8639L149.19 93.2122Z" fill="#7767DB"/>
<path opacity="0.4" d="M149.19 93.2122C149.16 93.5481 147.155 97.3225 150.052 99.8788C151.766 101.4 153.611 102.767 155.566 103.964C155.566 103.964 153.245 107.042 153.465 108.169C153.686 109.297 155.029 108.601 156.057 107.789C157.084 106.977 160.222 105.518 160.528 103.779C160.834 102.039 159.024 101.503 158.974 99.9189C158.924 98.335 161.756 97.5079 161.054 94.3751C160.352 91.2423 158.508 89.8639 158.508 89.8639L149.19 93.2122Z" fill="black"/>
<path d="M126.779 75.8539C127.586 73.3476 126.047 82.7861 128.784 89.1219C131.521 95.4577 134.699 97.5529 138.358 98.8612C142.017 100.169 161.119 97.0216 161.119 97.0216C161.119 97.0216 173.615 93.2071 173.836 90.4101C174.057 87.6132 173.049 83.7886 171.089 80.6007C169.129 77.4127 164.227 75.0068 157.781 75.5882C151.335 76.1696 147.606 76.8163 144.839 74.4103C142.072 72.0043 141.415 70.7963 141.415 70.7963L126.779 75.8539Z" fill="#7767DB"/>
<path opacity="0.3" d="M141.776 95.1521C136.027 94.701 136.448 91.2273 134.177 87.2925C131.907 83.3577 127.425 83.7637 127.425 83.7637V83.8539C127.655 85.6686 128.124 87.445 128.819 89.1371C131.571 95.4679 134.734 97.5681 138.393 98.8763C140.698 99.6984 149.145 98.751 155.074 97.939C155.34 96.2949 147.505 95.6082 141.776 95.1521Z" fill="white"/>
<path d="M167.741 77.904C168.889 75.5933 168.357 72.7562 167.901 70.1648C167.226 66.8025 166.969 63.3697 167.134 59.9443C167.38 56.5308 168.332 53.1223 170.252 50.4206C171.124 49.0926 172.364 48.0475 173.821 47.4131C174.537 47.1158 175.319 47.0107 176.088 47.1083C176.857 47.2059 177.588 47.5027 178.207 47.9695C179.851 49.2978 180.307 51.8893 179.776 54.0446C179.244 56.2 177.921 57.9945 176.553 59.6335C175.184 61.2726 173.706 62.8616 172.758 64.8315C171.825 66.9664 171.334 69.2684 171.315 71.5984C171.225 73.9392 171.38 76.28 171.34 78.6158C171.34 79.8288 171.194 81.1622 170.392 81.9842" fill="#7767DB"/>
<path d="M157.034 93.142C157.215 93.3626 163.686 100.786 168.904 100.851C174.122 100.916 175.61 99.543 175.61 99.543C175.61 99.543 178.653 105.478 179.119 105.558C179.585 105.638 181.174 105.753 180.914 103.718C180.653 101.683 179.801 96.2548 179.084 95.3676C178.367 94.4804 176.979 95.4277 176.077 94.3951C175.174 93.3626 174.142 87.5331 173.61 86.9566C173.079 86.3802 157.034 93.142 157.034 93.142Z" fill="#7767DB"/>
<path opacity="0.3" d="M136.724 98.0994C137.008 97.7331 137.199 97.303 137.281 96.8462C137.362 96.3895 137.331 95.9198 137.19 95.4779C136.779 93.7836 136.052 93.132 136.298 90.6158C136.543 88.0995 139.41 83.1873 139.41 83.1873C139.41 83.1873 139.881 96.8312 139.806 97.0067C139.731 97.1821 137.681 98.8262 137.681 98.8262L136.724 98.0994Z" fill="black"/>
<path d="M140.052 81.9041C139.861 82.1797 136.623 88.706 136.924 91.6433C137.225 94.5806 138.383 95.9089 137.681 97.5029C136.979 99.0969 132.453 104.4 133.295 107.428C134.137 110.455 135.801 108.22 135.801 108.22C135.801 108.22 138.558 102.656 141.044 101.433C143.531 100.21 144.368 99.0919 144.368 99.0919L147.876 90.1195L140.052 81.9041Z" fill="#7767DB"/>
<path opacity="0.3" d="M145.666 98.9816L147.701 90.6359L144.378 99.0919L145.666 98.9816Z" fill="black"/>
<path opacity="0.3" d="M161.139 97.0217L156.628 90.1295C156.628 90.1295 157.014 95.1721 161.139 97.0217Z" fill="black"/>
<path opacity="0.3" d="M167.901 77.5582C167.901 77.5582 170.337 79.1171 171.24 80.8214L171.275 79.7336L168.077 77.077L167.901 77.5582Z" fill="black"/>
<path opacity="0.3" d="M130.217 65.4431C130.217 65.4431 134.824 63.0822 138.944 66.3202C141.305 68.1749 144.994 70.8315 146.027 73.6485C146.794 75.7487 146.388 79.2023 145.576 80.2299C143.922 82.3151 141.917 85.7436 136.122 87.6484C130.328 89.5531 125.626 86.2449 123.531 84.1146C121.436 81.9843 122.318 80.3953 122.769 79.1372C123.22 77.879 121.862 70.8966 124.659 68.4155C126.231 66.9715 128.143 65.949 130.217 65.4431Z" fill="black"/>
<path d="M135.811 61.0872C135.811 61.0872 141.781 54.4807 143.3 54.9419C144.819 55.403 147.31 64.7263 144.503 69.1473L142.267 70.4355L137.014 65.1423L135.811 61.0872Z" fill="#7767DB"/>
<path d="M127.541 62.0396C127.425 61.8892 119.726 53.3028 117.596 56.5609C115.466 59.819 117.596 70.1849 119.15 72.5106C120.704 74.8364 127.541 62.0396 127.541 62.0396Z" fill="#7767DB"/>
<path d="M131.115 60.8517C131.115 60.8517 137.26 59.7639 140.914 64.4005C143.004 67.0571 146.358 70.9568 146.578 74.225C146.744 76.666 145.074 80.1698 143.791 81.0018C141.16 82.6961 137.661 85.6785 130.303 85.9442C122.944 86.2098 118.644 81.3176 116.949 78.4254C115.255 75.5332 116.829 74.1598 117.786 72.9718C118.744 71.7839 119.566 64.0446 123.661 62.2802C126.003 61.2394 128.553 60.7506 131.115 60.8517Z" fill="#7767DB"/>
<path d="M136.012 76.8816C141.33 76.0946 146.919 76.1347 152.117 77.6184C146.794 76.8164 141.385 76.7763 136.012 76.8816Z" fill="#263238"/>
<path d="M136.012 78.1447C140.699 78.5707 145.536 79.3928 149.731 81.6233C145.425 80.0745 140.468 79.2123 136.012 78.1447Z" fill="#263238"/>
<path d="M118.859 76.4555C115.814 76.3162 112.766 76.6752 109.837 77.5182C112.591 76.004 115.828 75.6228 118.859 76.4555Z" fill="#263238"/>
<path d="M118.879 77.9693C116.262 78.383 113.669 78.9437 111.115 79.6485C113.461 78.2832 116.179 77.6954 118.879 77.9693Z" fill="#263238"/>
<path d="M124.278 68.0546C124.233 68.0803 124.184 68.0963 124.133 68.1015C124.082 68.1067 124.03 68.101 123.982 68.0847C123.541 67.9163 123.065 67.8601 122.597 67.9214C122.129 67.9826 121.683 68.1593 121.3 68.4356C121.263 68.4651 121.221 68.4868 121.175 68.4995C121.13 68.5122 121.083 68.5157 121.036 68.5096C120.989 68.5035 120.944 68.488 120.903 68.4641C120.862 68.4402 120.827 68.4083 120.799 68.3704C120.739 68.2842 120.714 68.179 120.728 68.0752C120.742 67.9714 120.794 67.8765 120.874 67.809C121.351 67.4489 121.911 67.2142 122.502 67.1267C123.093 67.0391 123.697 67.1014 124.258 67.3078C124.351 67.3478 124.426 67.4218 124.467 67.5149C124.508 67.6079 124.512 67.7131 124.478 67.809C124.464 67.8617 124.438 67.9107 124.404 67.9531C124.369 67.9954 124.326 68.03 124.278 68.0546Z" fill="#263238"/>
<path d="M124.062 72.4205C124.037 73.7839 123.315 74.9268 122.443 74.9719C121.571 75.017 120.879 73.9694 120.904 72.5909C120.929 71.2125 121.651 70.0847 122.523 70.0396C123.395 69.9945 124.082 71.0621 124.062 72.4205Z" fill="#263238"/>
<path d="M122.383 71.5031C122.338 71.9642 122.157 72.3201 121.977 72.3051C121.796 72.2901 121.691 71.9041 121.736 71.4429C121.781 70.9818 121.957 70.6259 122.137 70.6459C122.318 70.666 122.423 71.047 122.383 71.5031Z" fill="white"/>
<path d="M134.729 68.4254C134.681 68.4409 134.63 68.4457 134.579 68.4397C134.529 68.4336 134.481 68.4168 134.438 68.3903C134.043 68.1312 133.589 67.9744 133.119 67.9341C132.648 67.8939 132.175 67.9714 131.741 68.1598C131.697 68.1841 131.649 68.1988 131.599 68.203C131.549 68.2072 131.499 68.2009 131.451 68.1843C131.404 68.1677 131.361 68.1414 131.324 68.1069C131.288 68.0724 131.259 68.0307 131.24 67.9843C131.201 67.8873 131.199 67.7792 131.235 67.6809C131.271 67.5827 131.343 67.5014 131.435 67.453C131.979 67.2054 132.576 67.0986 133.172 67.1424C133.767 67.1862 134.342 67.3792 134.844 67.7036C134.929 67.7617 134.988 67.8508 135.009 67.9519C135.03 68.053 135.01 68.1582 134.954 68.245C134.904 68.3308 134.823 68.395 134.729 68.4254Z" fill="#263238"/>
<path d="M134.588 72.4354C134.563 73.7988 133.841 74.9416 132.969 74.9868C132.097 75.0319 131.41 73.9843 131.43 72.6008C131.45 71.2174 132.177 70.0946 133.049 70.0495C133.922 70.0044 134.608 71.072 134.588 72.4354Z" fill="#263238"/>
<path d="M132.909 71.5183C132.864 71.9744 132.684 72.3353 132.503 72.3152C132.323 72.2952 132.217 71.9142 132.262 71.4531C132.308 70.9919 132.483 70.6411 132.664 70.6561C132.844 70.6711 132.954 71.0571 132.909 71.5183Z" fill="white"/>
<path d="M126.062 74.7413C126.285 74.6485 126.519 74.5862 126.759 74.5558C127.761 74.3703 129.2 74.4004 129.225 74.8515C129.046 75.2797 128.755 75.6519 128.383 75.9292C128.24 76.0337 128.078 76.1085 127.906 76.149C127.733 76.1894 127.555 76.1948 127.38 76.1648C127.13 76.126 126.893 76.028 126.689 75.8791C126.488 75.7287 126.383 75.5934 126.187 75.443C126.084 75.3689 125.993 75.2793 125.917 75.1773C125.886 75.0991 125.884 75.0127 125.911 74.9332C125.938 74.8536 125.991 74.7857 126.062 74.7413Z" fill="#263238"/>
<path opacity="0.3" d="M130.288 77.5983C130.288 77.5983 128.784 78.8414 128.232 78.2198L127.666 77.6033C127.666 77.6033 126.949 78.7311 126.032 78.3301C125.76 78.207 125.521 78.0232 125.331 77.7929C125.142 77.5627 125.008 77.292 124.939 77.0018C124.939 77.0018 125.651 78.0043 126.443 77.7186C127.235 77.4328 127.566 75.5181 127.566 75.5181C127.566 75.5181 127.892 77.4729 128.909 77.6684C129.927 77.8639 130.288 77.5983 130.288 77.5983Z" fill="black"/>
<path d="M130.709 76.7162C129.836 78.8715 127.952 78.2199 127.43 76.255H127.907C127.802 76.6509 127.644 77.0305 127.435 77.3828C126.934 78.1798 125.781 78.4405 125.225 77.5733C125.027 77.2414 124.804 76.9247 124.558 76.626C124.872 76.852 125.158 77.1145 125.41 77.4079C125.521 77.5304 125.66 77.6229 125.816 77.6766C125.972 77.7304 126.139 77.7436 126.302 77.715C126.464 77.6864 126.616 77.617 126.745 77.5133C126.873 77.4096 126.973 77.275 127.034 77.1222C127.298 76.5535 127.506 75.961 127.656 75.3528C127.819 75.9457 128.039 76.5215 128.313 77.0721C129.039 78.24 130.067 77.6335 130.709 76.7262V76.7162Z" fill="#263238"/>
<path opacity="0.3" d="M142.027 67.4229C142.027 67.4229 140.578 66.0545 140.523 65.1924C140.491 64.695 140.608 64.1994 140.859 63.7688L139.41 64.646L138.097 62.5558C138.097 62.5558 141.104 56.997 141.861 58.0797C142.618 59.1624 144.037 62.7714 143.51 65.2977C142.984 67.8239 142.027 67.4229 142.027 67.4229Z" fill="black"/>
<g opacity="0.3">
<path d="M123.982 61.6637C122.266 63.1455 120.816 64.9103 119.696 66.8817C118.846 64.4153 118.483 61.8072 118.629 59.2025C118.618 59.0317 118.641 58.8606 118.697 58.6988C118.753 58.5371 118.841 58.388 118.954 58.2602C119.137 58.1523 119.345 58.0933 119.558 58.0889C119.77 58.0845 119.98 58.1349 120.167 58.2351" fill="black"/>
</g>
<path d="M134.132 76.1749C134.303 76.6761 135.185 76.8115 136.097 76.4907C137.009 76.1699 137.601 75.5132 137.445 75.022C137.29 74.5308 136.393 74.3904 135.481 74.7062C134.568 75.022 133.962 75.6836 134.132 76.1749Z" fill="#E28888"/>
<path d="M119.761 76.4555C119.761 76.9567 120.518 77.4279 121.486 77.458C122.453 77.4881 123.255 77.0971 123.27 76.5758C123.285 76.0545 122.518 75.6034 121.551 75.5733C120.583 75.5432 119.781 75.9342 119.761 76.4555Z" fill="#E28888"/>
<g opacity="0.3">
<path d="M130.709 65.9293C130.612 65.8824 130.505 65.8601 130.398 65.8641C129.73 65.8257 129.061 65.8257 128.393 65.8641C128.107 65.8675 127.823 65.9148 127.551 66.0044C127.476 66.0295 127.395 66.0696 127.385 66.1448C127.375 66.22 127.661 66.5458 127.816 66.621L127.781 66.5909C127.985 66.7562 128.222 66.8761 128.477 66.9426C128.731 67.0092 128.996 67.0209 129.255 66.9769C129.775 66.8887 130.264 66.6715 130.679 66.3453C130.742 66.3066 130.791 66.2486 130.819 66.1799C130.828 66.1318 130.823 66.0821 130.803 66.0373C130.783 65.9926 130.75 65.9549 130.709 65.9293Z" fill="black"/>
</g>
<g opacity="0.3">
<path d="M132.032 62.3453C131.876 62.2699 131.704 62.2322 131.531 62.235C130.417 62.1723 129.301 62.1723 128.187 62.235C127.706 62.2464 127.229 62.324 126.769 62.4656C126.648 62.5107 126.518 62.5808 126.493 62.7062C126.453 62.9468 126.959 63.3828 127.225 63.5082L127.165 63.458C127.508 63.7352 127.906 63.9365 128.333 64.0488C128.76 64.1611 129.206 64.1819 129.641 64.1097C130.502 63.9594 131.313 63.5996 132.002 63.062C132.108 62.9982 132.191 62.9014 132.237 62.7864C132.256 62.7005 132.246 62.6108 132.209 62.5311C132.172 62.4514 132.11 62.3861 132.032 62.3453Z" fill="black"/>
</g>
<path d="M105.5 43.9952L107.887 38.9952L102.113 38.9952L104.5 43.9952L105.5 43.9952ZM104.5 105.995L102.113 110.995L107.887 110.995L105.5 105.995L104.5 105.995ZM104.5 43.4952L104.5 106.495L105.5 106.495L105.5 43.4952L104.5 43.4952Z" fill="#52525B"/>
<path d="M194.5 80.9952L196.887 75.9952L191.113 75.9952L193.5 80.9952L194.5 80.9952ZM193.5 105.995L191.113 110.995L196.887 110.995L194.5 105.995L193.5 105.995ZM193.5 80.4952L193.5 106.495L194.5 106.495L194.5 80.4952L193.5 80.4952Z" fill="#52525B"/>
</svg>
