<svg width="222" height="35" viewBox="0 0 222 35" fill="none" xmlns="http://www.w3.org/2000/svg">
<path d="M176.706 18.1049C176.706 16.7049 176.355 16.0049 175.654 16.0049C175.304 16.0049 174.977 16.18 174.673 16.53C174.393 16.8566 174.253 17.3116 174.253 17.895C174.253 18.455 174.358 18.9216 174.568 19.295C174.802 19.6683 175.21 20.0416 175.795 20.415C176.402 20.765 176.869 21.0566 177.196 21.29C177.547 21.5 177.956 21.8033 178.423 22.2C179.381 23.04 179.86 24.125 179.86 25.455C179.86 26.7616 179.358 27.8233 178.353 28.6399C177.372 29.4566 176.262 29.865 175.024 29.865C173.785 29.865 172.664 29.5383 171.659 28.885C170.678 28.2083 169.884 27.3683 169.276 26.365L171.169 24.23C172.103 25.84 173.084 26.645 174.112 26.645C174.463 26.645 174.767 26.5516 175.024 26.365C175.281 26.155 175.409 25.875 175.409 25.525C175.409 24.7783 174.872 24.09 173.797 23.46C172.652 22.83 171.753 22.13 171.098 21.36C170.444 20.59 170.117 19.505 170.117 18.1049C170.117 16.6816 170.701 15.41 171.869 14.29C173.038 13.1466 174.288 12.575 175.619 12.575C176.974 12.575 178.037 13.0416 178.808 13.975C179.603 14.885 180 16.1216 180 17.6849C180 18.3149 179.93 18.9916 179.79 19.715L176.601 19.435C176.671 18.8983 176.706 18.455 176.706 18.1049Z" fill="url(#paint0_linear_398_2504)"/>
<path d="M156.357 18.805C156.707 16.985 157.373 15.445 158.354 14.185C159.335 12.9017 160.62 12.26 162.209 12.26C163.798 12.26 164.966 12.925 165.714 14.255C166.485 15.5617 166.87 17.4283 166.87 19.855C166.87 22.2817 166.73 25.63 166.45 29.9L163.506 29.655L163.226 28.535C162.127 29.165 161.006 29.48 159.861 29.48C158.716 29.48 157.77 29.1067 157.022 28.36C156.275 27.59 155.901 26.4933 155.901 25.07C155.901 23.6467 156.602 22.4217 158.004 21.395C159.429 20.3683 161.064 19.8317 162.91 19.785V18.84C162.91 16.9967 162.466 16.075 161.578 16.075C161.134 16.075 160.726 16.39 160.352 17.02C160.001 17.6267 159.744 18.3267 159.581 19.12L156.357 18.805ZM159.476 25.28C159.476 26.0267 159.92 26.4 160.807 26.4C161.415 26.4 162.057 26.26 162.735 25.98L162.805 23.04C161.707 23.1333 160.877 23.4133 160.317 23.88C159.756 24.3233 159.476 24.79 159.476 25.28Z" fill="url(#paint1_linear_398_2504)"/>
<path d="M154.671 14.5001V17.8251C153.549 17.8251 152.685 17.8367 152.077 17.8601C152.007 20.1934 151.972 24.1134 151.972 29.6201L147.837 29.2351C147.837 25.1517 147.872 21.4534 147.942 18.1401C147.591 18.1401 146.926 18.1984 145.944 18.3151L145.419 15.4451C145.979 15.3284 146.856 15.1767 148.047 14.9901C148.094 13.2634 148.187 10.7434 148.327 7.43005L152.498 7.81505C152.358 10.1251 152.253 12.3651 152.182 14.5351C152.767 14.5117 153.596 14.5001 154.671 14.5001Z" fill="url(#paint2_linear_398_2504)"/>
<path d="M138.819 12.435L142.814 12.82V29.62L138.819 29.235V12.435ZM139.099 6.27502L143.024 6.73003L142.674 10.65L138.748 10.16L139.099 6.27502Z" fill="url(#paint3_linear_398_2504)"/>
<path d="M136.327 14.5001V17.8251C135.205 17.8251 134.341 17.8367 133.733 17.8601C133.663 20.1934 133.628 24.1134 133.628 29.6201L129.493 29.2351C129.493 25.1517 129.528 21.4534 129.598 18.1401C129.247 18.1401 128.581 18.1984 127.6 18.3151L127.075 15.4451C127.635 15.3284 128.511 15.1767 129.703 14.9901C129.75 13.2634 129.843 10.7434 129.983 7.43005L134.154 7.81505C134.014 10.1251 133.908 12.3651 133.838 14.5351C134.422 14.5117 135.252 14.5001 136.327 14.5001Z" fill="url(#paint4_linear_398_2504)"/>
<path d="M114.295 18.805C114.646 16.985 115.312 15.445 116.293 14.185C117.274 12.9017 118.559 12.26 120.148 12.26C121.737 12.26 122.905 12.925 123.652 14.255C124.423 15.5617 124.809 17.4283 124.809 19.855C124.809 22.2817 124.669 25.63 124.388 29.9L121.445 29.655L121.164 28.535C120.066 29.165 118.945 29.48 117.8 29.48C116.655 29.48 115.709 29.1067 114.961 28.36C114.213 27.59 113.84 26.4933 113.84 25.07C113.84 23.6467 114.541 22.4217 115.942 21.395C117.368 20.3683 119.003 19.8317 120.849 19.785V18.84C120.849 16.9967 120.405 16.075 119.517 16.075C119.073 16.075 118.664 16.39 118.29 17.02C117.94 17.6267 117.683 18.3267 117.519 19.12L114.295 18.805ZM117.414 25.28C117.414 26.0267 117.858 26.4 118.746 26.4C119.353 26.4 119.996 26.26 120.674 25.98L120.744 23.04C119.646 23.1333 118.816 23.4133 118.255 23.88C117.695 24.3233 117.414 24.79 117.414 25.28Z" fill="url(#paint5_linear_398_2504)"/>
<path d="M100.077 29.7249C99.9834 27.0883 99.9367 23.9266 99.9367 20.2399C99.9367 16.5299 100.054 11.5833 100.287 5.39994C102.25 4.67661 104.259 4.31494 106.315 4.31494C108.394 4.31494 110.24 5.08494 111.852 6.62494C113.488 8.14161 114.305 10.0666 114.305 12.3999C114.305 14.7099 113.418 16.7166 111.642 18.4199C109.89 20.0999 107.588 21.3366 104.738 22.1299C104.738 24.7433 104.773 27.4266 104.843 30.1799L100.077 29.7249ZM108.207 15.9349C109.072 14.9316 109.504 13.8116 109.504 12.5749C109.504 11.3383 109.177 10.3349 108.523 9.56494C107.892 8.79494 107.179 8.40994 106.385 8.40994C106.175 8.40994 105.696 8.46828 104.948 8.58494C104.831 11.8749 104.761 15.0599 104.738 18.1399C106.21 17.6733 107.366 16.9383 108.207 15.9349Z" fill="url(#paint6_linear_398_2504)"/>
<path d="M77.1279 18.805C77.4783 16.985 78.1442 15.445 79.1255 14.185C80.1068 12.9017 81.3918 12.26 82.9805 12.26C84.5692 12.26 85.7374 12.925 86.485 14.255C87.256 15.5617 87.6415 17.4283 87.6415 19.855C87.6415 22.2817 87.5013 25.63 87.221 29.9L84.2772 29.655L83.9968 28.535C82.8987 29.165 81.7773 29.48 80.6324 29.48C79.4876 29.48 78.5414 29.1067 77.7938 28.36C77.0461 27.59 76.6723 26.4933 76.6723 25.07C76.6723 23.6467 77.3732 22.4217 78.775 21.395C80.2002 20.3683 81.8357 19.8317 83.6814 19.785V18.84C83.6814 16.9967 83.2375 16.075 82.3497 16.075C81.9058 16.075 81.4969 16.39 81.1231 17.02C80.7726 17.6267 80.5156 18.3267 80.3521 19.12L77.1279 18.805ZM80.2469 25.28C80.2469 26.0267 80.6908 26.4 81.5787 26.4C82.1861 26.4 82.8286 26.26 83.5062 25.98L83.5763 23.04C82.4782 23.1333 81.6488 23.4133 81.088 23.88C80.5273 24.3233 80.2469 24.79 80.2469 25.28Z" fill="url(#paint7_linear_398_2504)"/>
<path d="M69.096 26.6101C69.9838 26.6101 70.93 25.7584 71.9347 24.0551L74.5981 25.6301C74.1542 26.4001 73.722 27.0534 73.3014 27.5901C72.9042 28.1267 72.2968 28.6401 71.4791 29.1301C70.6613 29.6201 69.7502 29.8651 68.7455 29.8651C67.2736 29.8651 66.0353 29.2467 65.0307 28.0101C64.0261 26.7501 63.5237 25.0584 63.5237 22.9351C63.5237 20.5084 63.956 18.2451 64.8204 16.1451C65.2877 15.0484 65.9536 14.1617 66.818 13.4851C67.7058 12.7851 68.6053 12.4351 69.5165 12.4351C70.4511 12.4351 71.1987 12.5867 71.7594 12.8901C72.3201 13.1701 72.7641 13.4967 73.0912 13.8701C73.4416 14.2201 73.7453 14.7451 74.0023 15.4451C74.2593 16.1451 74.4346 16.7167 74.528 17.1601C74.6448 17.6034 74.7383 18.2451 74.8084 19.0851C74.9018 20.2051 74.9486 21.2201 74.9486 22.1301C73.0795 22.6434 70.6613 23.1101 67.6942 23.5301C67.7642 24.4634 67.9278 25.2101 68.1848 25.7701C68.4418 26.3301 68.7455 26.6101 69.096 26.6101ZM69.867 15.8651C69.353 15.8651 68.8857 16.3784 68.4651 17.4051C68.068 18.4317 67.8343 19.6217 67.7642 20.9751C69.0025 20.7184 70.0772 20.4734 70.9884 20.2401C70.9884 17.3234 70.6146 15.8651 69.867 15.8651Z" fill="url(#paint8_linear_398_2504)"/>
<path d="M60.4824 16.495C59.5012 16.495 58.7652 17.7317 58.2746 20.205C58.3213 21.8384 58.3447 23.4017 58.3447 24.895C58.3447 26.3884 58.2979 28.0684 58.2045 29.935L54.1392 29.585C54.2093 26.155 54.2443 24.265 54.2443 23.915C54.2443 19.5984 54.0341 16.2967 53.6135 14.01L56.2419 14.29C56.4055 14.9667 56.5924 15.5617 56.8027 16.075C57.9475 13.625 59.104 12.4 60.2722 12.4C61.2301 12.4 62.0712 12.82 62.7954 13.66L61.8842 16.88C61.5104 16.6234 61.0432 16.495 60.4824 16.495Z" fill="url(#paint9_linear_398_2504)"/>
<path d="M52.0326 14.5001V17.8251C50.9112 17.8251 50.0467 17.8367 49.4393 17.8601C49.3692 20.1934 49.3341 24.1134 49.3341 29.6201L45.1988 29.2351C45.1988 25.1517 45.2338 21.4534 45.3039 18.1401C44.9535 18.1401 44.2876 18.1984 43.3063 18.3151L42.7806 15.4451C43.3414 15.3284 44.2175 15.1767 45.409 14.9901C45.4558 13.2634 45.5492 10.7434 45.6894 7.43005L49.8598 7.81505C49.7196 10.1251 49.6145 12.3651 49.5444 14.5351C50.1285 14.5117 50.9579 14.5001 52.0326 14.5001Z" fill="url(#paint10_linear_398_2504)"/>
<path d="M38.2009 18.1049C38.2009 16.7049 37.8505 16.0049 37.1496 16.0049C36.7991 16.0049 36.472 16.18 36.1683 16.53C35.8879 16.8566 35.7478 17.3116 35.7478 17.895C35.7478 18.455 35.8529 18.9216 36.0632 19.295C36.2968 19.6683 36.7057 20.0416 37.2898 20.415C37.8972 20.765 38.3645 21.0566 38.6916 21.29C39.042 21.5 39.4509 21.8033 39.9182 22.2C40.8761 23.04 41.355 24.125 41.355 25.455C41.355 26.7616 40.8527 27.8233 39.8481 28.6399C38.8668 29.4566 37.757 29.865 36.5188 29.865C35.2805 29.865 34.159 29.5383 33.1544 28.885C32.1731 28.2083 31.3788 27.3683 30.7713 26.365L32.6638 24.23C33.5983 25.84 34.5796 26.645 35.6076 26.645C35.958 26.645 36.2618 26.5516 36.5188 26.365C36.7758 26.155 36.9043 25.875 36.9043 25.525C36.9043 24.7783 36.3669 24.09 35.2922 23.46C34.1473 22.83 33.2478 22.13 32.5937 21.36C31.9395 20.59 31.6124 19.505 31.6124 18.1049C31.6124 16.6816 32.1965 15.41 33.3647 14.29C34.5328 13.1466 35.7828 12.575 37.1145 12.575C38.4696 12.575 39.5327 13.0416 40.3037 13.975C41.098 14.885 41.4952 16.1216 41.4952 17.6849C41.4952 18.3149 41.4251 18.9916 41.2849 19.715L38.0958 19.435C38.1659 18.8983 38.2009 18.455 38.2009 18.1049Z" fill="url(#paint11_linear_398_2504)"/>
<path d="M17.8518 18.805C18.2023 16.985 18.8681 15.445 19.8494 14.185C20.8307 12.9017 22.1157 12.26 23.7044 12.26C25.2931 12.26 26.4613 12.925 27.209 14.255C27.98 15.5617 28.3655 17.4283 28.3655 19.855C28.3655 22.2817 28.2253 25.63 27.9449 29.9L25.0011 29.655L24.7207 28.535C23.6226 29.165 22.5012 29.48 21.3564 29.48C20.2116 29.48 19.2653 29.1067 18.5177 28.36C17.7701 27.59 17.3962 26.4933 17.3962 25.07C17.3962 23.6467 18.0971 22.4217 19.499 21.395C20.9241 20.3683 22.5596 19.8317 24.4053 19.785V18.84C24.4053 16.9967 23.9614 16.075 23.0736 16.075C22.6297 16.075 22.2208 16.39 21.847 17.02C21.4966 17.6267 21.2396 18.3267 21.076 19.12L17.8518 18.805ZM20.9709 25.28C20.9709 26.0267 21.4148 26.4 22.3026 26.4C22.9101 26.4 23.5526 26.26 24.2301 25.98L24.3002 23.04C23.2021 23.1333 22.3727 23.4133 21.812 23.88C21.2512 24.3233 20.9709 24.79 20.9709 25.28Z" fill="url(#paint12_linear_398_2504)"/>
<path d="M0 29.445C0.303727 23.845 0.455591 18.8517 0.455591 14.465C0.455591 10.0783 0.443909 7.19667 0.420545 5.82C2.99055 4.60667 5.66568 4 8.44595 4C10.502 4 12.2192 4.65333 13.5976 5.96C14.9995 7.26667 15.7004 9.11 15.7004 11.49C15.7004 14.2433 13.7495 16.8917 9.84777 19.435C11.9739 22.095 14.1467 25.0233 16.3662 28.22L13.0019 30.705C11.53 28.4883 8.88986 24.8717 5.08159 19.855C5.0115 23.4483 4.90636 26.82 4.76618 29.97L0 29.445ZM5.18673 17.475C6.91564 16.6583 8.38754 15.655 9.60245 14.465C10.8174 13.2517 11.4248 12.155 11.4248 11.175C11.4248 10.195 11.1328 9.43667 10.5487 8.9C9.98795 8.36333 9.24032 8.095 8.30577 8.095C7.37123 8.095 6.34323 8.29333 5.22177 8.69C5.22177 12.6333 5.21009 15.5617 5.18673 17.475Z" fill="url(#paint13_linear_398_2504)"/>
<g clip-path="url(#clip0_398_2504)">
<path d="M197.507 0.102468C196.023 0.512624 194.889 1.80462 194.437 3.60247C194.232 4.42278 194.226 6.07708 194.431 7.04094C194.916 9.31731 196.42 11.1904 198.081 11.5868C200.262 12.0995 202.155 10.582 202.873 7.74505C203.01 7.22551 203.03 6.96575 203.023 5.84466C203.023 4.42962 202.969 4.07415 202.586 3.09661C202.326 2.41985 201.923 1.80462 201.335 1.18938C200.829 0.649343 200.214 0.280202 199.537 0.102468C199.052 -0.0205793 197.965 -0.0205793 197.507 0.102468Z" fill="#4BE6D0"/>
<path d="M209.442 0.102478C207.897 0.51947 206.53 2.1601 206.086 4.12885C206.011 4.47748 205.977 4.9765 205.977 5.87885C205.977 6.96576 205.997 7.23236 206.127 7.74506C206.633 9.77533 207.802 11.204 209.251 11.5869C210.468 11.9013 211.739 11.5185 212.703 10.5341C213.715 9.50873 214.364 8.24408 214.624 6.76752C214.768 5.93353 214.74 4.32025 214.562 3.60248C214.111 1.79779 212.97 0.498962 211.466 0.102478C211.001 -0.0274048 209.907 -0.0205688 209.442 0.102478Z" fill="#4BE6D0"/>
<path d="M189.837 8.87308C188.777 9.24222 187.936 10.1104 187.431 11.3614C186.87 12.7491 186.85 15.21 187.383 16.8096C187.738 17.8623 188.579 19.2022 189.208 19.7149C190.11 20.4463 191.3 20.6377 192.229 20.2002C192.742 19.961 193.562 19.1475 193.925 18.5254C194.273 17.9239 194.574 17.1172 194.745 16.3379C194.861 15.8184 194.889 15.4561 194.889 14.5264C194.889 13.8633 194.848 13.1866 194.8 12.9541C194.362 10.8418 193.139 9.22855 191.689 8.84574C191.197 8.71585 190.261 8.72952 189.837 8.87308Z" fill="#4BE6D0"/>
<path d="M216.928 8.9072C216.347 9.10545 215.807 9.48142 215.417 9.9326C214.439 11.0947 214.002 12.1953 213.858 13.8359C213.708 15.6201 213.975 17.2265 214.645 18.4912C214.945 19.0654 215.697 19.8379 216.196 20.0908C217.27 20.624 218.555 20.5283 219.546 19.8379C220.407 19.2363 221.412 17.6025 221.768 16.2353C222.007 15.3125 222.075 13.4804 221.904 12.5576C221.59 10.8828 220.735 9.65232 219.484 9.04392C218.985 8.79783 218.917 8.78416 218.172 8.76365C217.488 8.74998 217.324 8.77049 216.928 8.9072Z" fill="#4BE6D0"/>
<path d="M203.283 14.6562C199.353 15.4082 195.224 19.1953 193.597 23.5498C193.002 25.1357 192.77 26.5644 192.831 28.2461C192.879 29.6953 193.104 30.6592 193.638 31.7187C194.437 33.3183 195.805 34.4463 197.452 34.8701C198.177 35.0547 199.694 35.0547 200.439 34.8633C201.068 34.706 201.547 34.5215 202.189 34.2002C203.194 33.6943 204.131 33.5029 205.033 33.6328C205.71 33.7217 206.086 33.8447 206.927 34.248C208.109 34.8086 208.93 35 210.208 35C211.165 35 211.671 34.9248 212.293 34.6787C214.063 33.9746 215.342 32.3955 215.889 30.2353C216.538 27.6787 216.142 24.8213 214.781 22.1416C212.97 18.5801 209.565 15.6406 206.277 14.7861C205.464 14.5742 204.049 14.5127 203.283 14.6562Z" fill="#4FDBD1"/>
<path d="M198.25 23.7107C198.25 26.75 200.762 28.3697 202.601 29.8193C203.25 30.3309 203.875 30.8125 204.5 30.8125C205.125 30.8125 205.75 30.3309 206.399 29.8193C208.238 28.3697 210.75 26.75 210.75 23.7107C210.75 20.6714 207.312 18.5159 204.5 21.4379C201.688 18.5159 198.25 20.6714 198.25 23.7107Z" fill="#4D4295"/>
</g>
<defs>
<linearGradient id="paint0_linear_398_2504" x1="174.638" y1="12.575" x2="174.638" y2="29.865" gradientUnits="userSpaceOnUse">
<stop stop-color="#47EED0"/>
<stop offset="0.354167" stop-color="#58BFD1"/>
<stop offset="1" stop-color="#4A1D83"/>
</linearGradient>
<linearGradient id="paint1_linear_398_2504" x1="161.386" y1="12.26" x2="161.386" y2="29.9" gradientUnits="userSpaceOnUse">
<stop stop-color="#47EED0"/>
<stop offset="0.354167" stop-color="#58BFD1"/>
<stop offset="1" stop-color="#4A1D83"/>
</linearGradient>
<linearGradient id="paint2_linear_398_2504" x1="150.045" y1="7.43005" x2="150.045" y2="29.6201" gradientUnits="userSpaceOnUse">
<stop stop-color="#47EED0"/>
<stop offset="0.354167" stop-color="#58BFD1"/>
<stop offset="1" stop-color="#4A1D83"/>
</linearGradient>
<linearGradient id="paint3_linear_398_2504" x1="140.886" y1="6.27502" x2="140.886" y2="29.62" gradientUnits="userSpaceOnUse">
<stop stop-color="#47EED0"/>
<stop offset="0.354167" stop-color="#58BFD1"/>
<stop offset="1" stop-color="#4A1D83"/>
</linearGradient>
<linearGradient id="paint4_linear_398_2504" x1="131.701" y1="7.43005" x2="131.701" y2="29.6201" gradientUnits="userSpaceOnUse">
<stop stop-color="#47EED0"/>
<stop offset="0.354167" stop-color="#58BFD1"/>
<stop offset="1" stop-color="#4A1D83"/>
</linearGradient>
<linearGradient id="paint5_linear_398_2504" x1="119.324" y1="12.26" x2="119.324" y2="29.9" gradientUnits="userSpaceOnUse">
<stop stop-color="#47EED0"/>
<stop offset="0.354167" stop-color="#58BFD1"/>
<stop offset="1" stop-color="#4A1D83"/>
</linearGradient>
<linearGradient id="paint6_linear_398_2504" x1="107.121" y1="4.31494" x2="107.121" y2="30.1799" gradientUnits="userSpaceOnUse">
<stop stop-color="#47EED0"/>
<stop offset="0.354167" stop-color="#58BFD1"/>
<stop offset="1" stop-color="#4A1D83"/>
</linearGradient>
<linearGradient id="paint7_linear_398_2504" x1="82.1569" y1="12.26" x2="82.1569" y2="29.9" gradientUnits="userSpaceOnUse">
<stop stop-color="#47EED0"/>
<stop offset="0.354167" stop-color="#58BFD1"/>
<stop offset="1" stop-color="#4A1D83"/>
</linearGradient>
<linearGradient id="paint8_linear_398_2504" x1="69.2362" y1="12.4351" x2="69.2362" y2="29.8651" gradientUnits="userSpaceOnUse">
<stop stop-color="#47EED0"/>
<stop offset="0.354167" stop-color="#58BFD1"/>
<stop offset="1" stop-color="#4A1D83"/>
</linearGradient>
<linearGradient id="paint9_linear_398_2504" x1="58.2045" y1="12.4" x2="58.2045" y2="29.935" gradientUnits="userSpaceOnUse">
<stop stop-color="#47EED0"/>
<stop offset="0.354167" stop-color="#58BFD1"/>
<stop offset="1" stop-color="#4A1D83"/>
</linearGradient>
<linearGradient id="paint10_linear_398_2504" x1="47.4066" y1="7.43005" x2="47.4066" y2="29.6201" gradientUnits="userSpaceOnUse">
<stop stop-color="#47EED0"/>
<stop offset="0.354167" stop-color="#58BFD1"/>
<stop offset="1" stop-color="#4A1D83"/>
</linearGradient>
<linearGradient id="paint11_linear_398_2504" x1="36.1333" y1="12.575" x2="36.1333" y2="29.865" gradientUnits="userSpaceOnUse">
<stop stop-color="#47EED0"/>
<stop offset="0.354167" stop-color="#58BFD1"/>
<stop offset="1" stop-color="#4A1D83"/>
</linearGradient>
<linearGradient id="paint12_linear_398_2504" x1="22.8809" y1="12.26" x2="22.8809" y2="29.9" gradientUnits="userSpaceOnUse">
<stop stop-color="#47EED0"/>
<stop offset="0.354167" stop-color="#58BFD1"/>
<stop offset="1" stop-color="#4A1D83"/>
</linearGradient>
<linearGradient id="paint13_linear_398_2504" x1="8.18311" y1="4" x2="8.18311" y2="30.705" gradientUnits="userSpaceOnUse">
<stop stop-color="#47EED0"/>
<stop offset="0.354167" stop-color="#58BFD1"/>
<stop offset="1" stop-color="#4A1D83"/>
</linearGradient>
<clipPath id="clip0_398_2504">
<rect width="35" height="35" fill="white" transform="translate(187)"/>
</clipPath>
</defs>
</svg>
