<svg width="135" height="40" viewBox="0 0 135 40" fill="none" xmlns="http://www.w3.org/2000/svg">
<g clip-path="url(#clip0_398_2533)">
<path d="M130 0H4.99988C2.23845 0 -0.00012207 2.23858 -0.00012207 5V35C-0.00012207 37.7614 2.23845 40 4.99988 40H130C132.761 40 135 37.7614 135 35V5C135 2.23858 132.761 0 130 0Z" fill="black"/>
<path d="M130 0.800044C131.113 0.801331 132.181 1.24427 132.968 2.03169C133.756 2.81911 134.199 3.8867 134.2 5.00024V35.0002C134.199 36.1138 133.756 37.1814 132.968 37.9688C132.181 38.7562 131.113 39.1991 130 39.2004H4.99988C3.88633 39.1992 2.81876 38.7562 2.03138 37.9688C1.244 37.1814 0.801109 36.1138 0.799878 35.0002V5.00024C0.80109 3.88669 1.24397 2.81909 2.03136 2.03166C2.81874 1.24424 3.88632 0.801309 4.99988 0.800044H130ZM130 0.000244141H4.99988C3.67499 0.00412224 2.40547 0.532152 1.46863 1.46899C0.531785 2.40584 0.00375603 3.67535 -0.00012207 5.00024L-0.00012207 35.0002C0.00375603 36.3251 0.531785 37.5947 1.46863 38.5315C2.40547 39.4683 3.67499 39.9964 4.99988 40.0002H130C131.325 39.9964 132.594 39.4683 133.531 38.5315C134.468 37.5947 134.996 36.3251 135 35.0002V5.00024C134.996 3.67535 134.468 2.40584 133.531 1.46899C132.594 0.532152 131.325 0.00412224 130 0.000244141Z" fill="#A6A6A6"/>
<path d="M47.4183 10.2433C47.4365 10.6103 47.3798 10.9771 47.2516 11.3214C47.1235 11.6658 46.9267 11.9804 46.6731 12.2462C46.3889 12.541 46.0456 12.7724 45.6658 12.9254C45.286 13.0784 44.8782 13.1494 44.469 13.1339C44.0572 13.1376 43.6488 13.059 43.2679 12.9026C42.8869 12.7462 42.5411 12.5152 42.2507 12.2233C41.9603 11.9313 41.7312 11.5842 41.5768 11.2024C41.4225 10.8207 41.346 10.4119 41.3519 10.0001C41.346 9.58837 41.4225 9.17959 41.5769 8.79781C41.7313 8.41603 41.9604 8.06895 42.2508 7.77695C42.5412 7.48496 42.887 7.25395 43.2679 7.09748C43.6488 6.94102 44.0572 6.86226 44.469 6.86584C44.8924 6.86456 45.3115 6.95016 45.7005 7.11734C46.0617 7.26378 46.3833 7.49348 46.639 7.78774L46.1116 8.31554C45.9106 8.07899 45.658 7.89178 45.3732 7.76834C45.0884 7.64491 44.779 7.58856 44.469 7.60364C44.1569 7.60202 43.8477 7.66341 43.5599 7.78412C43.2721 7.90483 43.0116 8.08239 42.7941 8.30615C42.5765 8.52991 42.4064 8.79527 42.2938 9.08635C42.1812 9.37743 42.1286 9.68823 42.139 10.0001C42.1315 10.4673 42.263 10.9262 42.5167 11.3186C42.7704 11.711 43.1349 12.0192 43.564 12.2041C43.9931 12.3891 44.4674 12.4425 44.9269 12.3575C45.3864 12.2725 45.8102 12.0529 46.1448 11.7267C46.4527 11.395 46.6311 10.9637 46.6477 10.5113H44.469V9.79064H47.3763C47.4038 9.93998 47.4178 10.0915 47.4183 10.2433Z" fill="white"/>
<path d="M52.0276 7.73744H49.2952V9.63974H51.7591V10.3605H49.2952V12.2628H52.0276V13.0001H48.5247V7.00014H52.0276V7.73744Z" fill="white"/>
<path d="M55.2786 13.0001H54.5071V7.73744H52.8313V7.00014H56.9544V7.73744H55.2786V13.0001Z" fill="white"/>
<path d="M59.9378 13.0001V7.00014H60.7083V13.0001H59.9378Z" fill="white"/>
<path d="M64.1282 13.0001H63.3567V7.73744H61.681V7.00014H65.804V7.73744H64.1282V13.0001Z" fill="white"/>
<path d="M73.6092 12.2247C73.0252 12.807 72.2341 13.1339 71.4095 13.1339C70.5848 13.1339 69.7938 12.807 69.2098 12.2247C68.9209 11.9321 68.6937 11.5844 68.5419 11.2022C68.3901 10.82 68.3167 10.4113 68.326 10.0001C68.3167 9.58902 68.3901 9.18023 68.5419 8.79807C68.6937 8.4159 68.9209 8.06817 69.2098 7.77554C69.4984 7.48681 69.8412 7.25784 70.2185 7.10174C70.5957 6.94564 71.0001 6.86548 71.4083 6.86584C71.8166 6.8662 72.2208 6.94708 72.5978 7.10385C72.9748 7.26062 73.3171 7.49019 73.6053 7.77944C73.8944 8.0713 74.122 8.41825 74.2744 8.79972C74.4269 9.18119 74.5013 9.5894 74.493 10.0001C74.5021 10.4112 74.4285 10.8199 74.2767 11.2021C74.1249 11.5842 73.8979 11.932 73.6092 12.2247ZM69.7791 11.7223C70.2116 12.1541 70.7978 12.3966 71.409 12.3966C72.0202 12.3966 72.6063 12.1541 73.0389 11.7223C73.2607 11.4953 73.4341 11.2256 73.5488 10.9296C73.6634 10.6336 73.7169 10.3174 73.7059 10.0001C73.7169 9.6829 73.6634 9.36672 73.5488 9.07072C73.4341 8.77471 73.2607 8.50502 73.0389 8.27794C72.6063 7.84615 72.0202 7.60363 71.409 7.60363C70.7978 7.60363 70.2116 7.84615 69.7791 8.27794C69.5576 8.5052 69.3844 8.77495 69.2699 9.07092C69.1555 9.3669 69.1021 9.68299 69.1131 10.0001C69.1021 10.3173 69.1555 10.6334 69.2699 10.9294C69.3844 11.2253 69.5576 11.4951 69.7791 11.7223Z" fill="white"/>
<path d="M75.575 13.0001V7.00014H76.5135L79.4295 11.6676H79.4627L79.4295 10.5113V7.00014H80.201V13.0001H79.3963L76.3455 8.10654H76.3123L76.3455 9.26284V13.0001H75.575Z" fill="white"/>
<path d="M47.4183 10.2433C47.4365 10.6103 47.3798 10.9771 47.2516 11.3214C47.1235 11.6658 46.9267 11.9804 46.6731 12.2462C46.3889 12.541 46.0456 12.7724 45.6658 12.9254C45.286 13.0784 44.8782 13.1494 44.469 13.1339C44.0572 13.1376 43.6488 13.059 43.2679 12.9026C42.8869 12.7462 42.5411 12.5152 42.2507 12.2233C41.9603 11.9313 41.7312 11.5842 41.5768 11.2024C41.4225 10.8207 41.346 10.4119 41.3519 10.0001C41.346 9.58837 41.4225 9.17959 41.5769 8.79781C41.7313 8.41603 41.9604 8.06895 42.2508 7.77695C42.5412 7.48496 42.887 7.25395 43.2679 7.09748C43.6488 6.94102 44.0572 6.86226 44.469 6.86584C44.8924 6.86456 45.3115 6.95016 45.7005 7.11734C46.0617 7.26378 46.3833 7.49348 46.639 7.78774L46.1116 8.31554C45.9106 8.07899 45.658 7.89178 45.3732 7.76834C45.0884 7.64491 44.779 7.58856 44.469 7.60364C44.1569 7.60202 43.8477 7.66341 43.5599 7.78412C43.2721 7.90483 43.0116 8.08239 42.7941 8.30615C42.5765 8.52991 42.4064 8.79527 42.2938 9.08635C42.1812 9.37743 42.1286 9.68823 42.139 10.0001C42.1315 10.4673 42.263 10.9262 42.5167 11.3186C42.7704 11.711 43.1349 12.0192 43.564 12.2041C43.9931 12.3891 44.4674 12.4425 44.9269 12.3575C45.3864 12.2725 45.8102 12.0529 46.1448 11.7267C46.4527 11.395 46.6311 10.9637 46.6477 10.5113H44.469V9.79064H47.3763C47.4038 9.93998 47.4178 10.0915 47.4183 10.2433Z" stroke="white" stroke-width="0.2" stroke-miterlimit="10"/>
<path d="M52.0276 7.73744H49.2952V9.63974H51.7591V10.3605H49.2952V12.2628H52.0276V13.0001H48.5247V7.00014H52.0276V7.73744Z" stroke="white" stroke-width="0.2" stroke-miterlimit="10"/>
<path d="M55.2786 13.0001H54.5071V7.73744H52.8313V7.00014H56.9544V7.73744H55.2786V13.0001Z" stroke="white" stroke-width="0.2" stroke-miterlimit="10"/>
<path d="M59.9378 13.0001V7.00014H60.7083V13.0001H59.9378Z" stroke="white" stroke-width="0.2" stroke-miterlimit="10"/>
<path d="M64.1282 13.0001H63.3567V7.73744H61.681V7.00014H65.804V7.73744H64.1282V13.0001Z" stroke="white" stroke-width="0.2" stroke-miterlimit="10"/>
<path d="M73.6092 12.2247C73.0252 12.807 72.2341 13.1339 71.4095 13.1339C70.5848 13.1339 69.7938 12.807 69.2098 12.2247C68.9209 11.9321 68.6937 11.5844 68.5419 11.2022C68.3901 10.82 68.3167 10.4113 68.326 10.0001C68.3167 9.58902 68.3901 9.18023 68.5419 8.79807C68.6937 8.4159 68.9209 8.06817 69.2098 7.77554C69.4984 7.48681 69.8412 7.25784 70.2185 7.10174C70.5957 6.94564 71.0001 6.86548 71.4083 6.86584C71.8166 6.8662 72.2208 6.94708 72.5978 7.10385C72.9748 7.26062 73.3171 7.49019 73.6053 7.77944C73.8944 8.0713 74.122 8.41825 74.2744 8.79972C74.4269 9.18119 74.5013 9.5894 74.493 10.0001C74.5021 10.4112 74.4285 10.8199 74.2767 11.2021C74.1249 11.5842 73.8979 11.932 73.6092 12.2247ZM69.7791 11.7223C70.2116 12.1541 70.7978 12.3966 71.409 12.3966C72.0202 12.3966 72.6063 12.1541 73.0389 11.7223C73.2607 11.4953 73.4341 11.2256 73.5488 10.9296C73.6634 10.6336 73.7169 10.3174 73.7059 10.0001C73.7169 9.6829 73.6634 9.36672 73.5488 9.07072C73.4341 8.77471 73.2607 8.50502 73.0389 8.27794C72.6063 7.84615 72.0202 7.60363 71.409 7.60363C70.7978 7.60363 70.2116 7.84615 69.7791 8.27794C69.5576 8.5052 69.3844 8.77495 69.2699 9.07092C69.1555 9.3669 69.1021 9.68299 69.1131 10.0001C69.1021 10.3173 69.1555 10.6334 69.2699 10.9294C69.3844 11.2253 69.5576 11.4951 69.7791 11.7223Z" stroke="white" stroke-width="0.2" stroke-miterlimit="10"/>
<path d="M75.575 13.0001V7.00014H76.5135L79.4295 11.6676H79.4627L79.4295 10.5113V7.00014H80.201V13.0001H79.3963L76.3455 8.10654H76.3123L76.3455 9.26284V13.0001H75.575Z" stroke="white" stroke-width="0.2" stroke-miterlimit="10"/>
<path d="M68.1357 21.7517C67.2952 21.7549 66.4745 22.007 65.7771 22.4763C65.0798 22.9456 64.5372 23.611 64.2178 24.3884C63.8983 25.1659 63.8164 26.0205 63.9823 26.8445C64.1483 27.6685 64.5546 28.4248 65.1501 29.018C65.7455 29.6112 66.5034 30.0147 67.328 30.1775C68.1526 30.3403 69.007 30.2551 69.7832 29.9327C70.5594 29.6103 71.2227 29.0652 71.6893 28.3661C72.156 27.667 72.405 26.8453 72.405 26.0048C72.4132 25.4426 72.3083 24.8845 72.0965 24.3637C71.8847 23.8429 71.5702 23.37 71.1719 22.9732C70.7736 22.5764 70.2995 22.2638 69.7779 22.0539C69.2563 21.8441 68.6978 21.7413 68.1357 21.7517ZM68.1357 28.5825C67.6181 28.6194 67.1013 28.4996 66.6527 28.2387C66.2041 27.9778 65.8445 27.5879 65.6206 27.1198C65.3967 26.6516 65.3189 26.1269 65.3974 25.6139C65.4759 25.101 65.7071 24.6235 66.0607 24.2438C66.4144 23.864 66.8742 23.5995 67.3802 23.4847C67.8863 23.3699 68.4153 23.4101 68.8981 23.6001C69.381 23.7902 69.7955 24.1212 70.0877 24.5501C70.3798 24.979 70.5361 25.4859 70.5361 26.0048C70.5518 26.3326 70.5018 26.6603 70.3889 26.9685C70.2761 27.2767 70.1027 27.5593 69.879 27.7994C69.6554 28.0396 69.3859 28.2327 69.0865 28.3671C68.7871 28.5016 68.4638 28.5749 68.1357 28.5825ZM58.8223 21.7517C57.9818 21.7549 57.161 22.007 56.4637 22.4763C55.7664 22.9455 55.2237 23.6109 54.9043 24.3884C54.5848 25.1658 54.5029 26.0205 54.6688 26.8444C54.8347 27.6684 55.2411 28.4248 55.8365 29.018C56.432 29.6112 57.1899 30.0147 58.0145 30.1775C58.8391 30.3403 59.6934 30.2551 60.4697 29.9327C61.2459 29.6103 61.9092 29.0652 62.3758 28.3661C62.8425 27.667 63.0915 26.8453 63.0915 26.0048C63.0997 25.4426 62.9948 24.8845 62.783 24.3637C62.5712 23.8429 62.2568 23.3701 61.8585 22.9733C61.4602 22.5765 60.9861 22.2638 60.4645 22.054C59.9429 21.8441 59.3844 21.7413 58.8223 21.7517ZM58.8223 28.5825C58.3047 28.6194 57.7879 28.4996 57.3393 28.2387C56.8907 27.9778 56.5311 27.5879 56.3072 27.1198C56.0833 26.6516 56.0055 26.1269 56.084 25.6139C56.1625 25.101 56.3937 24.6235 56.7473 24.2438C57.101 23.864 57.5608 23.5995 58.0668 23.4847C58.5729 23.3699 59.1018 23.4101 59.5847 23.6001C60.0676 23.7902 60.4821 24.1212 60.7743 24.5501C61.0664 24.979 61.2227 25.4859 61.2227 26.0048C61.2384 26.3326 61.1884 26.6603 61.0755 26.9685C60.9627 27.2767 60.7893 27.5593 60.5657 27.7995C60.342 28.0397 60.0725 28.2327 59.7731 28.3672C59.4737 28.5016 59.1504 28.5749 58.8223 28.5825ZM47.7435 23.0567V24.861H52.0612C51.9989 25.7073 51.6526 26.5078 51.0784 27.1326C50.6457 27.5736 50.1254 27.9191 49.551 28.1466C48.9765 28.3741 48.3608 28.4787 47.7435 28.4536C46.4815 28.4365 45.2769 27.9232 44.3905 27.0247C43.5041 26.1262 43.0071 24.9148 43.0071 23.6527C43.0071 22.3906 43.5041 21.1792 44.3905 20.2807C45.2769 19.3822 46.4815 18.8689 47.7435 18.8518C48.9557 18.836 50.1252 19.2991 50.9979 20.1406L52.2706 18.8679C51.6751 18.2784 50.968 17.8137 50.1906 17.5011C49.4132 17.1885 48.5813 17.0343 47.7435 17.0474C46.868 17.0347 45.9987 17.1961 45.1861 17.5223C44.3735 17.8485 43.6339 18.3331 43.0103 18.9477C42.3867 19.5623 41.8914 20.2948 41.5534 21.1025C41.2154 21.9102 41.0413 22.7771 41.0413 23.6527C41.0413 24.5283 41.2154 25.3952 41.5534 26.2029C41.8914 27.0106 42.3867 27.7431 43.0103 28.3577C43.6339 28.9724 44.3735 29.4569 45.1861 29.7831C45.9987 30.1093 46.868 30.2708 47.7435 30.258C48.5989 30.2935 49.4522 30.1466 50.2466 29.8272C51.0409 29.5078 51.7583 29.0231 52.3511 28.4053C53.4035 27.2566 53.9644 25.7415 53.9139 24.1844C53.918 23.8063 53.8856 23.4286 53.8171 23.0567H47.7435ZM93.0518 24.4582C92.7962 23.6878 92.3096 23.0148 91.6582 22.5306C91.0068 22.0464 90.2221 21.7744 89.4108 21.7517C88.8643 21.7551 88.3242 21.8693 87.8231 22.0873C87.322 22.3053 86.8704 22.6227 86.4954 23.0203C86.1205 23.4178 85.83 23.8873 85.6416 24.4002C85.4532 24.9132 85.3708 25.4591 85.3994 26.0048C85.3871 26.564 85.4876 27.1199 85.6949 27.6394C85.9023 28.1588 86.2122 28.6312 86.6062 29.0282C87.0002 29.4252 87.4701 29.7387 87.988 29.95C88.5059 30.1613 89.061 30.2661 89.6203 30.258C90.3209 30.2619 91.0116 30.0917 91.6302 29.7627C92.2488 29.4337 92.776 28.9562 93.1645 28.3731L91.7146 27.4065C91.4974 27.7672 91.1901 28.0653 90.823 28.2715C90.4558 28.4776 90.0414 28.5848 89.6203 28.5825C89.187 28.5991 88.7587 28.4851 88.391 28.2553C88.0233 28.0254 87.7331 27.6904 87.5581 27.2937L93.2452 24.9416L93.0518 24.4582ZM87.2521 25.876C87.2321 25.5664 87.274 25.256 87.3754 24.9628C87.4768 24.6697 87.6356 24.3997 87.8426 24.1687C88.0496 23.9376 88.3006 23.7502 88.581 23.6174C88.8613 23.4845 89.1653 23.4089 89.4752 23.395C89.7979 23.3738 90.1197 23.448 90.4004 23.6084C90.6812 23.7689 90.9085 24.0084 91.0541 24.2972L87.2521 25.876ZM82.6283 30.0002H84.4971V17.4986H82.6283V30.0002ZM79.5673 22.7022H79.5029C79.2188 22.3935 78.872 22.149 78.4858 21.9851C78.0996 21.8212 77.6829 21.7416 77.2635 21.7517C76.1668 21.7984 75.1305 22.2669 74.371 23.0594C73.6115 23.8519 73.1875 24.9072 73.1875 26.0049C73.1875 27.1025 73.6115 28.1578 74.371 28.9503C75.1305 29.7428 76.1668 30.2113 77.2635 30.258C77.6846 30.2692 78.103 30.1885 78.4898 30.0216C78.8765 29.8547 79.2222 29.6055 79.5029 29.2914H79.5673V29.9036C79.5673 31.5308 78.6974 32.4007 77.2957 32.4007C76.8285 32.3895 76.3753 32.2395 75.9937 31.9698C75.6122 31.7001 75.3195 31.3229 75.1531 30.8863L73.5259 31.563C73.8326 32.3097 74.3552 32.9478 75.0268 33.3955C75.6985 33.8433 76.4885 34.0803 77.2957 34.0762C79.4868 34.0762 81.3395 32.7874 81.3395 29.6458V22.0094H79.5673V22.7022ZM77.4247 28.5825C76.7787 28.5277 76.1769 28.2324 75.7383 27.7551C75.2997 27.2777 75.0564 26.6531 75.0564 26.0049C75.0564 25.3566 75.2997 24.732 75.7383 24.2546C76.1769 23.7773 76.7787 23.482 77.4247 23.4272C77.746 23.4429 78.061 23.5231 78.3506 23.6631C78.6403 23.8031 78.8989 24 79.1108 24.242C79.3228 24.4841 79.4839 24.7663 79.5844 25.0719C79.685 25.3776 79.723 25.7003 79.6962 26.0209C79.7213 26.3395 79.6819 26.66 79.5804 26.963C79.4788 27.2661 79.3171 27.5455 79.1051 27.7847C78.893 28.0238 78.6349 28.2177 78.3462 28.3548C78.0574 28.4919 77.744 28.5693 77.4247 28.5825ZM101.806 17.4988H97.3345V30.0002H99.2002V25.2638H101.806C102.333 25.2927 102.862 25.2138 103.358 25.0317C103.854 24.8497 104.308 24.5684 104.692 24.205C105.076 23.8417 105.381 23.4038 105.59 22.9184C105.799 22.4329 105.907 21.9099 105.907 21.3813C105.907 20.8528 105.799 20.3298 105.59 19.8443C105.381 19.3588 105.076 18.921 104.692 18.5576C104.308 18.1942 103.854 17.9129 103.358 17.7309C102.862 17.5488 102.333 17.4699 101.806 17.4988ZM101.854 23.524H99.2002V19.2387H101.854C102.139 19.2328 102.422 19.2839 102.688 19.3889C102.953 19.4939 103.194 19.6508 103.398 19.8503C103.602 20.0499 103.763 20.2881 103.874 20.551C103.984 20.8139 104.041 21.0962 104.041 21.3814C104.041 21.6665 103.984 21.9488 103.874 22.2117C103.763 22.4746 103.602 22.7128 103.398 22.9124C103.194 23.1119 102.953 23.2688 102.688 23.3738C102.422 23.4789 102.139 23.5299 101.854 23.524ZM113.386 21.7287C112.705 21.6889 112.027 21.8489 111.435 22.1889C110.844 22.5288 110.365 23.0341 110.056 23.6426L111.713 24.3342C111.877 24.0322 112.126 23.7846 112.429 23.6218C112.731 23.4589 113.075 23.3879 113.418 23.4174C113.891 23.3712 114.363 23.5145 114.731 23.816C115.099 24.1175 115.332 24.5525 115.38 25.0257V25.1544C114.781 24.8361 114.112 24.6704 113.434 24.6719C111.649 24.6719 109.831 25.653 109.831 27.4865C109.849 27.8729 109.943 28.2519 110.11 28.601C110.277 28.9501 110.512 29.2621 110.801 29.5186C111.091 29.7751 111.429 29.9709 111.795 30.0942C112.162 30.2176 112.55 30.266 112.935 30.2367C113.405 30.2644 113.874 30.1656 114.292 29.9506C114.711 29.7356 115.064 29.4123 115.316 29.0144H115.38V29.9794H117.181V25.1866C117.181 22.9671 115.525 21.7287 113.386 21.7287ZM113.16 28.5801C112.549 28.5801 111.697 28.2746 111.697 27.5186C111.697 26.5537 112.758 26.1837 113.675 26.1837C114.271 26.1678 114.859 26.3123 115.38 26.6019C115.311 27.1441 115.049 27.6432 114.641 28.0069C114.233 28.3705 113.707 28.5742 113.16 28.5801ZM123.743 22.0021L121.604 27.4221H121.54L119.32 22.0021H117.31L120.639 29.5773L118.741 33.7911H120.687L125.818 22.0021H123.743ZM106.936 30.0002H108.802V17.4988H106.936V30.0002Z" fill="white"/>
<path d="M10.4352 7.53805C10.1073 7.93013 9.9417 8.43275 9.97238 8.94295V31.0591C9.94161 31.5693 10.1072 32.0719 10.4352 32.464L10.5092 32.5361L22.8982 20.1472V19.8549L10.5092 7.46545L10.4352 7.53805Z" fill="url(#paint0_linear_398_2533)"/>
<path d="M27.0276 24.2786L22.8982 20.1472V19.8549L27.0286 15.7245L27.1217 15.7776L32.0145 18.5577C33.4121 19.3517 33.4121 20.6509 32.0145 21.4454L27.1217 24.2255L27.0276 24.2786Z" fill="url(#paint1_linear_398_2533)"/>
<path d="M27.1217 24.225L22.8982 20.0011L10.4352 32.464C10.7199 32.7152 11.0836 32.8588 11.4631 32.87C11.8427 32.8812 12.2142 32.7593 12.5133 32.5254L27.1217 24.225Z" fill="url(#paint2_linear_398_2533)"/>
<path d="M27.1217 15.7771L12.5133 7.47666C12.2142 7.24275 11.8427 7.12084 11.4631 7.13206C11.0836 7.14327 10.7199 7.2869 10.4352 7.53806L22.8982 20.0011L27.1217 15.7771Z" fill="url(#paint3_linear_398_2533)"/>
<path opacity="0.2" d="M27.0286 24.132L12.5133 32.3793C12.2257 32.5982 11.8747 32.7176 11.5133 32.7196C11.1518 32.7215 10.7996 32.6058 10.5097 32.39L10.4352 32.4645L10.5092 32.5366L10.5097 32.5361C10.7995 32.752 11.1518 32.8678 11.5133 32.8659C11.8747 32.8639 12.2257 32.7444 12.5133 32.5254L27.1217 24.225L27.0286 24.132Z" fill="black"/>
<path opacity="0.12" d="M10.4352 32.3184C10.1073 31.9263 9.94171 31.4237 9.97236 30.9135V31.0596C9.94169 31.5698 10.1073 32.0724 10.4352 32.4645L10.5097 32.39L10.4352 32.3184Z" fill="black"/>
<path opacity="0.12" d="M32.0145 21.2988L27.0286 24.132L27.1217 24.225L32.0145 21.4449C32.3023 21.32 32.5513 21.1202 32.7357 20.8663C32.9201 20.6125 33.033 20.3138 33.0628 20.0015C33.0009 20.2843 32.8739 20.5488 32.692 20.774C32.51 20.9992 32.278 21.1789 32.0145 21.2988Z" fill="black"/>
<path opacity="0.25" d="M12.5133 7.62322L32.0145 18.7032C32.2782 18.8231 32.5102 19.0028 32.6922 19.2281C32.8742 19.4534 33.0011 19.7181 33.0628 20.001C33.0333 19.6886 32.9204 19.3898 32.736 19.1358C32.5516 18.8818 32.3025 18.682 32.0145 18.5571L12.5133 7.47712C11.1157 6.68302 9.97241 7.34262 9.97241 8.94342V9.08952C9.97241 7.48882 11.1157 6.82922 12.5133 7.62322Z" fill="white"/>
</g>
<defs>
<linearGradient id="paint0_linear_398_2533" x1="21.7995" y1="8.70976" x2="5.01711" y2="25.4922" gradientUnits="userSpaceOnUse">
<stop stop-color="#00A0FF"/>
<stop offset="0.00657" stop-color="#00A1FF"/>
<stop offset="0.2601" stop-color="#00BEFF"/>
<stop offset="0.5122" stop-color="#00D2FF"/>
<stop offset="0.7604" stop-color="#00DFFF"/>
<stop offset="1" stop-color="#00E3FF"/>
</linearGradient>
<linearGradient id="paint1_linear_398_2533" x1="33.8342" y1="20.0015" x2="9.63727" y2="20.0015" gradientUnits="userSpaceOnUse">
<stop stop-color="#FFE000"/>
<stop offset="0.4087" stop-color="#FFBD00"/>
<stop offset="0.7754" stop-color="#FFA500"/>
<stop offset="1" stop-color="#FF9C00"/>
</linearGradient>
<linearGradient id="paint2_linear_398_2533" x1="24.8267" y1="22.2962" x2="2.06845" y2="45.0545" gradientUnits="userSpaceOnUse">
<stop stop-color="#FF3A44"/>
<stop offset="1" stop-color="#C31162"/>
</linearGradient>
<linearGradient id="paint3_linear_398_2533" x1="7.29711" y1="0.176237" x2="17.4596" y2="10.3388" gradientUnits="userSpaceOnUse">
<stop stop-color="#32A071"/>
<stop offset="0.0685" stop-color="#2DA771"/>
<stop offset="0.4762" stop-color="#15CF74"/>
<stop offset="0.8009" stop-color="#06E775"/>
<stop offset="1" stop-color="#00F076"/>
</linearGradient>
<clipPath id="clip0_398_2533">
<rect width="135" height="40.0002" fill="white"/>
</clipPath>
</defs>
</svg>
